<svg width="40" height="40" viewBox="0 0 40 40" fill="none" xmlns="http://www.w3.org/2000/svg">
<path d="M37.9969 7.44678H24.5714C23.9802 5.62728 22.2651 4.32056 20.2733 4.32056C20.246 4.32056 20.2194 4.32216 20.1926 4.32239C20.1656 4.32216 20.139 4.32056 20.1117 4.32056C18.0757 4.32056 16.3403 5.62797 15.698 7.44678H1.97993C1.57012 7.44678 1.23828 7.77885 1.23828 8.1882V28.3516C1.23828 28.7609 1.57012 29.0932 1.97993 29.0932H15.5342V33.7716H13.3801C12.9708 33.7716 12.6387 34.1036 12.6387 34.5132C12.6387 34.9226 12.9708 35.2546 13.3801 35.2546H26.2341C26.6434 35.2546 26.9755 34.9226 26.9755 34.5132C26.9755 34.1036 26.6434 33.7716 26.2341 33.7716H24.4607V29.0932H37.9969C38.4064 29.0932 38.7383 28.7609 38.7383 28.3516V8.1882C38.7383 7.77885 38.4064 7.44678 37.9969 7.44678ZM20.286 15.1605H19.9374C18.2555 15.0699 16.9148 13.6731 16.9148 11.9689V10.6684C17.4776 10.7817 17.9722 10.8393 18.4013 10.8393C18.8292 10.8393 19.1939 10.7828 19.4984 10.6707C19.7248 10.5872 19.9449 10.5026 20.1571 10.421C21.2241 10.0107 22.1449 9.65637 22.9138 9.83709C23.04 9.8669 23.1711 9.87607 23.3085 9.86483V11.9689C23.3085 13.6731 21.9679 15.0699 20.286 15.1605ZM23.2461 8.37144C23.2301 8.37648 23.2163 8.38084 23.2076 8.38291C22.0103 8.11895 20.851 8.56476 19.6248 9.0365C19.4168 9.11676 19.2037 9.1984 18.9857 9.2789C18.8038 9.34586 18.252 9.458 16.9157 9.15185C16.9208 7.33166 18.3816 5.84881 20.1926 5.8057C21.7039 5.84331 22.9581 6.93423 23.2461 8.37144ZM2.72159 8.92986H15.4336C15.4333 8.95325 15.432 8.97687 15.432 9.00049V11.9689C15.432 13.2016 15.9117 14.3239 16.694 15.1605H16.411C14.353 15.1605 12.4594 16.1934 11.3444 17.9228C10.1546 19.7691 9.5258 21.9058 9.5258 24.1021V27.6101H2.72159V8.92986ZM22.9778 33.7716H17.0175V29.0932H22.9778V33.7716ZM26.1389 27.6101V22.483C26.1389 22.0737 25.8071 21.7416 25.3975 21.7416C24.9879 21.7416 24.6561 22.0737 24.6561 22.483V27.6101H15.5675V22.483C15.5675 22.0737 15.2357 21.7416 14.8258 21.7416C14.4165 21.7416 14.0844 22.0737 14.0844 22.483V27.6101H11.0091V24.1021C11.0091 22.1913 11.5561 20.3324 12.5908 18.7264C13.4315 17.4222 14.8593 16.6438 16.4107 16.6438H19.37V19.5382C19.37 19.9475 19.7023 20.2798 20.1117 20.2798C20.5212 20.2798 20.8533 19.9475 20.8533 19.5382V16.6438H23.7149C25.2663 16.6438 26.6943 17.4222 27.5346 18.7264C28.5698 20.3324 29.1168 22.1913 29.1168 24.1021V27.6101H26.1389ZM37.2552 27.6101H30.5998V24.1021C30.5998 21.9058 29.971 19.7691 28.7812 17.9228C27.6665 16.1934 25.7727 15.1605 23.7149 15.1605H23.5298C24.3116 14.3239 24.7918 13.2016 24.7918 11.9689V9.00049C24.7918 8.97687 24.7902 8.95325 24.79 8.92986H37.2552V27.6101Z" fill="#202020"/>
<path d="M10.0765 11.3034C10.0765 10.8936 9.74466 10.5618 9.33508 10.5618H5.71603C5.30668 10.5618 4.97461 10.8936 4.97461 11.3034V15.0943C4.97461 15.5036 5.30668 15.8359 5.71603 15.8359C6.12584 15.8359 6.45768 15.5036 6.45768 15.0943V12.0448H9.33508C9.74466 12.0448 10.0765 11.7128 10.0765 11.3034Z" fill="#202020"/>
<path d="M11.8133 11.8861L11.8328 11.901C11.9669 12.0029 12.1245 12.0524 12.2811 12.0524C12.5047 12.0524 12.726 11.9513 12.8719 11.7598C13.1195 11.4339 13.0565 10.9686 12.7306 10.7204L12.7111 10.7058C12.385 10.4576 11.9199 10.5211 11.672 10.847C11.4239 11.1729 11.4872 11.638 11.8133 11.8861Z" fill="#202020"/>
<path d="M20.579 21.9003L20.5598 21.8854C20.2334 21.6377 19.7683 21.7008 19.5207 22.0266C19.2725 22.3525 19.3358 22.8178 19.6617 23.066L19.6814 23.0806C19.8156 23.1827 19.9731 23.232 20.1298 23.232C20.3534 23.232 20.5747 23.1313 20.7205 22.9394C20.9682 22.6135 20.9049 22.1484 20.579 21.9003Z" fill="#202020"/>
</svg>
