<?xml version="1.0" encoding="utf-8"?>
<!-- Generator: Adobe Illustrator 16.0.0, SVG Export Plug-In . SVG Version: 6.00 Build 0)  -->
<!DOCTYPE svg PUBLIC "-//W3C//DTD SVG 1.1//EN" "http://www.w3.org/Graphics/SVG/1.1/DTD/svg11.dtd">
<svg version="1.1" id="Layer_1" xmlns="http://www.w3.org/2000/svg" xmlns:xlink="http://www.w3.org/1999/xlink" x="0px" y="0px"
	 width="650.547px" height="650.547px" viewBox="0 0 650.547 650.547" enable-background="new 0 0 650.547 650.547"
	 xml:space="preserve">
<g>
	<path fill="#424243" d="M205.967,586.211l-4.631,3.346c-2.993-0.229-6.23,0.627-9.027,2.646c-3.752,2.709-5.763,6.82-5.691,10.732
		c2.614,0.26,5.013,2.285,5.854,5.244c0.364,1.283,0.382,2.568,0.121,3.748c3.806,1.658,8.7,1.145,12.697-1.748
		c2.797-2.02,4.629-4.82,5.353-7.734l4.633-3.348c3.558-2.572,4.358-7.535,1.787-11.094
		C214.493,584.445,209.527,583.643,205.967,586.211z"/>
	<path fill="#424243" d="M288.037,554.943c-1.684-2.576-1.643-5.715-0.127-7.857c-2.906-2.619-7.331-3.793-11.836-2.734
		c-3.357,0.793-6.125,2.674-7.912,5.088l-5.563,1.305c-4.272,1.008-6.922,5.287-5.918,9.557c1.005,4.275,5.279,6.922,9.555,5.922
		l5.563-1.309c2.676,1.361,5.992,1.813,9.352,1.023c4.804-1.123,8.398-4.484,9.639-8.447
		C289.729,556.916,288.768,556.061,288.037,554.943z"/>
	<path fill="#424243" d="M490.171,105.982C446.125,61.938,387.563,37.68,325.273,37.68c-62.289,0-120.851,24.258-164.896,68.303
		S92.074,208.59,92.074,270.879c0,31.627,6.195,62.141,18.39,90.873c-14.5,11.648-20.358,30.518-13.017,46.176l18.258,38.941
		c2.162,4.611,7.057,7.057,11.847,6.33c8.965,12.451,25.074,33.902,43.709,54.5c34.374,37.994,62.789,57.361,84.684,57.766
		c-1.041-1.268-1.815-2.779-2.214-4.471c-0.51-2.17-0.33-4.342,0.391-6.291c-35.771-2.855-91.297-70.406-118.066-107.885
		c1.343-2.904,1.446-6.359-0.019-9.482l-18.259-38.943c-3.494-7.449,1.962-17.686,11.912-22.354
		c9.952-4.662,21.313-2.313,24.806,5.141l18.259,38.939c1.813,3.865,5.545,6.215,9.526,6.445
		c12.577,27.934,29.313,71.111,35.23,106.51c4.163,3.297,8.159,6.174,11.971,8.611c-1.736-16.158-6.21-35.373-13.436-57.602
		c-7.998-24.604-17.726-47.664-24.142-62.002c2.401-3.213,3.002-7.609,1.18-11.496l-18.258-38.941
		c-6.109-13.027-19.771-20.457-34.685-20.457c-3.083,0-6.222,0.332-9.355,0.984c-10.784-25.715-16.257-53.008-16.257-81.293
		c0-116.205,94.539-210.744,210.744-210.744c116.206,0,210.746,94.539,210.746,210.744c0,101.607-72.281,186.648-168.125,206.412
		c-6.682-20.221-25.719-34.816-48.178-34.816c-28.024,0-50.746,22.717-50.746,50.746c0,28.021,22.722,50.742,50.746,50.742
		c25.792,0,47.073-19.248,50.303-44.158c45.24-8.744,86.847-30.725,120.151-64.029c44.045-44.047,68.302-102.605,68.302-164.896
		C558.473,208.59,534.216,150.027,490.171,105.982z"/>
	<path fill="#424243" d="M213.999,582.232c2.191,0.713,4.144,2.09,5.521,3.998c0.928,1.283,1.529,2.703,1.835,4.16
		c5.258-7.078,8.197-16.82,8.821-29.17c-3.398-1.711-6.894-3.723-10.484-6.033C219.831,566.201,218.157,575.563,213.999,582.232z"/>
</g>
<path fill="#9E0B0F" d="M211.164,152.057h44.474l72.312,112.371l72.312-112.371h44.474v237.645h-41.758V219.277l-75.027,112.031
	h-1.357l-74.35-111.354v169.746h-41.078V152.057z"/>
<g>
	<path fill="#424243" d="M244.608,582.262h-5.649v-2.902h14.457v2.902h-5.65v14.916h-3.157V582.262z"/>
	<path fill="#424243" d="M256.725,579.359h3.334l5.422,8.428l5.421-8.428h3.334v17.818h-3.13V584.4l-5.625,8.398h-0.103
		l-5.574-8.348v12.727h-3.079V579.359z"/>
</g>
<g>
	<circle fill="#FFFFFF" cx="319.715" cy="493.221" r="8.234"/>
	<path fill="#FFFFFF" d="M319.715,456.416c-20.293,0-36.803,16.512-36.803,36.805c0,20.295,16.51,36.803,36.803,36.803
		c20.294,0,36.804-16.508,36.804-36.803C356.519,472.928,340.009,456.416,319.715,456.416z M319.715,523.607
		c-16.756,0-30.388-13.629-30.388-30.387c0-16.756,13.632-30.389,30.388-30.389c16.757,0,30.389,13.633,30.389,30.389
		C350.104,509.979,336.472,523.607,319.715,523.607z"/>
</g>
</svg>
