<svg width="136" height="58" viewBox="0 0 136 58" fill="none" xmlns="http://www.w3.org/2000/svg">
<path d="M4.8269 19.5291H8.59386L14.7189 28.8814L20.8437 19.5291H24.6107V39.3075H21.0737V25.1236L14.7188 34.4477H14.6037L8.30631 25.1801V39.3076H4.8269V19.5291Z" fill="#F2473A"/>
<path d="M26.1882 31.9047V31.8481C26.1882 27.5817 29.2651 24.0781 33.6073 24.0781C38.4383 24.0781 40.8826 27.8077 40.8826 32.1024C40.8826 32.4133 40.8538 32.724 40.8249 33.0631H29.6677C30.0415 35.493 31.7957 36.8493 34.0387 36.8493C35.7353 36.8493 36.943 36.2276 38.1506 35.0692L40.1924 36.8493C38.7546 38.5445 36.7703 39.6464 33.9811 39.6464C29.5815 39.6464 26.1882 36.5102 26.1882 31.9047ZM37.4319 30.8028C37.2017 28.5989 35.879 26.8753 33.5784 26.8753C31.4506 26.8753 29.9554 28.4858 29.639 30.8028H37.4319Z" fill="#F2473A"/>
<path d="M76.5415 24.3891H80.0209V26.706C80.9988 25.2932 82.4077 24.0784 84.7658 24.0784C88.1877 24.0784 90.1719 26.3387 90.1719 29.8141V39.3077H86.6926V30.8312C86.6926 28.5143 85.5135 27.1862 83.443 27.1862C81.43 27.1862 80.021 28.5708 80.021 30.8876V39.3076H76.5416V24.3891H76.5415Z" fill="#424243"/>
<path d="M93.7276 35.1823V27.3275H91.801V24.389H93.7276V20.292H97.207V24.389H101.29V27.3275H97.207V34.6455C97.207 35.9735 97.8972 36.5103 99.0761 36.5103C99.8524 36.5103 100.543 36.3407 101.233 36.0017V38.7989C100.37 39.2793 99.3924 39.5618 98.0984 39.5618C95.5391 39.5619 93.7276 38.4599 93.7276 35.1823Z" fill="#424243"/>
<path d="M102.863 24.389H106.343V28.0397C107.292 25.8075 109.046 24.2818 111.72 24.3948V28.0114H111.519C108.471 28.0114 106.343 29.6726 106.343 33.6282V39.3074H102.863V24.389Z" fill="#424243"/>
<path d="M74.9232 22.6372V19.5291H59.855V37.8336C60.895 37.6539 61.9812 37.6709 63.0651 37.9172C64.1966 38.1742 65.2189 38.6565 66.0987 39.3075H74.9232V36.1994H63.392V30.8874H74.9232V27.7794H63.392V22.637H74.9232V22.6372Z" fill="#424243"/>
<path d="M130.723 8.41188L130.729 8.40991L130.707 8.41555L130.723 8.41188Z" fill="#272525"/>
<path d="M128.841 7.17017L128.842 7.17136L128.842 7.17168L128.841 7.17017Z" fill="#424243"/>
<path d="M128.876 7.27406L128.873 7.25607L128.871 7.25017L128.867 7.23764L128.866 7.23558L128.859 7.21133L128.851 7.19208L128.85 7.19074L128.848 7.18546L128.843 7.17365L128.842 7.17168C128.822 7.13275 128.797 7.09614 128.765 7.06169L128.758 7.05265L128.752 7.04719L128.742 7.03699L128.73 7.02678L128.716 7.01318L128.696 6.99743C128.691 6.99251 128.686 6.9874 128.68 6.98257C128.588 6.90229 128.477 6.8468 128.355 6.8145C128.328 6.80304 128.301 6.79159 128.271 6.78022L128.257 6.77467C128.232 6.76536 128.206 6.75579 128.179 6.74639L128.157 6.73833C128.13 6.72903 128.103 6.71981 128.07 6.70862C128.05 6.70173 128.032 6.69591 128.015 6.68992C127.981 6.67757 127.938 6.66083 127.892 6.64078L127.871 6.6313L127.866 6.62879C127.843 6.61787 127.818 6.60516 127.788 6.58959C127.765 6.57778 127.746 6.56426 127.729 6.55003L127.721 6.5418L127.714 6.53518C127.703 6.52336 127.691 6.51146 127.681 6.49902L127.67 6.48515L127.656 6.46483C127.641 6.44058 127.626 6.41606 127.612 6.39207L127.608 6.38375L127.608 6.38321L127.608 6.38393L127.605 6.37784L127.604 6.37623L127.6 6.36782L127.595 6.35994L127.586 6.34329L127.581 6.33479L127.576 6.32692L127.571 6.31841L127.565 6.31045L127.561 6.30222L127.559 6.30007L127.558 6.2989L127.554 6.29407L127.549 6.28611L127.543 6.27796L127.536 6.27L127.529 6.26185L127.523 6.25433L127.516 6.24637L127.508 6.23894L127.501 6.23205L127.501 6.23178L127.5 6.23124L127.495 6.22605L127.472 6.20511L127.471 6.20368L127.45 6.18345L127.428 6.16358L127.405 6.143L127.383 6.12224L127.359 6.10121L127.334 6.07991L127.309 6.05905L127.282 6.0382L127.255 6.0169L127.211 5.97788C127.002 5.79647 126.707 5.74009 126.442 5.80264L126.427 5.8047H126.427L126.426 5.80506L126.407 5.80792L126.392 5.81141L126.384 5.81383L126.376 5.8158L126.368 5.81857V5.81866L126.363 5.82001L126.352 5.82403L126.345 5.82636L126.338 5.82896L126.336 5.82985L126.32 5.83647L126.308 5.84184L126.302 5.84444L126.286 5.85249C126.263 5.86261 126.239 5.87469 126.214 5.88892C126.213 5.88946 126.212 5.89008 126.211 5.89071C126.175 5.91085 126.139 5.93707 126.104 5.9666C126.099 5.9709 126.093 5.97358 126.088 5.97788C126.084 5.98173 126.081 5.98629 126.077 5.99005C126.062 6.0041 126.048 6.01967 126.034 6.03587C126.009 6.06263 125.986 6.08975 125.967 6.11839L125.962 6.12591L125.958 6.13155L125.956 6.1345L125.948 6.14801L125.94 6.16054L125.938 6.16609L125.937 6.16878C125.795 6.42545 125.844 6.74165 126.088 6.95456L126.297 7.13642L126.298 7.13543L126.299 7.13561L126.299 7.1357L126.316 7.15136L126.329 7.16443L126.338 7.17204L126.345 7.17911L126.363 7.19244L126.371 7.1988L126.38 7.20497L126.389 7.21043L126.398 7.21616L126.402 7.21822L126.408 7.22189L126.412 7.22439L126.416 7.22708L126.425 7.23218L126.434 7.23728L126.443 7.2422L126.449 7.2448L126.451 7.24596L126.458 7.24999L126.461 7.2516L126.467 7.25428L126.473 7.25724L126.479 7.26055L126.497 7.26923L126.506 7.27353C126.556 7.29814 126.596 7.31935 126.631 7.34441L126.632 7.34486C126.648 7.35649 126.662 7.36938 126.676 7.38334C126.692 7.4007 126.708 7.41797 126.72 7.43927V7.43981C126.735 7.46406 126.745 7.48402 126.756 7.50317L126.759 7.50872L126.763 7.5166L126.78 7.55204L126.791 7.57379L126.793 7.58068L126.805 7.60869L126.813 7.63026L126.821 7.65093L126.823 7.65595L126.825 7.66176L126.836 7.69228L126.845 7.71913L126.847 7.72468L126.849 7.73032L126.851 7.73623L126.854 7.74929L126.867 7.78026L126.87 7.78733L126.872 7.79216L126.875 7.8003L126.875 7.80102L126.876 7.80433C126.914 7.90645 126.952 7.99192 126.992 8.06611C127.024 8.13995 127.071 8.20841 127.133 8.26909C127.137 8.27294 127.141 8.27661 127.144 8.28019C127.151 8.28699 127.158 8.29415 127.165 8.30068C127.171 8.30578 127.177 8.3099 127.183 8.31446C127.193 8.32279 127.203 8.3304 127.213 8.33773C127.475 8.52979 127.857 8.54957 128.201 8.41219C128.203 8.25083 128.258 8.08777 128.375 7.94609C128.507 7.78554 128.694 7.68315 128.897 7.63715C128.921 7.51248 128.915 7.38835 128.876 7.27406Z" fill="#424243"/>
<path d="M114.442 7.8894L114.443 7.886L114.443 7.8852L114.447 7.87732L114.449 7.87231L114.451 7.86524L114.464 7.83418L114.467 7.82112L114.469 7.81521L114.471 7.80957L114.473 7.80393L114.482 7.77708L114.493 7.74674L114.495 7.74084L114.497 7.73574L114.505 7.71506L114.513 7.69349L114.525 7.66548L114.528 7.65859L114.538 7.63684L114.555 7.6014L114.559 7.59361L114.562 7.58798C114.572 7.56882 114.584 7.54878 114.598 7.52461L114.598 7.52425C114.61 7.50277 114.626 7.4855 114.642 7.46823C114.656 7.45427 114.67 7.44129 114.686 7.42965L114.687 7.42921C114.722 7.40424 114.762 7.38303 114.812 7.35833L114.821 7.35412L114.839 7.34535L114.845 7.34204L114.851 7.33908L114.857 7.33649L114.86 7.33479L114.867 7.33085L114.869 7.3296L114.875 7.327L114.884 7.32217L114.893 7.31707L114.902 7.31197L114.906 7.30919L114.91 7.30678L114.916 7.30311L114.92 7.30105L114.929 7.29523L114.938 7.28977L114.946 7.2836L114.955 7.27733L114.972 7.264L114.98 7.25684L114.988 7.24932L115.002 7.23625L115.019 7.22059L115.019 7.22041L115.02 7.22032L115.021 7.22131L115.23 7.03936C115.475 6.82653 115.523 6.51034 115.381 6.25357L115.38 6.25107L115.378 6.24543L115.37 6.2329L115.362 6.21938L115.36 6.21634L115.356 6.21079L115.351 6.2031C115.331 6.17455 115.309 6.14734 115.284 6.12058C115.27 6.10447 115.256 6.0889 115.241 6.07485C115.237 6.071 115.234 6.06652 115.23 6.06268C115.225 6.05829 115.219 6.05569 115.214 6.05131C115.179 6.02186 115.143 5.99555 115.107 5.9755C115.106 5.97479 115.105 5.97416 115.104 5.97363C115.079 5.9594 115.055 5.9474 115.032 5.93729L115.016 5.92915L115.01 5.92655L114.998 5.92118L114.982 5.91465L114.98 5.91375L114.973 5.91107L114.966 5.90874L114.955 5.9048L114.951 5.90337V5.90346L114.942 5.90069L114.934 5.89872L114.926 5.8963L114.911 5.89281L114.892 5.88995L114.891 5.88959H114.891L114.876 5.88762C114.61 5.82506 114.316 5.88135 114.107 6.06285L114.063 6.10179L114.036 6.12309L114.01 6.14394L113.984 6.16488L113.959 6.18618L113.935 6.20721L113.913 6.22798L113.89 6.24856L113.869 6.26843L113.847 6.28857L113.846 6.29L113.823 6.31094L113.818 6.31622L113.817 6.31667L113.817 6.31712L113.81 6.32392L113.802 6.33117L113.795 6.33922L113.788 6.34683L113.782 6.35488L113.775 6.36294L113.769 6.37108L113.764 6.37896L113.76 6.38379L113.759 6.38513L113.757 6.3871L113.752 6.39543L113.747 6.40339L113.742 6.4118L113.737 6.41977L113.732 6.42827L113.723 6.44483L113.718 6.45288L113.714 6.46112L113.713 6.46273L113.71 6.4689L113.71 6.46819L113.71 6.46881L113.706 6.47696C113.693 6.50094 113.678 6.52547 113.662 6.54972L113.648 6.57003L113.637 6.58391C113.627 6.59644 113.615 6.60834 113.604 6.62024L113.598 6.62678L113.589 6.63492C113.572 6.64915 113.553 6.66275 113.53 6.67448C113.5 6.69014 113.475 6.70276 113.452 6.71377L113.447 6.71627L113.426 6.72576C113.38 6.74572 113.337 6.76263 113.303 6.77489C113.286 6.78089 113.269 6.78671 113.248 6.7936C113.215 6.8047 113.188 6.814 113.162 6.82331L113.139 6.83137C113.112 6.84076 113.087 6.85034 113.061 6.85965L113.047 6.8652C113.017 6.87647 112.99 6.88802 112.963 6.89938C112.841 6.93169 112.73 6.98718 112.638 7.06746C112.632 7.07238 112.628 7.07748 112.623 7.08232L112.602 7.09816L112.588 7.11167L112.576 7.12187L112.566 7.13208L112.561 7.13754L112.553 7.14666C112.521 7.18121 112.496 7.2179 112.476 7.25693L112.477 7.25523L112.476 7.25863L112.47 7.27053L112.468 7.27572L112.467 7.27706L112.459 7.29621L112.452 7.32047L112.451 7.32262L112.447 7.33515L112.446 7.34096L112.442 7.35895C112.403 7.47315 112.397 7.59746 112.421 7.7224C112.623 7.7684 112.811 7.87079 112.943 8.03117C113.06 8.17284 113.115 8.3359 113.117 8.49727C113.46 8.63473 113.843 8.61496 114.104 8.42289C114.115 8.41556 114.125 8.40786 114.135 8.39963C114.141 8.39488 114.147 8.39085 114.153 8.38584C114.16 8.37931 114.166 8.37215 114.173 8.36535C114.177 8.36177 114.181 8.35819 114.185 8.35434C114.246 8.29366 114.293 8.22519 114.326 8.15127C114.366 8.07681 114.404 7.99134 114.442 7.8894Z" fill="#424243"/>
<path d="M123.039 5.78695C123.951 5.78695 124.931 6.06072 125.67 6.51895C125.654 6.32456 125.722 6.11907 125.877 5.94706C126.023 5.78632 126.22 5.68609 126.425 5.64689C125.474 5.04949 124.209 4.69312 123.04 4.69312C122.247 4.69312 121.518 4.84875 120.871 5.15591C120.847 5.16745 120.824 5.1807 120.8 5.19269C121.187 5.40632 121.528 5.67025 121.835 5.96809C122.2 5.84781 122.603 5.78695 123.039 5.78695Z" fill="#424243"/>
<path d="M119.4 6.27563C118.881 6.84493 118.461 7.51562 118.082 8.18837C117.734 8.80518 117.443 9.41368 117.216 9.99702C116.126 12.8 115.397 15.436 114.986 18.0558C114.756 19.5207 114.611 21.0112 114.47 22.4526L114.468 22.4725C114.412 23.0487 114.353 23.6439 114.291 24.2284L114.268 24.4442L115.521 24.5437L115.544 24.3288C115.606 23.7603 115.662 23.1826 115.717 22.6228L115.723 22.5641C115.862 21.134 116.006 19.6554 116.234 18.2022C116.633 15.6523 117.345 13.0819 118.409 10.3444C118.62 9.80531 118.89 9.24077 119.214 8.66602C119.572 8.03094 119.965 7.40187 120.437 6.89916C120.218 6.7003 119.983 6.53187 119.726 6.40773C119.622 6.35744 119.513 6.31358 119.4 6.27563Z" fill="#424243"/>
<path d="M126.74 22.6149C126.609 21.1671 126.474 19.6701 126.253 18.1979C125.861 15.5742 125.149 12.9344 124.08 10.1273C123.857 9.54315 123.57 8.93331 123.227 8.31435C122.552 7.0996 121.75 5.88951 120.46 5.26724C119.807 4.95239 119.068 4.79272 118.263 4.79272C117.113 4.79272 115.868 5.13738 114.925 5.71508C115.126 5.75643 115.317 5.85497 115.46 6.01212C115.619 6.1879 115.685 6.39875 115.666 6.59708C116.398 6.15219 117.365 5.88665 118.264 5.88665C118.857 5.88665 119.39 5.99843 119.846 6.21859C120.831 6.69409 121.508 7.7336 122.092 8.78627C122.411 9.35977 122.677 9.92584 122.884 10.4685C123.929 13.2104 124.622 15.7845 125.005 18.3377C125.221 19.7899 125.355 21.2703 125.485 22.7024L125.493 22.7974C125.543 23.3463 125.594 23.9116 125.65 24.4676L125.671 24.6827L126.926 24.5898L126.904 24.3739C126.846 23.7891 126.792 23.1934 126.74 22.6149Z" fill="#424243"/>
<path d="M125.355 9.47825H124.874V9.23535H126.105V9.47825H125.624V10.7267H125.355V9.47825H125.355Z" fill="#424243"/>
<path d="M126.387 9.23535H126.671L127.133 9.94059L127.595 9.23535H127.879V10.7267H127.612V9.65724L127.133 10.3602H127.124L126.649 9.66145V10.7266H126.387V9.23535H126.387Z" fill="#424243"/>
<path d="M121.182 36.5493C120.199 36.5504 119.397 37.1987 119.393 37.9943C119.392 38.2567 119.247 44.4443 109.31 46.3678C107.463 46.7251 105.715 46.8989 103.968 46.8989C99.1026 46.8989 95.1905 45.5278 91.0449 44.0747C87.0622 42.6793 82.9442 41.2362 78.0404 41.2362C74.4937 41.2362 70.9171 41.9879 67.106 43.5336C66.6416 43.7219 66.3028 44.0644 66.1763 44.4732C66.0656 44.831 66.1256 45.2057 66.3448 45.5277C66.658 45.9886 66.6382 46.4808 67.2928 46.4808C67.5711 46.4808 68.4709 46.2213 68.7197 46.1202C72.0308 44.7774 75.0824 44.1246 78.0493 44.1246C82.179 44.1246 85.7916 45.3908 89.6182 46.732C93.7 48.1624 98.3261 49.7836 104.033 49.7836C106.033 49.7833 108.091 49.581 110.15 49.1826C116.742 47.9069 119.881 44.9706 121.353 42.7322C122.936 40.3248 122.975 38.2192 122.974 37.9857C122.968 37.1936 122.165 36.5493 121.182 36.5493Z" fill="#424243"/>
<path d="M67.8153 47.791C68.7073 44.001 66.4209 40.2325 62.7185 39.3917C59.0161 38.5503 55.2777 40.9509 54.3865 44.7399C53.4945 48.5303 55.7813 52.2979 59.4833 53.1394C63.186 53.9799 66.9235 51.5814 67.8153 47.791Z" fill="#424243"/>
<path d="M62.2678 41.3061C59.575 40.6941 56.861 42.4215 56.2175 45.1559C55.5739 47.8908 57.2412 50.613 59.9341 51.2248C62.6265 51.8366 65.3406 50.1098 65.9839 47.3745C66.6275 44.6399 64.9603 41.9179 62.2678 41.3061ZM65.0074 47.1524C64.4965 49.3248 62.3281 50.6932 60.1744 50.2039C58.0203 49.7144 56.6834 47.5496 57.1944 45.3779C57.705 43.2063 59.8734 41.837 62.0277 42.3267C64.1818 42.816 65.5184 44.9817 65.0074 47.1524Z" fill="white"/>
<path d="M61.2375 45.4558C60.7504 45.3445 60.3123 45.6889 60.2237 46.0652C60.1344 46.4426 60.3749 46.9415 60.8622 47.0519C61.3493 47.1619 61.7883 46.8186 61.8776 46.4406C61.9651 46.0636 61.7242 45.5662 61.2375 45.4558Z" fill="white"/>
<path d="M120.581 39.7966C116.486 39.7966 113.154 36.5231 113.154 32.4993V24.3889H116.798V32.4993C116.798 34.549 118.495 36.2167 120.581 36.2167C122.667 36.2167 124.365 34.549 124.365 32.4993V24.3889H128.008V32.4993C128.008 36.5231 124.676 39.7966 120.581 39.7966Z" fill="#424243"/>
<path d="M54.7655 39.3075H56.356C56.9411 38.8877 57.5761 38.5426 58.245 38.2821V19.5291H54.7655V26.7058C53.6729 25.3212 52.0914 24.0782 49.5896 24.0782C45.9664 24.0782 42.5444 26.8753 42.5444 31.82V31.8765C42.5444 36.8212 46.0239 39.6146 49.5896 39.6183C53.1977 39.6222 53.8652 38.7445 54.7655 38.1549V39.3075ZM50.4236 36.6516C48.0655 36.6516 46.0526 34.7584 46.0526 31.8765V31.82C46.0526 28.8532 48.0367 27.0449 50.4236 27.0449C52.7526 27.0449 54.8232 28.938 54.8232 31.82V31.8765C54.8232 34.7302 52.7526 36.6516 50.4236 36.6516Z" fill="#F2473A"/>
</svg>
