<svg width="120" height="53" viewBox="0 0 120 53" fill="none" xmlns="http://www.w3.org/2000/svg">
<path d="M4.04346 17.9136H7.39186L12.8363 26.2985L18.2806 17.9136H21.6291V35.646H18.4851V22.9294L12.8363 31.2889H12.7339L7.13626 22.98V35.646H4.04346V17.9136Z" fill="white"/>
<path d="M23.0312 29.0091V28.9584C23.0312 25.1333 25.7663 21.9922 29.626 21.9922C33.9202 21.9922 36.0929 25.336 36.0929 29.1864C36.0929 29.4651 36.0673 29.7437 36.0417 30.0477H26.1241C26.4564 32.2262 28.0157 33.4422 30.0094 33.4422C31.5175 33.4422 32.5911 32.8849 33.6645 31.8462L35.4794 33.4422C34.2014 34.9621 32.4376 35.95 29.9582 35.95C26.0475 35.95 23.0312 33.1382 23.0312 29.0091ZM33.0256 28.0212C32.821 26.0453 31.6453 24.5 29.6003 24.5C27.7089 24.5 26.3798 25.9439 26.0986 28.0212H33.0256Z" fill="white"/>
<path d="M67.7896 22.2708H70.8823V24.348C71.7515 23.0813 73.004 21.9922 75.1001 21.9922C78.1417 21.9922 79.9055 24.0187 79.9055 27.1345V35.646H76.8127V28.0465C76.8127 25.9692 75.7646 24.7786 73.9242 24.7786C72.1349 24.7786 70.8824 26.0199 70.8824 28.097V35.646H67.7896V22.2708H67.7896Z" fill="white"/>
<path d="M83.0663 31.9476V24.9053H81.3538V22.2708H83.0663V18.5977H86.159V22.2708H89.7886V24.9053H86.159V31.4663C86.159 32.6569 86.7726 33.1382 87.8205 33.1382C88.5105 33.1382 89.124 32.9862 89.7375 32.6822V35.1901C88.9707 35.6207 88.1017 35.874 86.9514 35.874C84.6765 35.8741 83.0663 34.8861 83.0663 31.9476Z" fill="white"/>
<path d="M91.1868 22.271H94.2796V25.5442C95.1233 23.5428 96.6825 22.175 99.0595 22.2763V25.5187H98.8806C96.1712 25.5187 94.2796 27.0081 94.2796 30.5545V35.6462H91.1868V22.271Z" fill="white"/>
<path d="M66.3512 20.7002V17.9136H52.9573V34.3246C53.8817 34.1635 54.8473 34.1787 55.8108 34.3995C56.8165 34.6299 57.7252 35.0623 58.5072 35.646H66.3512V32.8594H56.1013V28.0969H66.3512V25.3105H56.1013V20.7H66.3512V20.7002Z" fill="white"/>
<path d="M115.951 7.94659L115.957 7.94482L115.937 7.94988L115.951 7.94659Z" fill="#272525"/>
<path d="M114.278 6.83301L114.279 6.8342L114.279 6.83452L114.278 6.83301Z" fill="white"/>
<path d="M114.31 6.92619L114.306 6.91006L114.305 6.90477L114.301 6.89353L114.301 6.89169L114.294 6.86994L114.287 6.85269L114.286 6.85149L114.284 6.84675L114.279 6.83616L114.279 6.8344C114.261 6.79949 114.239 6.76668 114.211 6.73578L114.204 6.72768L114.199 6.72279L114.19 6.71364L114.18 6.70449L114.167 6.69229L114.149 6.67817C114.144 6.67376 114.14 6.66919 114.135 6.66485C114.053 6.59288 113.954 6.54313 113.847 6.51417C113.822 6.50389 113.798 6.49362 113.772 6.48343L113.759 6.47846C113.736 6.47011 113.713 6.46153 113.69 6.4531L113.67 6.44588C113.646 6.43754 113.622 6.42927 113.593 6.41924C113.575 6.41306 113.559 6.40785 113.544 6.40247C113.514 6.3914 113.475 6.3764 113.435 6.35842L113.416 6.34992L113.411 6.34767C113.391 6.33788 113.368 6.32649 113.342 6.31253C113.322 6.30193 113.305 6.28982 113.29 6.27706L113.282 6.26968L113.276 6.26374C113.266 6.25315 113.256 6.24248 113.247 6.23132L113.238 6.21889L113.225 6.20067C113.211 6.17893 113.198 6.15694 113.186 6.13544L113.182 6.12798L113.182 6.1275L113.183 6.12814L113.18 6.12268L113.179 6.12124L113.175 6.11369L113.17 6.10663L113.163 6.09171L113.158 6.08409L113.154 6.07703L113.149 6.0694L113.144 6.06226L113.14 6.05488L113.138 6.05295L113.137 6.05191L113.134 6.04758L113.129 6.04044L113.124 6.03313L113.118 6.02599L113.112 6.01869L113.106 6.01195L113.1 6.00481L113.093 5.99815L113.087 5.99197L113.087 5.99173L113.086 5.99125L113.081 5.9866L113.061 5.96782L113.06 5.96654L113.041 5.9484L113.022 5.93059L113.002 5.91213L112.982 5.89352L112.961 5.87466L112.939 5.85557L112.916 5.83687L112.893 5.81818L112.869 5.79908L112.829 5.76409C112.644 5.60145 112.382 5.5509 112.146 5.60699L112.133 5.60883H112.132L112.131 5.60915L112.115 5.61172L112.101 5.61485L112.094 5.61702L112.087 5.61878L112.079 5.62127V5.62135L112.075 5.62255L112.066 5.62616L112.06 5.62825L112.053 5.63058L112.052 5.63138L112.037 5.63732L112.026 5.64213L112.021 5.64446L112.007 5.65168C111.987 5.66075 111.965 5.67158 111.943 5.68434C111.942 5.68482 111.941 5.68538 111.94 5.68594C111.909 5.704 111.877 5.72751 111.845 5.75398C111.841 5.75784 111.836 5.76024 111.831 5.76409C111.827 5.76754 111.825 5.77164 111.821 5.77501C111.808 5.7876 111.795 5.80157 111.783 5.81609C111.761 5.84008 111.741 5.86439 111.723 5.89007L111.719 5.89681L111.715 5.90186L111.713 5.90451L111.706 5.91663L111.7 5.92786L111.698 5.93284L111.696 5.93524C111.571 6.16537 111.614 6.44885 111.831 6.63974L112.017 6.80278L112.018 6.8019L112.018 6.80206L112.018 6.80214L112.033 6.81618L112.046 6.8279L112.053 6.83472L112.06 6.84106L112.075 6.85301L112.083 6.85871L112.091 6.86425L112.099 6.86914L112.107 6.87428L112.11 6.87612L112.115 6.87941L112.119 6.88166L112.123 6.88407L112.13 6.88864L112.139 6.89321L112.147 6.89763L112.152 6.89995L112.153 6.901L112.16 6.90461L112.163 6.90605L112.168 6.90846L112.174 6.91111L112.179 6.91407L112.195 6.92186L112.202 6.92571C112.247 6.94777 112.283 6.96679 112.314 6.98926L112.314 6.98966C112.329 7.00009 112.342 7.01164 112.354 7.02416C112.368 7.03973 112.382 7.05521 112.393 7.07431V7.07479C112.406 7.09654 112.415 7.11443 112.424 7.1316L112.427 7.13658L112.431 7.14364L112.446 7.17541L112.455 7.19491L112.458 7.20109L112.468 7.2262L112.476 7.24554L112.483 7.26408L112.484 7.26857L112.486 7.27378L112.496 7.30115L112.504 7.32522L112.505 7.33019L112.507 7.33525L112.51 7.34054L112.512 7.35226L112.524 7.38002L112.526 7.38636L112.528 7.39069L112.53 7.39799L112.53 7.39864L112.531 7.4016C112.565 7.49316 112.599 7.56978 112.634 7.6363C112.663 7.7025 112.705 7.76388 112.76 7.81828C112.763 7.82173 112.767 7.82502 112.77 7.82823C112.776 7.83433 112.782 7.84075 112.789 7.84661C112.793 7.85118 112.799 7.85487 112.804 7.85896C112.813 7.86643 112.822 7.87325 112.831 7.87983C113.064 8.05202 113.404 8.06975 113.709 7.94658C113.711 7.80191 113.759 7.65572 113.864 7.5287C113.981 7.38475 114.148 7.29296 114.328 7.25172C114.349 7.13995 114.344 7.02866 114.31 6.92619Z" fill="white"/>
<path d="M101.479 7.47787L101.48 7.47483L101.48 7.4741L101.483 7.46704L101.485 7.46255L101.487 7.45621L101.499 7.42837L101.501 7.41665L101.503 7.41136L101.505 7.4063L101.506 7.40125L101.514 7.37717L101.524 7.34997L101.526 7.34468L101.528 7.3401L101.535 7.32157L101.543 7.30223L101.552 7.27712L101.555 7.27094L101.564 7.25144L101.58 7.21967L101.583 7.21268L101.586 7.20763C101.595 7.19046 101.605 7.17248 101.617 7.15082L101.618 7.1505C101.629 7.13124 101.643 7.11576 101.657 7.10027C101.669 7.08775 101.682 7.07612 101.696 7.06569L101.697 7.06529C101.728 7.0429 101.764 7.02388 101.808 7.00174L101.816 6.99797L101.832 6.9901L101.837 6.98713L101.842 6.98449L101.848 6.98216L101.85 6.98063L101.857 6.9771L101.859 6.97598L101.864 6.97365L101.872 6.96932L101.88 6.96475L101.888 6.96017L101.892 6.95769L101.895 6.95552L101.901 6.95223L101.904 6.95038L101.912 6.94517L101.92 6.94027L101.927 6.93474L101.935 6.92912L101.95 6.91717L101.957 6.91075L101.965 6.90401L101.977 6.89229L101.992 6.87825L101.992 6.87809L101.992 6.87801L101.993 6.87889L102.18 6.71577C102.397 6.52496 102.44 6.24147 102.314 6.01127L102.313 6.00902L102.311 6.00397L102.304 5.99273L102.297 5.98062L102.295 5.97789L102.292 5.97291L102.287 5.96601C102.27 5.94042 102.25 5.91602 102.228 5.89203C102.215 5.87759 102.203 5.86363 102.189 5.85103C102.186 5.84758 102.183 5.84357 102.18 5.84012C102.175 5.83619 102.17 5.83386 102.165 5.82993C102.134 5.80353 102.102 5.77994 102.07 5.76197C102.069 5.76132 102.069 5.76076 102.068 5.76028C102.045 5.74752 102.024 5.73677 102.003 5.7277L101.989 5.7204L101.984 5.71808L101.973 5.71326L101.959 5.7074L101.957 5.7066L101.951 5.70419L101.945 5.70211L101.935 5.69858L101.931 5.69729V5.69737L101.923 5.69489L101.917 5.69312L101.909 5.69095L101.896 5.68783L101.879 5.68526L101.878 5.68494H101.878L101.865 5.68317C101.629 5.62708 101.367 5.67755 101.181 5.84028L101.142 5.87518L101.118 5.89428L101.095 5.91298L101.072 5.93175L101.05 5.95085L101.029 5.9697L101.008 5.98832L100.988 6.00677L100.969 6.02459L100.951 6.04264L100.949 6.04393L100.929 6.0627L100.924 6.06744L100.924 6.06784L100.923 6.06824L100.917 6.07434L100.91 6.08084L100.904 6.08806L100.898 6.09488L100.892 6.1021L100.886 6.10932L100.881 6.11662L100.876 6.12368L100.873 6.12802L100.872 6.12922L100.871 6.13098L100.866 6.13845L100.861 6.14559L100.857 6.15313L100.852 6.16027L100.848 6.16789L100.84 6.18274L100.836 6.18996L100.832 6.19734L100.831 6.19879L100.828 6.20432L100.829 6.20368L100.828 6.20424L100.825 6.21154C100.813 6.23305 100.8 6.25503 100.786 6.27678L100.773 6.29499L100.763 6.30743C100.755 6.31866 100.744 6.32934 100.734 6.34001L100.728 6.34586L100.721 6.35317C100.706 6.36592 100.689 6.37812 100.669 6.38863C100.642 6.40267 100.62 6.41399 100.599 6.42386L100.595 6.4261L100.576 6.43461C100.535 6.4525 100.497 6.46767 100.467 6.47866C100.451 6.48404 100.436 6.48925 100.418 6.49543C100.389 6.50538 100.365 6.51372 100.341 6.52207L100.321 6.52929C100.297 6.53772 100.274 6.5463 100.251 6.55465L100.239 6.55962C100.212 6.56973 100.189 6.58008 100.164 6.59027C100.056 6.61924 99.9572 6.66899 99.8754 6.74096C99.8703 6.74537 99.8664 6.74995 99.8618 6.75428L99.8439 6.76848L99.8311 6.7806L99.8205 6.78975L99.8117 6.79889L99.8067 6.80379L99.7998 6.81197C99.7714 6.84294 99.749 6.87584 99.7319 6.91083L99.7326 6.9093L99.7311 6.91235L99.7263 6.92302L99.724 6.92768L99.7237 6.92888L99.7165 6.94605L99.7102 6.9678L99.7094 6.96972L99.7058 6.98095L99.7046 6.98617L99.701 7.0023C99.667 7.10468 99.6612 7.21613 99.6822 7.32815C99.8624 7.36939 100.029 7.46118 100.147 7.60497C100.25 7.73199 100.3 7.87819 100.301 8.02286C100.606 8.1461 100.947 8.12837 101.179 7.95618C101.188 7.9496 101.197 7.9427 101.206 7.93532C101.211 7.93106 101.217 7.92745 101.222 7.92296C101.228 7.9171 101.234 7.91068 101.24 7.90458C101.244 7.90138 101.247 7.89817 101.251 7.89472C101.305 7.84031 101.347 7.77893 101.376 7.71265C101.412 7.64589 101.445 7.56927 101.479 7.47787Z" fill="white"/>
<path d="M109.12 5.59298C109.931 5.59298 110.803 5.83843 111.459 6.24926C111.445 6.07498 111.505 5.89075 111.643 5.73653C111.773 5.59242 111.948 5.50256 112.131 5.46741C111.285 4.93182 110.161 4.6123 109.121 4.6123C108.417 4.6123 107.768 4.75184 107.194 5.02722C107.172 5.03757 107.152 5.04945 107.131 5.0602C107.474 5.25173 107.777 5.48835 108.051 5.75539C108.375 5.64755 108.733 5.59298 109.12 5.59298Z" fill="white"/>
<path d="M105.886 6.03125C105.425 6.54165 105.052 7.14296 104.715 7.74611C104.405 8.29912 104.146 8.84467 103.945 9.36766C102.976 11.8807 102.328 14.244 101.963 16.5928C101.758 17.9061 101.629 19.2424 101.504 20.5347L101.502 20.5526C101.452 21.0691 101.4 21.6028 101.345 22.1268L101.325 22.3203L102.438 22.4095L102.459 22.2169C102.513 21.7071 102.564 21.1892 102.612 20.6874L102.617 20.6347C102.741 19.3526 102.869 18.0269 103.072 16.724C103.427 14.4379 104.06 12.1334 105.006 9.67915C105.192 9.19579 105.433 8.68964 105.721 8.17435C106.039 7.60497 106.388 7.04098 106.808 6.59027C106.613 6.41198 106.404 6.26097 106.176 6.14968C106.083 6.10459 105.987 6.06527 105.886 6.03125Z" fill="white"/>
<path d="M112.41 20.6802C112.294 19.3822 112.174 18.04 111.978 16.7201C111.629 14.3678 110.997 12.0011 110.046 9.48438C109.848 8.96066 109.593 8.41391 109.288 7.85898C108.688 6.7699 107.975 5.68499 106.828 5.12709C106.248 4.84481 105.591 4.70166 104.876 4.70166C103.853 4.70166 102.747 5.01066 101.909 5.5286C102.087 5.56567 102.257 5.65402 102.384 5.79492C102.525 5.9525 102.584 6.14155 102.567 6.31936C103.218 5.92049 104.077 5.68242 104.876 5.68242C105.404 5.68242 105.877 5.78264 106.283 5.98003C107.158 6.40634 107.76 7.33831 108.279 8.28208C108.562 8.79625 108.799 9.30376 108.983 9.79033C109.912 12.2485 110.528 14.5564 110.868 16.8454C111.061 18.1474 111.18 19.4747 111.295 20.7586L111.302 20.8438C111.347 21.3359 111.392 21.8427 111.442 22.3412L111.461 22.534L112.576 22.4507L112.556 22.2572C112.505 21.7329 112.457 21.1989 112.41 20.6802Z" fill="white"/>
<path d="M111.179 8.90234H110.752V8.68457H111.846V8.90234H111.419V10.0216H111.18V8.90234H111.179Z" fill="white"/>
<path d="M112.097 8.68457H112.349L112.76 9.31686L113.17 8.68457H113.423V10.0216H113.186V9.06282L112.76 9.69302H112.752L112.33 9.06659V10.0215H112.097V8.68457H112.097Z" fill="white"/>
<path d="M107.47 33.1733C106.597 33.1743 105.884 33.7556 105.88 34.4689C105.879 34.7041 105.75 40.2516 96.9172 41.9761C95.2754 42.2965 93.722 42.4523 92.1686 42.4523C87.8441 42.4523 84.3667 41.223 80.6817 39.9202C77.1416 38.6692 73.4811 37.3754 69.1221 37.3754C65.9696 37.3754 62.7904 38.0493 59.4027 39.4351C58.9899 39.6039 58.6887 39.911 58.5763 40.2775C58.4779 40.5983 58.5312 40.9342 58.7261 41.2229C59.0045 41.6361 58.9869 42.0774 59.5687 42.0774C59.8161 42.0774 60.6159 41.8448 60.8371 41.7542C63.7803 40.5503 66.4928 39.965 69.13 39.965C72.8009 39.965 76.0121 41.1002 79.4136 42.3027C83.0418 43.5851 87.1538 45.0386 92.2264 45.0386C94.0047 45.0383 95.8342 44.8569 97.6642 44.4997C103.524 43.356 106.314 40.7235 107.622 38.7166C109.029 36.5582 109.064 34.6704 109.063 34.4612C109.058 33.751 108.344 33.1733 107.47 33.1733Z" fill="white"/>
<path d="M60.033 43.2519C60.8258 39.854 58.7935 36.4753 55.5025 35.7215C52.2114 34.9671 48.8884 37.1194 48.0963 40.5164C47.3034 43.9147 49.3361 47.2925 52.6268 48.047C55.918 48.8005 59.2402 46.6502 60.033 43.2519Z" fill="white"/>
<path d="M55.1019 37.4376C52.7083 36.889 50.2959 38.4376 49.7238 40.8892C49.1518 43.3412 50.6339 45.7818 53.0276 46.3303C55.4208 46.8788 57.8333 45.3306 58.4052 42.8783C58.9772 40.4265 57.4953 37.9861 55.1019 37.4376ZM57.5371 42.6792C57.083 44.6268 55.1555 45.8536 53.2411 45.415C51.3264 44.9762 50.138 43.0353 50.5923 41.0882C51.0461 39.1413 52.9736 37.9136 54.8885 38.3527C56.8033 38.7913 57.9914 40.733 57.5371 42.6792Z" fill="#494949"/>
<path d="M54.1861 41.1582C53.7531 41.0584 53.3636 41.3671 53.2849 41.7046C53.2055 42.0429 53.4193 42.4902 53.8524 42.5892C54.2854 42.6878 54.6756 42.38 54.755 42.0412C54.8328 41.7031 54.6186 41.2571 54.1861 41.1582Z" fill="#494949"/>
<path d="M106.936 36.0843C103.296 36.0843 100.334 33.1494 100.334 29.5418V22.2705H103.573V29.5418C103.573 31.3796 105.082 32.8747 106.936 32.8747C108.79 32.8747 110.299 31.3796 110.299 29.5418V22.2705H113.538V29.5418C113.538 33.1494 110.576 36.0843 106.936 36.0843Z" fill="white"/>
<path d="M48.4333 35.646H49.847C50.3671 35.2696 50.9316 34.9602 51.5262 34.7267V17.9136H48.4333V24.3479C47.462 23.1066 46.0563 21.9921 43.8324 21.9921C40.6118 21.9921 37.5701 24.4999 37.5701 28.933V28.9837C37.5701 33.4168 40.663 35.9213 43.8324 35.9246C47.0396 35.9281 47.6329 35.1412 48.4333 34.6126V35.646ZM44.5737 33.2648C42.4777 33.2648 40.6885 31.5675 40.6885 28.9837V28.933C40.6885 26.2732 42.4521 24.652 44.5737 24.652C46.644 24.652 48.4845 26.3492 48.4845 28.933V28.9837C48.4845 31.5422 46.644 33.2648 44.5737 33.2648Z" fill="white"/>
</svg>
