<svg width="14" height="6" viewBox="0 0 14 6" fill="none" xmlns="http://www.w3.org/2000/svg">
<path d="M7.00007 5.66668C6.7781 5.66704 6.56298 5.60262 6.39207 5.4846L0.692067 1.52627C0.498061 1.39189 0.376058 1.19879 0.352897 0.989454C0.329736 0.780117 0.407315 0.571686 0.568567 0.410015C0.729818 0.248343 0.961534 0.146674 1.21274 0.127373C1.46394 0.108073 1.71406 0.172721 1.90807 0.307098L7.00007 3.85376L12.0921 0.433765C12.1892 0.368004 12.3011 0.318896 12.4211 0.289263C12.5411 0.259629 12.667 0.250055 12.7914 0.26109C12.9159 0.272125 13.0366 0.303552 13.1464 0.353565C13.2563 0.403577 13.3532 0.471189 13.4316 0.552515C13.5186 0.633915 13.5845 0.729411 13.6251 0.833019C13.6658 0.936628 13.6803 1.04612 13.6678 1.15462C13.6553 1.26313 13.6161 1.36832 13.5526 1.46361C13.489 1.55889 13.4025 1.64221 13.2986 1.70835L7.59857 5.5321C7.42274 5.63146 7.21201 5.67885 7.00007 5.66668Z" fill="#A0A0A0"/>
</svg>
