<svg width="29" height="29" viewBox="0 0 29 29" fill="none" xmlns="http://www.w3.org/2000/svg">
<path d="M26.4625 22.6603L26.1886 22.4186C25.4116 21.7263 24.7315 20.9324 24.1667 20.0583C23.5498 18.8521 23.1801 17.5347 23.0792 16.1836V12.2042C23.0845 10.082 22.3147 8.03098 20.9144 6.43638C19.5141 4.84178 17.5798 3.8134 15.4747 3.54445V2.50529C15.4747 2.22007 15.3614 1.94653 15.1597 1.74485C14.9581 1.54317 14.6845 1.42987 14.3993 1.42987C14.1141 1.42987 13.8405 1.54317 13.6389 1.74485C13.4372 1.94653 13.3239 2.22007 13.3239 2.50529V3.56056C11.2377 3.8489 9.32669 4.88349 7.94481 6.47273C6.56293 8.06198 5.80381 10.0982 5.80805 12.2042V16.1836C5.70716 17.5347 5.33743 18.8521 4.72055 20.0583C4.16543 20.9302 3.49626 21.724 2.73083 22.4186L2.45694 22.6603V24.932H26.4625V22.6603Z" fill="#F2473A"/>
<path d="M12.3411 25.7778C12.4117 26.2884 12.6648 26.7562 13.0534 27.0948C13.4421 27.4334 13.9402 27.62 14.4557 27.62C14.9712 27.62 15.4692 27.4334 15.8579 27.0948C16.2466 26.7562 16.4996 26.2884 16.5703 25.7778H12.3411Z" fill="#F2473A"/>
</svg>
