<svg width="34" height="34" viewBox="0 0 34 34" fill="none" xmlns="http://www.w3.org/2000/svg">
<path d="M28.5708 25.5903V14.9941C28.5708 9.61308 24.9179 5.07022 19.9618 3.71252V2.95923C19.9618 1.32761 18.6342 0 17.0023 0H16.966C15.3344 0 14.0068 1.32761 14.0068 2.95923V3.65442C8.93968 4.93689 5.17891 9.53448 5.17891 14.9943V25.7127C3.87595 26.4969 3.05469 27.914 3.05469 29.432C3.05469 29.6081 3.12473 29.777 3.24924 29.9015C3.37375 30.026 3.54262 30.096 3.71875 30.096H13.4678V30.4833C13.4678 32.4223 15.0452 34 16.9842 34C18.9234 34 20.5009 32.4223 20.5009 30.4833V30.0963H30.2499C30.6164 30.0963 30.9139 29.7988 30.9139 29.4322C30.9139 27.8284 29.9889 26.3373 28.5708 25.5903ZM15.3349 3.29826V2.95923C15.3349 2.05989 16.0667 1.32812 16.966 1.32812H17.0023C17.9017 1.32812 18.6334 2.05989 18.6334 2.95923V3.29826H15.3349ZM19.1727 30.4833C19.1727 31.69 18.1909 32.6719 16.9842 32.6719C15.7775 32.6719 14.7959 31.69 14.7959 30.4833V30.0963H19.1727V30.4833ZM19.8368 28.7682H4.45959C4.65622 27.9259 5.21912 27.1882 6.00847 26.77H18.4119C18.7787 26.77 19.076 26.4727 19.076 26.106C19.076 25.7392 18.7787 25.4419 18.4119 25.4419H6.50703V14.9946C6.50703 9.27768 11.1581 4.62665 16.8747 4.62639C22.5916 4.62639 27.2426 9.27742 27.2426 14.9941V26.0144C27.2426 26.2865 27.4087 26.5311 27.6616 26.6315C28.599 27.0043 29.2859 27.8201 29.5085 28.7679H19.8368V28.7682Z" fill="black"/>
<path d="M20.9686 25.4417C20.794 25.4417 20.6228 25.5127 20.4991 25.6362C20.3756 25.7605 20.3045 25.9317 20.3045 26.1062C20.3045 26.2811 20.3756 26.4515 20.4991 26.5757C20.6228 26.6992 20.794 26.7698 20.9686 26.7698C21.1434 26.7698 21.3146 26.6992 21.4381 26.5757C21.5616 26.4523 21.6326 26.2811 21.6326 26.1062C21.6326 25.9309 21.5616 25.7605 21.4381 25.6362C21.3146 25.5127 21.1434 25.4417 20.9686 25.4417Z" fill="black"/>
</svg>
