<svg width="45" height="44" viewBox="0 0 45 44" xmlns="http://www.w3.org/2000/svg">
<g clip-path="url(#clip0)">
<path d="M45 13.9333V12.4667H32.5333V0H31.0667V12.4667H15.6667V0H14.2V12.4667H1V13.9333H14.2V18.3333H10.3867C10.24 18.3333 10.0933 18.3333 10.02 18.4067L4.44667 21.34C4.22667 21.4867 4.08 21.7067 4.08 22C4.08 22.2933 4.22667 22.5133 4.44667 22.66L10.02 25.5933C10.1667 25.6667 10.24 25.6667 10.3867 25.6667H14.2V30.0667H1V31.5333H14.2V44H15.6667V31.5333H31.0667V44H32.5333V31.5333H45V30.0667H32.5333V25.6667H41.3333C41.7733 25.6667 42.0667 25.3733 42.0667 24.9333V19.0667C42.0667 18.6267 41.7733 18.3333 41.3333 18.3333H32.5333V13.9333H45ZM10.5333 19.8H36.2V21.2667H13.4667V22.7333H36.2V24.2H11.2667V21.2667H9.8V23.8333L6.35333 22L10.5333 19.8ZM31.0667 30.0667H15.6667V25.6667H31.0667V30.0667ZM40.6 24.2H37.6667V19.8H40.6V24.2ZM31.0667 18.3333H15.6667V13.9333H31.0667V18.3333Z"/>
<path d="M39.1333 33.22C36.7133 33.22 34.8066 35.1266 34.8066 37.5466C34.8066 39.9666 36.7133 41.8733 39.1333 41.8733C41.5533 41.8733 43.46 39.9666 43.46 37.5466C43.46 35.1266 41.5533 33.22 39.1333 33.22ZM39.1333 40.4066C37.5933 40.4066 36.2733 39.0866 36.2733 37.5466C36.2733 36.0066 37.52 34.6866 39.1333 34.6866C40.7466 34.6866 41.9933 35.9333 41.9933 37.5466C41.9933 39.16 40.6733 40.4066 39.1333 40.4066Z"/>
<path d="M21.0936 10.1933L23.6602 7.62659L26.3002 10.2666L27.3269 9.23992L24.7602 6.59993L27.3269 4.03326L26.2269 3.00659L23.6602 5.57326L21.1669 3.00659L20.1402 4.10659L22.6336 6.59993L20.0669 9.16659L21.0936 10.1933Z"/>
<path d="M11.1931 35.5667L10.0931 34.54L7.52644 37.1067L5.03311 34.54L4.00644 35.64L6.49977 38.1334L3.93311 40.7L4.95977 41.7267L7.52644 39.16L10.1664 41.8L11.1931 40.7734L8.62644 38.1334L11.1931 35.5667Z"/>
<path d="M39.8667 3.66675H34.7334V5.13341H39.8667V3.66675Z"/>
<path d="M43.5334 7.33325H34.7334V8.79992H43.5334V7.33325Z"/>
<path d="M27.3999 38.8667H22.2666V40.3334H27.3999V38.8667Z"/>
<path d="M27.4001 35.2H18.6001V36.6666H27.4001V35.2Z"/>
<path d="M7.6001 10.3401C10.0201 10.3401 11.9268 8.43343 11.9268 6.01343C11.9268 3.59343 10.0201 1.68677 7.6001 1.68677C5.1801 1.68677 3.27344 3.59343 3.27344 6.01343C3.27344 8.43343 5.1801 10.3401 7.6001 10.3401ZM7.6001 3.15343C9.21344 3.15343 10.4601 4.4001 10.4601 6.01343C10.4601 7.62677 9.21344 8.87343 7.6001 8.87343C5.98677 8.87343 4.7401 7.62677 4.7401 6.01343C4.7401 4.4001 5.98677 3.15343 7.6001 3.15343Z"/>
</g>
<defs>
<clipPath id="clip0">
<rect width="44" height="44" transform="translate(0.941895)"/>
</clipPath>
</defs>
</svg>
