<svg width="44" height="44" viewBox="0 0 44 44" xmlns="http://www.w3.org/2000/svg">
<path d="M22.6875 35.75H30.9375V37.125H22.6875V35.75Z" />
<path d="M32.3125 35.75H33.6875V37.125H32.3125V35.75Z" />
<path d="M35.0625 35.75H36.4375V37.125H35.0625V35.75Z" />
<path d="M37.8125 35.75H39.1875V37.125H37.8125V35.75Z" />
<path d="M41.2012 1.80675C41.096 1.54619 40.8437 1.375 40.5625 1.375C40.2813 1.375 40.029 1.54619 39.9238 1.80675L38.5488 5.24425C38.5165 5.32606 38.5 5.41269 38.5 5.5V28.875H37.125V26.8125C37.125 26.433 36.8177 26.125 36.4375 26.125V23.375C36.8177 23.375 37.125 23.067 37.125 22.6875V19.9375C37.125 19.558 36.8177 19.25 36.4375 19.25H34.375V6.875C34.375 6.69281 34.3028 6.5175 34.1736 6.38894L29.3611 1.57644C29.2325 1.44719 29.0579 1.375 28.875 1.375H2.0625C1.68231 1.375 1.375 1.683 1.375 2.0625V35.75C1.375 39.5409 4.45913 42.625 8.25 42.625H41.9375C42.3177 42.625 42.625 42.317 42.625 41.9375V39.1875C42.625 38.808 42.3177 38.5 41.9375 38.5V33C42.3177 33 42.625 32.692 42.625 32.3125V5.5C42.625 5.41269 42.6085 5.32606 42.5762 5.24425L41.2012 1.80675ZM40.5625 3.91325L41.25 5.632V25.4375H39.875V5.632L40.5625 3.91325ZM39.875 26.8125H41.25V28.875H39.875V26.8125ZM35.0625 26.125H9.625C8.86669 26.125 8.25 25.5083 8.25 24.75C8.25 23.9917 8.86669 23.375 9.625 23.375H35.0625V26.125ZM35.75 22H9.625C8.10838 22 6.875 23.2334 6.875 24.75C6.875 26.2666 8.10838 27.5 9.625 27.5H35.75V28.875H9.625C7.35006 28.875 5.5 27.0249 5.5 24.75C5.5 22.4751 7.35006 20.625 9.625 20.625H35.75V22ZM2.75 2.75H28.5904L32.0279 6.1875H29.5625V4.125H28.1875V6.875C28.1875 7.2545 28.4948 7.5625 28.875 7.5625H33V19.25H9.625C6.59244 19.25 4.125 21.7174 4.125 24.75C4.125 26.5506 4.99881 28.1469 6.34013 29.1507C4.88675 29.5721 3.63481 30.4604 2.75 31.6429V2.75ZM41.25 41.25H8.25C5.21744 41.25 2.75 38.7826 2.75 35.75C2.75 32.7174 5.21744 30.25 8.25 30.25H41.25V31.625H8.25C5.97506 31.625 4.125 33.4751 4.125 35.75C4.125 38.0249 5.97506 39.875 8.25 39.875H41.25V41.25ZM40.5625 38.5H8.25C6.73338 38.5 5.5 37.2666 5.5 35.75C5.5 34.2334 6.73338 33 8.25 33H40.5625V38.5Z" />
<path d="M7.5625 10.3125C9.07912 10.3125 10.3125 9.07912 10.3125 7.5625C10.3125 6.04587 9.07912 4.8125 7.5625 4.8125C6.04587 4.8125 4.8125 6.04587 4.8125 7.5625C4.8125 9.07912 6.04587 10.3125 7.5625 10.3125ZM7.5625 6.1875C8.32081 6.1875 8.9375 6.80419 8.9375 7.5625C8.9375 8.32081 8.32081 8.9375 7.5625 8.9375C6.80419 8.9375 6.1875 8.32081 6.1875 7.5625C6.1875 6.80419 6.80419 6.1875 7.5625 6.1875Z" />
<path d="M14.4375 10.3125C15.9541 10.3125 17.1875 9.07912 17.1875 7.5625C17.1875 6.04587 15.9541 4.8125 14.4375 4.8125C12.9209 4.8125 11.6875 6.04587 11.6875 7.5625C11.6875 9.07912 12.9209 10.3125 14.4375 10.3125ZM14.4375 6.1875C15.1958 6.1875 15.8125 6.80419 15.8125 7.5625C15.8125 8.32081 15.1958 8.9375 14.4375 8.9375C13.6792 8.9375 13.0625 8.32081 13.0625 7.5625C13.0625 6.80419 13.6792 6.1875 14.4375 6.1875Z" />
<path d="M21.3125 10.3125C22.8291 10.3125 24.0625 9.07912 24.0625 7.5625C24.0625 6.04587 22.8291 4.8125 21.3125 4.8125C19.7959 4.8125 18.5625 6.04587 18.5625 7.5625C18.5625 9.07912 19.7959 10.3125 21.3125 10.3125ZM21.3125 6.1875C22.0708 6.1875 22.6875 6.80419 22.6875 7.5625C22.6875 8.32081 22.0708 8.9375 21.3125 8.9375C20.5542 8.9375 19.9375 8.32081 19.9375 7.5625C19.9375 6.80419 20.5542 6.1875 21.3125 6.1875Z" />
<path d="M7.5625 17.1875C9.07912 17.1875 10.3125 15.9541 10.3125 14.4375C10.3125 12.9209 9.07912 11.6875 7.5625 11.6875C6.04587 11.6875 4.8125 12.9209 4.8125 14.4375C4.8125 15.9541 6.04587 17.1875 7.5625 17.1875ZM7.5625 13.0625C8.32081 13.0625 8.9375 13.6792 8.9375 14.4375C8.9375 15.1958 8.32081 15.8125 7.5625 15.8125C6.80419 15.8125 6.1875 15.1958 6.1875 14.4375C6.1875 13.6792 6.80419 13.0625 7.5625 13.0625Z" />
<path d="M14.4375 17.1875C15.9541 17.1875 17.1875 15.9541 17.1875 14.4375C17.1875 12.9209 15.9541 11.6875 14.4375 11.6875C12.9209 11.6875 11.6875 12.9209 11.6875 14.4375C11.6875 15.9541 12.9209 17.1875 14.4375 17.1875ZM14.4375 13.0625C15.1958 13.0625 15.8125 13.6792 15.8125 14.4375C15.8125 15.1958 15.1958 15.8125 14.4375 15.8125C13.6792 15.8125 13.0625 15.1958 13.0625 14.4375C13.0625 13.6792 13.6792 13.0625 14.4375 13.0625Z" />
<path d="M21.3125 17.1875C22.8291 17.1875 24.0625 15.9541 24.0625 14.4375C24.0625 12.9209 22.8291 11.6875 21.3125 11.6875C19.7959 11.6875 18.5625 12.9209 18.5625 14.4375C18.5625 15.9541 19.7959 17.1875 21.3125 17.1875ZM21.3125 13.0625C22.0708 13.0625 22.6875 13.6792 22.6875 14.4375C22.6875 15.1958 22.0708 15.8125 21.3125 15.8125C20.5542 15.8125 19.9375 15.1958 19.9375 14.4375C19.9375 13.6792 20.5542 13.0625 21.3125 13.0625Z" />
<path d="M30.25 16.5H31.625V17.875H30.25V16.5Z" />
<path d="M30.25 13.75H31.625V15.125H30.25V13.75Z" />
<path d="M30.25 11H31.625V12.375H30.25V11Z" />
</svg>
