<svg width="42" height="43" viewBox="0 0 42 43" fill="none" xmlns="http://www.w3.org/2000/svg">
<path d="M40.2012 1.23155C40.096 0.970992 39.8437 0.799805 39.5625 0.799805C39.2813 0.799805 39.029 0.970992 38.9238 1.23155L37.5488 4.66905C37.5165 4.75087 37.5 4.83749 37.5 4.9248V28.2998H36.125V26.2373C36.125 25.8578 35.8177 25.5498 35.4375 25.5498V22.7998C35.8177 22.7998 36.125 22.4918 36.125 22.1123V19.3623C36.125 18.9828 35.8177 18.6748 35.4375 18.6748H33.375V6.2998C33.375 6.11762 33.3028 5.9423 33.1736 5.81374L28.3611 1.00124C28.2325 0.871992 28.0579 0.799805 27.875 0.799805H1.0625C0.682313 0.799805 0.375 1.1078 0.375 1.4873V35.1748C0.375 38.9657 3.45913 42.0498 7.25 42.0498H40.9375C41.3177 42.0498 41.625 41.7418 41.625 41.3623V38.6123C41.625 38.2328 41.3177 37.9248 40.9375 37.9248V32.4248C41.3177 32.4248 41.625 32.1168 41.625 31.7373V4.9248C41.625 4.83749 41.6085 4.75087 41.5762 4.66905L40.2012 1.23155ZM39.5625 3.33805L40.25 5.05681V24.8623H38.875V5.05681L39.5625 3.33805ZM38.875 26.2373H40.25V28.2998H38.875V26.2373ZM34.0625 25.5498H8.625C7.86669 25.5498 7.25 24.9331 7.25 24.1748C7.25 23.4165 7.86669 22.7998 8.625 22.7998H34.0625V25.5498ZM34.75 21.4248H8.625C7.10838 21.4248 5.875 22.6582 5.875 24.1748C5.875 25.6914 7.10838 26.9248 8.625 26.9248H34.75V28.2998H8.625C6.35006 28.2998 4.5 26.4497 4.5 24.1748C4.5 21.8999 6.35006 20.0498 8.625 20.0498H34.75V21.4248ZM1.75 2.1748H27.5904L31.0279 5.6123H28.5625V3.5498H27.1875V6.2998C27.1875 6.6793 27.4948 6.9873 27.875 6.9873H32V18.6748H8.625C5.59244 18.6748 3.125 21.1422 3.125 24.1748C3.125 25.9754 3.99881 27.5717 5.34013 28.5755C3.88675 28.9969 2.63481 29.8852 1.75 31.0677V2.1748ZM40.25 40.6748H7.25C4.21744 40.6748 1.75 38.2074 1.75 35.1748C1.75 32.1422 4.21744 29.6748 7.25 29.6748H40.25V31.0498H7.25C4.97506 31.0498 3.125 32.8999 3.125 35.1748C3.125 37.4497 4.97506 39.2998 7.25 39.2998H40.25V40.6748ZM39.5625 37.9248H7.25C5.73338 37.9248 4.5 36.6914 4.5 35.1748C4.5 33.6582 5.73338 32.4248 7.25 32.4248H39.5625V37.9248Z" fill="black"/>
</svg>
