<svg width="44" height="42" viewBox="0 0 44 42" fill="none" xmlns="http://www.w3.org/2000/svg">
<g clip-path="url(#clip0)">
<path d="M43.97 12.1817C43.9 11.9417 43.74 11.7317 43.51 11.6017L22.44 0.371719C22.31 0.301719 22.15 0.261719 22 0.261719C21.85 0.261719 21.69 0.301719 21.56 0.371719L0.5 11.6017C0.19 11.7617 0 12.0817 0 12.4317C0 12.7817 0.19 13.1017 0.5 13.2617L5.44 15.8917C5.52 15.9317 5.57 15.9917 5.62 16.0717V16.6417V17.1817V23.6617C5.62 24.0117 5.81 24.3217 6.11 24.4917L18.84 31.4317L21.19 32.7117L21.53 32.9017C21.54 32.9017 21.55 32.9117 21.56 32.9117C21.58 32.9217 21.59 32.9217 21.61 32.9317C21.62 32.9417 21.64 32.9417 21.65 32.9517L21.67 32.9617C21.79 33.0117 21.9 33.0317 21.99 33.0317C22.08 33.0317 22.19 33.0117 22.31 32.9617L22.33 32.9517C22.34 32.9417 22.36 32.9417 22.37 32.9317C22.38 32.9217 22.4 32.9217 22.41 32.9117C22.42 32.9117 22.44 32.9017 22.45 32.9017L22.91 32.6517L27.58 30.1017C27.58 30.1017 27.58 30.1017 27.59 30.1017L30.87 28.3117V30.9417C30.87 31.1317 30.75 31.3117 30.56 31.3717C29.06 31.9017 28.06 33.3217 28.06 34.8917V40.5117C28.06 41.0317 28.48 41.4517 29 41.4517H34.62C35.14 41.4517 35.56 41.0317 35.56 40.5117V34.8917C35.56 33.3217 34.55 31.9017 33.06 31.3717C32.88 31.3017 32.75 31.1317 32.75 30.9417V27.2817L36.48 25.2617H36.49L37.89 24.4917C37.95 24.4517 38.01 24.4117 38.06 24.3617C38.21 24.2317 38.31 24.0617 38.35 23.8617C38.37 23.7917 38.38 23.7217 38.38 23.6517V16.9517V16.6317V16.0617C38.42 15.9917 38.48 15.9217 38.56 15.8817L43.5 13.2517C43.81 13.0917 44 12.7717 44 12.4217C44 12.3517 43.99 12.2617 43.97 12.1817ZM21.06 29.7217C21.06 29.8817 20.97 30.0317 20.83 30.1217C20.76 30.1617 20.68 30.1817 20.59 30.1817C20.51 30.1817 20.44 30.1617 20.37 30.1217L7.74 23.2317C7.59 23.1517 7.5 22.9917 7.5 22.8317V17.7717C7.5 17.6117 7.58 17.4617 7.72 17.3817C7.79 17.3417 7.88 17.3117 7.96 17.3117C8.03 17.3117 8.11 17.3317 8.18 17.3617L19.49 23.3917L20.81 24.1017C20.96 24.1817 21.05 24.3417 21.05 24.5117V29.7217H21.06ZM23.62 30.1317C23.55 30.1717 23.48 30.1917 23.4 30.1917C23.32 30.1917 23.24 30.1717 23.16 30.1317C23.02 30.0517 22.93 29.9017 22.93 29.7317V24.5117C22.93 24.3417 23.02 24.1817 23.17 24.1017L30.19 20.3617C30.26 20.3217 30.33 20.3117 30.41 20.3117C30.49 20.3117 30.57 20.3317 30.65 20.3817C30.79 20.4617 30.87 20.6117 30.87 20.7817V26.1817L23.62 30.1317ZM33.69 34.8917V39.1017C33.69 39.3517 33.48 39.5617 33.23 39.5617H30.42C30.17 39.5617 29.96 39.3517 29.96 39.1017V34.8917C29.96 33.8617 30.8 33.0317 31.82 33.0317C32.84 33.0317 33.69 33.8717 33.69 34.8917ZM36.5 22.8317C36.5 22.9617 36.44 23.0717 36.35 23.1517C36.32 23.1817 36.3 23.2117 36.26 23.2317L32.77 25.1317V19.2617C32.77 19.0917 32.86 18.9317 33.01 18.8517L35.82 17.3517C35.85 17.3317 35.89 17.3317 35.93 17.3217C35.97 17.3117 36 17.2917 36.04 17.2917C36.12 17.2917 36.2 17.3117 36.28 17.3617C36.42 17.4417 36.5 17.5917 36.5 17.7517V22.8317ZM40.29 12.8417L32.4 17.0517C32.33 17.0917 32.26 17.1017 32.18 17.1017C32.1 17.1017 32.02 17.0817 31.95 17.0417L22.46 11.6117C22.32 11.5317 22.16 11.4817 22 11.4817C21.66 11.4817 21.35 11.6617 21.18 11.9617C20.92 12.4117 21.08 12.9917 21.53 13.2517L29.49 17.8017C29.64 17.8817 29.72 18.0417 29.72 18.2117C29.72 18.3817 29.62 18.5317 29.48 18.6117L22.22 22.4817C22.15 22.5217 22.08 22.5317 22 22.5317C21.93 22.5317 21.85 22.5117 21.78 22.4817L20.14 21.6117L18.83 20.9117L3.71 12.8417C3.56 12.7617 3.47 12.6017 3.47 12.4317C3.47 12.2617 3.56 12.1017 3.71 12.0217L21.78 2.38172C21.85 2.34172 21.92 2.33172 22 2.33172C22.07 2.33172 22.15 2.35172 22.22 2.38172L40.29 12.0217C40.44 12.1017 40.53 12.2617 40.53 12.4317C40.53 12.6017 40.44 12.7617 40.29 12.8417Z" fill="#F2473A"/>
</g>
<defs>
<clipPath id="clip0">
<rect width="44" height="41.19" fill="white" transform="translate(0 0.261719)"/>
</clipPath>
</defs>
</svg>
