<svg width="41" height="51" viewBox="0 0 41 51" fill="none" xmlns="http://www.w3.org/2000/svg">
<path d="M35.9394 7.66991H27.7216V4.73144C27.7216 2.12257 25.5992 0 22.9902 0H5.06054C2.45167 0 0.329102 2.12257 0.329102 4.73144V38.5986C0.329102 41.2074 2.45167 43.33 5.06054 43.33H13.2783V50.2528C13.2783 50.2567 13.2788 50.2604 13.2789 50.2642C13.2791 50.2796 13.2801 50.2952 13.2813 50.3106C13.282 50.3202 13.2827 50.3297 13.2838 50.3391C13.2855 50.3534 13.2879 50.3677 13.2903 50.3819C13.2921 50.3924 13.2939 50.4029 13.2961 50.4132C13.2989 50.4256 13.3023 50.438 13.3057 50.4504C13.309 50.4623 13.3122 50.4742 13.316 50.4858C13.3195 50.4963 13.3235 50.5066 13.3274 50.517C13.3324 50.5301 13.3375 50.5432 13.3431 50.556C13.3471 50.5651 13.3517 50.574 13.3561 50.5829C13.3628 50.5965 13.3696 50.6099 13.3771 50.623C13.3791 50.6265 13.3806 50.6301 13.3826 50.6334C13.3849 50.6372 13.3877 50.6405 13.3901 50.6443C13.4028 50.665 13.4166 50.6849 13.4312 50.7042C13.4356 50.71 13.4398 50.7161 13.4443 50.7218C13.4622 50.7439 13.4812 50.7649 13.5014 50.7848C13.5079 50.7913 13.5149 50.7971 13.5216 50.8032C13.5365 50.8168 13.5518 50.8299 13.5678 50.8423C13.5759 50.8487 13.5842 50.8549 13.5926 50.8609C13.6108 50.874 13.6297 50.886 13.6491 50.8975C13.6543 50.9005 13.6592 50.9039 13.6644 50.9068C13.6899 50.9209 13.7164 50.9334 13.7436 50.9445C13.7483 50.9464 13.753 50.9479 13.7578 50.9497C13.7804 50.9584 13.8035 50.9659 13.8271 50.9725C13.8345 50.9745 13.8419 50.9764 13.8494 50.9782C13.8711 50.9835 13.8931 50.9876 13.9154 50.9909C13.923 50.992 13.9304 50.9935 13.9381 50.9944C13.9656 50.9976 13.9934 50.9996 14.0217 50.9998C14.0232 50.9998 14.0247 51.0001 14.0262 51.0001C14.0267 51.0001 14.0272 51 14.0277 51H35.9394C38.5482 51 40.6708 48.8774 40.6708 46.2686V12.4014C40.6708 9.79248 38.5483 7.66991 35.9394 7.66991ZM27.7216 13.1484H35.1923V20.2871H27.7216V13.1484ZM1.82324 38.5986V4.73144C1.82324 2.94644 3.27554 1.49414 5.06054 1.49414H22.9902C24.7752 1.49414 26.2275 2.94644 26.2275 4.73144V27.8408C26.2275 28.2533 26.562 28.5878 26.9746 28.5878C27.3871 28.5878 27.7216 28.2533 27.7216 27.8408V25.7656H35.1923V32.9043H27.7216V30.829C27.7216 30.4165 27.3871 30.082 26.9746 30.082C26.562 30.082 26.2275 30.4165 26.2275 30.829V41.8359H5.06054C3.27554 41.8359 1.82324 40.3836 1.82324 38.5986ZM27.3554 43.2257C27.3607 43.2225 27.3656 43.2187 27.3709 43.2153C27.3829 43.2079 27.3946 43.2002 27.4061 43.192C27.4158 43.1852 27.4253 43.178 27.4346 43.1707C27.4438 43.1634 27.4529 43.1562 27.4617 43.1485C27.4721 43.1396 27.4822 43.1305 27.4919 43.1211C27.4992 43.1141 27.5062 43.1071 27.5131 43.0998C27.5232 43.0893 27.5329 43.0788 27.5422 43.0678C27.5485 43.0604 27.5547 43.0529 27.5607 43.0452C27.5694 43.0341 27.5778 43.023 27.5859 43.0115C27.592 43.0028 27.5978 42.9939 27.6036 42.9849C27.6105 42.9742 27.6171 42.9634 27.6234 42.9524C27.6295 42.9418 27.6352 42.931 27.6406 42.92C27.6457 42.9099 27.6506 42.8999 27.6553 42.8897C27.6609 42.8775 27.6659 42.865 27.6708 42.8525C27.6745 42.8428 27.6781 42.8332 27.6815 42.8235C27.686 42.8104 27.6899 42.7972 27.6936 42.7838C27.6965 42.7736 27.6991 42.7634 27.7015 42.7531C27.7045 42.7404 27.7071 42.7277 27.7094 42.7147C27.7116 42.7027 27.7134 42.6906 27.7149 42.6784C27.7163 42.6671 27.7176 42.6558 27.7185 42.6444C27.7197 42.6299 27.7203 42.6154 27.7207 42.6008C27.7208 42.5949 27.7216 42.589 27.7216 42.583V38.3828H35.1923V45.5214H23.4795L27.3554 43.2257ZM24.2474 43.33L14.7725 48.9421V43.33H24.2474ZM39.1767 46.2685C39.1767 48.0535 37.7244 49.5058 35.9394 49.5058H16.7527L20.981 47.0013C21.0277 47.0104 21.0758 47.0155 21.1252 47.0155H35.9394C36.352 47.0155 36.6865 46.681 36.6865 46.2685V37.6356C36.6865 37.2231 36.352 36.8886 35.9394 36.8886H27.7216V34.3983H35.9394C36.352 34.3983 36.6865 34.0638 36.6865 33.6513V25.0184C36.6865 24.6059 36.352 24.2714 35.9394 24.2714H27.7216V21.7811H35.9394C36.352 21.7811 36.6865 21.4467 36.6865 21.0341V12.4013C36.6865 11.9888 36.352 11.6543 35.9394 11.6543H27.7216V9.16404H35.9394C37.7244 9.16404 39.1767 10.6163 39.1767 12.4013V46.2685Z" fill="#F2473A"/>
<path d="M17.0137 35.8594H11.0371C10.6245 35.8594 10.29 36.1939 10.29 36.6064C10.29 37.019 10.6245 37.3535 11.0371 37.3535H17.0137C17.4263 37.3535 17.7607 37.019 17.7607 36.6064C17.7607 36.1939 17.4264 35.8594 17.0137 35.8594Z" fill="#F2473A"/>
<path d="M20.002 31.875H8.04883C7.63625 31.875 7.30176 32.2095 7.30176 32.6221C7.30176 33.0347 7.63625 33.3691 8.04883 33.3691H20.002C20.4145 33.3691 20.749 33.0347 20.749 32.6221C20.749 32.2095 20.4146 31.875 20.002 31.875Z" fill="#F2473A"/>
<path d="M8.55225 27.4281V26.2328C8.55225 25.8202 8.21776 25.4857 7.80518 25.4857C7.39259 25.4857 7.05811 25.8202 7.05811 26.2328V27.4281C7.05811 27.8407 7.39259 28.1752 7.80518 28.1752C8.21776 28.1752 8.55225 27.8408 8.55225 27.4281Z" fill="#F2473A"/>
<path d="M20.2456 25.4857C19.833 25.4857 19.4985 25.8202 19.4985 26.2328V27.4281C19.4985 27.8407 19.833 28.1752 20.2456 28.1752C20.6582 28.1752 20.9927 27.8407 20.9927 27.4281V26.2328C20.9927 25.8202 20.6582 25.4857 20.2456 25.4857Z" fill="#F2473A"/>
<path d="M14.0255 28.8868C14.8699 28.8868 15.6729 28.5211 16.2286 27.8834C16.4998 27.5723 16.4673 27.1005 16.1563 26.8293C15.8453 26.5582 15.3734 26.5906 15.1023 26.9016C14.8303 27.2136 14.4379 27.3925 14.0254 27.3925C13.6129 27.3925 13.2204 27.2136 12.9485 26.9016C12.6774 26.5906 12.2055 26.5582 11.8944 26.8293C11.5834 27.1005 11.551 27.5723 11.8221 27.8834C12.378 28.5211 13.1811 28.8868 14.0255 28.8868Z" fill="#F2473A"/>
<path d="M22.7412 10.2762C22.7412 9.5575 22.3535 8.88962 21.7297 8.53302L19.6817 7.36281C19.3235 7.15811 18.8672 7.28263 18.6624 7.64082C18.4577 7.99912 18.5821 8.45543 18.9404 8.66012L20.9884 9.83034C21.148 9.92158 21.2471 10.0924 21.2471 10.2762C21.2471 10.5594 21.0167 10.7898 20.7335 10.7898H7.3173C7.03411 10.7898 6.80371 10.5594 6.80371 10.2762C6.80371 10.0924 6.90282 9.92148 7.0625 9.83034L12.535 6.7031C12.9883 6.44411 13.5035 6.30725 14.0254 6.30725C14.5472 6.30725 15.0625 6.44411 15.5156 6.703L16.3685 7.19039C16.7268 7.39518 17.1832 7.27067 17.3878 6.91238C17.5925 6.55418 17.4681 6.09777 17.1098 5.89307L16.2569 5.40569C15.5784 5.01801 14.8067 4.81311 14.0254 4.81311C13.2441 4.81311 12.4724 5.01801 11.7937 5.40579L6.3212 8.53302C5.69725 8.88952 5.30957 9.5575 5.30957 10.2762C5.30957 11.378 6.20187 12.2746 7.30176 12.2831V17.8668C6.15346 18.1929 5.30957 19.2503 5.30957 20.5017C5.30957 22.0122 6.53835 23.2409 8.04883 23.2409H20.002C21.5124 23.2409 22.7412 22.0122 22.7412 20.5017C22.7412 19.2503 21.8973 18.1929 20.749 17.8668V12.2831C21.8489 12.2745 22.7412 11.378 22.7412 10.2762ZM16.7646 17.7623V12.2838H19.2549V17.7623H16.7646ZM8.7959 17.7623V12.2838H11.2861V17.7623H8.7959ZM12.7803 12.2838H15.2705V17.7623H12.7803V12.2838ZM21.2471 20.5016C21.2471 21.1882 20.6886 21.7467 20.002 21.7467H8.04883C7.36222 21.7467 6.80371 21.1882 6.80371 20.5016C6.80371 19.815 7.36222 19.2565 8.04883 19.2565H20.002C20.6886 19.2565 21.2471 19.8151 21.2471 20.5016Z" fill="#F2473A"/>
</svg>
