<svg width="18" height="17" viewBox="0 0 18 17" fill="none" xmlns="http://www.w3.org/2000/svg">
<path d="M16.917 2.33332H14.6948V3.99998C14.6948 4.16049 14.6632 4.31942 14.6018 4.46771C14.5403 4.61599 14.4503 4.75073 14.3368 4.86422C14.2233 4.97772 14.0886 5.06775 13.9403 5.12917C13.792 5.19059 13.6331 5.2222 13.4726 5.2222C13.3121 5.2222 13.1531 5.19059 13.0049 5.12917C12.8566 5.06775 12.7218 4.97772 12.6083 4.86422C12.4948 4.75073 12.4048 4.61599 12.3434 4.46771C12.282 4.31942 12.2504 4.16049 12.2504 3.99998V2.33332H5.77814V3.99998C5.77814 4.32414 5.64937 4.63501 5.42016 4.86422C5.19095 5.09344 4.88007 5.2222 4.55592 5.2222C4.23176 5.2222 3.92089 5.09344 3.69167 4.86422C3.46246 4.63501 3.33369 4.32414 3.33369 3.99998V2.33332H1.11147C0.979262 2.33181 0.848093 2.35683 0.725723 2.40691C0.603353 2.45698 0.492267 2.53108 0.399034 2.62483C0.305801 2.71858 0.232315 2.83008 0.182923 2.95272C0.13353 3.07537 0.109234 3.20667 0.111471 3.33887V15.7722C0.109264 15.9021 0.132662 16.0311 0.18033 16.1519C0.227997 16.2727 0.299 16.383 0.389283 16.4764C0.479566 16.5698 0.58736 16.6444 0.706508 16.6961C0.825656 16.7479 0.953825 16.7756 1.08369 16.7778H16.917C17.0469 16.7756 17.1751 16.7479 17.2942 16.6961C17.4134 16.6444 17.5212 16.5698 17.6114 16.4764C17.7017 16.383 17.7727 16.2727 17.8204 16.1519C17.8681 16.0311 17.8915 15.9021 17.8892 15.7722V3.33887C17.8915 3.209 17.8681 3.07997 17.8204 2.95915C17.7727 2.83833 17.7017 2.72808 17.6114 2.6347C17.5212 2.54132 17.4134 2.46664 17.2942 2.41493C17.1751 2.36322 17.0469 2.33549 16.917 2.33332ZM4.55592 13.4444H3.4448V12.3333H4.55592V13.4444ZM4.55592 10.6666H3.4448V9.55554H4.55592V10.6666ZM4.55592 7.88887H3.4448V6.77776H4.55592V7.88887ZM7.88925 13.4444H6.77814V12.3333H7.88925V13.4444ZM7.88925 10.6666H6.77814V9.55554H7.88925V10.6666ZM7.88925 7.88887H6.77814V6.77776H7.88925V7.88887ZM11.2226 13.4444H10.1115V12.3333H11.2226V13.4444ZM11.2226 10.6666H10.1115V9.55554H11.2226V10.6666ZM11.2226 7.88887H10.1115V6.77776H11.2226V7.88887ZM14.5559 13.4444H13.4448V12.3333H14.5559V13.4444ZM14.5559 10.6666H13.4448V9.55554H14.5559V10.6666ZM14.5559 7.88887H13.4448V6.77776H14.5559V7.88887Z" fill="#202020"/>
<path d="M4.55556 4.55553C4.7029 4.55553 4.84421 4.497 4.94839 4.39281C5.05258 4.28862 5.11111 4.14732 5.11111 3.99997V0.66664C5.11111 0.519297 5.05258 0.377989 4.94839 0.273802C4.84421 0.169616 4.7029 0.111084 4.55556 0.111084C4.40821 0.111084 4.26691 0.169616 4.16272 0.273802C4.05853 0.377989 4 0.519297 4 0.66664V3.99997C4 4.14732 4.05853 4.28862 4.16272 4.39281C4.26691 4.497 4.40821 4.55553 4.55556 4.55553Z" fill="#202020"/>
<path d="M13.4442 4.55553C13.5916 4.55553 13.7329 4.497 13.8371 4.39281C13.9413 4.28862 13.9998 4.14732 13.9998 3.99997V0.66664C13.9998 0.519297 13.9413 0.377989 13.8371 0.273802C13.7329 0.169616 13.5916 0.111084 13.4442 0.111084C13.2969 0.111084 13.1556 0.169616 13.0514 0.273802C12.9472 0.377989 12.8887 0.519297 12.8887 0.66664V3.99997C12.8887 4.14732 12.9472 4.28862 13.0514 4.39281C13.1556 4.497 13.2969 4.55553 13.4442 4.55553Z" fill="#202020"/>
</svg>
