<svg width="44" height="45" viewBox="0 0 44 45" fill="none" xmlns="http://www.w3.org/2000/svg">
<g clip-path="url(#clip0)">
<path d="M43.9898 43.4048C43.9898 43.3648 43.9898 43.3248 43.9898 43.2848C43.1998 38.6948 41.0898 35.9548 38.3398 35.9548H37.7298C35.2498 35.9548 33.2898 35.9548 31.2998 33.1148C31.1198 32.8648 30.8298 32.7148 30.5198 32.7148C30.3298 32.7148 30.1398 32.7748 29.9798 32.8848C29.5498 33.1848 29.4498 33.7748 29.7498 34.1948C32.0998 37.5648 34.7498 37.8448 37.2598 37.8448C37.4498 37.8448 37.6398 37.8448 37.8298 37.8448H38.3398C39.7398 37.8448 40.9798 39.3448 41.7398 41.9548C41.7798 42.0948 41.7498 42.2448 41.6698 42.3648C41.5798 42.4848 41.4498 42.5448 41.2998 42.5448H2.69977C2.54977 42.5448 2.41977 42.4748 2.32977 42.3648C2.23977 42.2448 2.21977 42.0948 2.25977 41.9548C3.01977 39.3448 4.25977 37.8448 5.66977 37.8448H6.17977C6.35977 37.8448 6.54977 37.8448 6.73977 37.8448C9.35977 37.8448 12.1098 37.5648 14.4598 34.1948C14.7598 33.7648 14.6498 33.1748 14.2298 32.8848C14.0698 32.7748 13.8898 32.7148 13.6898 32.7148C13.3798 32.7148 13.0898 32.8648 12.9098 33.1148C11.0698 35.7448 9.06977 35.9548 6.65977 35.9548H5.66977C2.91977 35.9548 0.809766 38.6948 0.0197656 43.2848C0.0197656 43.3248 0.0197656 43.3648 0.0197656 43.4048C0.0197656 43.4348 0.00976562 43.4648 0.00976562 43.4848C0.0197656 43.5148 0.0297656 43.5548 0.0297656 43.5848C0.0397656 43.6548 0.0497656 43.7148 0.0597656 43.7648C0.0797656 43.8148 0.0997656 43.8648 0.129766 43.9248C0.169766 43.9848 0.199766 44.0348 0.229766 44.0748C0.259766 44.1148 0.299766 44.1548 0.359766 44.1948C0.419766 44.2348 0.459766 44.2648 0.499766 44.2948C0.539766 44.3148 0.599766 44.3348 0.679766 44.3648C0.719766 44.3748 0.759766 44.3948 0.809766 44.4148C0.849766 44.4248 0.889766 44.4248 0.929766 44.4248H43.0498H43.0598C43.0998 44.4248 43.1498 44.4248 43.1898 44.4148C43.2298 44.3948 43.2698 44.3748 43.3198 44.3648C43.3998 44.3448 43.4498 44.3248 43.4898 44.3048C43.5398 44.2848 43.5798 44.2448 43.6398 44.2048C43.6998 44.1548 43.7398 44.1248 43.7698 44.0848C43.7998 44.0448 43.8298 44.0048 43.8698 43.9348C43.8998 43.8748 43.9298 43.8248 43.9398 43.7748C43.9598 43.7248 43.9698 43.6748 43.9798 43.5948C43.9798 43.5648 43.9898 43.5248 43.9998 43.4948C43.9998 43.4648 43.9898 43.4348 43.9898 43.4048Z" fill="#202020"/>
<path d="M35.8499 14.6848C35.7299 14.6448 35.6399 14.5548 35.5899 14.4548V14.0048C35.5899 9.5648 34.4299 6.1548 32.1499 3.8648C29.8599 1.5848 26.4499 0.424805 21.9999 0.424805C17.5499 0.424805 14.1399 1.5848 11.8599 3.8648C9.57986 6.1448 8.41986 9.55481 8.41986 13.9848V14.4448C8.36986 14.5548 8.27986 14.6348 8.15986 14.6748C6.63986 15.1948 5.60986 16.6148 5.60986 18.2048V21.0148C5.60986 23.0848 7.28986 24.7648 9.35986 24.7648H11.0999H12.1699H13.1399C13.1699 24.8048 13.1999 24.8448 13.2199 24.8948C15.0799 29.7748 18.6899 33.1848 21.9899 33.1848C22.5499 33.1848 23.1299 33.0948 23.6999 32.9048C24.1899 32.7448 24.4699 32.2148 24.3099 31.7148C24.1799 31.3248 23.8199 31.0648 23.4099 31.0648C23.3099 31.0648 23.2099 31.0848 23.1199 31.1048C22.7299 31.2248 22.3499 31.2948 21.9899 31.2948C18.7299 31.2948 13.7999 25.9148 13.7999 17.7948C13.7999 9.62481 18.2499 7.9048 21.9899 7.9048C24.7699 7.9048 26.8799 8.8148 28.2699 10.6248C28.4499 10.8648 28.7199 10.9948 29.0199 10.9948C29.2299 10.9948 29.4299 10.9248 29.5899 10.7948C29.7899 10.6448 29.9199 10.4248 29.9499 10.1748C29.9799 9.9248 29.9199 9.6748 29.7599 9.4748C28.0399 7.23481 25.3599 6.0448 21.9999 6.0448C16.7899 6.0448 13.3299 8.9048 12.2799 14.0948C12.2399 14.3048 12.0499 14.4648 11.8299 14.4648H10.7699C10.5199 14.4648 10.3099 14.2548 10.3099 14.0048C10.3099 10.0048 11.2499 7.1248 13.1899 5.1948C15.1199 3.2548 17.9999 2.3148 21.9999 2.3148C25.9999 2.3148 28.8799 3.2548 30.8199 5.1948C32.7599 7.1348 33.6999 10.0148 33.6999 14.0048C33.6999 14.2548 33.4899 14.4648 33.2399 14.4648H32.6599L30.9999 14.4548H30.9899H30.9799C30.9499 14.4548 30.9199 14.4548 30.8799 14.4648C30.3599 14.5248 29.9999 14.9948 30.0599 15.5148C30.1499 16.2348 30.1899 17.0048 30.1899 17.8148C30.1899 19.7748 29.8799 21.7048 29.2799 23.5348C29.1999 23.7748 29.2199 24.0248 29.3299 24.2548C29.4399 24.4748 29.6399 24.6448 29.8799 24.7248C29.9599 24.7548 30.0399 24.7648 30.1199 24.7748H30.1399H30.1499H30.1599H30.5099H30.8199H33.2399C33.4899 24.7748 33.6999 24.9848 33.6999 25.2348C33.6999 26.2648 32.8599 27.0948 31.8299 27.0948H26.2099C25.9599 27.0948 25.7499 26.8848 25.7499 26.6348V25.2348C25.7499 24.7148 25.3299 24.2948 24.8099 24.2948C24.2899 24.2948 23.8699 24.7148 23.8699 25.2348V28.0448C23.8699 28.5648 24.2899 28.9848 24.8099 28.9848H31.8299C33.8999 28.9848 35.5799 27.3048 35.5799 25.2348V24.9748C35.5799 24.7848 35.6999 24.6048 35.8899 24.5448C37.3899 24.0148 38.3899 22.5948 38.3899 21.0248V18.2148C38.3899 16.6248 37.3699 15.2048 35.8499 14.6848ZM11.4999 16.3448C11.6299 16.3448 11.7499 16.3948 11.8299 16.4848C11.9199 16.5748 11.9599 16.6948 11.9599 16.8248L11.9499 16.9448C11.9399 17.2448 11.9199 17.5148 11.9199 17.8148C11.9199 19.3248 12.0899 20.8448 12.4299 22.3248C12.4599 22.4648 12.4299 22.6048 12.3399 22.7148C12.2499 22.8248 12.1199 22.8848 11.9799 22.8848H9.35986C8.32986 22.8848 7.48986 22.0448 7.48986 21.0248V18.2148C7.48986 17.1848 8.32986 16.3548 9.35986 16.3548H11.4999V16.3448ZM36.4999 21.0248C36.4999 22.0548 35.6599 22.8848 34.6299 22.8848H31.9999C31.8599 22.8848 31.7299 22.8248 31.6399 22.7148C31.5499 22.6048 31.5199 22.4648 31.5499 22.3248C31.8899 20.8348 32.0699 19.3148 32.0699 17.8148C32.0699 17.4848 32.0599 17.1548 32.0399 16.8348C32.0299 16.7048 32.0799 16.5848 32.1699 16.4948C32.2599 16.4048 32.3799 16.3548 32.4999 16.3548H34.6399C35.6699 16.3548 36.5099 17.1948 36.5099 18.2148V21.0248H36.4999Z" fill="#202020"/>
</g>
<defs>
<clipPath id="clip0">
<rect width="44" height="44" fill="white" transform="translate(0 0.424805)"/>
</clipPath>
</defs>
</svg>
