<svg width="50" height="50" viewBox="0 0 50 50" fill="none" xmlns="http://www.w3.org/2000/svg">
<path d="M49.2676 22.9893C49.6722 22.9893 50 22.6613 50 22.2568V0.732422C50 0.32793 49.6722 0 49.2676 0H0.732422C0.327832 0 0 0.32793 0 0.732422V35.0622C0 35.4667 0.327832 35.7946 0.732422 35.7946H17.3981C17.5952 37.8562 18.6146 39.6811 20.1244 40.9363V49.2676C20.1244 49.5286 20.2634 49.77 20.4892 49.9011C20.715 50.0321 20.9937 50.0331 21.2201 49.9035L25 47.7436L28.7799 49.9035C28.8925 49.9679 29.0179 50 29.1433 50C29.2703 50 29.3973 49.967 29.5109 49.9011C29.7368 49.77 29.8757 49.5287 29.8757 49.2676V47.0728C29.8757 46.6683 29.5479 46.3403 29.1433 46.3403C28.7387 46.3403 28.4108 46.6683 28.4108 47.0728V48.0055L25.3634 46.2641C25.1383 46.1354 24.8617 46.1354 24.6367 46.2641L21.5893 48.0055V41.8932C22.6167 42.4083 23.7746 42.7 25.0001 42.7C26.2256 42.7 27.3835 42.4082 28.4109 41.8932V43.6497C28.4109 44.0542 28.7388 44.3821 29.1434 44.3821C29.5479 44.3821 29.8758 44.0542 29.8758 43.6497V40.9363C31.3855 39.6811 32.4049 37.8562 32.6021 35.7946H49.2676C49.6722 35.7946 50 35.4667 50 35.0622V25.6781C50 25.2736 49.6722 24.9457 49.2676 24.9457C48.863 24.9457 48.5352 25.2736 48.5352 25.6781V34.3298H32.6019C32.5179 33.451 32.2837 32.6157 31.9264 31.8486H45.3216C45.7262 31.8486 46.054 31.5207 46.054 31.1162V4.67842C46.054 4.27393 45.7262 3.946 45.3216 3.946H4.67832C4.27373 3.946 3.9459 4.27393 3.9459 4.67842V15.6948C3.9459 16.0993 4.27373 16.4272 4.67832 16.4272C5.08291 16.4272 5.41074 16.0993 5.41074 15.6948V5.41084H44.5893V30.3838H31.0309C29.6322 28.585 27.4498 27.4243 25 27.4243C22.5502 27.4243 20.3678 28.585 18.9691 30.3838H5.41074V19.128C5.41074 18.7235 5.08291 18.3956 4.67832 18.3956C4.27373 18.3956 3.9459 18.7235 3.9459 19.128V31.1162C3.9459 31.5207 4.27373 31.8486 4.67832 31.8486H18.0735C17.7162 32.6157 17.4821 33.4509 17.398 34.3298H1.46484V1.46484H48.5352V22.2568C48.5352 22.6613 48.863 22.9893 49.2676 22.9893ZM25 28.8892C28.4037 28.8892 31.1729 31.6583 31.1729 35.0621C31.1729 38.4659 28.4037 41.2352 25 41.2352C21.5963 41.2352 18.8271 38.466 18.8271 35.0622C18.8271 31.6584 21.5963 28.8892 25 28.8892Z" fill="#F2473A"/>
<path d="M18.0947 18.0527C17.6901 18.0527 17.3623 18.3807 17.3623 18.7852C17.3623 19.1896 17.6901 19.5176 18.0947 19.5176H31.9055C32.3101 19.5176 32.6379 19.1896 32.6379 18.7852C32.6379 18.3807 32.3101 18.0527 31.9055 18.0527H18.0947Z" fill="#F2473A"/>
<path d="M12.4297 21.7446C12.4297 22.1491 12.7575 22.4771 13.1621 22.4771H36.8379C37.2425 22.4771 37.5703 22.1491 37.5703 21.7446C37.5703 21.3401 37.2425 21.0122 36.8379 21.0122H13.1621C12.7576 21.0122 12.4297 21.34 12.4297 21.7446Z" fill="#F2473A"/>
<path d="M13.1621 25.0419H36.8379C37.2425 25.0419 37.5703 24.714 37.5703 24.3095C37.5703 23.905 37.2425 23.5771 36.8379 23.5771H13.1621C12.7575 23.5771 12.4297 23.905 12.4297 24.3095C12.4297 24.714 12.7576 25.0419 13.1621 25.0419Z" fill="#F2473A"/>
<path d="M34.7246 28.2554C34.7246 28.6599 35.0524 28.9878 35.457 28.9878H42.3625C42.7671 28.9878 43.0949 28.6599 43.0949 28.2554C43.0949 27.8509 42.7671 27.5229 42.3625 27.5229H35.457C35.0525 27.5229 34.7246 27.8509 34.7246 28.2554Z" fill="#F2473A"/>
<path d="M6.90527 28.2554C6.90527 28.6599 7.23311 28.9878 7.6377 28.9878H14.5432C14.9478 28.9878 15.2756 28.6599 15.2756 28.2554C15.2756 27.8509 14.9478 27.5229 14.5432 27.5229H7.6377C7.23311 27.5229 6.90527 27.8509 6.90527 28.2554Z" fill="#F2473A"/>
<path d="M33.7279 9.93427C33.7256 9.62197 33.5255 9.3455 33.2294 9.2456L25.2342 6.54921C25.0823 6.49804 24.918 6.49804 24.7661 6.54921L16.7709 9.2456C16.4749 9.3454 16.2748 9.62197 16.2725 9.93427C16.2701 10.2466 16.4661 10.5261 16.7607 10.6302L18.842 11.3664V13.6555C18.842 15.5352 21.4894 16.9527 25.0001 16.9527C28.5109 16.9527 31.1582 15.5351 31.1582 13.6555V11.3664L33.2396 10.6302C33.5342 10.526 33.7302 10.2466 33.7279 9.93427ZM25.0002 8.0162L30.7524 9.95615L25.0002 11.9906L19.2481 9.95615L25.0002 8.0162ZM29.6935 13.6555C29.6935 14.4026 27.8652 15.4879 25.0002 15.4879C22.1353 15.4879 20.307 14.4026 20.307 13.6555V11.8845L24.756 13.4581C24.8351 13.486 24.9176 13.5 25.0002 13.5C25.0828 13.5 25.1654 13.486 25.2445 13.4581L29.6935 11.8845V13.6555Z" fill="#F2473A"/>
<path d="M25.9869 37.2892H23.0274C22.6229 37.2892 22.295 37.6171 22.295 38.0216C22.295 38.4261 22.6229 38.754 23.0274 38.754H24.268V39.0081C24.268 39.4126 24.5958 39.7405 25.0004 39.7405C25.405 39.7405 25.7328 39.4126 25.7328 39.0081V38.754H25.9869C26.9347 38.754 27.7058 37.9829 27.7058 37.0351V36.0485C27.7058 35.1007 26.9348 34.3296 25.9869 34.3296H24.014C23.8738 34.3296 23.7599 34.2156 23.7599 34.0755V33.089C23.7599 32.9488 23.8738 32.8349 24.014 32.8349H26.9734C27.378 32.8349 27.7058 32.5069 27.7058 32.1024C27.7058 31.698 27.378 31.37 26.9734 31.37H25.7328V31.0173C25.7328 30.6128 25.405 30.2849 25.0004 30.2849C24.5958 30.2849 24.268 30.6128 24.268 31.0173V31.37H24.0139C23.0661 31.37 22.2949 32.1411 22.2949 33.089V34.0755C22.2949 35.0233 23.066 35.7944 24.0139 35.7944H25.9868C26.1269 35.7944 26.2409 35.9084 26.2409 36.0485V37.0351C26.2409 37.1752 26.1269 37.2892 25.9869 37.2892Z" fill="#F2473A"/>
<path d="M43.4398 8.77226C43.4398 7.55244 42.4475 6.56015 41.2277 6.56015C40.008 6.56015 39.0156 7.55244 39.0156 8.77226C39.0156 9.99208 40.008 10.9844 41.2277 10.9844C42.4475 10.9844 43.4398 9.99208 43.4398 8.77226ZM40.4805 8.77226C40.4805 8.36015 40.8157 8.02499 41.2277 8.02499C41.6397 8.02499 41.975 8.36025 41.975 8.77226C41.975 9.18427 41.6397 9.51953 41.2277 9.51953C40.8157 9.51953 40.4805 9.18437 40.4805 8.77226Z" fill="#F2473A"/>
<path d="M8.77266 6.56015C7.55293 6.56015 6.56055 7.55253 6.56055 8.77226C6.56055 9.99199 7.55293 10.9844 8.77266 10.9844C9.99238 10.9844 10.9848 9.99199 10.9848 8.77226C10.9848 7.55253 9.99238 6.56015 8.77266 6.56015ZM8.77266 9.51953C8.36055 9.51953 8.02539 9.18427 8.02539 8.77226C8.02539 8.36025 8.36064 8.02499 8.77266 8.02499C9.18467 8.02499 9.51992 8.36025 9.51992 8.77226C9.51992 9.18427 9.18477 9.51953 8.77266 9.51953Z" fill="#F2473A"/>
</svg>
