<svg width="40" height="40" viewBox="0 0 40 40" fill="none" xmlns="http://www.w3.org/2000/svg">
<g clip-path="url(#clip0)">
<path d="M21.7711 24.4694C21.264 23.9367 20.3477 23.9362 19.8398 24.4681L15.6632 28.6673C15.2833 29.0499 14.7705 29.2219 14.2688 29.1698C15.9329 27.736 16.0889 26.4761 14.3726 24.993C13.0424 23.791 11.7729 24.5767 10.79 25.7367C10.7079 25.1995 10.8759 24.6357 11.2766 24.2311L15.4613 20.0245C15.9864 19.4967 15.9871 18.6365 15.4627 18.1067C14.577 17.3233 13.3469 15.2919 12.01 16.571C8.48063 20.34 2.74345 23.878 6.88 29.6465L3.928 32.5985C3.38416 33.128 4.22604 33.9685 4.75467 33.4251L12.3603 25.8195C12.6723 25.4942 13.2339 25.4942 13.5458 25.8196C14.028 26.265 14.8251 26.9635 14.163 27.6223L3.23624 38.5493C2.57694 39.2113 1.87883 38.4139 1.43349 37.932C0.532552 37.064 2.32589 35.9913 2.77091 35.4091C3.3164 34.8805 2.47177 34.0386 1.9444 34.5826C0.750278 35.7325 -0.909565 37.0658 0.606905 38.7587C1.144 39.3218 1.79153 40.0189 2.64353 39.9637C3.87804 40.3596 9.4291 33.7093 10.3242 33.1145C16.0403 37.2536 19.586 31.4179 23.2902 27.9202C24.5512 26.6114 22.5384 25.3467 21.7711 24.4694ZM8.13624 22.1262L12.839 17.3953C12.9465 17.3151 13.0041 17.3152 13.1115 17.3953L14.6324 18.9294C14.7066 19.0044 14.7067 19.1258 14.6327 19.2003L10.447 23.4078C9.58691 24.2764 9.36989 25.583 9.85773 26.6691L7.71334 28.8135C6.1913 26.8265 6.33483 23.9417 8.13624 22.1262ZM22.4613 27.0962C19.2835 29.8934 16.0586 35.7622 11.1569 32.2817L13.3206 30.118C14.386 30.5658 15.6566 30.333 16.4923 29.4913L20.6685 25.2926C20.774 25.2111 20.8402 25.214 20.9411 25.2926L22.4616 26.8265C22.5354 26.9008 22.5353 27.0218 22.4613 27.0962Z" fill="#202020"/>
<path d="M39.9674 2.63979C40.0202 1.79069 39.3288 1.1365 38.7621 0.603165C38.0149 -0.175502 36.6706 -0.175502 35.9234 0.603165L29.6502 6.87642C23.8768 2.73924 20.3431 8.47979 16.5743 12.0068C15.2962 13.3399 17.3268 14.5763 18.1107 15.4596C18.6398 15.9834 19.5 15.9829 20.0281 15.4578L24.2337 11.2738C24.639 10.8725 25.2029 10.7043 25.7402 10.7865C24.5798 11.7703 23.7946 13.0381 24.9965 14.369C26.48 16.0861 27.7412 15.928 29.1733 14.2653C29.2253 14.7669 29.0533 15.2797 28.6705 15.6599L24.4716 19.8363C23.1933 21.1691 25.2229 22.4047 26.0068 23.2879C26.5355 23.8126 27.3955 23.8119 27.9238 23.2867L32.6621 18.5765C34.221 17.0315 34.8455 14.7559 34.2921 12.6377C34.2104 12.3254 33.8912 12.1382 33.5788 12.2199C33.2665 12.3015 33.0795 12.6209 33.161 12.9331C34.4926 16.7001 29.1315 20.0997 27.0996 22.4578C27.0253 22.5317 26.9043 22.5317 26.8299 22.4579L25.2964 20.9378C25.2176 20.8367 25.2146 20.7708 25.2961 20.665L29.4946 16.4891C30.3365 15.653 30.5693 14.3824 30.1216 13.317C30.598 12.5177 40.6427 3.63477 39.9674 2.63979ZM23.4104 10.4441L19.2038 14.6289C19.1293 14.7029 19.0078 14.7028 18.9333 14.629L17.3991 13.1079C17.3187 13.0005 17.3187 12.9429 17.3987 12.8354L22.1293 8.13281C23.9452 6.33093 26.83 6.18748 28.817 7.70952L26.6726 9.85391C25.5865 9.36599 24.2797 9.58316 23.4104 10.4441ZM38.5528 3.23258L27.6258 14.1596C27.4675 14.3179 27.2569 14.4051 27.033 14.4051C26.5621 14.4583 26.1298 13.8042 25.823 13.5423C25.498 13.2301 25.4976 12.6689 25.8231 12.3568L36.75 1.42983C37.0619 1.10458 37.6236 1.10458 37.9355 1.42983C38.4177 1.87516 39.2148 2.57367 38.5528 3.23258Z" fill="#202020"/>
<path d="M7.47044 14.2257L9.17804 14.8717C9.472 14.9852 9.81757 14.8368 9.93145 14.5318C10.0457 14.2299 9.89349 13.8926 9.59161 13.7784L7.884 13.1324C7.17946 12.8537 6.75671 13.9677 7.47044 14.2257Z" fill="#202020"/>
<path d="M11.3576 11.4921C11.8793 12.042 12.7319 11.2104 12.1939 10.6753C12.194 10.6753 10.866 9.3154 10.866 9.3154C10.6405 9.0845 10.2704 9.08003 10.0394 9.3056C9.80847 9.53117 9.80408 9.90121 10.0296 10.1322L11.3576 11.4921Z" fill="#202020"/>
<path d="M14.5693 9.23201C14.756 9.97114 15.9029 9.6622 15.6996 8.93412L15.2269 7.14064C15.1446 6.82848 14.8249 6.64213 14.5128 6.7244C14.2007 6.80668 14.0143 7.12636 14.0966 7.43844L14.5693 9.23201Z" fill="#202020"/>
</g>
<defs>
<clipPath id="clip0">
<rect width="40" height="40" fill="white"/>
</clipPath>
</defs>
</svg>
