<svg width="37" height="44" viewBox="0 0 37 44" xmlns="http://www.w3.org/2000/svg">
<path d="M32.0542 33.0818C32.5142 32.2989 32.7792 31.3883 32.7792 30.4165V28.2067C32.7792 27.1542 32.4684 26.1736 31.9355 25.3493C34.6221 22.5773 36.0939 19.0941 36.0939 15.4687C36.0939 11.3102 34.1986 7.40897 30.7569 4.48368C27.3556 1.59224 22.8418 0 18.0472 0C14.9933 0 11.9743 0.666269 9.31678 1.92679C8.88796 2.13021 8.70517 2.64273 8.90858 3.07156C9.11199 3.50039 9.62452 3.68309 10.0533 3.47976C12.4821 2.32769 15.2463 1.71874 18.0472 1.71874C27.0506 1.71874 34.3752 7.88687 34.3752 15.4687C34.3752 18.6077 33.1031 21.637 30.7783 24.0732C29.877 23.357 28.7382 22.9276 27.5003 22.9276C24.5894 22.9276 22.2213 25.2957 22.2213 28.2066V28.7639C20.865 29.0654 19.4636 29.2185 18.0472 29.2185C15.1774 29.2185 12.3553 28.582 9.8856 27.3779C9.75343 27.3134 9.60725 27.284 9.45995 27.2923L9.41724 27.2953C9.35846 27.2987 9.30037 27.308 9.24356 27.3232L7.9564 27.6686C6.05367 28.1792 4.15102 28.6896 2.24812 29.1995C2.24442 29.2004 2.24073 29.2015 2.23712 29.2025C2.03379 29.2596 1.89251 29.1479 1.84104 29.0972C1.77856 29.0357 1.68171 28.9029 1.73404 28.7064C2.31601 26.5344 2.89866 24.3625 3.48149 22.1907C3.54104 21.9688 3.50925 21.7322 3.39314 21.5338C2.28241 19.6366 1.71918 17.5959 1.71918 15.4687C1.71918 12.8061 2.62667 10.222 4.34352 7.99601C4.6333 7.62012 4.56369 7.08052 4.1878 6.79066C3.81192 6.50088 3.27249 6.57049 2.98245 6.94629C1.0316 9.47584 0.000437674 12.4228 0.000437674 15.4686C0.000437674 17.7871 0.582059 20.0115 1.73009 22.0862C1.17769 24.1447 0.625457 26.2031 0.0736558 28.2627C-0.125288 29.0095 0.0843979 29.7791 0.634652 30.3215C1.1776 30.8566 1.96754 31.0621 2.69809 30.8584C4.59953 30.349 6.50063 29.8389 8.4019 29.3288L9.41389 29.0572C12.0483 30.288 15.026 30.9373 18.0472 30.9373C19.4606 30.9373 20.8613 30.7974 22.2239 30.521C22.2422 31.4535 22.5029 32.3271 22.9463 33.0817C21.8575 33.766 20.9304 34.687 20.2368 35.7812C19.3667 37.1538 18.9067 38.7374 18.9067 40.3606V43.1406C18.9067 43.6153 19.2915 44 19.766 44H35.2346C35.7092 44 36.094 43.6153 36.094 43.1406V40.3606C36.094 38.7397 35.6352 37.158 34.7673 35.7866C34.0733 34.6901 33.1449 33.7673 32.0542 33.0818ZM23.94 28.2066C23.94 26.2434 25.5371 24.6463 27.5003 24.6463C29.4634 24.6463 31.0606 26.2434 31.0606 28.2066V30.4165C31.0606 32.3795 29.4634 33.9767 27.5003 33.9767C25.5371 33.9767 23.94 32.3796 23.94 30.4165V28.2066ZM34.3752 42.2812H20.6254V40.3605C20.6254 37.8899 21.9309 35.6508 24.0603 34.4157C24.985 35.2122 26.1869 35.6954 27.5003 35.6954C28.8136 35.6954 30.0154 35.2123 30.9401 34.4158C33.0694 35.651 34.3752 37.8907 34.3752 40.3605V42.2812Z"/>
<path d="M8.30356 14.159C8.7781 14.159 9.16293 13.7743 9.16293 13.2996C9.16293 12.5889 9.7412 12.0106 10.452 12.0106C11.1628 12.0106 11.7411 12.5889 11.7411 13.2996C11.7411 13.6439 11.6037 13.9708 11.3543 14.2201C10.3562 15.2183 9.59262 16.072 9.59262 17.207C9.59262 17.6816 9.97744 18.0663 10.452 18.0663C10.9265 18.0663 11.3114 17.6816 11.3114 17.207C11.3114 16.8232 11.6288 16.3762 12.5697 15.4354C13.1437 14.8615 13.4598 14.103 13.4598 13.2996C13.4598 11.641 12.1105 10.2917 10.452 10.2917C8.79349 10.2917 7.44418 11.641 7.44418 13.2996C7.44418 13.7743 7.82901 14.159 8.30356 14.159Z"/>
<path d="M10.4518 18.9255C9.97727 18.9255 9.59244 19.3103 9.59244 19.7849V19.7855C9.59244 20.2601 9.97727 20.6446 10.4518 20.6446C10.9264 20.6446 11.3112 20.2595 11.3112 19.7849C11.3112 19.3103 10.9264 18.9255 10.4518 18.9255Z"/>
<path d="M16.3958 12.011H27.7911C28.2657 12.011 28.6505 11.6262 28.6505 11.1516C28.6505 10.677 28.2657 10.2922 27.7911 10.2922H16.3958C15.9212 10.2922 15.5364 10.677 15.5364 11.1516C15.5364 11.6262 15.9212 12.011 16.3958 12.011Z"/>
<path d="M16.3958 16.3281H27.7911C28.2657 16.3281 28.6505 15.9434 28.6505 15.4687C28.6505 14.9941 28.2657 14.6094 27.7911 14.6094H16.3958C15.9212 14.6094 15.5364 14.9941 15.5364 15.4687C15.5364 15.9434 15.9212 16.3281 16.3958 16.3281Z"/>
<path d="M16.3958 20.6453H27.7911C28.2657 20.6453 28.6505 20.2605 28.6505 19.7859C28.6505 19.3113 28.2657 18.9265 27.7911 18.9265H16.3958C15.9212 18.9265 15.5364 19.3113 15.5364 19.7859C15.5364 20.2605 15.9212 20.6453 16.3958 20.6453Z"/>
<path d="M6.39253 5.59057C6.86708 5.59057 7.2519 5.20583 7.2519 4.7312C7.2519 4.25657 6.86708 3.87183 6.39253 3.87183H6.39193C5.91738 3.87183 5.5329 4.25657 5.5329 4.7312C5.5329 5.20583 5.9179 5.59057 6.39253 5.59057Z"/>
</svg>
