<svg width="49" height="49" viewBox="0 0 49 49" fill="none" xmlns="http://www.w3.org/2000/svg">
<path d="M24.4999 0C10.969 0 0 10.969 0 24.4999C0 38.0309 10.969 48.9999 24.4999 48.9999C38.0309 48.9999 48.9999 38.0309 48.9999 24.4999C48.9855 10.9751 38.0249 0.014458 24.4999 0ZM24.4999 45.4999C12.902 45.4999 3.49996 36.0979 3.49996 24.4999C3.49996 12.902 12.902 3.49996 24.4999 3.49996C36.0979 3.49996 45.4999 12.902 45.4999 24.4999C45.4874 36.0928 36.0928 45.4874 24.4999 45.4999Z" fill="#F2473A"/>
<path d="M37.9437 14.5128C37.2655 13.8578 36.1904 13.8578 35.5123 14.5128L19.2495 30.7755L13.4867 25.0127C12.8153 24.3175 11.7074 24.2983 11.0123 24.9697C10.317 25.6412 10.2979 26.7491 10.9693 27.4442C10.9833 27.4588 10.9977 27.4731 11.0123 27.4872L18.0123 34.4872C18.6956 35.1704 19.8034 35.1704 20.4868 34.4872L37.9868 16.9872C38.6582 16.2921 38.6389 15.1842 37.9437 14.5128Z" fill="#F2473A"/>
</svg>
