<svg width="18" height="13" viewBox="0 0 18 13" fill="none" xmlns="http://www.w3.org/2000/svg">
<path d="M15.1665 0.444149C15.4746 0.162627 15.8934 0.00295969 16.3312 4.07329e-05C16.769 -0.00287823 17.1902 0.151189 17.5029 0.428572C17.8156 0.705954 17.9943 1.0841 17.9999 1.48036C18.0055 1.87662 17.8376 2.25878 17.5328 2.54331L8.71538 12.5209C8.5639 12.6686 8.38111 12.7871 8.17793 12.8693C7.97474 12.9516 7.75532 12.9959 7.53278 12.9997C7.31024 13.0035 7.08913 12.9667 6.88266 12.8914C6.67619 12.8162 6.48859 12.704 6.33107 12.5617L0.485023 7.27202C0.174363 6.99069 -0.000105411 6.60917 4.77811e-08 6.21139C0.000105506 5.81362 0.174776 5.43218 0.485585 5.15098C0.796395 4.86977 1.21788 4.71185 1.65733 4.71195C2.09678 4.71204 2.51818 4.87015 2.82884 5.15148L7.45237 9.33759L15.1226 0.490978C15.1366 0.474881 15.1516 0.459581 15.1676 0.445167L15.1665 0.444149Z" fill="#219653"/>
</svg>
