<svg width="13" height="13" viewBox="0 0 13 13" fill="none" xmlns="http://www.w3.org/2000/svg">
<path d="M8.08778 6.37919L12.3592 2.10653C12.4746 1.99506 12.5667 1.86173 12.63 1.71431C12.6934 1.56689 12.7267 1.40833 12.7281 1.24789C12.7295 1.08744 12.6989 0.928331 12.6381 0.779832C12.5774 0.631332 12.4877 0.496419 12.3742 0.382965C12.2608 0.269511 12.1258 0.179789 11.9773 0.119033C11.8288 0.0582768 11.6697 0.0277042 11.5093 0.0290984C11.3489 0.0304926 11.1903 0.063826 11.0429 0.127154C10.8955 0.190481 10.7621 0.282534 10.6507 0.397942L6.37798 4.6694L2.10653 0.397942C1.99506 0.282534 1.86173 0.190481 1.71431 0.127154C1.56689 0.063826 1.40833 0.0304926 1.24789 0.0290984C1.08744 0.0277042 0.928331 0.0582768 0.779832 0.119033C0.631332 0.179789 0.496419 0.269511 0.382965 0.382965C0.269511 0.496419 0.179789 0.631332 0.119033 0.779832C0.0582768 0.928331 0.0277042 1.08744 0.0290984 1.24789C0.0304926 1.40833 0.063826 1.56689 0.127154 1.71431C0.190481 1.86173 0.282534 1.99506 0.397942 2.10653L4.6694 6.37798L0.397942 10.6507C0.282534 10.7621 0.190481 10.8955 0.127154 11.0429C0.063826 11.1903 0.0304926 11.3489 0.0290984 11.5093C0.0277042 11.6697 0.0582768 11.8288 0.119033 11.9773C0.179789 12.1258 0.269511 12.2608 0.382965 12.3742C0.496419 12.4877 0.631332 12.5774 0.779832 12.6381C0.928331 12.6989 1.08744 12.7295 1.24789 12.7281C1.40833 12.7267 1.56689 12.6934 1.71431 12.63C1.86173 12.5667 1.99506 12.4746 2.10653 12.3592L6.37798 8.08778L10.6507 12.3592C10.7621 12.4746 10.8955 12.5667 11.0429 12.63C11.1903 12.6934 11.3489 12.7267 11.5093 12.7281C11.6697 12.7295 11.8288 12.6989 11.9773 12.6381C12.1258 12.5774 12.2608 12.4877 12.3742 12.3742C12.4877 12.2608 12.5774 12.1258 12.6381 11.9773C12.6989 11.8288 12.7295 11.6697 12.7281 11.5093C12.7267 11.3489 12.6934 11.1903 12.63 11.0429C12.5667 10.8955 12.4746 10.7621 12.3592 10.6507L8.08778 6.37798V6.37919Z" fill="#F2473A"/>
</svg>
