<svg width="13" height="13" viewBox="0 0 13 13" fill="none" xmlns="http://www.w3.org/2000/svg">
<path d="M8.08802 6.37944L12.3595 2.10677C12.4749 1.99531 12.5669 1.86197 12.6303 1.71455C12.6936 1.56713 12.7269 1.40857 12.7283 1.24813C12.7297 1.08769 12.6991 0.928575 12.6384 0.780076C12.5776 0.631576 12.4879 0.496663 12.3745 0.383209C12.261 0.269756 12.1261 0.180033 11.9776 0.119277C11.8291 0.0585209 11.67 0.0279483 11.5095 0.0293425C11.3491 0.0307367 11.1905 0.0640701 11.0431 0.127398C10.8957 0.190725 10.7624 0.282778 10.6509 0.398186L6.37823 4.66964L2.10677 0.398186C1.99531 0.282778 1.86197 0.190725 1.71455 0.127398C1.56713 0.0640701 1.40857 0.0307367 1.24813 0.0293425C1.08769 0.0279483 0.928575 0.0585209 0.780076 0.119277C0.631576 0.180033 0.496663 0.269756 0.383209 0.383209C0.269756 0.496663 0.180033 0.631576 0.119277 0.780076C0.0585209 0.928575 0.0279483 1.08769 0.0293425 1.24813C0.0307367 1.40857 0.0640701 1.56713 0.127398 1.71455C0.190725 1.86197 0.282778 1.99531 0.398186 2.10677L4.66964 6.37823L0.398186 10.6509C0.282778 10.7624 0.190725 10.8957 0.127398 11.0431C0.0640701 11.1905 0.0307367 11.3491 0.0293425 11.5095C0.0279483 11.67 0.0585209 11.8291 0.119277 11.9776C0.180033 12.1261 0.269756 12.261 0.383209 12.3745C0.496663 12.4879 0.631576 12.5776 0.780076 12.6384C0.928575 12.6991 1.08769 12.7297 1.24813 12.7283C1.40857 12.7269 1.56713 12.6936 1.71455 12.6303C1.86197 12.5669 1.99531 12.4749 2.10677 12.3595L6.37823 8.08802L10.6509 12.3595C10.7624 12.4749 10.8957 12.5669 11.0431 12.6303C11.1905 12.6936 11.3491 12.7269 11.5095 12.7283C11.67 12.7297 11.8291 12.6991 11.9776 12.6384C12.1261 12.5776 12.261 12.4879 12.3745 12.3745C12.4879 12.261 12.5776 12.1261 12.6384 11.9776C12.6991 11.8291 12.7297 11.67 12.7283 11.5095C12.7269 11.3491 12.6936 11.1905 12.6303 11.0431C12.5669 10.8957 12.4749 10.7624 12.3595 10.6509L8.08802 6.37823V6.37944Z" fill="#E0E0E0"/>
</svg>
