<svg width="50" height="50" viewBox="0 0 50 50" fill="none" xmlns="http://www.w3.org/2000/svg">
<g clip-path="url(#clip0)">
<path d="M49.1714 1.12842C49.1354 0.765332 48.8376 0.484082 48.4731 0.468848C48.3611 0.46416 37.1353 0 25 0C21.7669 0 18.3149 0.0327148 14.74 0.0970703C14.3354 0.104395 14.0134 0.438184 14.0207 0.842578C14.0279 1.24697 14.3594 1.56484 14.7664 1.56172C18.3325 1.49746 21.7757 1.46484 25 1.46484C35.4494 1.46484 45.2228 1.80977 47.7707 1.90713C48.0426 5.05703 49.1431 19.4901 48.0837 35.7858C46.6271 35.84 42.8737 35.9711 38.0277 36.0767C38.0274 32.5795 37.9795 26.8946 29.0091 25.6365C29.3076 25.4173 29.5878 25.1687 29.849 24.8906C31.7933 22.8216 32.1434 19.682 32.1904 18.1337C32.3774 18.1604 32.5689 18.1805 32.7648 18.1931C33.1161 18.2159 33.4333 17.9859 33.5213 17.6454C34.4635 13.9993 33.4561 11.8866 32.445 10.7564C31.0477 9.19443 29.0591 8.78203 27.5605 8.91719C25.3475 7.54355 21.5682 7.20654 18.8062 9.01699C15.3613 11.2752 15.588 15.364 16.0297 17.6003C16.096 17.9359 16.3859 18.181 16.7279 18.1905C16.7508 18.1912 16.8984 18.195 17.1462 18.195C17.3201 18.195 17.5434 18.1932 17.8073 18.1869C17.8431 19.6651 18.1637 22.8047 20.1137 24.8822C20.3791 25.165 20.6643 25.4176 20.9687 25.6396C12.0206 26.9042 11.9728 32.5815 11.9726 36.0767C7.12667 35.9712 3.37315 35.84 1.91651 35.7858C0.857035 19.4901 1.95752 5.05693 2.2293 1.90703C3.55616 1.85615 6.84063 1.73799 11.1299 1.63721C11.5344 1.62764 11.8546 1.29219 11.845 0.887793C11.8357 0.489258 11.5096 0.172559 11.113 0.172559C11.1071 0.172559 11.1013 0.172656 11.0955 0.172754C5.46983 0.304883 1.56573 0.467188 1.52696 0.468848C1.16241 0.484082 0.864653 0.765332 0.828617 1.12842C0.809867 1.31768 -1.02597 20.2874 0.828032 40.6928C0.861235 41.0584 1.16006 41.3429 1.52696 41.3582C1.54551 41.359 3.41749 41.437 6.40958 41.5279C6.41719 41.5282 6.42471 41.5283 6.43223 41.5283C6.82647 41.5283 7.15196 41.2148 7.16407 40.8183C7.17637 40.4139 6.8585 40.0762 6.45411 40.0639C4.49493 40.0043 3.01827 39.9503 2.23018 39.92C2.15245 39.0282 2.08165 38.1395 2.01739 37.2555C4.86544 37.3603 14.7233 37.6931 24.9999 37.6931C35.2766 37.6931 45.1345 37.3603 47.9824 37.2555C47.9182 38.1395 47.8475 39.0281 47.7697 39.9199C45.2204 40.0173 35.4492 40.3622 25 40.3622C20.3305 40.3622 15.2896 40.295 10.0172 40.1627C10.0109 40.1626 10.0047 40.1625 9.99845 40.1625C9.60235 40.1625 9.27647 40.4784 9.26641 40.8766C9.25626 41.281 9.57589 41.617 9.98038 41.6272C13.3145 41.7109 16.5565 41.7686 19.6712 41.7997C17.3641 46.3823 13.9001 48.6256 13.8638 48.6486C13.5882 48.8228 13.4609 49.1583 13.5516 49.4715C13.6423 49.7846 13.9292 50.0001 14.2553 50.0001H26.8444C27.249 50.0001 27.5771 49.6723 27.5771 49.2677C27.5771 48.8631 27.249 48.5353 26.8444 48.5353H16.3644C17.7884 47.2515 19.8095 45.037 21.2906 41.8136C22.5504 41.8226 23.7877 41.827 25.0001 41.827C26.2499 41.827 27.4901 41.8222 28.7094 41.8133C30.1905 45.0368 32.2117 47.2514 33.6358 48.5352H30.285C29.8804 48.5352 29.5524 48.863 29.5524 49.2676C29.5524 49.6722 29.8804 50 30.285 50H35.7447C36.0703 50 36.3565 49.7848 36.4475 49.4722C36.5385 49.1596 36.4118 48.824 36.1371 48.6491C36.0999 48.6255 32.6357 46.3821 30.3285 41.7991C40.2329 41.6989 48.3778 41.3621 48.4731 41.3581C48.84 41.3428 49.1388 41.0583 49.172 40.6927C51.026 20.2873 49.1902 1.31758 49.1714 1.12842ZM27.8251 10.3665C28.9042 10.3045 30.3588 10.6218 31.3529 11.7328C32.3634 12.8625 32.6679 14.5571 32.2453 16.6591C29.8386 16.2489 28.3224 14.479 28.3073 14.4611C28.3068 14.4604 28.3061 14.4597 28.3055 14.459C26.8643 12.7335 27.4903 11.0214 27.8251 10.3665ZM19.2739 18.1196C20.0095 18.0698 20.8553 17.9881 21.7435 17.8553C22.1437 17.7954 22.4195 17.4226 22.3597 17.0226C22.2999 16.6226 21.9271 16.3472 21.5269 16.4064C19.7899 16.6661 18.1931 16.7199 17.3642 16.7281C16.7957 12.9769 18.249 11.1337 19.6095 10.2419C21.693 8.87627 24.5774 9.02607 26.3979 9.94316C25.8809 11.0991 25.5792 12.9518 26.7164 14.7607C26.1387 15.1213 25.4326 15.4385 24.6081 15.7074C24.2235 15.8328 24.0134 16.2463 24.1388 16.6308C24.2643 17.0153 24.6775 17.2255 25.0624 17.1C26.0766 16.7693 26.9475 16.3652 27.661 15.8949C28.2301 16.4293 29.2847 17.2677 30.7291 17.775C30.7199 18.9518 30.5204 22.0407 28.7775 23.8915C27.8455 24.8812 26.5746 25.3829 25 25.3829C23.4049 25.3829 22.1216 24.8786 21.1859 23.8839C19.5658 22.1619 19.3046 19.3803 19.2739 18.1196ZM26.5965 27.7854C26.313 28.1622 25.7759 28.3533 25 28.3533C24.224 28.3533 23.6869 28.1622 23.4035 27.7854C23.1631 27.4656 23.1038 27.0193 23.115 26.6297C23.701 26.7749 24.3299 26.8479 25.0001 26.8479C25.6701 26.8479 26.299 26.7737 26.885 26.6262C26.8965 27.0171 26.8376 27.4648 26.5965 27.7854ZM25 36.2283C20.9449 36.2283 16.9551 36.1764 13.4376 36.1071C13.4376 34.3741 13.4431 32.2245 14.5379 30.4919C15.7446 28.5823 18.0776 27.4453 21.6561 27.0272C21.6946 27.5574 21.8439 28.1446 22.2259 28.657C22.8003 29.4276 23.7337 29.8184 25 29.8184C26.2663 29.8184 27.1997 29.4276 27.7741 28.657C28.1561 28.1447 28.3053 27.5574 28.344 27.0273C31.9262 27.446 34.2601 28.5848 35.4657 30.4977C36.5571 32.2292 36.5624 34.3762 36.5625 36.1071C33.0451 36.1764 29.0554 36.2283 25 36.2283Z" fill="#F2473A"/>
<path d="M4.40083 18.6161C3.99624 18.6161 3.66821 18.9439 3.66821 19.3485V25.5882C3.66821 25.9928 3.99624 26.3206 4.40083 26.3206C4.80542 26.3206 5.13345 25.9928 5.13345 25.5882V19.3485C5.13345 18.9439 4.80542 18.6161 4.40083 18.6161Z" fill="#F2473A"/>
<path d="M8.95151 25.3439C10.2539 25.3439 11.3134 24.2845 11.3134 22.9825V20.0007C11.3134 18.6987 10.2539 17.6394 8.95151 17.6394C7.64907 17.6394 6.5896 18.6987 6.5896 20.0007V22.9825C6.5895 24.2846 7.64907 25.3439 8.95151 25.3439ZM8.05474 20.0008C8.05474 19.5065 8.45708 19.1043 8.95151 19.1043C9.44595 19.1043 9.84819 19.5065 9.84819 20.0008V22.9826C9.84819 23.477 9.44595 23.8792 8.95151 23.8792C8.45708 23.8792 8.05474 23.477 8.05474 22.9826V20.0008Z" fill="#F2473A"/>
<path d="M43.9698 17.6395C42.6675 17.6395 41.6079 18.6988 41.6079 20.0009V22.9826C41.6079 24.2846 42.6675 25.344 43.9698 25.344C45.2722 25.344 46.3317 24.2846 46.3317 22.9826V20.0009C46.3318 18.6988 45.2723 17.6395 43.9698 17.6395ZM44.8666 20.0009V22.9826C44.8666 23.477 44.4643 23.8792 43.9698 23.8792C43.4754 23.8792 43.0731 23.477 43.0731 22.9826V20.0009C43.0731 19.5065 43.4755 19.1044 43.9699 19.1044C44.4644 19.1044 44.8666 19.5065 44.8666 20.0009Z" fill="#F2473A"/>
<path d="M13.5021 26.3496C13.9067 26.3496 14.2348 26.0218 14.2348 25.6172V19.3776C14.2348 18.973 13.9067 18.6451 13.5021 18.6451C13.0976 18.6451 12.7695 18.973 12.7695 19.3776V25.6172C12.7695 26.0218 13.0976 26.3496 13.5021 26.3496Z" fill="#F2473A"/>
<path d="M35.6171 4.13379C35.2126 4.13379 34.8845 4.46162 34.8845 4.86621V11.1059C34.8845 11.5104 35.2126 11.8383 35.6171 11.8383C36.0217 11.8383 36.3498 11.5104 36.3498 11.1059V4.86621C36.3498 4.46172 36.0217 4.13379 35.6171 4.13379Z" fill="#F2473A"/>
<path d="M40.1678 5.11035C38.8655 5.11035 37.8059 6.16973 37.8059 7.47178V10.4534C37.8059 11.7555 38.8655 12.8148 40.1678 12.8148C41.4702 12.8148 42.5297 11.7555 42.5297 10.4534V7.47178C42.5297 6.16973 41.4702 5.11035 40.1678 5.11035ZM41.0646 10.4534C41.0646 10.9479 40.6623 11.35 40.1678 11.35C39.6734 11.35 39.2711 10.9479 39.2711 10.4534V7.47178C39.2711 6.97734 39.6734 6.5752 40.1678 6.5752C40.6623 6.5752 41.0646 6.97734 41.0646 7.47178V10.4534Z" fill="#F2473A"/>
<path d="M35.7922 17.41V23.6496C35.7922 24.0542 36.1203 24.382 36.5249 24.382C36.9294 24.382 37.2575 24.0542 37.2575 23.6496V17.41C37.2575 17.0054 36.9294 16.6776 36.5249 16.6776C36.1203 16.6776 35.7922 17.0055 35.7922 17.41Z" fill="#F2473A"/>
<path d="M39.4726 17.6831C39.068 17.6831 38.74 18.0109 38.74 18.4155V24.6552C38.74 25.0598 39.068 25.3876 39.4726 25.3876C39.8772 25.3876 40.2052 25.0598 40.2052 24.6552V18.4155C40.2052 18.011 39.8772 17.6831 39.4726 17.6831Z" fill="#F2473A"/>
<path d="M9.06221 10.4607V7.479C9.06221 6.17695 8.00264 5.11768 6.70029 5.11768C5.39795 5.11768 4.33838 6.17695 4.33838 7.479V10.4607C4.33838 11.7628 5.39795 12.8221 6.70029 12.8221C8.00264 12.8221 9.06221 11.7628 9.06221 10.4607ZM5.80361 10.4607V7.479C5.80361 6.98467 6.20586 6.58252 6.70029 6.58252C7.19473 6.58252 7.59697 6.98467 7.59697 7.479V10.4607C7.59697 10.9551 7.19473 11.3572 6.70029 11.3572C6.20586 11.3572 5.80361 10.9551 5.80361 10.4607Z" fill="#F2473A"/>
<path d="M14.1452 11.8602C14.5498 11.8602 14.8778 11.5323 14.8778 11.1277V4.88818C14.8778 4.48359 14.5498 4.15576 14.1452 4.15576C13.7406 4.15576 13.4126 4.48359 13.4126 4.88818V11.1278C13.4126 11.5323 13.7406 11.8602 14.1452 11.8602Z" fill="#F2473A"/>
<path d="M11.9301 12.1333V5.8938C11.9301 5.48921 11.6021 5.16138 11.1975 5.16138C10.7929 5.16138 10.4648 5.48921 10.4648 5.8938V12.1334C10.4648 12.538 10.7929 12.8659 11.1975 12.8659C11.6021 12.8658 11.9301 12.5379 11.9301 12.1333Z" fill="#F2473A"/>
<path d="M45.4511 12.1115V5.87195C45.4511 5.46736 45.123 5.13953 44.7185 5.13953C44.3139 5.13953 43.9858 5.46736 43.9858 5.87195V12.1116C43.9858 12.5162 44.3139 12.844 44.7185 12.844C45.1231 12.8439 45.4511 12.5161 45.4511 12.1115Z" fill="#F2473A"/>
</g>
<defs>
<clipPath id="clip0">
<rect width="50" height="50" fill="white"/>
</clipPath>
</defs>
</svg>
