<svg width="44" height="44" viewBox="0 0 44 44" xmlns="http://www.w3.org/2000/svg">
<g clip-path="url(#clip0)">
<path d="M22.0002 19.8C21.8931 19.8 21.7868 19.7766 21.6878 19.7304L9.2211 13.8637C8.96444 13.7427 8.80017 13.4838 8.80017 13.2C8.80017 12.9162 8.96444 12.6574 9.2211 12.5364L21.6878 6.6697C21.8858 6.57657 22.1146 6.57657 22.3126 6.6697L34.7792 12.5364C35.0359 12.6574 35.2002 12.9162 35.2002 13.2C35.2002 13.4838 35.0359 13.7427 34.7792 13.8637L22.3126 19.7304C22.2136 19.7766 22.1072 19.8 22.0002 19.8ZM11.2561 13.2L22.0002 18.2564L32.7442 13.2L22.0002 8.1437L11.2561 13.2Z"/>
<path d="M21.9998 25.6667C21.8876 25.6667 21.7746 25.6411 21.672 25.5897L12.872 21.1897C12.6234 21.0651 12.4664 20.8113 12.4664 20.5334V14.9256C12.4664 14.6748 12.5948 14.4409 12.8067 14.3067C13.0186 14.1717 13.2848 14.1563 13.5114 14.2619L21.9998 18.2564L30.4873 14.2619C30.7147 14.1556 30.9809 14.1717 31.1921 14.3067C31.4047 14.4409 31.5331 14.6748 31.5331 14.9256V20.5334C31.5331 20.8113 31.3761 21.0651 31.1275 21.1897L22.3276 25.5897C22.2249 25.6411 22.112 25.6667 21.9998 25.6667ZM13.9331 20.0802L21.9998 24.1135L30.0664 20.0802V16.0813L22.3122 19.7304C22.1142 19.8235 21.8854 19.8235 21.6874 19.7304L13.9331 16.0813V20.0802Z"/>
<path d="M34.4665 13.9332H21.9998C21.595 13.9332 21.2665 13.6047 21.2665 13.1999C21.2665 12.7951 21.595 12.4666 21.9998 12.4666H34.4665C34.8713 12.4666 35.1998 12.7951 35.1998 13.1999C35.1998 13.6047 34.8713 13.9332 34.4665 13.9332Z"/>
<path d="M34.4668 20.5332C34.0621 20.5332 33.7335 20.2047 33.7335 19.7999V13.1999C33.7335 12.7951 34.0621 12.4666 34.4668 12.4666C34.8716 12.4666 35.2002 12.7951 35.2002 13.1999V19.7999C35.2002 20.2047 34.8716 20.5332 34.4668 20.5332Z"/>
<path d="M21.9998 15.4C21.595 15.4 21.2665 15.0715 21.2665 14.6667V11.7333C21.2665 11.3285 21.595 11 21.9998 11C22.4046 11 22.7331 11.3285 22.7331 11.7333V14.6667C22.7331 15.0715 22.4046 15.4 21.9998 15.4Z"/>
<path d="M32.9993 22.7336C32.86 22.7336 32.7184 22.694 32.593 22.6104C32.2564 22.386 32.1655 21.9306 32.3899 21.5932L33.8566 19.3932C34.081 19.0559 34.5356 18.9642 34.8737 19.1901C35.2103 19.4145 35.3012 19.8699 35.0768 20.2072L33.6102 22.4072C33.4686 22.6192 33.2362 22.7336 32.9993 22.7336Z"/>
<path d="M35.9343 22.7336C35.6975 22.7336 35.465 22.6192 35.3235 22.4072L33.8568 20.2072C33.6324 19.8706 33.7233 19.4145 34.0599 19.1901C34.3965 18.9642 34.8519 19.0559 35.0771 19.3932L36.5437 21.5932C36.7681 21.9298 36.6772 22.386 36.3406 22.6104C36.2152 22.694 36.0737 22.7336 35.9343 22.7336Z"/>
<path d="M21.9998 22.0002C21.595 22.0002 21.2665 21.6716 21.2665 21.2668V19.0668C21.2665 18.662 21.595 18.3335 21.9998 18.3335C22.4046 18.3335 22.7331 18.662 22.7331 19.0668V21.2668C22.7331 21.6716 22.4046 22.0002 21.9998 22.0002Z"/>
<path d="M43.2667 28.6001H0.733333C0.328533 28.6001 0 28.2715 0 27.8667V3.66747C0 2.04973 1.31633 0.733398 2.93407 0.733398H41.0659C42.6837 0.733398 44 2.04973 44 3.66747V27.8667C44 28.2715 43.6715 28.6001 43.2667 28.6001ZM1.46667 27.1334H42.5333V3.66747C42.5333 2.85787 41.8755 2.20007 41.0659 2.20007H2.93407C2.12447 2.20007 1.46667 2.85787 1.46667 3.66747V27.1334Z"/>
<path d="M41.0659 34.4666H2.93407C1.31633 34.4666 0 33.1503 0 31.5326V27.8666C0 27.4618 0.328533 27.1333 0.733333 27.1333H43.2667C43.6715 27.1333 44 27.4618 44 27.8666V31.5326C44 33.1503 42.6837 34.4666 41.0659 34.4666ZM1.46667 28.6V31.5326C1.46667 32.3422 2.12447 33 2.93407 33H41.0659C41.8755 33 42.5333 32.3422 42.5333 31.5326V28.6H1.46667Z"/>
<path d="M24.2 31.5333H19.8C19.3952 31.5333 19.0667 31.2048 19.0667 30.8C19.0667 30.3952 19.3952 30.0667 19.8 30.0667H24.2C24.6048 30.0667 24.9333 30.3952 24.9333 30.8C24.9333 31.2048 24.6048 31.5333 24.2 31.5333Z"/>
<path d="M40.3334 28.5998H3.66668C3.26188 28.5998 2.93335 28.2713 2.93335 27.8665V4.39984C2.93335 3.99504 3.26188 3.6665 3.66668 3.6665H40.3334C40.7382 3.6665 41.0667 3.99504 41.0667 4.39984V27.8665C41.0667 28.2713 40.7382 28.5998 40.3334 28.5998ZM4.40002 27.1332H39.6V5.13317H4.40002V27.1332Z"/>
<path d="M31.5331 43.2667H12.4665C11.2535 43.2667 10.2665 42.2796 10.2665 41.0667C10.2665 39.8538 11.2535 38.8667 12.4665 38.8667H31.5331C32.7461 38.8667 33.7331 39.8538 33.7331 41.0667C33.7331 42.2796 32.7461 43.2667 31.5331 43.2667ZM12.4665 40.3334C12.0624 40.3334 11.7331 40.6626 11.7331 41.0667C11.7331 41.4708 12.0624 41.8 12.4665 41.8H31.5331C31.9372 41.8 32.2665 41.4708 32.2665 41.0667C32.2665 40.6626 31.9372 40.3334 31.5331 40.3334H12.4665Z"/>
<path d="M30.0665 40.3333H13.9331C13.5283 40.3333 13.1998 40.0048 13.1998 39.6C13.1998 39.1952 13.5283 38.8667 13.9331 38.8667C16.3663 38.8667 17.5998 37.1397 17.5998 33.7333C17.5998 33.3285 17.9283 33 18.3331 33H25.6665C26.0713 33 26.3998 33.3285 26.3998 33.7333C26.3998 37.1397 27.6333 38.8667 30.0665 38.8667C30.4713 38.8667 30.7998 39.1952 30.7998 39.6C30.7998 40.0048 30.4713 40.3333 30.0665 40.3333ZM17.5052 38.8667H26.4951C25.5917 37.8664 25.06 36.377 24.9537 34.4667H19.0467C18.9396 36.377 18.4087 37.8664 17.5052 38.8667Z"/>
</g>
<defs>
<clipPath id="clip0">
<rect width="44" height="44" fill="white"/>
</clipPath>
</defs>
</svg>
