<svg width="62" height="62" viewBox="0 0 62 62" fill="none" xmlns="http://www.w3.org/2000/svg">
<path d="M61.0312 42.625V34.875C61.0312 31.156 58.6869 27.9833 55.4018 26.7317C57.0516 25.4936 58.125 23.529 58.125 21.3125C58.125 17.5741 55.0822 14.5312 51.3438 14.5312C47.6053 14.5312 44.5625 17.5741 44.5625 21.3125C44.5625 23.6026 45.7066 25.6273 47.4503 26.8557C46.4477 27.1473 45.4712 27.5251 44.5383 27.992C43.1355 28.6924 41.5671 29.0625 40.0016 29.0625H39.7188V22.2812H37.7812V18.4062H31C29.3977 18.4062 28.0938 19.7102 28.0938 21.3125V31.9688H19.375V23.1357C25.5091 22.1553 30.0312 16.9183 30.0312 10.6127V4.35938C30.0312 2.48969 28.5103 0.96875 26.6406 0.96875C24.7709 0.96875 23.25 2.48969 23.25 4.35938V9.6875C23.25 12.8931 20.6431 15.5 17.4375 15.5H17.33C18.5903 14.2678 19.375 12.5531 19.375 10.6562C19.375 6.91784 16.3322 3.875 12.5938 3.875C8.85534 3.875 5.8125 6.91784 5.8125 10.6562C5.8125 12.8224 6.83744 14.7502 8.42425 15.9931C4.1075 17.3552 0.96875 21.3958 0.96875 26.1562V31.9513C0.96875 33.2494 1.47444 34.4681 2.39572 35.3836C3.31022 36.2952 4.53084 36.8115 5.8125 36.7941V51.3438C5.8125 53.4808 7.55044 55.2188 9.6875 55.2188C10.851 55.2188 11.8827 54.6937 12.5938 53.8799C13.3048 54.6937 14.3365 55.2188 15.5 55.2188C16.2091 55.2188 16.865 55.0134 17.4375 54.6801V61.0312H23.25V39.7188H44.5625V41.6562H43.4804C41.3927 41.6562 39.5453 42.9873 38.8856 44.9684L35.0542 56.4646C34.9351 56.8201 34.875 57.1892 34.875 57.5622C34.875 59.4754 36.4308 61.0312 38.3441 61.0312H38.8856C40.3823 61.0312 41.7047 60.078 42.1755 58.6597L44.5625 51.5007V61.0312H50.375V53.2812H59.0938C60.1623 53.2812 61.0312 52.4123 61.0312 51.3438V49.4062C61.0312 48.3377 60.1623 47.4688 59.0938 47.4688H58.9862C60.2466 46.2365 61.0312 44.5218 61.0312 42.625V42.625ZM46.5 21.3125C46.5 18.6417 48.6729 16.4688 51.3438 16.4688C54.0146 16.4688 56.1875 18.6417 56.1875 21.3125C56.1875 23.9833 54.0146 26.1562 51.3438 26.1562C48.6729 26.1562 46.5 23.9833 46.5 21.3125ZM37.7812 29.0625H35.3594C33.4897 29.0625 31.9688 30.5834 31.9688 32.4531C31.9688 32.9753 32.0976 33.4645 32.3088 33.9062H31C30.4653 33.9062 30.0312 33.4722 30.0312 32.9375V24.0405C30.3354 24.149 30.659 24.2188 31 24.2188H37.7812V29.0625ZM31 20.3438H35.8438V22.2812H31C30.4653 22.2812 30.0312 21.8472 30.0312 21.3125C30.0312 20.7778 30.4653 20.3438 31 20.3438ZM25.1875 9.6875V4.35938C25.1875 3.55822 25.8395 2.90625 26.6406 2.90625C27.4418 2.90625 28.0938 3.55822 28.0938 4.35938V10.6127C28.0938 16.2082 23.8913 20.8097 18.3181 21.3164L17.4375 21.3968V28.8843C16.3128 28.4832 15.5 27.4176 15.5 26.1562V17.4375H17.4375C21.7107 17.4375 25.1875 13.9607 25.1875 9.6875V9.6875ZM7.75 10.6562C7.75 7.98541 9.92291 5.8125 12.5938 5.8125C15.2646 5.8125 17.4375 7.98541 17.4375 10.6562C17.4375 13.3271 15.2646 15.5 12.5938 15.5C9.92291 15.5 7.75 13.3271 7.75 10.6562ZM3.76262 34.0109C3.20947 33.4616 2.90625 32.7302 2.90625 31.9513V26.1562C2.90625 22.0148 5.81056 18.5467 9.6875 17.6623V26.1562C9.6875 27.4176 8.87472 28.4832 7.75 28.8843V23.25H5.8125V34.8576C5.03847 34.8576 4.31094 34.5573 3.76262 34.0109V34.0109ZM15.5 53.2812C14.4315 53.2812 13.5625 52.4123 13.5625 51.3438V32.9375H11.625V51.3438C11.625 52.4123 10.756 53.2812 9.6875 53.2812C8.61897 53.2812 7.75 52.4123 7.75 51.3438V30.9022C9.95778 30.4517 11.625 28.4958 11.625 26.1562V17.4375H13.5625V26.1562C13.5625 28.4948 15.2297 30.4517 17.4375 30.9022V37.7812V51.3438C17.4375 52.4123 16.5685 53.2812 15.5 53.2812ZM21.3125 59.0938H19.375V51.3438V39.7188H21.3125V59.0938ZM23.25 37.7812H19.375V33.9062H28.272C28.6731 35.031 29.7387 35.8438 31 35.8438H35.3594H35.3652H42.9079C44.7727 35.8438 46.6414 35.403 48.3106 34.5689L48.4375 34.5049V37.7812H44.5625H23.25ZM43.4233 48.793L40.3368 58.0475C40.1295 58.6723 39.5453 59.0938 38.8856 59.0938H38.3441C37.4993 59.0938 36.8125 58.4069 36.8125 57.5622C36.8125 57.3975 36.8387 57.2347 36.891 57.0778L40.7224 45.5816C41.1196 44.392 42.2278 43.5938 43.4804 43.5938H44.5625V47.6131C44.0374 47.8175 43.6093 48.235 43.4233 48.793V48.793ZM48.4375 59.0938H46.5V39.7188H48.4375V42.625V59.0938ZM59.0938 49.4062V51.3438H50.375V49.4062H54.25H59.0938ZM50.375 47.4688V42.625V37.7812V33.5362L51.7768 32.8348L50.9097 31.1017L47.4436 32.8348C46.0418 33.5362 44.4734 33.9062 42.9079 33.9062H35.3652H35.3594C34.5582 33.9062 33.9062 33.2543 33.9062 32.4531C33.9062 31.652 34.5582 31 35.3594 31H37.7812H39.7188H40.0016C41.8665 31 43.7352 30.5592 45.4043 29.7251C47.5385 28.6576 49.9274 28.0938 52.3125 28.0938C56.0509 28.0938 59.0938 31.1366 59.0938 34.875V42.625C59.0938 45.2958 56.9208 47.4688 54.25 47.4688H50.375Z" fill="#F2473A"/>
<path d="M36.8125 12.5938H38.3489L40.5703 14.8151C41.0053 15.2501 41.6078 15.5 42.2239 15.5C43.5133 15.5 44.5625 14.4508 44.5625 13.1614V12.5938H52.3125C53.9148 12.5938 55.2188 11.2898 55.2188 9.6875V3.875C55.2188 2.27269 53.9148 0.96875 52.3125 0.96875H36.8125C35.2102 0.96875 33.9062 2.27269 33.9062 3.875V9.6875C33.9062 11.2898 35.2102 12.5938 36.8125 12.5938ZM35.8438 3.875C35.8438 3.34025 36.2778 2.90625 36.8125 2.90625H52.3125C52.8472 2.90625 53.2812 3.34025 53.2812 3.875V9.6875C53.2812 10.2222 52.8472 10.6562 52.3125 10.6562H42.625V13.1614C42.625 13.4889 42.1716 13.6758 41.9401 13.4453L39.1511 10.6562H36.8125C36.2778 10.6562 35.8438 10.2222 35.8438 9.6875V3.875Z" fill="#F2473A"/>
<path d="M43.5938 5.8125H45.5312V7.75H43.5938V5.8125Z" fill="#F2473A"/>
<path d="M47.4688 5.8125H49.4062V7.75H47.4688V5.8125Z" fill="#F2473A"/>
<path d="M39.7188 5.8125H41.6562V7.75H39.7188V5.8125Z" fill="#F2473A"/>
</svg>
