<svg width="30" height="27" viewBox="0 0 30 27" fill="none" xmlns="http://www.w3.org/2000/svg">
<path d="M23.9392 0.8125H6.06082L0.9375 8.49742V9.94973L11.6848 26.125H18.3152L29.0625 9.94973V8.49742L23.9392 0.8125ZM22.9358 2.6875L26.6511 8.26041H20.3753L18.6216 2.6875H22.9358ZM13.344 2.6875H16.656L18.4097 8.26041H11.5903L13.344 2.6875ZM7.06424 2.6875H11.3784L9.62467 8.26041H3.34893L7.06424 2.6875ZM12.6902 24.25L3.31201 10.1354H9.56941L12.8797 24.25H12.6902ZM14.8054 24.25L11.4953 10.1354H18.5047L15.1944 24.25H14.8054ZM17.3096 24.25H17.1202L20.4307 10.1354H26.688L17.3096 24.25Z" fill="#F2473A"/>
</svg>
