<svg width="17" height="16" viewBox="0 0 17 16" fill="none" xmlns="http://www.w3.org/2000/svg">
<g clip-path="url(#clip0_1717_9558)">
<path d="M4.29775 8.707C4.38381 8.886 4.57293 9 4.78118 9L6.90619 9L6.90618 15.5C6.90618 15.776 7.14418 16 7.43743 16L9.56243 16C9.85568 16 10.0937 15.776 10.0937 15.5L10.0937 9L12.2187 9C12.4269 9 12.6161 8.885 12.7021 8.707C12.7892 8.528 12.7552 8.319 12.6182 8.171L8.89944 4.171C8.7985 4.062 8.65294 4 8.49994 4C8.34694 4 8.20137 4.063 8.10044 4.171L4.38168 8.171C4.24356 8.318 4.21168 8.528 4.29775 8.707Z" fill="#202020"/>
<path d="M2.65625 5L2.65625 2L14.3437 2L14.3437 5L16.4688 5L16.4688 1C16.4688 0.447001 15.9928 9.12061e-07 15.4063 8.60788e-07L1.59375 -3.4674e-07C1.00618 -3.98106e-07 0.531247 0.447 0.531247 0.999999L0.531246 5L2.65625 5Z" fill="#202020"/>
</g>
<defs>
<clipPath id="clip0_1717_9558">
<rect width="17" height="16" fill="white" transform="translate(17 16) rotate(-180)"/>
</clipPath>
</defs>
</svg>
