<svg width="40" height="50" viewBox="0 0 40 50" fill="none" xmlns="http://www.w3.org/2000/svg">
<path d="M34.4341 32.6659L31.4996 31.8043L25.1152 27.6343V26.6788C26.9637 25.2846 28.233 23.1534 28.4689 20.7105C29.396 20.5613 30.1062 19.7558 30.1062 18.7874V16.16C30.1062 16.1498 30.1052 16.1398 30.1047 16.1297V12.8014C30.474 12.5369 30.7084 12.1061 30.7084 11.6229V8.57704L35.1144 7.82656C35.8385 7.70322 36.3592 7.12812 36.4104 6.3954C36.4613 5.66269 36.0255 5.02089 35.3256 4.79833L20.4724 0.0739197C20.1624 -0.0247131 19.8351 -0.0246155 19.5253 0.073822L4.67188 4.79833C3.97197 5.02089 3.53604 5.66269 3.58711 6.39531C3.61953 6.86083 3.84199 7.2622 4.18535 7.52509V11.5082H4.14902C3.3126 11.5082 2.63213 12.1887 2.63213 13.0251V15.0022L1.65293 20.7495C1.48369 21.7435 2.24932 22.6534 3.26006 22.6534H6.57539C7.58389 22.6534 8.35215 21.7457 8.18252 20.7494L7.20332 15.0022V13.0251C7.20332 12.1887 6.52285 11.5082 5.68643 11.5082H5.6502V7.95712L9.29219 8.57743V11.6229C9.29219 12.1041 9.52549 12.5342 9.89307 12.799L9.89443 16.1602V18.7874C9.89443 19.7558 10.6047 20.5613 11.5317 20.7105C11.7676 23.152 13.0355 25.2822 14.8822 26.6766V27.6365L8.49922 31.8058L5.56709 32.6664C2.42949 33.5873 0.214062 36.4679 0.214062 39.8163V41.9991C0.214062 42.4036 0.541894 42.7315 0.946484 42.7315C1.35107 42.7315 1.67891 42.4037 1.67891 41.9991V39.8163C1.67891 37.1772 3.44736 34.815 5.97969 34.0719L8.71172 33.2699L19.6264 39.7556C19.8479 39.8872 20.1411 39.8942 20.3746 39.7556L31.2899 33.2695L34.0217 34.0715C36.5536 34.8148 38.3221 37.1769 38.3221 39.8158V46.8898C38.3221 47.7972 37.5839 48.5353 36.6766 48.5353H33.4483V45.3783C33.4483 44.9738 33.1205 44.6459 32.7159 44.6459C32.3114 44.6459 31.9835 44.9737 31.9835 45.3783V48.5353H8.01396V45.3783C8.01396 44.9738 7.68613 44.6459 7.28154 44.6459C6.87695 44.6459 6.54912 44.9737 6.54912 45.3783V48.5353H3.32422C2.41689 48.5353 1.67871 47.7972 1.67871 46.8898V45.4228C1.67871 45.0183 1.35088 44.6904 0.946289 44.6904C0.541699 44.6904 0.213867 45.0183 0.213867 45.4228V46.8897C0.213867 48.6048 1.60908 50 3.32412 50H36.6764C38.3914 50 39.7866 48.6048 39.7866 46.8897V39.8157C39.7866 36.5462 37.6468 33.6092 34.4341 32.6659ZM6.57529 21.1886H3.26006C3.15762 21.1886 3.07949 21.0971 3.09687 20.9954L3.98262 15.7966H5.85273L6.73848 20.9953C6.75576 21.0968 6.67822 21.1886 6.57529 21.1886ZM5.73848 13.0251V14.3318H4.09678V13.0251C4.09678 12.9963 4.12012 12.9729 4.14893 12.9729H5.68623C5.71514 12.9728 5.73848 12.9963 5.73848 13.0251ZM17.3809 36.4425L17.6724 36.8905L10.1949 32.4475L14.9411 29.3474C15.1563 31.8727 15.9888 34.3029 17.3809 36.4425ZM17.3758 33.2808C19.0997 33.5258 20.8999 33.526 22.6248 33.2808C22.2915 34.101 21.8808 34.8924 21.392 35.6437L20.0003 37.7828L18.6086 35.6437C18.1198 34.8924 17.7091 34.101 17.3758 33.2808ZM22.6197 36.4425C24.0118 34.3029 24.8442 31.8727 25.0594 29.3474L29.8056 32.4474L22.3282 36.8905L22.6197 36.4425ZM26.904 13.0741H28.6399V15.4274H27.7783C27.2962 15.4274 26.9039 15.0352 26.9039 14.5531V13.0741H26.904ZM5.11582 6.19423L19.9694 1.46962C19.9885 1.46357 20.009 1.46347 20.0283 1.46972L34.8818 6.19423C34.9125 6.204 34.9546 6.21728 34.9492 6.29355C34.9438 6.36972 34.9004 6.37704 34.8686 6.38251L29.9576 7.21894L28.1139 6.99091C27.7127 6.9412 27.3469 7.22656 27.2972 7.62792C27.2476 8.02939 27.5328 8.39501 27.9342 8.44462L29.2438 8.60663V11.6094L10.7569 11.6087V8.60654L18.3357 7.66874C19.4396 7.53232 20.5588 7.53232 21.6619 7.66874L24.5304 8.02353C24.9317 8.07324 25.2975 7.78798 25.3472 7.38661C25.3969 6.98515 25.1116 6.61952 24.7103 6.56982L21.8418 6.21503C20.6194 6.06376 19.3792 6.06376 18.156 6.21503L10.0413 7.21913L5.12891 6.38251C5.09707 6.37704 5.05361 6.36972 5.04824 6.29355C5.04297 6.21728 5.08506 6.2039 5.11582 6.19423ZM11.3588 15.4274L11.3578 13.0741H13.0966V14.5532C13.0966 15.0352 12.7044 15.4275 12.2222 15.4275H11.3588V15.4274ZM12.9708 20.3341C12.9331 19.7377 12.4374 19.2705 11.8424 19.2705C11.5759 19.2705 11.3591 19.0537 11.3591 18.7873V16.8923H12.2222C13.5119 16.8923 14.5613 15.843 14.5613 14.5532V13.0741H25.4392V14.5532C25.4392 15.843 26.4886 16.8923 27.7783 16.8923H28.6414V18.7873C28.6414 19.0537 28.4246 19.2705 28.1581 19.2705C27.5631 19.2705 27.0674 19.7377 27.0297 20.3342C26.7964 24.0323 23.7087 26.9293 20.0002 26.9293C16.2917 26.9293 13.2041 24.0323 12.9708 20.3341ZM20.0003 28.394C21.3029 28.394 22.541 28.0962 23.6505 27.5666V28.0308C23.6505 29.283 23.4815 30.5183 23.1562 31.7097C21.1658 32.0891 18.9155 32.1045 16.8443 31.7097C16.519 30.5184 16.3501 29.2831 16.3501 28.0308C16.3501 28.0152 16.3479 28.0001 16.347 27.9848C16.3468 27.9817 16.3471 27.9787 16.3469 27.9757V27.5651C17.4571 28.0956 18.6964 28.394 20.0003 28.394Z" fill="#F2473A"/>
</svg>
