<svg width="28" height="28" viewBox="0 0 28 28" fill="none" xmlns="http://www.w3.org/2000/svg">
<path d="M28 12.3485C28 5.06748 22.3411 0 14.2063 0C5.77714 0 0 5.68834 0 13.9926C0 22.5644 5.62365 28 14.4982 28C16.6671 28 18.748 27.6982 20.2955 27.1779V25.0626C19.2135 25.5509 16.8886 25.8675 14.5334 25.8675C7.1711 25.8675 2.42308 21.254 2.42308 14.0933C2.42308 7.11411 7.25665 2.11534 13.9824 2.11534C20.8641 2.11534 25.5769 6.25767 25.5769 12.3141C25.5769 16.4417 24.183 19.1092 22.014 19.1092C20.7761 19.1092 20.0715 18.4221 20.0715 17.2442V7.40123H17.4748V9.44785H17.1981C16.5288 7.98773 14.9813 7.08221 13.1722 7.08221C9.64953 7.08221 7.18871 9.93374 7.18871 14.0098C7.18871 18.2724 9.59669 21.1411 13.1747 21.1411C15.1876 21.1411 16.7351 20.1841 17.4748 18.4736H17.7516C17.9554 20.1178 19.5205 21.2908 21.5334 21.2908C25.4889 21.2908 28 17.8184 28 12.3509V12.3485ZM9.94141 14.0761C9.94141 11.1387 11.3001 9.39632 13.605 9.39632C15.945 9.39632 17.4396 11.2074 17.4396 14.0761C17.4396 16.9448 15.9274 18.773 13.5697 18.773C11.3178 18.773 9.94141 16.9939 9.94141 14.0761Z" fill="#F2473A"/>
</svg>
