<svg width="45" height="45" viewBox="0 0 45 45" xmlns="http://www.w3.org/2000/svg">
<g clip-path="url(#clip0)">
<path d="M43.5414 4.47172C43.2814 4.47172 43.0814 4.26172 43.0814 4.01172V1.20172C43.0814 0.681719 42.6514 0.261719 42.1314 0.261719H39.3214C38.8014 0.261719 38.3814 0.681719 38.3814 1.20172V4.01172C38.3814 4.26172 38.1714 4.47172 37.9214 4.47172C37.4014 4.47172 36.9814 4.89172 36.9814 5.41172V34.8917C36.9814 35.4117 37.4014 35.8317 37.9214 35.8317C38.1714 35.8317 38.3814 36.0417 38.3814 36.2917V39.1017C38.3814 39.6217 38.8014 40.0417 39.3214 40.0417C39.5714 40.0417 39.7814 40.2517 39.7814 40.5017V43.3117C39.7814 43.8317 40.2014 44.2517 40.7214 44.2517C41.2414 44.2517 41.6614 43.8317 41.6614 43.3117V40.5017C41.6614 40.2517 41.8714 40.0417 42.1214 40.0417C42.6414 40.0417 43.0614 39.6217 43.0614 39.1017V36.2917C43.0614 36.0417 43.2714 35.8317 43.5214 35.8317C44.0414 35.8317 44.4614 35.4117 44.4614 34.8917V5.41172C44.4814 4.89172 44.0614 4.47172 43.5414 4.47172ZM42.5914 33.4917C42.5914 33.7417 42.3814 33.9517 42.1314 33.9517H39.3214C39.0714 33.9517 38.8614 33.7417 38.8614 33.4917V6.82172C38.8614 6.57172 39.0714 6.36172 39.3214 6.36172H42.1314C42.3814 6.36172 42.5914 6.57172 42.5914 6.82172V33.4917Z"/>
<path d="M14.0616 5.88184H7.04156C6.52156 5.88184 6.10156 6.30184 6.10156 6.82184V13.8418C6.10156 14.3618 6.52156 14.7818 7.04156 14.7818H14.0616C14.5816 14.7818 15.0016 14.3618 15.0016 13.8418V6.82184C15.0016 6.30184 14.5816 5.88184 14.0616 5.88184ZM13.1116 12.4318C13.1116 12.6818 12.9016 12.8918 12.6516 12.8918H8.44156C8.19156 12.8918 7.98156 12.6818 7.98156 12.4318V8.22184C7.98156 7.97184 8.19156 7.76184 8.44156 7.76184H12.6516C12.9016 7.76184 13.1116 7.97184 13.1116 8.22184V12.4318Z"/>
<path d="M14.0616 29.7417H7.04156C6.52156 29.7417 6.10156 30.1617 6.10156 30.6817V37.7017C6.10156 38.2217 6.52156 38.6417 7.04156 38.6417H14.0616C14.5816 38.6417 15.0016 38.2217 15.0016 37.7017V30.6817C15.0016 30.1617 14.5816 29.7417 14.0616 29.7417ZM13.1116 36.3017C13.1116 36.5517 12.9016 36.7617 12.6516 36.7617H8.44156C8.19156 36.7617 7.98156 36.5517 7.98156 36.3017V32.0917C7.98156 31.8417 8.19156 31.6317 8.44156 31.6317H12.6516C12.9016 31.6317 13.1116 31.8417 13.1116 32.0917V36.3017Z"/>
<path d="M32.3114 0.261719H1.42145C0.901445 0.261719 0.481445 0.681719 0.481445 1.20172V43.3117C0.481445 43.8417 0.901445 44.2617 1.42145 44.2617H32.3014C32.8214 44.2617 33.2414 43.8417 33.2414 43.3217V1.20172C33.2514 0.681719 32.8314 0.261719 32.3114 0.261719ZM31.3614 41.9117C31.3614 42.1617 31.1514 42.3717 30.9014 42.3717H2.83145C2.58145 42.3717 2.37145 42.1617 2.37145 41.9117V2.61172C2.37145 2.36172 2.58145 2.15172 2.83145 2.15172H30.9114C31.1614 2.15172 31.3714 2.36172 31.3714 2.61172V41.9117H31.3614Z" fill="#"/>
<path d="M26.6914 12.8916H19.6714C19.1514 12.8916 18.7314 13.3116 18.7314 13.8316C18.7314 14.3516 19.1514 14.7716 19.6714 14.7716H26.6914C27.2114 14.7716 27.6314 14.3516 27.6314 13.8316C27.6314 13.3216 27.2114 12.8916 26.6914 12.8916Z"/>
<path d="M26.6914 24.1218H19.6714C19.1514 24.1218 18.7314 24.5418 18.7314 25.0618C18.7314 25.5818 19.1514 26.0018 19.6714 26.0018H26.6914C27.2114 26.0018 27.6314 25.5818 27.6314 25.0618C27.6314 24.5418 27.2114 24.1218 26.6914 24.1218Z"/>
<path d="M26.6914 36.7617H19.6714C19.1514 36.7617 18.7314 37.1817 18.7314 37.7017C18.7314 38.2217 19.1514 38.6417 19.6714 38.6417H26.6914C27.2114 38.6417 27.6314 38.2217 27.6314 37.7017C27.6314 37.1817 27.2114 36.7617 26.6914 36.7617Z"/>
<path d="M9.24148 25.7717C9.27148 25.7917 9.29148 25.8217 9.31148 25.8417C9.32148 25.8417 9.33148 25.8517 9.34148 25.8517C9.37148 25.8617 9.40148 25.8817 9.43148 25.8917C9.46148 25.9017 9.48148 25.9217 9.50148 25.9317C9.51148 25.9417 9.52148 25.9417 9.52148 25.9417C9.63148 25.9817 9.74148 26.0017 9.83148 26.0117H9.85148C9.97148 26.0117 10.0915 25.9817 10.2115 25.9317C10.2215 25.9217 10.2315 25.9217 10.2415 25.9117C10.2715 25.8917 10.3015 25.8717 10.3315 25.8517C10.3615 25.8317 10.3915 25.8117 10.4315 25.7917C10.4515 25.7817 10.4715 25.7717 10.4915 25.7617C10.5115 25.7317 10.5315 25.7017 10.5515 25.6817C10.5815 25.6517 10.6115 25.6217 10.6315 25.6017L14.8115 20.0317C14.9615 19.8317 15.0215 19.5817 14.9915 19.3317C14.9515 19.0817 14.8215 18.8617 14.6215 18.7117C14.4615 18.5917 14.2615 18.5217 14.0615 18.5217C13.7615 18.5217 13.4815 18.6617 13.3015 18.9017L10.0615 23.2217C9.98148 23.3317 9.86148 23.3917 9.72148 23.4017C9.71148 23.4017 9.70148 23.4017 9.69148 23.4017C9.57148 23.4017 9.45148 23.3517 9.36148 23.2617L7.70148 21.6017C7.52148 21.4217 7.28148 21.3217 7.03148 21.3217C6.78148 21.3217 6.54148 21.4217 6.36148 21.6017C5.99148 21.9717 5.99148 22.5717 6.36148 22.9317L9.14148 25.7117C9.17148 25.7217 9.20148 25.7417 9.24148 25.7717Z"/>
</g>
<defs>
<clipPath id="clip0">
<rect width="44" height="44" transform="translate(0.481445 0.261719)"/>
</clipPath>
</defs>
</svg>
