<svg width="40" height="41" viewBox="0 0 40 41" fill="none" xmlns="http://www.w3.org/2000/svg">
<g clip-path="url(#clip0)">
<path d="M20.0002 13.6248C22.6274 13.6248 24.682 10.3703 24.682 6.20662C24.682 0.988441 21.4093 0.424805 20.0002 0.424805C18.5911 0.424805 15.3184 0.988441 15.3184 6.20662C15.3184 10.3703 17.3729 13.6248 20.0002 13.6248ZM20.0002 2.14299C20.7365 2.14299 22.9729 2.14299 22.9729 6.20662C22.9729 9.24299 21.582 11.9157 20.0002 11.9157C18.4184 11.9157 17.0274 9.25208 17.0274 6.20662C17.0274 2.14299 19.2638 2.14299 20.0002 2.14299Z" fill="#202020"/>
<path d="M39.9046 27.1793C39.6587 27.1793 40.0122 27.2157 39.699 27.2157C39.3857 27.2157 39.6272 27.2157 39.3999 27.2157C39.1726 27.2157 39.3537 27.1793 39.3537 27.1793C39.3537 27.1793 39.5368 27.2521 38.8317 27.2157H38.6897C38.537 27.2157 38.4731 27.2248 38.3062 27.2157H38.2728C37.8546 27.2157 38.0819 27.2248 37.8546 27.2248H32.7455C32.5182 27.2248 32.3273 27.0339 32.3273 26.8066V22.9793C32.3273 22.9521 32.3273 22.9157 32.3182 22.8884C32.2091 21.843 31.9364 20.4975 31.5182 19.843C30.7364 18.6248 29.591 18.4157 28.4819 18.2066C28.0273 18.1248 27.6455 17.9248 27.2092 17.6521C26.4364 17.1703 25.9637 16.7066 25.7546 16.243C25.6182 15.9339 25.3092 15.7339 24.9728 15.7339C24.8546 15.7339 24.7364 15.7612 24.6182 15.8066C24.4092 15.8975 24.2455 16.0703 24.1728 16.2884C24.091 16.5066 24.1001 16.7339 24.191 16.943C24.5455 17.7248 25.2364 18.4339 26.3001 19.0975C26.8183 19.4248 27.4182 19.743 28.2819 19.9066C29.2637 20.0884 29.7182 20.1884 30.0819 20.7612C30.3182 21.1248 30.5364 22.2884 30.6182 22.9975C30.6182 23.0157 30.6182 23.0339 30.6182 23.043V26.7975C30.6182 27.0248 30.4273 27.2157 30.2 27.2157H27.6455C27.4182 27.2157 27.2273 27.0248 27.2273 26.7975V24.243C27.2273 23.7703 26.8455 23.3884 26.3728 23.3884C25.9001 23.3884 25.5182 23.7703 25.5182 24.243V26.7975C25.5182 27.0248 25.3273 27.2157 25.1001 27.2157H21.2728C21.0455 27.2157 20.8546 27.0248 20.8546 26.7975V21.2975C20.8546 20.8248 20.4728 20.443 20.0001 20.443C19.5273 20.443 19.1455 20.8248 19.1455 21.2975V26.7975C19.1455 27.0248 18.9546 27.2157 18.7273 27.2157H14.9001C14.6728 27.2157 14.4819 27.0248 14.4819 26.7975V24.243C14.4819 23.7703 14.1001 23.3884 13.6273 23.3884C13.1546 23.3884 12.7728 23.7703 12.7728 24.243V26.7975C12.7728 27.0248 12.5819 27.2157 12.3546 27.2157H9.68188C9.45461 27.2157 9.2637 27.0248 9.2637 26.7975V23.043C9.2637 23.0248 9.2637 23.0066 9.2637 22.9975C9.34552 22.2884 9.5637 21.1248 9.80007 20.7612C10.1637 20.1884 10.6182 20.0884 11.7092 19.8884C12.4819 19.743 13.0819 19.4066 13.5819 19.0975C14.6546 18.4248 15.3455 17.7248 15.7001 16.943C15.791 16.7339 15.8001 16.4975 15.7182 16.2884C15.6364 16.0703 15.4728 15.9066 15.2728 15.8157C15.1637 15.7612 15.0455 15.743 14.9182 15.743C14.5819 15.743 14.2728 15.943 14.1364 16.2521C13.9273 16.7157 13.4546 17.1793 12.6819 17.6612C12.1455 17.9975 11.7728 18.1521 11.3001 18.2339C10.291 18.4157 9.14552 18.6339 8.3637 19.843C7.94552 20.4975 7.67279 21.8521 7.5637 22.8884C7.5637 22.9157 7.55461 22.9521 7.55461 22.9793V26.8066C7.55461 27.0339 7.3637 27.2248 7.13643 27.2248H2.13643C1.90916 27.2248 0.521163 27.2312 6.59078e-05 27.2006L-0.0845019 27.2248C-0.0845019 27.1157 0.891023 27.3174 0.972842 27.2356L0.374864 27.2213C1.04106 27.2343 2.22046 27.2248 1.71823 27.2356C1.48665 27.2406 1.52132 27.2431 1.29405 27.2431C1.06678 27.2431 1.17343 27.2248 0.841927 27.241L0.586222 27.2356C0.0479095 27.1995 0.509449 27.2285 6.59078e-05 27.2006V31.9066C6.59078e-05 32.3793 0.381884 32.7612 0.854612 32.7612H4.68188C4.90916 32.7612 5.10007 32.9521 5.10007 33.1793V39.5612C5.10007 40.0339 5.48189 40.4157 5.95461 40.4157H34.0273C34.5 40.4157 34.8819 40.0339 34.8819 39.5612V33.1793C34.8819 32.9521 35.0728 32.7612 35.3 32.7612H39.1273C39.6 32.7612 39.9819 32.3793 39.9819 31.9066V27.1793C40.2096 27.2157 40.1505 27.1793 39.9046 27.1793ZM33.1819 38.2884C33.1819 38.5157 32.991 38.7066 32.7637 38.7066H7.23643C7.00916 38.7066 6.81825 38.5157 6.81825 38.2884V33.1793C6.81825 32.9521 7.00916 32.7612 7.23643 32.7612H32.7637C32.991 32.7612 33.1819 32.9521 33.1819 33.1793V38.2884ZM38.2819 30.6339C38.2819 30.8612 38.091 31.0521 37.8637 31.0521H2.13643C1.90916 31.0521 1.71825 30.8612 1.71825 30.6339V29.3612C1.71825 29.1339 1.90916 28.943 2.13643 28.943H37.8728C38.1 28.943 38.291 29.1339 38.291 29.3612V30.6339H38.2819Z" fill="#202020"/>
<path d="M19.1455 17.8703C19.1455 18.343 19.5273 18.7248 20.0001 18.7248C20.4728 18.7248 20.8546 18.343 20.8546 17.8703C20.8546 17.3976 20.4728 17.0157 20.0001 17.0157C19.5273 17.0157 19.1455 17.3976 19.1455 17.8703Z" fill="#202020"/>
</g>
<defs>
<clipPath id="clip0">
<rect width="40" height="40" fill="white" transform="translate(0 0.424805)"/>
</clipPath>
</defs>
</svg>
