<svg width="20" height="17" viewBox="0 0 20 17" fill="none" xmlns="http://www.w3.org/2000/svg">
<path d="M12.2846 2.75H17.2621C17.6095 2.74996 17.9531 2.82233 18.2709 2.96249C18.5888 3.10265 18.874 3.30751 19.1083 3.56403C19.3425 3.82054 19.5208 4.12306 19.6316 4.4523C19.7425 4.78155 19.7835 5.13028 19.7521 5.47625L18.9558 14.2262C18.8994 14.8474 18.6128 15.425 18.1523 15.8457C17.6919 16.2664 17.0908 16.4998 16.4671 16.5H3.53082C2.90711 16.4998 2.30603 16.2664 1.84556 15.8457C1.3851 15.425 1.09851 14.8474 1.04207 14.2262L0.245815 5.47625C0.192548 4.89723 0.343808 4.31784 0.673315 3.83875L0.624565 2.75C0.624565 2.08696 0.887957 1.45107 1.3568 0.982233C1.82564 0.513392 2.46152 0.25 3.12457 0.25H7.71457C8.37755 0.250142 9.01333 0.513627 9.48207 0.9825L10.5171 2.0175C10.9858 2.48637 11.6216 2.74986 12.2846 2.75ZM1.88207 2.9C2.14957 2.8025 2.43707 2.75 2.73707 2.75H9.48207L8.59832 1.86625C8.36395 1.63181 8.04606 1.50007 7.71457 1.5H3.12457C2.79712 1.49994 2.48272 1.62837 2.24897 1.85768C2.01522 2.08699 1.88079 2.39886 1.87457 2.72625L1.88207 2.9Z" fill="#F2473A"/>
</svg>
