<svg width="44" height="45" viewBox="0 0 44 45" fill="none" xmlns="http://www.w3.org/2000/svg">
<g clip-path="url(#clip0)">
<path d="M39.72 0.261719H18.31C15.95 0.261719 14.03 2.18172 14.03 4.54172V11.0317C14.03 11.5517 14.45 11.9717 14.97 11.9717C15.49 11.9717 15.91 11.5517 15.91 11.0317V9.63172C15.91 9.38172 16.12 9.17172 16.37 9.17172H41.64C41.89 9.17172 42.1 9.38172 42.1 9.63172V33.4917C42.1 33.7417 41.89 33.9517 41.64 33.9517H36.03C35.51 33.9517 35.09 34.3717 35.09 34.8917C35.09 35.4117 35.51 35.8317 36.03 35.8317H41.64C41.89 35.8317 42.1 36.0417 42.1 36.2917V39.9817C42.1 41.3017 41.03 42.3717 39.71 42.3717H28.2C28.4 41.7317 28.42 40.9817 28.38 40.7017C28.36 40.5717 28.33 40.4417 28.28 40.3017C28.21 40.1017 28.28 39.8717 28.46 39.7617C29.35 39.1717 29.79 37.9917 29.5 36.9417C29.48 36.8617 29.45 36.7717 29.4 36.6817C29.31 36.4917 29.37 36.2617 29.53 36.1317C30.81 35.1117 31.28 34.0917 30.96 33.0217C30.91 32.8517 30.81 32.6317 30.68 32.4017C30.59 32.2417 30.6 32.0417 30.72 31.8917C31.21 31.2717 31.42 30.4817 31.33 29.5917C31.31 29.3617 31.3 29.2617 30.18 27.3817C30.01 27.1017 29.7 26.9217 29.37 26.9217H22.75C22.51 26.9217 22.31 26.7417 22.29 26.5017C22.15 24.8517 21.7 19.4117 21.69 18.7417C21.67 17.9617 21.52 17.2417 21.24 16.6017C21.01 16.0817 20.7 15.6117 20.32 15.2217C19.73 14.6217 18.92 14.2817 18.03 14.2817C17.79 14.2817 17.54 14.3117 17.29 14.3617C16.75 14.4717 15.49 14.7217 14.93 15.9517C14.58 16.7117 14.64 17.5117 14.69 18.2117C14.72 18.5917 14.74 18.9017 14.71 19.1517C14.7 19.2117 14.69 19.3217 14.68 19.4617V19.5117C14.18 26.2117 11.89 30.1717 8.05 30.9617C8.02 30.9717 7.99 30.9717 7.96 30.9717C7.85 30.9717 7.75 30.9317 7.67 30.8717C7.56 30.7817 7.5 30.6517 7.5 30.5117V30.3217C7.5 29.2217 6.61 28.3217 5.52 28.3217H1.98C0.89 28.3217 0 29.2217 0 30.3217V42.2617C0 43.3617 0.89 44.2617 1.98 44.2617H5.53C6.62 44.2617 7.51 43.3617 7.51 42.2617V33.3917C7.51 33.1617 7.68 32.9717 7.91 32.9317C11.45 32.4317 15.83 29.7217 16.58 19.6617L16.6 19.3717C16.65 18.9317 16.62 18.4817 16.59 18.0817C16.55 17.4817 16.52 17.0417 16.66 16.7517C16.77 16.4917 17.06 16.3417 17.68 16.2117C17.76 16.1917 17.9 16.1717 18.05 16.1717C18.43 16.1717 18.75 16.2917 18.98 16.5317C19.21 16.7717 19.39 17.0417 19.53 17.3517C19.71 17.7717 19.81 18.2517 19.83 18.7817C19.86 19.6917 20.52 27.6017 20.55 27.9317C20.59 28.4117 21 28.7917 21.49 28.7917H28.6C28.76 28.7917 28.92 28.8817 29 29.0217C29.18 29.3317 29.34 29.6117 29.44 29.7917C29.48 29.8617 29.5 29.9517 29.5 30.0417C29.48 30.4117 29.35 30.6117 29.24 30.7517L29.12 30.8917C28.97 31.0517 28.79 31.2517 28.65 31.5217C28.34 32.1317 28.6 32.7417 28.95 33.1217C28.97 33.1417 28.98 33.1617 29 33.1817C29.04 33.2417 29.09 33.3117 29.11 33.3417C29.19 33.4517 29.22 33.6017 29.19 33.7317C29.12 34.0217 28.76 34.3917 28.14 34.8417C27.99 34.9417 27.55 35.2617 27.37 35.8017C27.17 36.4217 27.41 36.9117 27.66 37.3317C27.68 37.3717 27.7 37.4117 27.71 37.4617C27.77 37.7017 27.66 38.0517 27.34 38.2217C27.32 38.2317 27.3 38.2417 27.28 38.2517C27.11 38.3117 26.84 38.4117 26.61 38.6217C26.15 39.0317 26.01 39.6817 26.24 40.3217C26.28 40.4517 26.35 40.5817 26.41 40.7017C26.48 40.7817 26.53 40.8917 26.53 41.0017C26.53 41.1717 26.5 41.4617 26.46 41.6617C26.43 41.7917 26.35 41.9017 26.24 41.9617C25.9 42.1517 25.15 42.3617 24.5 42.3617H13.53C13.01 42.3617 12.59 42.7817 12.59 43.3017C12.59 43.8217 13.01 44.2417 13.53 44.2417H39.72C42.08 44.2417 44 42.3217 44 39.9617V4.54172C44 2.18172 42.08 0.261719 39.72 0.261719ZM5.62 41.9117C5.62 42.1617 5.41 42.3717 5.16 42.3717H2.35C2.1 42.3717 1.89 42.1617 1.89 41.9117V30.6817C1.89 30.4317 2.1 30.2217 2.35 30.2217H5.16C5.41 30.2217 5.62 30.4317 5.62 30.6817V41.9117ZM42.11 6.82172C42.11 7.07172 41.9 7.28172 41.65 7.28172H16.38C16.13 7.28172 15.92 7.07172 15.92 6.82172V4.54172C15.92 3.22172 16.99 2.15172 18.31 2.15172H39.72C41.04 2.15172 42.11 3.22172 42.11 4.54172V6.82172Z" fill="#F2473A"/>
<path d="M27.6202 16.1818C27.1002 16.1818 26.6802 15.7618 26.6802 15.2418C26.6802 14.7218 27.1002 14.3018 27.6202 14.3018H36.0402C36.5602 14.3018 36.9802 14.7218 36.9802 15.2418C36.9802 15.7618 36.5602 16.1818 36.0402 16.1818H27.6202Z" fill="#F2473A"/>
<path d="M27.6202 21.8016C27.1002 21.8016 26.6802 21.3816 26.6802 20.8616C26.6802 20.3416 27.1002 19.9216 27.6202 19.9216H36.0402C36.5602 19.9216 36.9802 20.3416 36.9802 20.8616C36.9802 21.3816 36.5602 21.8016 36.0402 21.8016H27.6202Z" fill="#F2473A"/>
</g>
<defs>
<clipPath id="clip0">
<rect width="44" height="44" fill="white" transform="translate(0 0.261719)"/>
</clipPath>
</defs>
</svg>
