<svg width="52" height="62" viewBox="0 0 52 62" fill="none" xmlns="http://www.w3.org/2000/svg">
<path d="M42.9583 37.3293H9.375" stroke="#F2473A" stroke-width="2" stroke-miterlimit="10" stroke-linejoin="round"/>
<path d="M26.167 29.5793V60.5794" stroke="#F2473A" stroke-width="2" stroke-miterlimit="10" stroke-linejoin="round"/>
<path d="M42.9583 47.6628H9.375" stroke="#F2473A" stroke-width="2" stroke-miterlimit="10" stroke-linejoin="round"/>
<path d="M5.24167 13.3044L3.175 12.6585C2.27083 12.4002 1.625 11.6252 1.625 10.5919C1.625 9.68771 2.27083 8.91271 3.04583 8.52521L24.2292 1.42104C25.0042 1.16271 26.1667 1.16271 26.9417 1.42104L49.1583 8.52521C50.0625 8.91271 50.7083 9.68771 50.7083 10.721C50.7083 11.6252 50.0625 12.5294 49.1583 12.7877L26.6833 20.021C26.0375 20.2794 25.1333 20.2794 24.4875 20.021L8.72917 14.3377" stroke="#F2473A" stroke-width="2" stroke-miterlimit="10"/>
<path d="M24.8753 8.78369L8.72949 14.0795C7.69616 14.3379 6.79199 15.1129 6.79199 16.6629V29.5795" stroke="#F2473A" stroke-width="2" stroke-miterlimit="10"/>
<path d="M39.0833 16.6628V25.7045C39.0833 28.0295 33.1417 29.5795 26.1667 29.5795C19.1917 29.5795 13.25 28.0295 13.25 25.7045V16.6628" stroke="#F2473A" stroke-width="2" stroke-miterlimit="10"/>
<path d="M20.0958 29.1919C18.2875 32.5502 17.125 37.2002 17.125 42.4961C17.125 52.4419 21.1292 60.5794 26.1667 60.5794C31.2042 60.5794 35.2083 52.4419 35.2083 42.4961C35.2083 37.2002 34.0458 32.4211 32.2375 29.1919" stroke="#F2473A" stroke-width="2" stroke-miterlimit="10" stroke-linejoin="round"/>
<path d="M15.4455 27.9001C11.0538 31.2585 8.08301 36.5543 8.08301 42.496C8.08301 52.4418 16.0913 60.5793 26.1663 60.5793C36.1122 60.5793 44.2497 52.4418 44.2497 42.496C44.2497 36.5543 41.2788 31.2585 36.8872 27.9001" stroke="#F2473A" stroke-width="2" stroke-miterlimit="10" stroke-linejoin="round"/>
</svg>
