<svg width="70" height="70" viewBox="0 0 70 70" fill="none" xmlns="http://www.w3.org/2000/svg">
<g clip-path="url(#clip0)">
<path d="M59.4327 50.6645V2.41501C59.4327 1.0083 58.2877 -0.136719 56.8804 -0.136719H17.3473C13.6623 -0.136719 10.6641 2.86149 10.6641 6.54649V57.509C10.6641 61.194 13.6617 64.1917 17.3473 64.1917H17.3622V68.8364C17.3622 69.2231 17.5796 69.5772 17.9241 69.7523C18.2691 69.927 18.6835 69.8933 18.9954 69.6653L21.8104 67.6065L24.626 69.6653C24.8054 69.7967 25.018 69.8634 25.2321 69.8634C25.3907 69.8634 25.5499 69.8266 25.6967 69.7523C26.0417 69.5772 26.2591 69.2231 26.2591 68.8364V64.1917H56.8804C58.2877 64.1917 59.4322 63.0472 59.4322 61.64V55.6398C59.4322 55.0727 58.9723 54.6128 58.4052 54.6128C57.838 54.6128 57.3782 55.0727 57.3782 55.6398V61.64C57.3782 61.915 57.1549 62.1383 56.8799 62.1383H26.2591V59.5673H52.7575C53.3247 59.5673 53.7845 59.1075 53.7845 58.5408C53.7845 57.9737 53.3247 57.5138 52.7575 57.5138H15.6479C15.0807 57.5138 14.6209 57.9737 14.6209 58.5408C14.6209 59.1075 15.0807 59.5673 15.6479 59.5673H17.3622V62.1383H17.3473C14.7945 62.1383 12.7175 60.0613 12.7175 57.509V56.3208C12.7175 53.768 14.7945 51.6915 17.3473 51.6915H58.4057C58.9729 51.6915 59.4327 51.2317 59.4327 50.6645ZM24.2057 59.5673V66.8134L22.4171 65.5055C22.2366 65.3736 22.0235 65.3074 21.8109 65.3074C21.5978 65.3074 21.3848 65.3736 21.2042 65.5055L19.4157 66.8134V59.5673H24.2057ZM12.7181 51.5078V6.54649C12.7181 3.99369 14.7945 1.91674 17.3473 1.91674H56.8804C57.1555 1.91674 57.3787 2.14051 57.3787 2.41501V49.6376H17.3473C15.5512 49.6376 13.9197 50.3511 12.7181 51.5078Z" fill="#F2473A"/>
<path d="M18.5241 53.5127C17.9569 53.5127 17.4971 53.9725 17.4971 54.5397C17.4971 55.1069 17.9569 55.5667 18.5241 55.5667H39.8918C40.4589 55.5667 40.9188 55.1069 40.9188 54.5397C40.9188 53.9725 40.4589 53.5127 39.8918 53.5127H18.5241Z" fill="#F2473A"/>
<path d="M44.7164 53.5127C44.1493 53.5127 43.6895 53.9725 43.6895 54.5397C43.6895 55.1069 44.1493 55.5667 44.7164 55.5667H52.7578C53.3249 55.5667 53.7848 55.1069 53.7848 54.5397C53.7848 53.9725 53.3249 53.5127 52.7578 53.5127H44.7164Z" fill="#F2473A"/>
<path d="M24.2672 34.325H22.4461C22.0493 34.325 21.9334 34.6839 21.9334 35.0428C21.9334 35.4016 22.0359 35.7733 22.4461 35.7733H23.4336C23.7284 35.7733 23.8053 35.8759 23.7925 36.1963C23.7668 36.8121 23.5746 37.94 22.1006 37.94C20.4594 37.94 20.2794 35.94 20.2794 34.8115C20.2794 33.4657 20.4979 31.6963 22.1006 31.6963C22.9593 31.6963 23.3439 32.1065 23.5361 32.8371C23.6258 33.1703 23.8437 33.3119 24.562 33.3119C25.2157 33.3119 25.3824 32.9524 25.3054 32.5423C25.0101 31.0298 23.895 30.1962 22.1 30.1962C19.4847 30.3372 18.5234 32.1962 18.5234 34.8115C18.5234 37.3761 19.536 39.4402 22.1641 39.4402C24.664 39.4402 25.549 37.6324 25.4593 35.4267C25.4336 34.7351 25.2029 34.325 24.2672 34.325Z" fill="#F2473A"/>
<path d="M32.5103 30.286C32.0873 30.286 31.6643 30.4147 31.6643 30.8761V36.2349C31.6643 37.2095 31.1127 37.9145 30.1129 37.9145C29.1131 37.9145 28.5743 37.2095 28.5743 36.2349V30.8761C28.5743 30.4147 28.1513 30.286 27.7278 30.286C27.3048 30.286 26.8818 30.4147 26.8818 30.8761V36.0811C26.8818 38.4657 28.2282 39.4531 30.1129 39.4531C32.0099 39.4531 33.3562 38.4657 33.3562 36.0811V30.8761C33.3562 30.4147 32.9333 30.286 32.5103 30.286Z" fill="#F2473A"/>
<path d="M35.8684 30.286C35.4454 30.286 35.0225 30.4147 35.0225 30.8761V38.8251C35.0225 39.2993 35.4454 39.4275 35.8684 39.4275C36.2914 39.4275 36.7272 39.2993 36.7272 38.8251V30.8761C36.7272 30.4147 36.2914 30.286 35.8684 30.286Z" fill="#F2473A"/>
<path d="M41.419 30.3373H39.6497C38.996 30.3373 38.3936 30.5039 38.3936 31.4657V38.1709C38.3936 39.1455 38.996 39.3122 39.6497 39.3122H41.419C43.9702 39.3122 44.9699 37.2096 44.9699 34.825C44.9699 32.4399 43.9445 30.3373 41.419 30.3373ZM41.419 37.7607H40.3033C40.1624 37.7607 40.0854 37.7094 40.0854 37.5428V32.0938C40.0854 31.9272 40.1624 31.8759 40.3033 31.8759H41.419C42.8161 31.8759 43.2268 33.5683 43.2268 34.825C43.2268 36.0811 42.8545 37.7607 41.419 37.7607Z" fill="#F2473A"/>
<path d="M48.1751 31.8759H51.0339C51.4702 31.8759 51.5728 31.4913 51.5728 31.1068C51.5728 30.7223 51.4574 30.3378 51.0339 30.3378H47.5086C46.8672 30.3378 46.252 30.5044 46.252 31.4657V38.1836C46.252 39.1455 46.8672 39.3121 47.5086 39.3121H51.0339C51.4569 39.3121 51.5728 38.9276 51.5728 38.543C51.5728 38.1585 51.4702 37.7735 51.0339 37.7735H48.1751C48.0213 37.7735 47.9572 37.7222 47.9572 37.5556V35.4402H50.5597C50.9826 35.4402 51.098 35.0556 51.098 34.6711C51.098 34.2866 50.9826 33.9021 50.5597 33.9021H47.9572V32.0943C47.9572 31.9271 48.0213 31.8759 48.1751 31.8759Z" fill="#F2473A"/>
<path d="M45.4756 5.06763C40.3807 5.06763 36.2354 9.21299 36.2354 14.3079C36.2354 19.4034 40.3807 23.5487 45.4756 23.5487C50.5711 23.5487 54.7165 19.4034 54.7165 14.3079C54.7165 9.21299 50.5711 5.06763 45.4756 5.06763ZM45.4756 21.4953C41.5129 21.4953 38.2888 18.2712 38.2888 14.3084C38.2888 10.3452 41.5129 7.12108 45.4756 7.12108C49.4389 7.12108 52.663 10.3452 52.663 14.3084C52.663 18.2712 49.4389 21.4953 45.4756 21.4953Z" fill="#F2473A"/>
<path d="M32.7494 7.42396L31.7929 8.381C30.6132 6.96895 29.0334 5.93501 27.2443 5.42338C24.871 4.74513 22.3753 5.03138 20.2177 6.22981C18.0596 7.42824 16.498 9.39517 15.8197 11.7685C14.4194 16.6674 17.2654 21.7928 22.1649 23.1931C23.0103 23.435 23.8621 23.5499 24.7011 23.5499C28.7215 23.5499 32.4306 20.9015 33.5895 16.848C33.7694 16.2178 33.8827 15.57 33.9265 14.9221C33.9366 14.7731 33.9419 14.5552 33.9419 14.308C33.9419 13.7413 33.4827 13.2815 32.915 13.2815C32.3478 13.2815 31.8885 13.7413 31.8885 14.308C31.8885 14.5045 31.8842 14.6818 31.8773 14.7838C31.8431 15.288 31.755 15.7927 31.6145 16.2835C30.5256 20.094 26.5394 22.3076 22.7289 21.2187C18.9189 20.1292 16.7047 16.143 17.7942 12.333C18.3213 10.4873 19.5363 8.95725 21.2148 8.02531C22.8928 7.09338 24.8336 6.87014 26.6793 7.39779C28.1309 7.81276 29.4041 8.66939 30.3328 9.84058L24.4208 15.7526L21.6095 12.9419C21.2084 12.5408 20.5584 12.5408 20.1574 12.9419C19.7563 13.3429 19.7563 13.9929 20.1574 14.394L23.6944 17.931C23.8952 18.1313 24.158 18.2317 24.4208 18.2317C24.6835 18.2317 24.9463 18.1318 25.1465 17.931L34.2015 8.87607C34.6026 8.47499 34.6026 7.82504 34.2015 7.42396C33.8004 7.02289 33.1505 7.02289 32.7494 7.42396Z" fill="#F2473A"/>
<path d="M49.8731 10.1017C49.4715 9.70063 48.8216 9.70063 48.4205 10.1017L45.4864 13.0364L42.5517 10.1017C42.1507 9.70063 41.5007 9.70063 41.0996 10.1017C40.6986 10.5028 40.6986 11.1527 41.0996 11.5538L44.0343 14.4885L41.0996 17.4231C40.6986 17.8237 40.6986 18.4741 41.0996 18.8752C41.3004 19.0755 41.5632 19.1759 41.826 19.1759C42.0887 19.1759 42.3515 19.0755 42.5517 18.8752L45.4864 15.9406L48.4205 18.8752C48.6213 19.0755 48.8841 19.1759 49.1468 19.1759C49.4096 19.1759 49.6723 19.0755 49.8731 18.8752C50.2737 18.4741 50.2737 17.8237 49.8731 17.4231L46.9385 14.4885L49.8731 11.5538C50.2737 11.1527 50.2737 10.5028 49.8731 10.1017Z" fill="#F2473A"/>
</g>
<defs>
<clipPath id="clip0">
<rect width="70" height="70" fill="white"/>
</clipPath>
</defs>
</svg>
