<svg width="44" height="45" viewBox="0 0 44 45" xmlns="http://www.w3.org/2000/svg">
<g clip-path="url(#clip0)">
<path d="M0.94 44.2618C0.42 44.2618 0 43.8418 0 43.3218C0 42.8018 0.42 42.3818 0.94 42.3818H6.9C7.03 42.3818 7.16 42.3218 7.24 42.2318C7.33 42.1318 7.37 42.0018 7.35 41.8718L5.62 27.4718C5.62 27.4318 5.61 27.3918 5.61 27.3618C5.61 26.3518 6.44 25.5318 7.46 25.5318H8.01C8.25 25.5318 8.45 25.3518 8.47 25.1118C8.81 20.8218 10.66 19.9218 12.16 19.9218C14.8 19.9218 15.93 19.0418 17 17.5118C17.18 17.2618 17.47 17.1118 17.77 17.1118C17.96 17.1118 18.15 17.1718 18.31 17.2818C18.52 17.4318 18.66 17.6418 18.7 17.8918C18.74 18.1418 18.69 18.3918 18.54 18.5918C16.92 20.9018 15.13 21.8018 12.15 21.8018C11.16 21.8018 10.55 22.8818 10.35 25.0318C10.34 25.1618 10.38 25.2918 10.47 25.3818C10.56 25.4818 10.68 25.5318 10.81 25.5318H33.14C33.27 25.5318 33.39 25.4818 33.48 25.3818C33.57 25.2818 33.61 25.1618 33.6 25.0318C33.35 22.3618 32.48 21.8018 31.8 21.8018C28.82 21.8018 27.03 20.9018 25.41 18.5918C25.27 18.3818 25.21 18.1318 25.25 17.8918C25.29 17.6418 25.43 17.4318 25.64 17.2818C25.8 17.1718 25.99 17.1118 26.18 17.1118C26.49 17.1118 26.78 17.2618 26.95 17.5118C28.02 19.0318 29.15 19.9218 31.79 19.9218C33.29 19.9218 35.15 20.8218 35.48 25.1118C35.5 25.3518 35.7 25.5318 35.94 25.5318H36.49C37.51 25.5318 38.34 26.3518 38.34 27.3618C38.34 27.4018 38.34 27.4418 38.33 27.4818L36.64 41.8618C36.62 41.9918 36.67 42.1218 36.75 42.2218C36.84 42.3218 36.96 42.3718 37.09 42.3718H43.05C43.57 42.3718 43.99 42.7918 43.99 43.3118C43.99 43.8318 43.57 44.2518 43.05 44.2518H0.94V44.2618ZM8.03 27.4118C7.9 27.4118 7.77 27.4718 7.69 27.5718C7.6 27.6718 7.56 27.8018 7.58 27.9318L9.27 41.9718C9.3 42.2018 9.49 42.3818 9.73 42.3818H34.28C34.51 42.3818 34.71 42.2118 34.74 41.9718L36.43 27.9318C36.45 27.8018 36.4 27.6718 36.32 27.5718C36.23 27.4718 36.11 27.4118 35.98 27.4118H8.03Z"/>
<path d="M22 38.6416C19.93 38.6416 18.25 36.9616 18.25 34.8916C18.25 32.8216 19.93 31.1416 22 31.1416C24.07 31.1416 25.75 32.8216 25.75 34.8916C25.75 36.9616 24.07 38.6416 22 38.6416ZM22 33.0316C20.97 33.0316 20.14 33.8716 20.14 34.8916C20.14 35.9216 20.98 36.7516 22 36.7516C23.03 36.7516 23.86 35.9116 23.86 34.8916C23.86 33.8716 23.03 33.0316 22 33.0316Z"/>
<path d="M21.9999 16.1817C18.9999 16.1817 16.3799 11.9917 16.3799 7.22172C16.3799 2.80172 18.4299 0.261719 21.9999 0.261719C25.5199 0.261719 27.6199 2.86172 27.6199 7.22172C27.6199 12.0017 24.9899 16.1817 21.9999 16.1817ZM21.9999 2.15172C19.5199 2.15172 18.2599 3.86172 18.2599 7.22172C18.2599 11.3317 20.4899 14.3017 21.9999 14.3017C23.4999 14.3017 25.7399 11.3317 25.7399 7.22172C25.7399 3.85172 24.4799 2.15172 21.9999 2.15172Z"/>
</g>
<defs>
<clipPath id="clip0">
<rect width="44" height="44" transform="translate(0 0.261719)"/>
</clipPath>
</defs>
</svg>
