<svg width="44" height="44" viewBox="0 0 44 44" xmlns="http://www.w3.org/2000/svg">
<g clip-path="url(#clip0)">
<path d="M37.3576 31.8463V1.51801C37.3576 0.63379 36.6379 -0.0859375 35.7534 -0.0859375H10.9039C8.58765 -0.0859375 6.70306 1.79865 6.70306 4.11494V36.1485C6.70306 38.4648 8.58731 40.3491 10.9039 40.3491H10.9133V43.2686C10.9133 43.5117 11.05 43.7342 11.2665 43.8443C11.4833 43.9541 11.7438 43.9329 11.9399 43.7896L13.7093 42.4955L15.4791 43.7896C15.5919 43.8722 15.7255 43.9141 15.8601 43.9141C15.9598 43.9141 16.0599 43.891 16.1522 43.8443C16.369 43.7342 16.5057 43.5117 16.5057 43.2686V40.3491H35.7534C36.6379 40.3491 37.3573 39.6297 37.3573 38.7451V34.9736C37.3573 34.6171 37.0683 34.3281 36.7118 34.3281C36.3553 34.3281 36.0662 34.6171 36.0662 34.9736V38.7451C36.0662 38.918 35.9259 39.0583 35.753 39.0583H16.5057V37.4423H33.1618C33.5183 37.4423 33.8073 37.1533 33.8073 36.7971C33.8073 36.4406 33.5183 36.1516 33.1618 36.1516H9.83576C9.47925 36.1516 9.19022 36.4406 9.19022 36.7971C9.19022 37.1533 9.47925 37.4423 9.83576 37.4423H10.9133V39.0583H10.9039C9.29932 39.0583 7.99381 37.7528 7.99381 36.1485V35.4016C7.99381 33.797 9.29932 32.4918 10.9039 32.4918H36.7121C37.0686 32.4918 37.3576 32.2028 37.3576 31.8463ZM15.2149 37.4423V41.997L14.0907 41.1749C13.9772 41.092 13.8433 41.0503 13.7097 41.0503C13.5757 41.0503 13.4418 41.092 13.3283 41.1749L12.2041 41.997V37.4423H15.2149ZM7.99414 32.3763V4.11494C7.99414 2.51032 9.29932 1.20481 10.9039 1.20481H35.7534C35.9262 1.20481 36.0666 1.34546 36.0666 1.51801V31.2007H10.9039C9.775 31.2007 8.74945 31.6492 7.99414 32.3763Z" />
<path d="M11.6435 33.6365C11.287 33.6365 10.9979 33.9255 10.9979 34.282C10.9979 34.6385 11.287 34.9276 11.6435 34.9276H25.0746C25.4311 34.9276 25.7201 34.6385 25.7201 34.282C25.7201 33.9255 25.4311 33.6365 25.0746 33.6365H11.6435Z" />
<path d="M28.1072 33.6365C27.7507 33.6365 27.4617 33.9255 27.4617 34.282C27.4617 34.6385 27.7507 34.9276 28.1072 34.9276H33.1618C33.5183 34.9276 33.8073 34.6385 33.8073 34.282C33.8073 33.9255 33.5183 33.6365 33.1618 33.6365H28.1072Z" />
<path d="M15.254 21.5757H14.1093C13.8598 21.5757 13.787 21.8013 13.787 22.0269C13.787 22.2525 13.8514 22.4861 14.1093 22.4861H14.73C14.9153 22.4861 14.9636 22.5506 14.9555 22.752C14.9394 23.139 14.8186 23.848 13.8921 23.848C12.8605 23.848 12.7473 22.5909 12.7473 21.8815C12.7473 21.0356 12.8846 19.9234 13.8921 19.9234C14.4319 19.9234 14.6736 20.1812 14.7944 20.6405C14.8508 20.8499 14.9878 20.9389 15.4393 20.9389C15.8502 20.9389 15.9549 20.713 15.9066 20.4552C15.7209 19.5045 15.02 18.9805 13.8917 18.9805C12.2478 19.0691 11.6436 20.2376 11.6436 21.8815C11.6436 23.4935 12.2801 24.791 13.932 24.791C15.5034 24.791 16.0596 23.6547 16.0032 22.2683C15.9871 21.8335 15.8421 21.5757 15.254 21.5757Z" />
<path d="M20.4349 19.0369C20.169 19.0369 19.9032 19.1178 19.9032 19.4078V22.7762C19.9032 23.3888 19.5564 23.8319 18.928 23.8319C18.2996 23.8319 17.9608 23.3888 17.9608 22.7762V19.4078C17.9608 19.1178 17.695 19.0369 17.4288 19.0369C17.1629 19.0369 16.897 19.1178 16.897 19.4078V22.6795C16.897 24.1784 17.7433 24.7991 18.928 24.7991C20.1204 24.7991 20.9667 24.1784 20.9667 22.6795V19.4078C20.9667 19.1178 20.7008 19.0369 20.4349 19.0369Z" />
<path d="M22.546 19.0369C22.2801 19.0369 22.0143 19.1178 22.0143 19.4078V24.4043C22.0143 24.7024 22.2801 24.7829 22.546 24.7829C22.8119 24.7829 23.0858 24.7024 23.0858 24.4043V19.4078C23.0858 19.1178 22.8119 19.0369 22.546 19.0369Z" />
<path d="M26.0352 19.0691H24.9231C24.5122 19.0691 24.1335 19.1738 24.1335 19.7784V23.9931C24.1335 24.6057 24.5122 24.7104 24.9231 24.7104H26.0352C27.6388 24.7104 28.2673 23.3888 28.2673 21.8899C28.2673 20.3907 27.6227 19.0691 26.0352 19.0691V19.0691ZM26.0352 23.7352H25.334C25.2453 23.7352 25.197 23.703 25.197 23.5983V20.1732C25.197 20.0685 25.2453 20.0362 25.334 20.0362H26.0352C26.9134 20.0362 27.1715 21.1 27.1715 21.8899C27.1715 22.6795 26.9376 23.7352 26.0352 23.7352Z" />
<path d="M30.2816 20.0361H32.0786C32.3529 20.0361 32.4173 19.7944 32.4173 19.5527C32.4173 19.311 32.3448 19.0693 32.0786 19.0693H29.8627C29.4595 19.0693 29.0728 19.1741 29.0728 19.7783V24.001C29.0728 24.6056 29.4595 24.7103 29.8627 24.7103H32.0786C32.3445 24.7103 32.4173 24.4686 32.4173 24.2269C32.4173 23.9852 32.3529 23.7432 32.0786 23.7432H30.2816C30.185 23.7432 30.1447 23.711 30.1447 23.6062V22.2766H31.7805C32.0464 22.2766 32.1189 22.0349 32.1189 21.7932C32.1189 21.5515 32.0464 21.3098 31.7805 21.3098H30.1447V20.1734C30.1447 20.0684 30.185 20.0361 30.2816 20.0361Z" />
<path d="M28.5846 3.1853C25.382 3.1853 22.7764 5.79096 22.7764 8.99348C22.7764 12.1963 25.382 14.802 28.5846 14.802C31.7874 14.802 34.3931 12.1963 34.3931 8.99348C34.3931 5.79096 31.7874 3.1853 28.5846 3.1853ZM28.5846 13.5113C26.0937 13.5113 24.0671 11.4847 24.0671 8.99382C24.0671 6.50263 26.0937 4.47605 28.5846 4.47605C31.0757 4.47605 33.1023 6.50263 33.1023 8.99382C33.1023 11.4847 31.0757 13.5113 28.5846 13.5113Z" />
<path d="M20.5853 4.66643L19.984 5.26799C19.2425 4.38042 18.2495 3.73051 17.1249 3.40892C15.6331 2.98259 14.0644 3.16252 12.7082 3.91582C11.3517 4.66911 10.3701 5.90548 9.94376 7.3973C9.06357 10.4766 10.8525 13.6983 13.9321 14.5785C14.4635 14.7305 14.999 14.8027 15.5263 14.8027C18.0535 14.8027 20.3848 13.138 21.1133 10.5901C21.2264 10.194 21.2976 9.78677 21.3251 9.37957C21.3315 9.28591 21.3349 9.14895 21.3349 8.99352C21.3349 8.63735 21.0462 8.34832 20.6893 8.34832C20.3328 8.34832 20.0441 8.63735 20.0441 8.99352C20.0441 9.11706 20.0414 9.22851 20.0371 9.29263C20.0156 9.60952 19.9602 9.92675 19.8719 10.2353C19.1874 12.6304 16.6818 14.0219 14.2866 13.3374C11.8918 12.6526 10.5 10.147 11.1848 7.75213C11.5161 6.59197 12.2799 5.63021 13.3349 5.04442C14.3897 4.45863 15.6096 4.31831 16.7698 4.64998C17.6822 4.91081 18.4825 5.44927 19.0662 6.18544L15.3501 9.90158L13.583 8.13482C13.3309 7.88271 12.9224 7.88271 12.6703 8.13482C12.4182 8.38693 12.4182 8.79546 12.6703 9.04757L14.8936 11.2709C15.0198 11.3968 15.1849 11.4599 15.3501 11.4599C15.5153 11.4599 15.6804 11.3971 15.8063 11.2709L21.498 5.57918C21.7501 5.32707 21.7501 4.91853 21.498 4.66643C21.2459 4.41432 20.8374 4.41432 20.5853 4.66643Z" />
<path d="M31.3486 6.34972C31.0961 6.09762 30.6876 6.09762 30.4355 6.34972L28.5912 8.19436L26.7465 6.34972C26.4944 6.09762 26.0859 6.09762 25.8338 6.34972C25.5817 6.60183 25.5817 7.01037 25.8338 7.26248L27.6784 9.10711L25.8338 10.9517C25.5817 11.2035 25.5817 11.6124 25.8338 11.8645C25.96 11.9904 26.1252 12.0535 26.2903 12.0535C26.4555 12.0535 26.6207 11.9904 26.7465 11.8645L28.5912 10.0199L30.4355 11.8645C30.5617 11.9904 30.7269 12.0535 30.892 12.0535C31.0572 12.0535 31.2224 11.9904 31.3486 11.8645C31.6003 11.6124 31.6003 11.2035 31.3486 10.9517L29.5039 9.10711L31.3486 7.26248C31.6003 7.01037 31.6003 6.60183 31.3486 6.34972Z" />
</g>
<defs>
<clipPath id="clip0">
<rect width="44" height="44" fill="white"/>
</clipPath>
</defs>
</svg>
