<svg width="44" height="45" viewBox="0 0 44 45" xmlns="http://www.w3.org/2000/svg">
<g clip-path="url(#clip0)">
<path d="M29.72 35.8417H43.06C43.58 35.8417 44 35.4217 44 34.9017V1.20172C44 0.681719 43.58 0.261719 43.06 0.261719H27.62C25.62 0.261719 23.66 1.29172 22.37 3.03172C22.28 3.14172 22.15 3.21172 22 3.21172C21.85 3.21172 21.72 3.14172 21.63 3.02172C20.34 1.29172 18.38 0.261719 16.38 0.261719H0.94C0.42 0.261719 0 0.681719 0 1.20172V34.8917C0 35.4117 0.42 35.8317 0.94 35.8317H16.38C16.9 35.8317 17.32 35.4117 17.32 34.8917C17.32 34.3717 16.9 33.9517 16.38 33.9517H2.35C2.1 33.9517 1.89 33.7417 1.89 33.4917V30.6817C1.89 30.4317 2.1 30.2217 2.35 30.2217H16.39C18.79 30.2217 21.06 32.4917 21.06 34.8917C21.06 35.4117 21.48 35.8317 22 35.8317C22.52 35.8317 22.94 35.4117 22.94 34.8917C22.94 32.4917 25.21 30.2217 27.61 30.2217H41.65C41.9 30.2217 42.11 30.4317 42.11 30.6817V33.4917C42.11 33.7417 41.9 33.9517 41.65 33.9517H29.72C28.04 33.9517 26.67 35.3217 26.67 37.0017C26.67 38.6817 28.04 40.0517 29.72 40.0517H40.95C41.58 40.0517 42.11 40.5817 42.11 41.2117C42.11 41.8417 41.58 42.3717 40.95 42.3717H14.28C13.76 42.3717 13.34 42.7917 13.34 43.3117C13.34 43.8317 13.76 44.2517 14.28 44.2517H40.95C42.63 44.2517 44 42.8817 44 41.2017C44 39.5217 42.63 38.1517 40.95 38.1517H29.72C29.09 38.1517 28.56 37.6217 28.56 36.9917C28.56 36.3717 29.09 35.8417 29.72 35.8417ZM21.06 29.4017C21.06 29.5817 20.96 29.7417 20.8 29.8117C20.74 29.8417 20.67 29.8617 20.6 29.8617C20.5 29.8617 20.4 29.8317 20.32 29.7617C19.13 28.8317 17.77 28.3317 16.39 28.3317H2.35C2.1 28.3317 1.89 28.1217 1.89 27.8717V2.61172C1.89 2.36172 2.1 2.15172 2.35 2.15172H16.39C18.79 2.15172 21.06 4.42172 21.06 6.82172V29.4017ZM41.65 28.3417H27.62C26.24 28.3417 24.89 28.8317 23.69 29.7717C23.61 29.8317 23.51 29.8717 23.41 29.8717C23.34 29.8717 23.27 29.8517 23.21 29.8217C23.05 29.7417 22.95 29.5817 22.95 29.4117V6.82172C22.95 4.42172 25.22 2.15172 27.62 2.15172H41.66C41.91 2.15172 42.12 2.36172 42.12 2.61172V27.8817C42.11 28.1317 41.91 28.3417 41.65 28.3417Z"/>
<path d="M9.37018 7.76184H13.5802C14.1002 7.76184 14.5202 7.34184 14.5202 6.82184C14.5202 6.30184 14.1002 5.88184 13.5802 5.88184H9.37018C8.85018 5.88184 8.43018 6.30184 8.43018 6.82184C8.43018 7.34184 8.85018 7.76184 9.37018 7.76184Z"/>
<path d="M16.3801 11.4917H6.56012C6.04012 11.4917 5.62012 11.9117 5.62012 12.4317C5.62012 12.9517 6.04012 13.3717 6.56012 13.3717H16.3901C16.9101 13.3717 17.3301 12.9517 17.3301 12.4317C17.3301 11.9117 16.9001 11.4917 16.3801 11.4917Z"/>
<path d="M16.3801 17.1118H6.56012C6.04012 17.1118 5.62012 17.5318 5.62012 18.0518C5.62012 18.5718 6.04012 18.9918 6.56012 18.9918H16.3901C16.9101 18.9918 17.3301 18.5718 17.3301 18.0518C17.3301 17.5318 16.9001 17.1118 16.3801 17.1118Z"/>
<path d="M16.3801 22.7217H6.56012C6.04012 22.7217 5.62012 23.1417 5.62012 23.6617C5.62012 24.1817 6.04012 24.6017 6.56012 24.6017H16.3901C16.9101 24.6017 17.3301 24.1817 17.3301 23.6617C17.3301 23.1417 16.9001 22.7217 16.3801 22.7217Z"/>
<path d="M37.4399 11.4917H27.6099C27.0899 11.4917 26.6699 11.9117 26.6699 12.4317C26.6699 12.9517 27.0899 13.3717 27.6099 13.3717H37.4399C37.9599 13.3717 38.3799 12.9517 38.3799 12.4317C38.3799 11.9117 37.9599 11.4917 37.4399 11.4917Z"/>
<path d="M37.4399 17.1118H27.6099C27.0899 17.1118 26.6699 17.5318 26.6699 18.0518C26.6699 18.5718 27.0899 18.9918 27.6099 18.9918H37.4399C37.9599 18.9918 38.3799 18.5718 38.3799 18.0518C38.3799 17.5318 37.9599 17.1118 37.4399 17.1118Z"/>
<path d="M33.2302 22.7217H27.6202C27.1002 22.7217 26.6802 23.1417 26.6802 23.6617C26.6802 24.1817 27.1002 24.6017 27.6202 24.6017H33.2302C33.7502 24.6017 34.1702 24.1817 34.1702 23.6617C34.1702 23.1417 33.7502 22.7217 33.2302 22.7217Z"/>
<path d="M30.42 7.76184H34.63C35.15 7.76184 35.57 7.34184 35.57 6.82184C35.57 6.30184 35.15 5.88184 34.63 5.88184H30.42C29.9 5.88184 29.48 6.30184 29.48 6.82184C29.48 7.34184 29.9 7.76184 30.42 7.76184Z"/>
</g>
<defs>
<clipPath id="clip0">
<rect width="44" height="44" fill="white" transform="translate(0 0.261719)"/>
</clipPath>
</defs>
</svg>
