<svg width="48" height="50" viewBox="0 0 48 50" fill="none" xmlns="http://www.w3.org/2000/svg">
<path d="M42.4528 32.9709H20.5828C20.1781 32.9709 19.8501 33.299 19.8501 33.7037C19.8501 34.1084 20.1781 34.4364 20.5828 34.4364H42.4528C42.8575 34.4364 43.1855 34.1084 43.1855 33.7037C43.1854 33.299 42.8575 32.9709 42.4528 32.9709Z" fill="#F2473A"/>
<path d="M42.4528 36.9764H20.5828C20.1781 36.9764 19.8501 37.3045 19.8501 37.7092C19.8501 38.1138 20.1781 38.4419 20.5828 38.4419H42.4528C42.8575 38.4419 43.1855 38.1138 43.1855 37.7092C43.1854 37.3045 42.8575 36.9764 42.4528 36.9764Z" fill="#F2473A"/>
<path d="M36.6646 40.9817H20.5828C20.1781 40.9817 19.8501 41.3097 19.8501 41.7144C19.8501 42.1191 20.1781 42.4471 20.5828 42.4471H36.6646C37.0693 42.4471 37.3974 42.1191 37.3974 41.7144C37.3974 41.3097 37.0693 40.9817 36.6646 40.9817Z" fill="#F2473A"/>
<path d="M47.0442 11.9788L41.0447 5.9793C40.9072 5.84189 40.7209 5.76465 40.5266 5.76465H32.2412V2.57324C32.2412 1.1543 31.0868 0 29.6679 0H3.31357C1.89463 0 0.740234 1.15439 0.740234 2.57324V41.6621C0.740234 43.0811 1.89463 44.2354 3.31357 44.2354H13.058C13.4627 44.2354 13.7907 43.9073 13.7907 43.5026C13.7907 43.0979 13.4627 42.7699 13.058 42.7699H3.31357C2.70264 42.7699 2.20566 42.2729 2.20566 41.662V2.57324C2.20566 1.9623 2.70273 1.46533 3.31357 1.46533H27.555L17.9851 5.13877C16.8025 5.59268 15.9544 6.67969 15.7904 7.93086C15.7415 8.2375 15.7636 8.41709 15.7579 8.76436H5.25C4.53682 8.76436 3.95645 9.34463 3.95645 10.0579V16.6214C3.95645 17.3346 4.53672 17.9149 5.25 17.9149H15.758V19.8825H5.25C4.53682 19.8825 3.95645 20.4628 3.95645 21.1761V27.7396C3.95645 28.4527 4.53672 29.0331 5.25 29.0331H15.758V31.2453H4.68916C4.28447 31.2453 3.95645 31.5733 3.95645 31.978C3.95645 32.3827 4.28447 32.7107 4.68916 32.7107H15.758V34.9739H4.68916C4.28447 34.9739 3.95645 35.302 3.95645 35.7066C3.95645 36.1113 4.28447 36.4394 4.68916 36.4394H15.758V47.427C15.758 48.8459 16.9124 50.0003 18.3313 50.0003H44.6855C46.1044 50.0003 47.2587 48.8459 47.2587 47.427V12.4969C47.2588 12.3025 47.1816 12.1162 47.0442 11.9788V11.9788ZM41.2592 8.26621L44.7572 11.7643H42.3671C41.7563 11.7643 41.2592 11.2672 41.2592 10.6563V8.26621ZM20.4439 5.76465L30.5381 1.88994C30.6864 2.07842 30.7758 2.31543 30.7758 2.57334V5.76465H20.4439ZM5.42178 16.4495V10.2298H15.7579V16.4495H5.42178ZM5.42178 27.5676V21.3479H15.7579V27.5676H5.42178ZM44.6855 48.5347H18.3313C17.7203 48.5347 17.2233 48.0376 17.2233 47.4268V8.33789C17.2233 7.73301 17.7151 7.22998 18.3313 7.22998H39.7938V10.6562C39.7938 12.0752 40.9482 13.2296 42.3671 13.2296H45.7934V47.4267C45.7934 48.0376 45.2964 48.5347 44.6855 48.5347V48.5347Z" fill="#F2473A"/>
<path d="M41.6228 15.511H27.1469C26.7422 15.511 26.4142 15.839 26.4142 16.2437C26.4142 16.6484 26.7422 16.9764 27.1469 16.9764H41.6229C41.7327 16.9764 41.8223 17.0658 41.8223 17.1757V27.0808L38.1014 22.5975C37.2772 21.6045 35.7552 21.6065 34.9326 22.5975L33.3351 24.5223L29.9228 20.4109C29.0984 19.4179 27.5766 19.4199 26.754 20.4109L21.1939 27.1102V17.1756C21.1939 17.0657 21.2834 16.9763 21.3933 16.9763H23.7216C24.1263 16.9763 24.4543 16.6483 24.4543 16.2436C24.4543 15.8389 24.1263 15.5109 23.7216 15.5109H21.3933C20.4754 15.5109 19.7285 16.2576 19.7285 17.1756V27.6726C19.7285 28.5906 20.4753 29.3373 21.3933 29.3373H41.6229C42.5408 29.3373 43.2876 28.5906 43.2876 27.6726V17.1757C43.2876 16.2577 42.5407 15.511 41.6228 15.511ZM36.0602 23.5334C36.2976 23.2472 36.736 23.2471 36.9736 23.5334L40.5745 27.8721H32.4594L36.0602 23.5334ZM27.8815 21.3468C28.119 21.0606 28.5574 21.0605 28.795 21.3468L32.3828 25.6697L30.5549 27.8721H22.4659L27.8815 21.3468Z" fill="#F2473A"/>
</svg>
