<svg width="13" height="6" viewBox="0 0 13 6" fill="none" xmlns="http://www.w3.org/2000/svg">
<path d="M6.49969 5.66668C6.31471 5.66704 6.13545 5.60262 5.99302 5.4846L1.24302 1.52627C1.08135 1.39189 0.979682 1.19879 0.960381 0.989454C0.941081 0.780117 1.00573 0.571686 1.14011 0.410015C1.27448 0.248343 1.46758 0.146674 1.67692 0.127373C1.88625 0.108073 2.09468 0.172721 2.25636 0.307098L6.49969 3.85376L10.743 0.433765C10.824 0.368004 10.9172 0.318896 11.0172 0.289263C11.1172 0.259629 11.2221 0.250055 11.3258 0.26109C11.4296 0.272125 11.5301 0.303552 11.6216 0.353565C11.7132 0.403577 11.7939 0.471189 11.8593 0.552515C11.9318 0.633915 11.9867 0.729411 12.0206 0.833019C12.0544 0.936628 12.0666 1.04612 12.0561 1.15462C12.0457 1.26313 12.013 1.36832 11.9601 1.46361C11.9071 1.55889 11.8351 1.64221 11.7484 1.70835L6.99844 5.5321C6.85191 5.63146 6.67631 5.67885 6.49969 5.66668Z" fill="white"/>
</svg>
