<svg width="30" height="30" viewBox="0 0 30 30" xmlns="http://www.w3.org/2000/svg">
<path d="M14.9899 16.6528C11.3335 16.5336 10.4566 13.4031 10.2689 12.3924C9.91693 12.3109 9.6033 12.1116 9.37987 11.8277C9.12479 11.4762 9.00647 11.0439 9.04703 10.6115C9.01805 10.3785 9.0383 10.142 9.10646 9.91739C9.17461 9.69274 9.28917 9.48489 9.4427 9.30729C9.52937 9.21844 9.62902 9.14326 9.73824 9.08432C9.05867 7.98717 8.72397 6.71134 8.77743 5.42189C9.20068 2.39756 11.638 2.10324 12.4014 2.08621C12.7527 1.67757 13.1919 1.35368 13.6861 1.13878C14.6118 0.765368 15.635 0.708358 16.5965 0.976615C18.4865 1.46999 19.7469 2.41621 20.3449 3.78932C21.1962 5.74094 20.4495 7.98729 20.0205 8.99594C20.1841 9.0491 20.3349 9.13565 20.4632 9.25013C20.6379 9.42747 20.7695 9.64254 20.848 9.87878C20.9264 10.115 20.9496 10.3661 20.9157 10.6127C20.9566 11.0451 20.8384 11.4775 20.5832 11.8289C20.3596 12.1128 20.0459 12.312 19.6938 12.3936C19.5061 13.4031 18.6312 16.5336 14.9899 16.6528ZM10.4157 9.73256C10.2719 9.72586 10.1312 9.77595 10.0241 9.87202C9.94985 9.97595 9.897 10.0936 9.86853 10.2181C9.84007 10.3425 9.83658 10.4714 9.85824 10.5973C9.85994 10.6243 9.85899 10.6515 9.85541 10.6784C9.83337 10.9111 9.89347 11.1441 10.0253 11.3372C10.1075 11.429 10.2072 11.5035 10.3186 11.5562C10.43 11.609 10.5508 11.639 10.6739 11.6445C10.7666 11.6554 10.8527 11.698 10.9176 11.7651C10.9825 11.8321 11.0223 11.9196 11.0303 12.0126C11.0437 12.1634 11.4032 15.7249 14.9907 15.8424C18.5582 15.7249 18.9195 12.1634 18.9328 12.0118C18.941 11.9189 18.9808 11.8317 19.0457 11.7648C19.1106 11.6979 19.1966 11.6554 19.2892 11.6445C19.4123 11.639 19.5332 11.6091 19.6445 11.5563C19.7559 11.5035 19.8557 11.429 19.9378 11.3372C20.0702 11.1432 20.1303 10.9089 20.1077 10.6751C20.1043 10.6491 20.1034 10.6227 20.1049 10.5965C20.1268 10.4665 20.1219 10.3334 20.0904 10.2054C20.059 10.0774 20.0017 9.95719 19.922 9.85216C19.7954 9.75889 19.6378 9.71769 19.4818 9.73702C19.4067 9.75033 19.3295 9.74223 19.2588 9.71364C19.1882 9.68505 19.1271 9.63714 19.0824 9.5754C19.0378 9.51365 19.0114 9.44058 19.0064 9.36455C19.0014 9.28852 19.0179 9.21261 19.0541 9.14553C19.0691 9.11716 20.5541 6.29878 19.5997 4.10837C19.1055 2.97648 18.0268 2.18634 16.3926 1.75986C15.6071 1.53758 14.7703 1.58033 14.0116 1.88148C13.58 2.06745 13.2038 2.36183 12.9195 2.73607C12.8785 2.79175 12.8239 2.83592 12.7609 2.86433C12.6979 2.89273 12.6287 2.90441 12.5599 2.89824C12.4549 2.88972 9.97257 2.72918 9.58338 5.50418C9.58338 5.50418 9.47108 7.71162 10.7497 9.04945C10.8055 9.10771 10.8425 9.18124 10.8563 9.26068C10.87 9.34011 10.8597 9.42183 10.8268 9.4954C10.7964 9.57085 10.7429 9.63472 10.6739 9.67778C10.6049 9.72084 10.524 9.74087 10.4428 9.73499L10.4157 9.73256Z" fill="black"/>
<path d="M19.4112 9.7423C19.3066 9.74239 19.206 9.70202 19.1304 9.62964C19.0548 9.55725 19.0102 9.45846 19.0058 9.35392C19.0009 9.24892 18.8753 6.79986 17.0469 6.56432C16.2106 6.67053 15.3614 6.60431 14.5517 6.36976C13.742 6.13521 12.9889 5.73729 12.3389 5.20054C11.822 5.58932 10.6309 6.77108 10.86 9.29148C10.863 9.39465 10.8266 9.49508 10.7581 9.57231C10.6896 9.64954 10.5943 9.69775 10.4915 9.70711C10.3887 9.71646 10.2862 9.68627 10.205 9.62267C10.1237 9.55908 10.0697 9.46688 10.054 9.36486C9.71796 5.66716 12.0924 4.38365 12.1934 4.33094C12.2685 4.29173 12.3541 4.27705 12.438 4.28898C12.5219 4.3009 12.6 4.33883 12.6612 4.39743C13.239 4.9208 13.9231 5.31321 14.6666 5.54782C15.4101 5.78242 16.1955 5.85369 16.969 5.75675C17.0062 5.75075 17.0439 5.74939 17.0813 5.7527C19.1424 5.96716 19.772 8.18148 19.8166 9.32027C19.8208 9.42754 19.7822 9.53208 19.7094 9.61097C19.6366 9.68986 19.5355 9.73665 19.4282 9.74108L19.4112 9.7423Z" fill="black"/>
<path d="M26.3874 29.1892H3.61257C3.50505 29.1892 3.40194 29.1465 3.32591 29.0704C3.24988 28.9944 3.20717 28.8913 3.20717 28.7838V24.2643C3.21007 22.8359 3.77931 21.4669 4.79008 20.4576C5.80085 19.4483 7.17064 18.881 8.59906 18.8801H9.37744C9.48496 18.8801 9.58808 18.9228 9.6641 18.9989C9.74013 19.0749 9.78285 19.178 9.78285 19.2855C9.78285 19.3931 9.74013 19.4962 9.6641 19.5722C9.58808 19.6482 9.48496 19.6909 9.37744 19.6909H8.59906C7.38561 19.6916 6.22194 20.1734 5.36318 21.0307C4.50442 21.888 4.02066 23.0509 4.01798 24.2643V28.3784H25.982V24.2643C25.9806 23.0518 25.4984 21.8894 24.641 21.032C23.7836 20.1746 22.6212 19.6923 21.4087 19.6909H20.5743C20.4668 19.6909 20.3637 19.6482 20.2877 19.5722C20.2116 19.4962 20.1689 19.3931 20.1689 19.2855C20.1689 19.178 20.2116 19.0749 20.2877 18.9989C20.3637 18.9228 20.4668 18.8801 20.5743 18.8801H21.4087C22.836 18.8822 24.2043 19.4501 25.2136 20.4594C26.2229 21.4687 26.7908 22.837 26.7928 24.2643V28.7838C26.7928 28.8913 26.7501 28.9944 26.6741 29.0704C26.5981 29.1465 26.495 29.1892 26.3874 29.1892Z"/>
<path d="M16.3549 29.1892C16.2965 29.1892 16.2389 29.1766 16.1858 29.1523C16.1328 29.128 16.0856 29.0925 16.0475 29.0483C16.0095 29.004 15.9814 28.9521 15.9653 28.8961C15.9491 28.84 15.9452 28.7811 15.9539 28.7234L17.5946 17.8654C17.6033 17.808 17.6242 17.7531 17.656 17.7044C17.6877 17.6558 17.7296 17.6145 17.7787 17.5834C17.8278 17.5524 17.883 17.5322 17.9405 17.5244C17.9981 17.5165 18.0567 17.5211 18.1123 17.5378L20.9437 18.3912C21 18.4082 21.052 18.4373 21.096 18.4764C21.14 18.5156 21.175 18.5638 21.1985 18.6179C21.2219 18.6719 21.2333 18.7304 21.2319 18.7892C21.2305 18.8481 21.2162 18.906 21.1901 18.9588L20.0647 21.2169L20.7174 21.9495C20.7753 22.0148 20.8105 22.0972 20.8178 22.1842C20.8251 22.2712 20.8041 22.3582 20.758 22.4323L16.6995 28.997C16.6631 29.0558 16.6124 29.1042 16.5521 29.1379C16.4918 29.1715 16.4239 29.1892 16.3549 29.1892ZM18.3268 18.4492L17.0518 26.8869L19.9111 22.2653L19.2774 21.5538C19.2235 21.4933 19.189 21.4181 19.1782 21.3378C19.1674 21.2576 19.181 21.1759 19.217 21.1034L20.25 19.0301L18.3268 18.4492Z"/>
<path d="M13.5985 29.1892C13.5294 29.1892 13.4614 29.1716 13.401 29.138C13.3406 29.1043 13.2899 29.0558 13.2535 28.997L9.19377 22.4335C9.14764 22.3594 9.12667 22.2724 9.13397 22.1854C9.14128 22.0984 9.17647 22.0161 9.23431 21.9507L9.88702 21.2181L8.76161 18.96C8.73554 18.9072 8.7213 18.8493 8.71986 18.7905C8.71843 18.7316 8.72983 18.6731 8.75329 18.6191C8.77675 18.5651 8.8117 18.5168 8.85571 18.4777C8.89971 18.4385 8.95171 18.4094 9.0081 18.3924L11.8394 17.5391C11.8951 17.5224 11.9536 17.5178 12.0111 17.5257C12.0686 17.5336 12.1238 17.5538 12.1728 17.5849C12.2218 17.6159 12.2637 17.6572 12.2954 17.7058C12.3271 17.7544 12.348 17.8092 12.3567 17.8666L13.9982 28.7246C14.0067 28.7821 14.0027 28.8408 13.9866 28.8966C13.9704 28.9524 13.9424 29.0041 13.9045 29.0482C13.8666 29.0923 13.8196 29.1277 13.7668 29.152C13.714 29.1763 13.6566 29.189 13.5985 29.1892ZM10.0423 22.2641L12.9016 26.8857L11.6266 18.4492L9.70337 19.0289L10.7359 21.1022C10.7721 21.1746 10.7857 21.2563 10.775 21.3366C10.7643 21.4168 10.7298 21.4921 10.6759 21.5526L10.0423 22.2641Z"/>
<path d="M15.0069 21.6304C14.1303 21.6298 13.2546 21.5767 12.3843 21.4715C12.3304 21.4665 12.2779 21.4508 12.2301 21.4253C12.1823 21.3997 12.1402 21.3648 12.1061 21.3227C12.072 21.2806 12.0467 21.232 12.0317 21.1799C12.0167 21.1279 12.0123 21.0733 12.0188 21.0195C12.0252 20.9657 12.0424 20.9137 12.0693 20.8667C12.0962 20.8196 12.1322 20.7784 12.1753 20.7455C12.2184 20.7126 12.2676 20.6887 12.3201 20.6752C12.3725 20.6617 12.4272 20.6588 12.4808 20.6667C14.1377 20.8705 15.8133 20.8705 17.4701 20.6667C17.5758 20.6553 17.6817 20.6858 17.7651 20.7517C17.8485 20.8177 17.9027 20.9137 17.9159 21.0191C17.9292 21.1246 17.9006 21.231 17.8362 21.3155C17.7717 21.4001 17.6767 21.4559 17.5715 21.4711C16.7208 21.5778 15.8643 21.631 15.0069 21.6304Z"/>
<path d="M17.9964 18.3312C17.9332 18.331 17.8711 18.316 17.8148 18.2875C17.7585 18.259 17.7096 18.2178 17.672 18.167C17.0696 17.3526 16.9605 15.7383 16.9504 15.557C16.9442 15.4497 16.9809 15.3444 17.0523 15.2641C17.1238 15.1838 17.2242 15.1352 17.3315 15.1289C17.4385 15.1239 17.5432 15.161 17.6232 15.2322C17.7032 15.3034 17.7522 15.4031 17.7596 15.51C17.7843 15.9365 17.9343 17.1588 18.3235 17.685C18.368 17.7452 18.3949 17.8166 18.4013 17.8912C18.4077 17.9658 18.3933 18.0408 18.3597 18.1077C18.3261 18.1746 18.2747 18.2309 18.211 18.2704C18.1474 18.3098 18.0741 18.3309 17.9992 18.3312H17.9964Z"/>
<path d="M11.957 18.3312C11.8821 18.3309 11.8088 18.3098 11.7452 18.2704C11.6815 18.2309 11.6301 18.1746 11.5965 18.1077C11.5629 18.0407 11.5485 17.9658 11.5549 17.8912C11.5613 17.8166 11.5882 17.7452 11.6327 17.685C12.0227 17.158 12.1723 15.9361 12.197 15.51C12.2001 15.4568 12.2137 15.4047 12.2369 15.3566C12.2601 15.3086 12.2926 15.2657 12.3324 15.2302C12.3722 15.1948 12.4186 15.1675 12.469 15.15C12.5194 15.1324 12.5727 15.125 12.6259 15.1281C12.6792 15.1312 12.7313 15.1447 12.7793 15.168C12.8273 15.1912 12.8703 15.2236 12.9057 15.2635C12.9412 15.3033 12.9684 15.3497 12.986 15.4001C13.0035 15.4505 13.0109 15.5038 13.0078 15.557C12.9977 15.7382 12.8862 17.3526 12.2862 18.167C12.2482 18.2184 12.1985 18.2601 12.1413 18.2886C12.0841 18.3171 12.0209 18.3317 11.957 18.3312Z"/>
<path d="M23.171 23.507C23.0654 23.5071 22.9641 23.466 22.8884 23.3925C22.8127 23.319 22.7686 23.2188 22.7656 23.1134C22.6897 20.4734 21.686 19.6427 21.6762 19.6346C21.5925 19.5681 21.5381 19.4714 21.525 19.3652C21.5118 19.2591 21.5407 19.152 21.6057 19.067C21.6702 18.9827 21.7653 18.9273 21.8704 18.9127C21.9756 18.8981 22.0822 18.9256 22.1672 18.9892C22.2207 19.0297 23.4876 20.0136 23.5764 23.0899C23.5794 23.1973 23.5397 23.3015 23.466 23.3796C23.3922 23.4578 23.2905 23.5034 23.1831 23.5066L23.171 23.507Z"/>
<path d="M23.173 25.9005C22.856 25.9006 22.5461 25.8067 22.2825 25.6307C22.0189 25.4546 21.8135 25.2044 21.6921 24.9115C21.5708 24.6187 21.539 24.2965 21.6008 23.9856C21.6625 23.6747 21.8151 23.3891 22.0392 23.1649C22.2634 22.9408 22.5489 22.7881 22.8598 22.7262C23.1707 22.6644 23.4929 22.6961 23.7858 22.8174C24.0786 22.9386 24.3289 23.144 24.505 23.4076C24.6811 23.6711 24.7751 23.981 24.7751 24.298C24.7747 24.7228 24.6058 25.1301 24.3054 25.4305C24.0051 25.731 23.5978 25.9 23.173 25.9005ZM23.173 23.5062C23.0164 23.5061 22.8633 23.5525 22.733 23.6395C22.6027 23.7264 22.5012 23.85 22.4412 23.9947C22.3812 24.1394 22.3655 24.2986 22.396 24.4522C22.4265 24.6058 22.5019 24.7469 22.6126 24.8577C22.7233 24.9685 22.8644 25.0439 23.018 25.0745C23.1716 25.1051 23.3308 25.0894 23.4755 25.0295C23.6202 24.9696 23.7439 24.8681 23.8309 24.7379C23.9179 24.6077 23.9643 24.4546 23.9643 24.298C23.9641 24.0881 23.8807 23.8869 23.7323 23.7385C23.584 23.5901 23.3828 23.5065 23.173 23.5062Z"/>
<path d="M6.51973 23.507C6.41701 23.5073 6.31803 23.4686 6.24278 23.3986C6.16753 23.3287 6.12161 23.2329 6.11432 23.1304C5.89338 20.0189 7.60784 19.0245 7.68081 18.9835C7.77446 18.9307 7.88527 18.9172 7.98885 18.9461C8.09244 18.9749 8.18033 19.0437 8.23317 19.1374C8.28602 19.231 8.2995 19.3418 8.27065 19.4454C8.24179 19.549 8.17297 19.6369 8.07932 19.6897C8.0177 19.7262 6.74148 20.5139 6.9227 23.0733C6.93028 23.1805 6.89494 23.2864 6.82447 23.3676C6.75399 23.4488 6.65414 23.4986 6.54689 23.5062L6.51973 23.507Z"/>
<path d="M5.6996 26.7531C5.63687 26.7534 5.57492 26.7391 5.51865 26.7114C5.46237 26.6837 5.41329 26.6433 5.37527 26.5934C5.17738 26.3335 5.0316 26.0378 4.94595 25.7226C4.75775 25.1086 4.8195 24.4451 5.11776 23.8764C5.41602 23.3076 5.92669 22.8796 6.53879 22.6853C6.82912 22.6036 7.1328 22.5807 7.43211 22.6177C7.73142 22.6547 8.02035 22.751 8.28203 22.901C8.74063 23.1659 9.10744 23.5645 9.33346 24.0435C9.55948 24.5225 9.63394 25.0591 9.54689 25.5815C9.52926 25.6876 9.47021 25.7823 9.38274 25.8448C9.29527 25.9074 9.18654 25.9326 9.08048 25.915C8.97441 25.8973 8.87969 25.8383 8.81715 25.7508C8.75462 25.6633 8.7294 25.5546 8.74703 25.4485C8.80653 25.0906 8.75599 24.723 8.6021 24.3943C8.44821 24.0657 8.1982 23.7915 7.88514 23.608C7.71634 23.5105 7.5298 23.4477 7.33643 23.4231C7.14306 23.3985 6.94674 23.4127 6.75892 23.4649C6.3527 23.6007 6.01642 23.8913 5.82304 24.2735C5.62966 24.6557 5.59477 25.0987 5.72595 25.5065C5.78461 25.7223 5.88457 25.9247 6.02027 26.1025C6.06593 26.1625 6.09391 26.2342 6.10106 26.3093C6.10821 26.3844 6.09426 26.46 6.06076 26.5277C6.02727 26.5953 5.97556 26.6522 5.91147 26.6921C5.84738 26.7319 5.77344 26.753 5.69798 26.7531H5.6996Z"/>
<path d="M9.15244 25.9212C9.13662 25.9212 9.12041 25.9212 9.10419 25.9188L8.6473 25.8649C8.59441 25.8586 8.54327 25.842 8.49681 25.8159C8.45034 25.7899 8.40947 25.7549 8.37651 25.7131C8.34355 25.6712 8.31916 25.6233 8.30472 25.572C8.29028 25.5208 8.28608 25.4672 8.29237 25.4143C8.29865 25.3614 8.31529 25.3102 8.34133 25.2638C8.36738 25.2173 8.40232 25.1764 8.44416 25.1435C8.52867 25.0769 8.63615 25.0466 8.74298 25.0593L9.19987 25.1137C9.30247 25.1259 9.39655 25.1768 9.46287 25.256C9.52919 25.3353 9.56275 25.4368 9.55669 25.54C9.55064 25.6431 9.50542 25.7401 9.43029 25.811C9.35515 25.882 9.25577 25.9215 9.15244 25.9216V25.9212Z"/>
<path d="M5.69959 26.7568C5.6044 26.7569 5.5122 26.7235 5.43914 26.6625C5.36609 26.6015 5.31683 26.5167 5.30001 26.423C5.28318 26.3293 5.29986 26.2327 5.34713 26.1501C5.39439 26.0674 5.46922 26.0041 5.5585 25.9711L6.04499 25.7915C6.0949 25.7729 6.14799 25.7642 6.20124 25.7661C6.25448 25.768 6.30683 25.7804 6.3553 25.8025C6.40377 25.8246 6.4474 25.856 6.48372 25.895C6.52003 25.934 6.54832 25.9798 6.56695 26.0297C6.58558 26.0796 6.5942 26.1327 6.59232 26.1859C6.59043 26.2392 6.57808 26.2915 6.55596 26.34C6.53385 26.3884 6.5024 26.4321 6.46342 26.4684C6.42444 26.5047 6.37869 26.533 6.32877 26.5516L5.84229 26.7316C5.79662 26.7485 5.74828 26.757 5.69959 26.7568Z"/>
</svg>
