<svg width="20" height="20" viewBox="0 0 20 20" fill="none" xmlns="http://www.w3.org/2000/svg">
<path d="M10.0051 0.151611C5.89281 0.151611 4.69012 0.155854 4.45634 0.175248C3.61242 0.245399 3.08729 0.378278 2.51518 0.663126C2.07429 0.882066 1.72657 1.13585 1.3834 1.49161C0.75842 2.1404 0.379643 2.93858 0.242526 3.88737C0.175861 4.34798 0.156468 4.44191 0.152529 6.79464C0.151014 7.57888 0.152529 8.61101 0.152529 9.9954C0.152529 14.1045 0.157074 15.306 0.176771 15.5393C0.24495 16.3606 0.373734 16.8772 0.646453 17.4424C1.16765 18.5242 2.16307 19.3363 3.33577 19.6393C3.74181 19.7439 4.19029 19.8015 4.76603 19.8287C5.00996 19.8393 7.49625 19.8469 9.98405 19.8469C12.4719 19.8469 14.9597 19.8439 15.1975 19.8318C15.8642 19.8004 16.2513 19.7484 16.6793 19.6378C17.8596 19.3333 18.8368 18.5333 19.3686 17.4363C19.636 16.8848 19.7716 16.3484 19.833 15.5701C19.8463 15.4004 19.8519 12.6948 19.8519 9.99282C19.8519 7.2904 19.8459 4.58979 19.8325 4.4201C19.7704 3.62919 19.6348 3.09737 19.3588 2.53525C19.1323 2.0751 18.8807 1.73146 18.5156 1.3801C17.864 0.757672 17.067 0.378884 16.1173 0.241914C15.6572 0.175399 15.5655 0.155702 13.2111 0.151611H10.0051Z" fill="url(#paint0_radial)"/>
<path d="M10.0051 0.151611C5.89281 0.151611 4.69012 0.155854 4.45634 0.175248C3.61242 0.245399 3.08729 0.378278 2.51518 0.663126C2.07429 0.882066 1.72657 1.13585 1.3834 1.49161C0.75842 2.1404 0.379643 2.93858 0.242526 3.88737C0.175861 4.34798 0.156468 4.44191 0.152529 6.79464C0.151014 7.57888 0.152529 8.61101 0.152529 9.9954C0.152529 14.1045 0.157074 15.306 0.176771 15.5393C0.24495 16.3606 0.373734 16.8772 0.646453 17.4424C1.16765 18.5242 2.16307 19.3363 3.33577 19.6393C3.74181 19.7439 4.19029 19.8015 4.76603 19.8287C5.00996 19.8393 7.49625 19.8469 9.98405 19.8469C12.4719 19.8469 14.9597 19.8439 15.1975 19.8318C15.8642 19.8004 16.2513 19.7484 16.6793 19.6378C17.8596 19.3333 18.8368 18.5333 19.3686 17.4363C19.636 16.8848 19.7716 16.3484 19.833 15.5701C19.8463 15.4004 19.8519 12.6948 19.8519 9.99282C19.8519 7.2904 19.8459 4.58979 19.8325 4.4201C19.7704 3.62919 19.6348 3.09737 19.3588 2.53525C19.1323 2.0751 18.8807 1.73146 18.5156 1.3801C17.864 0.757672 17.067 0.378884 16.1173 0.241914C15.6572 0.175399 15.5655 0.155702 13.2111 0.151611H10.0051Z" fill="url(#paint1_radial)"/>
<path d="M10.0002 2.72729C8.02507 2.72729 7.7772 2.73593 7.00147 2.77123C6.22725 2.80669 5.69878 2.92926 5.23637 3.10911C4.75805 3.29487 4.3523 3.54336 3.94807 3.94775C3.54354 4.35199 3.29506 4.75775 3.10871 5.23593C2.92841 5.69851 2.80568 6.22714 2.77084 7.00108C2.73614 7.77684 2.72705 8.02487 2.72705 10C2.72705 11.9752 2.73584 12.2223 2.77099 12.9981C2.80659 13.7723 2.92917 14.3008 3.10886 14.7632C3.29476 15.2415 3.54324 15.6473 3.94762 16.0515C4.3517 16.4561 4.75744 16.7052 5.23546 16.8909C5.69817 17.0708 6.22679 17.1934 7.00086 17.2288C7.7766 17.2641 8.02431 17.2728 9.99926 17.2728C11.9745 17.2728 12.2216 17.2641 12.9973 17.2288C13.7716 17.1934 14.3006 17.0708 14.7634 16.8909C15.2415 16.7052 15.6467 16.4561 16.0507 16.0515C16.4553 15.6473 16.7037 15.2415 16.8901 14.7634C17.0689 14.3008 17.1916 13.7721 17.228 12.9982C17.2628 12.2224 17.2719 11.9752 17.2719 10C17.2719 8.02487 17.2628 7.77699 17.228 7.00124C17.1916 6.22699 17.0689 5.69851 16.8901 5.23608C16.7037 4.75775 16.4553 4.35199 16.0507 3.94775C15.6462 3.5432 15.2417 3.29472 14.7629 3.10911C14.2993 2.92926 13.7705 2.80669 12.9963 2.77123C12.2206 2.73593 11.9736 2.72729 9.99789 2.72729H10.0002ZM9.34776 4.0379C9.54139 4.0376 9.75744 4.0379 10.0002 4.0379C11.9419 4.0379 12.1721 4.04487 12.9389 4.07972C13.6479 4.11214 14.0328 4.23063 14.2891 4.33017C14.6285 4.46199 14.8705 4.61957 15.1249 4.87411C15.3794 5.12866 15.537 5.37108 15.6691 5.71048C15.7686 5.96654 15.8873 6.35139 15.9195 7.06048C15.9544 7.82714 15.962 8.05745 15.962 9.99836C15.962 11.9393 15.9544 12.1696 15.9195 12.9362C15.8871 13.6453 15.7686 14.0302 15.6691 14.2862C15.5373 14.6256 15.3794 14.8673 15.1249 15.1217C14.8703 15.3762 14.6287 15.5338 14.2891 15.6656C14.0331 15.7656 13.6479 15.8838 12.9389 15.9162C12.1722 15.9511 11.9419 15.9587 10.0002 15.9587C8.05825 15.9587 7.82811 15.9511 7.06147 15.9162C6.3524 15.8835 5.96756 15.765 5.71105 15.6655C5.37167 15.5337 5.12925 15.3761 4.87471 15.1215C4.62018 14.867 4.4626 14.6252 4.33049 14.2856C4.23094 14.0296 4.11231 13.6447 4.08004 12.9356C4.04519 12.169 4.03822 11.9387 4.03822 9.99654C4.03822 8.05442 4.04519 7.82533 4.08004 7.05866C4.11246 6.34957 4.23094 5.96472 4.33049 5.70836C4.4623 5.36896 4.62018 5.12654 4.87471 4.87199C5.12925 4.61745 5.37167 4.45987 5.71105 4.32775C5.96741 4.22775 6.3524 4.10957 7.06147 4.07699C7.73235 4.04669 7.99235 4.0376 9.34776 4.03608V4.0379ZM13.8822 5.24548C13.4004 5.24548 13.0095 5.63593 13.0095 6.1179C13.0095 6.59972 13.4004 6.99063 13.8822 6.99063C14.364 6.99063 14.7549 6.59972 14.7549 6.1179C14.7549 5.63608 14.364 5.24517 13.8822 5.24517V5.24548ZM10.0002 6.26517C7.93765 6.26517 6.26543 7.93745 6.26543 10C6.26543 12.0626 7.93765 13.7341 10.0002 13.7341C12.0627 13.7341 13.7343 12.0626 13.7343 10C13.7343 7.93745 12.0625 6.26517 10 6.26517H10.0002ZM10.0002 7.57578C11.3389 7.57578 12.4243 8.66108 12.4243 10C12.4243 11.3388 11.3389 12.4243 10.0002 12.4243C8.66126 12.4243 7.57599 11.3388 7.57599 10C7.57599 8.66108 8.66126 7.57578 10.0002 7.57578Z" fill="white"/>
<defs>
<radialGradient id="paint0_radial" cx="0" cy="0" r="1" gradientUnits="userSpaceOnUse" gradientTransform="translate(5.38471 21.3639) rotate(-90) scale(19.5195 18.1591)">
<stop stop-color="#FFDD55"/>
<stop offset="0.1" stop-color="#FFDD55"/>
<stop offset="0.5" stop-color="#FF543E"/>
<stop offset="1" stop-color="#C837AB"/>
</radialGradient>
<radialGradient id="paint1_radial" cx="0" cy="0" r="1" gradientUnits="userSpaceOnUse" gradientTransform="translate(-3.14801 1.57043) rotate(78.678) scale(8.72538 35.9744)">
<stop stop-color="#3771C8"/>
<stop offset="0.128" stop-color="#3771C8"/>
<stop offset="1" stop-color="#6600FF" stop-opacity="0"/>
</radialGradient>
</defs>
</svg>
