<svg width="50" height="50" viewBox="0 0 50 50" fill="none" xmlns="http://www.w3.org/2000/svg">
<g clip-path="url(#clip0)">
<path d="M46.0319 14.3231H35.4394V6.96614C35.4394 4.77825 33.6593 2.99817 31.4713 2.99817H3.96807C1.78008 2.99817 0 4.77825 0 6.96614V17.873C0 18.2776 0.327832 18.6054 0.732422 18.6054C1.13701 18.6054 1.46484 18.2776 1.46484 17.873V6.96614C1.46484 5.58586 2.58779 4.46301 3.96807 4.46301H31.4714C32.8517 4.46301 33.9746 5.58586 33.9746 6.96614V26.3805C33.9746 27.7608 32.8518 28.8837 31.4715 28.8837H15.6279C15.216 28.8837 14.8289 29.0442 14.5381 29.3351L9.68457 34.1886C9.671 34.2024 9.64824 34.2247 9.60117 34.2053C9.554 34.1858 9.554 34.1537 9.554 34.1346V30.425C9.554 29.5751 8.8625 28.8837 8.0126 28.8837H3.96807C2.58779 28.8837 1.46484 27.7608 1.46484 26.3805V20.8027C1.46484 20.3981 1.13701 20.0702 0.732422 20.0702C0.327832 20.0702 0 20.3981 0 20.8027V26.3805C0 28.5685 1.78008 30.3486 3.96807 30.3486H8.0126C8.05488 30.3486 8.08916 30.3829 8.08916 30.425V34.1346C8.08916 34.7602 8.4626 35.3192 9.04062 35.5585C9.23252 35.6381 9.4332 35.6767 9.63203 35.6767C10.0324 35.6766 10.4248 35.52 10.7205 35.2244L14.5606 31.3842V37.7054C14.5606 39.8933 16.3406 41.6734 18.5286 41.6734H27.3991C27.8037 41.6734 28.1315 41.3455 28.1315 40.9409C28.1315 40.5364 27.8037 40.2085 27.3991 40.2085H18.5286C17.1483 40.2085 16.0255 39.0857 16.0255 37.7054V30.3486H31.4715C33.6594 30.3486 35.4395 28.5685 35.4395 26.3805V15.7879H46.032C47.4123 15.7879 48.5353 16.9109 48.5353 18.2911V37.7055C48.5353 39.0858 47.4123 40.2086 46.032 40.2086H41.9875C41.1376 40.2086 40.4461 40.9 40.4461 41.7499V45.4595C40.4461 45.4786 40.4461 45.5106 40.3989 45.5303C40.3521 45.5498 40.3291 45.5274 40.3156 45.5136L35.4622 40.6603C35.1712 40.3691 34.7841 40.2086 34.3723 40.2086H30.3291C29.9245 40.2086 29.5967 40.5364 29.5967 40.941C29.5967 41.3456 29.9245 41.6735 30.3291 41.6735H34.3723C34.3923 41.6735 34.4119 41.6816 34.4263 41.6959L39.2798 46.5494C39.5754 46.8449 39.9679 47.0017 40.3683 47.0017C40.567 47.0016 40.7679 46.963 40.9597 46.8835C41.5377 46.6442 41.9111 46.0852 41.9111 45.4595V41.7499C41.9111 41.7077 41.9455 41.6735 41.9877 41.6735H46.0322C48.2202 41.6735 50.0003 39.8934 50.0003 37.7055V18.2911C50 16.1032 48.2199 14.3231 46.0319 14.3231Z" fill="#F2473A"/>
<path d="M22.6499 34.4697C22.6499 35.7657 23.7042 36.8199 25.0001 36.8199C26.2961 36.8199 27.3503 35.7656 27.3503 34.4697C27.3503 33.1738 26.2961 32.1194 25.0001 32.1194C23.7042 32.1194 22.6499 33.1737 22.6499 34.4697ZM25.8855 34.4697C25.8855 34.9579 25.4883 35.355 25.0001 35.355C24.5119 35.355 24.1147 34.9579 24.1147 34.4697C24.1147 33.9815 24.5119 33.5843 25.0001 33.5843C25.4883 33.5843 25.8855 33.9815 25.8855 34.4697Z" fill="#F2473A"/>
<path d="M15.3694 24.7625C15.3694 26.0584 16.4238 27.1127 17.7197 27.1127C19.0157 27.1127 20.0699 26.0584 20.0699 24.7625C20.0699 23.4665 19.0156 22.4124 17.7197 22.4124C16.4238 22.4124 15.3694 23.4666 15.3694 24.7625ZM18.6051 24.7625C18.6051 25.2507 18.208 25.6479 17.7198 25.6479C17.2315 25.6479 16.8343 25.2507 16.8343 24.7625C16.8343 24.2744 17.2315 23.8772 17.7198 23.8772C18.2079 23.8772 18.6051 24.2744 18.6051 24.7625Z" fill="#F2473A"/>
<path d="M20.0701 16.8883C22.166 15.9171 23.4528 13.7545 23.2922 11.4288C23.1018 8.66555 20.8743 6.43811 18.1113 6.24739C16.5687 6.14055 15.0366 6.68323 13.9089 7.73587C12.7808 8.7887 12.1338 10.2773 12.1338 11.8198C12.1338 13.1158 13.1882 14.17 14.4841 14.17C15.78 14.17 16.8343 13.1157 16.8343 11.8198C16.8343 11.5681 16.9317 11.3442 17.116 11.1722C17.2971 11.0033 17.5361 10.9202 17.7876 10.9367C18.2081 10.9657 18.5737 11.3315 18.6027 11.7524C18.6294 12.1379 18.4095 12.4948 18.0555 12.6401C16.4237 13.3101 15.3694 14.8933 15.3694 16.6735V18.2912C15.3694 19.5872 16.4237 20.6415 17.7196 20.6415C19.0155 20.6415 20.0699 19.5871 20.0699 18.2912V16.8883H20.0701ZM19.2849 15.6331C18.872 15.8026 18.6053 16.211 18.6053 16.6734V18.2911C18.6053 18.7794 18.2081 19.1766 17.7198 19.1766C17.2316 19.1766 16.8345 18.7794 16.8345 18.2911V16.6734C16.8345 15.4898 17.5322 14.4384 18.612 13.9949C19.5509 13.6095 20.1345 12.6676 20.0643 11.6514C19.9855 10.5099 19.0299 9.55403 17.8876 9.47532C17.8317 9.47151 17.7762 9.46956 17.721 9.46956C17.1212 9.46956 16.5568 9.69055 16.1169 10.1011C15.635 10.5507 15.3696 11.1612 15.3696 11.8198C15.3696 12.308 14.9725 12.7052 14.4843 12.7052C13.996 12.7052 13.5988 12.308 13.5988 11.8198C13.5988 10.6819 14.0763 9.58352 14.9085 8.80667C15.7403 8.0301 16.8692 7.62903 18.0106 7.70882C20.048 7.84925 21.6905 9.49192 21.831 11.5296C21.9536 13.3081 20.9304 14.9573 19.2849 15.6331Z" fill="#F2473A"/>
<path d="M41.9108 34.4696C41.9108 33.1736 40.8565 32.1194 39.5606 32.1194C38.2647 32.1194 37.2104 33.1737 37.2104 34.4696C37.2104 35.7655 38.2647 36.8198 39.5606 36.8198C40.8565 36.8198 41.9108 35.7655 41.9108 34.4696ZM38.6752 34.4696C38.6752 33.9814 39.0724 33.5842 39.5605 33.5842C40.0487 33.5842 40.4459 33.9814 40.4459 34.4696C40.4459 34.9578 40.0487 35.3549 39.5605 35.3549C39.0725 35.3549 38.6752 34.9578 38.6752 34.4696Z" fill="#F2473A"/>
<path d="M32.2805 36.8198C33.5764 36.8198 34.6307 35.7655 34.6307 34.4696C34.6307 33.1737 33.5764 32.1194 32.2805 32.1194C30.9845 32.1194 29.9302 33.1737 29.9302 34.4696C29.9302 35.7655 30.9845 36.8198 32.2805 36.8198ZM32.2805 33.5841C32.7687 33.5841 33.1658 33.9813 33.1658 34.4695C33.1658 34.9577 32.7687 35.3548 32.2805 35.3548C31.7922 35.3548 31.395 34.9577 31.395 34.4695C31.395 33.9813 31.7922 33.5841 32.2805 33.5841Z" fill="#F2473A"/>
</g>
<defs>
<clipPath id="clip0">
<rect width="50" height="50" fill="white"/>
</clipPath>
</defs>
</svg>
