<svg width="50" height="50" viewBox="0 0 50 50" fill="none" xmlns="http://www.w3.org/2000/svg">
<path d="M49.2188 16.825C49.2188 14.8711 47.6289 13.2812 45.675 13.2812C44.7289 13.2812 43.8383 13.65 43.1695 14.3195L40.8539 16.6352L38.2812 19.2078V11.6562C40.9273 11.275 42.9688 8.99922 42.9688 6.25C42.9688 3.23438 40.5156 0.78125 37.5 0.78125H6.25C3.23438 0.78125 0.78125 3.23438 0.78125 6.25V45.3125C0.78125 45.7438 1.13125 46.0938 1.5625 46.0938H5.46875V48.4375C5.46875 48.8688 5.81875 49.2188 6.25 49.2188H37.5C37.9313 49.2188 38.2812 48.8688 38.2812 48.4375V29.2297L45.8648 21.6461L46.6672 20.8438C46.2625 22.8594 45.2758 24.7125 43.7898 26.1992L40.0734 29.9156L41.1781 31.0203L44.8945 27.3039C47.1117 25.0867 48.3516 22.1586 48.4242 19.0344C48.9297 18.4078 49.2188 17.6422 49.2188 16.825ZM44.2742 15.4242C44.6484 15.05 45.1461 14.8438 45.675 14.8438C46.7672 14.8438 47.6562 15.7328 47.6562 16.825C47.6562 17.3539 47.45 17.8516 47.0758 18.2258L45.3125 19.9891L42.5109 17.1875L44.2742 15.4242ZM41.4062 18.2922L42.2547 19.1406L32.4219 28.9734L31.5734 28.125L41.4062 18.2922ZM22.8258 38.9086L24.4328 35.6937L26.8062 38.0672L23.5914 39.6742L22.8258 38.9086ZM25.3234 34.375L30.4688 29.2297L33.2703 32.0312L28.125 37.1766L25.3234 34.375ZM37.5 2.34375C39.6539 2.34375 41.4062 4.09609 41.4062 6.25C41.4062 8.40391 39.6539 10.1562 37.5 10.1562H10.0703C11.0859 9.1625 11.7188 7.77969 11.7188 6.25C11.7188 4.72031 11.0859 3.3375 10.0703 2.34375H37.5ZM7.03125 10.0773V7.8125C7.03125 7.38203 7.38203 7.03125 7.8125 7.03125H10.0773C9.76562 8.55937 8.55937 9.76562 7.03125 10.0773ZM2.34375 44.5312V6.25C2.34375 4.09609 4.09609 2.34375 6.25 2.34375C8.13594 2.34375 9.71406 3.68828 10.0773 5.46875H7.8125C6.52031 5.46875 5.46875 6.52031 5.46875 7.8125V44.5312H2.34375ZM36.7188 47.6562H7.03125V11.7188H36.7188V20.7703L33.2703 24.2188H10.1562V25.7812H31.7078L30.1453 27.3438H10.1562V28.9062H28.5828L23.6664 33.8227C23.6055 33.8836 23.5656 33.9562 23.5289 34.0297L23.5203 34.025L21.1766 38.7125C21.0266 39.0133 21.0852 39.3766 21.3234 39.6141L21.5516 39.8438L19.7602 41.6352L20.8648 42.7398L22.6562 40.9484L22.8852 41.1773C23.0352 41.3273 23.2352 41.4062 23.4375 41.4062C23.5555 41.4062 23.6758 41.3789 23.7867 41.3242L28.4742 38.9805L28.4695 38.9719C28.543 38.9352 28.6156 38.8953 28.6766 38.8344L34.9266 32.5844L36.7188 30.7922V47.6562ZM34.375 30.9266L33.5266 30.0781L43.3594 20.2453L44.2078 21.0938L34.375 30.9266Z" fill="#F2473A"/>
<path d="M10.1562 14.8438H33.5938V16.4062H10.1562V14.8438Z" fill="#F2473A"/>
<path d="M10.1562 17.9688H33.5938V19.5312H10.1562V17.9688Z" fill="#F2473A"/>
<path d="M10.1562 21.0938H33.5938V22.6562H10.1562V21.0938Z" fill="#F2473A"/>
<path d="M10.1562 39.8438H18.75V41.4062H10.1562V39.8438Z" fill="#F2473A"/>
<path d="M10.1562 42.9688H33.5938V44.5312H10.1562V42.9688Z" fill="#F2473A"/>
</svg>
