<svg width="23" height="23" viewBox="0 0 23 23" xmlns="http://www.w3.org/2000/svg">
<g clip-path="url(#clip0_1781_13429)">
<path d="M10.0625 20.125H13.8958C14.1603 20.125 14.375 19.9104 14.375 19.6459C14.375 19.3814 14.1603 19.1667 13.8958 19.1667H10.0625C9.26996 19.1667 8.625 18.5217 8.625 17.7292V12.9375C8.625 12.673 8.41033 12.4583 8.14583 12.4583C7.88133 12.4583 7.66667 12.673 7.66667 12.9375V17.7292C7.66667 19.0498 8.74096 20.125 10.0625 20.125Z"/>
<path d="M0.479159 10.5417H10.0625C10.327 10.5417 10.5417 10.327 10.5417 10.0625C10.5417 9.79801 10.327 9.58334 10.0625 9.58334H0.479159C0.214659 9.58334 -7.62939e-06 9.79801 -7.62939e-06 10.0625C-7.62939e-06 10.327 0.214659 10.5417 0.479159 10.5417Z"/>
<path d="M15.3333 23C15.5442 23 15.7502 22.9645 15.9448 22.8955L21.6852 20.9817C22.471 20.7201 23 19.9899 23 19.1667V1.91667C23 0.859625 22.1404 0 21.0833 0C20.8706 0 20.6636 0.0354583 20.471 0.105417L14.7315 2.01825C13.9457 2.27892 13.4167 3.00917 13.4167 3.83333V21.0833C13.4167 22.1404 14.2763 23 15.3333 23ZM21.0833 0.958333C21.6123 0.958333 22.0417 1.38863 22.0417 1.91667V19.1667C22.0417 19.5768 21.7772 19.941 21.3823 20.0732L15.6323 21.9899C15.0037 22.2132 14.375 21.7101 14.375 21.0833V3.83333C14.375 3.42221 14.6395 3.05804 15.0343 2.92771L20.7843 1.01104C20.883 0.975583 20.9837 0.958333 21.0833 0.958333Z"/>
<path d="M8.14583 7.66667C8.41033 7.66667 8.625 7.45201 8.625 7.18751V2.39584C8.625 1.60329 9.26996 0.958334 10.0625 0.958334H21.0833C21.3478 0.958334 21.5625 0.743667 21.5625 0.479167C21.5625 0.214667 21.3478 0 21.0833 0H10.0625C8.74096 0 7.66667 1.07525 7.66667 2.39584V7.18751C7.66667 7.45201 7.88133 7.66667 8.14583 7.66667Z"/>
<path d="M4.31249 14.375C4.43516 14.375 4.55783 14.328 4.65174 14.2351C4.83862 14.0482 4.83862 13.7444 4.65174 13.5575L1.15765 10.0635L4.65174 6.56938C4.83862 6.3825 4.83862 6.07871 4.65174 5.89183C4.46487 5.70496 4.16108 5.70496 3.9742 5.89183L0.140855 9.72517C-0.0460205 9.91204 -0.0460205 10.2158 0.140855 10.4027L3.9742 14.236C4.06716 14.328 4.18983 14.375 4.31249 14.375Z"/>
</g>
<defs>
<clipPath id="clip0_1781_13429">
<rect width="23" height="23" fill="white" transform="matrix(-1 0 0 1 23 0)"/>
</clipPath>
</defs>
</svg>
