<svg width="16" height="20" viewBox="0 0 16 20" fill="none" xmlns="http://www.w3.org/2000/svg">
<path d="M8 0.15625C3.77832 0.15625 0.34375 3.59082 0.34375 7.8125C0.34375 9.86328 1.58621 12.4969 4.0366 15.6398C5.15924 17.076 6.375 18.4369 7.67602 19.7137C7.76325 19.7972 7.8793 19.8437 8 19.8437C8.1207 19.8437 8.23675 19.7972 8.32398 19.7137C9.625 18.4369 10.8408 17.076 11.9634 15.6398C14.4138 12.4969 15.6562 9.86328 15.6562 7.8125C15.6562 3.59082 12.2217 0.15625 8 0.15625ZM8 13.2812C4.98438 13.2812 2.53125 10.8281 2.53125 7.8125C2.53125 4.79687 4.98438 2.34375 8 2.34375C11.0156 2.34375 13.4688 4.79687 13.4688 7.8125C13.4688 10.8281 11.0156 13.2812 8 13.2812Z" fill="#F2473A"/>
<path d="M11.7528 7.15316L8.31533 4.02815C8.22905 3.94971 8.11663 3.90625 8.00002 3.90625C7.88341 3.90625 7.77099 3.94971 7.68471 4.02815L4.24721 7.15316C4.16713 7.22598 4.1147 7.32427 4.09882 7.43134C4.08295 7.53842 4.1046 7.64769 4.1601 7.74062C4.2039 7.81137 4.26527 7.86957 4.33825 7.90955C4.41122 7.94953 4.49331 7.96992 4.57651 7.96874H5.03127V10.9375C5.03127 11.0618 5.08066 11.181 5.16857 11.269C5.25647 11.3569 5.3757 11.4062 5.50002 11.4062H6.59377C6.71809 11.4062 6.83732 11.3569 6.92523 11.269C7.01313 11.181 7.06252 11.0618 7.06252 10.9375V9.21874C7.06252 9.09442 7.11191 8.97519 7.19981 8.88729C7.28772 8.79938 7.40695 8.74999 7.53127 8.74999H8.46877C8.59309 8.74999 8.71232 8.79938 8.80022 8.88729C8.88813 8.97519 8.93752 9.09442 8.93752 9.21874V10.9375C8.93752 11.0618 8.9869 11.181 9.07481 11.269C9.16272 11.3569 9.28195 11.4062 9.40627 11.4062H10.5C10.6243 11.4062 10.7436 11.3569 10.8315 11.269C10.9194 11.181 10.9688 11.0618 10.9688 10.9375V7.96874H11.4235C11.5067 7.96992 11.5888 7.94953 11.6618 7.90955C11.7348 7.86957 11.7961 7.81137 11.8399 7.74062C11.8954 7.64769 11.9171 7.53842 11.9012 7.43134C11.8853 7.32427 11.8329 7.22598 11.7528 7.15316Z" fill="#F2473A"/>
</svg>
