<svg width="11" height="11" viewBox="0 0 11 11" fill="none" xmlns="http://www.w3.org/2000/svg">
<g clip-path="url(#clip0)">
<path d="M9.04492 4.55725C9.04492 7.47392 5.29492 9.97392 5.29492 9.97392C5.29492 9.97392 1.54492 7.47392 1.54492 4.55725C1.54492 3.56269 1.94001 2.60886 2.64327 1.9056C3.34653 1.20234 4.30036 0.807251 5.29492 0.807251C6.28948 0.807251 7.24331 1.20234 7.94657 1.9056C8.64983 2.60886 9.04492 3.56269 9.04492 4.55725Z" fill="#A0A0A0"/>
<path d="M5.29492 5.80725C5.98528 5.80725 6.54492 5.24761 6.54492 4.55725C6.54492 3.8669 5.98528 3.30725 5.29492 3.30725C4.60457 3.30725 4.04492 3.8669 4.04492 4.55725C4.04492 5.24761 4.60457 5.80725 5.29492 5.80725Z" fill="white"/>
</g>
<defs>
<clipPath id="clip0">
<rect width="10" height="10" fill="white" transform="translate(0.294922 0.390625)"/>
</clipPath>
</defs>
</svg>
