<svg width="56" height="56" viewBox="0 0 56 56" fill="none" xmlns="http://www.w3.org/2000/svg">
<path d="M31.0553 27.7804C31.0553 32.8148 26.9769 36.8941 21.9443 36.8941C16.9116 36.8941 12.8333 32.8139 12.8333 27.7804C12.8333 22.7468 16.9126 18.6667 21.9443 18.6667C26.9759 18.6667 31.0553 22.7468 31.0553 27.7804Z" fill="#E2574C"/>
<path d="M32.8862 18.6667C30.8429 18.6667 28.9618 19.3475 27.4416 20.484L27.4489 20.4849C27.7479 20.7738 28.0777 20.9771 28.332 21.3096L26.4363 21.3397C26.1393 21.6396 25.8686 21.9659 25.6134 22.3049H28.9563C29.2106 22.6102 29.4457 22.8755 29.659 23.2126H25.0074C24.8369 23.5061 24.6793 23.8078 24.5417 24.1212H30.1886C30.3362 24.4338 30.4683 24.6699 30.5805 25.0008H24.2072C24.106 25.3152 24.0195 25.6369 23.9538 25.965H30.8475C30.9149 26.2803 30.9668 26.5719 31.0024 26.8691H23.8171C23.787 27.1689 23.7715 27.4733 23.7715 27.7805H31.0543C31.0543 28.1031 31.0315 28.402 30.9987 28.6919H23.8171C23.8481 29.0009 23.8936 29.3043 23.9538 29.6033H30.8365C30.7654 29.8986 30.6833 30.1957 30.5804 30.5037H24.1862C24.2828 30.8154 24.4004 31.118 24.5289 31.4132H30.1886C30.0318 31.745 29.8541 32.0102 29.6582 32.3209H24.9911C25.1752 32.6399 25.3784 32.9443 25.5989 33.236L28.9564 33.286C28.6702 33.6296 28.303 33.8365 27.9684 34.1373C27.9866 34.1519 27.4334 34.1355 26.3443 34.1182C28.0012 35.828 30.317 36.8942 32.8861 36.8942C37.9197 36.8942 41.9998 32.8139 41.9998 27.7805C41.9998 22.747 37.9206 18.6667 32.8862 18.6667Z" fill="#F4B459"/>
</svg>
