<svg width="40" height="41" viewBox="0 0 40 41" fill="none" xmlns="http://www.w3.org/2000/svg">
<g clip-path="url(#clip0)">
<path d="M29.9547 15.9335L29.0557 16.9161L33.1442 20.6641C34.1067 21.5496 34.6553 22.7973 34.6557 24.1048V40.4248H35.989V24.1048C35.9873 22.4231 35.282 20.8195 34.0437 19.6813L29.9547 15.9335Z" fill="black"/>
<path d="M24.6559 0.424805H7.32259C5.48259 0.427138 3.99159 1.91814 3.98926 3.75814V37.0915C3.99159 38.9315 5.48259 40.4225 7.32259 40.4248H23.9893V39.2321C23.9861 36.229 24.8751 33.2918 26.5439 30.7948C26.7206 30.5301 26.6851 30.178 26.4606 29.9535L21.7939 25.2868C21.3626 24.855 21.1339 24.2611 21.1641 23.6516C21.1944 23.0418 21.4809 22.4738 21.9526 22.0868C22.8611 21.3923 24.1459 21.4915 24.9373 22.3166L31.5179 28.8975L32.4606 27.9548L27.9893 23.4821V3.75814C27.9869 1.91814 26.4959 0.427138 24.6559 0.424805ZM26.6559 22.1488L25.8799 21.3728C24.6009 20.0661 22.5439 19.93 21.1039 21.0571C20.3423 21.6831 19.8801 22.6021 19.8319 23.5873C19.7839 24.5723 20.1539 25.5318 20.8513 26.2295L25.1379 30.5163C23.5393 33.0925 22.6819 36.0598 22.6606 39.0915H7.32259C6.21826 39.0915 5.32259 38.1958 5.32259 37.0915V35.0915H21.9893V33.7581H5.32259V5.75814H26.6559V22.1488ZM26.6559 4.4248H5.32259V3.75814C5.32259 2.6538 6.21826 1.75814 7.32259 1.75814H24.6559C25.7603 1.75814 26.6559 2.6538 26.6559 3.75814V4.4248Z" fill="black"/>
<path d="M7.98958 12.4249H10.6563C11.3928 12.4249 11.9896 11.8281 11.9896 11.0916V8.42489C11.9896 7.68839 11.3928 7.09155 10.6563 7.09155H7.98958C7.25308 7.09155 6.65625 7.68839 6.65625 8.42489V11.0916C6.65625 11.8281 7.25308 12.4249 7.98958 12.4249ZM7.98958 8.42489H10.6563V11.0916H7.98958V8.42489Z" fill="black"/>
<path d="M14.6556 12.4249H17.3223C18.0588 12.4249 18.6556 11.8281 18.6556 11.0916V8.42489C18.6556 7.68839 18.0588 7.09155 17.3223 7.09155H14.6556C13.9191 7.09155 13.3223 7.68839 13.3223 8.42489V11.0916C13.3223 11.8281 13.9191 12.4249 14.6556 12.4249ZM14.6556 8.42489H17.3223V11.0916H14.6556V8.42489Z" fill="black"/>
<path d="M21.3226 12.4249H23.9893C24.7258 12.4249 25.3226 11.8281 25.3226 11.0916V8.42489C25.3226 7.68839 24.7258 7.09155 23.9893 7.09155H21.3226C20.5861 7.09155 19.9893 7.68839 19.9893 8.42489V11.0916C19.9893 11.8281 20.5861 12.4249 21.3226 12.4249ZM21.3226 8.42489H23.9893V11.0916H21.3226V8.42489Z" fill="black"/>
<path d="M7.98958 19.0914H10.6563C11.3928 19.0914 11.9896 18.4946 11.9896 17.7581V15.0914C11.9896 14.3549 11.3928 13.7581 10.6563 13.7581H7.98958C7.25308 13.7581 6.65625 14.3549 6.65625 15.0914V17.7581C6.65625 18.4946 7.25308 19.0914 7.98958 19.0914ZM7.98958 15.0914H10.6563V17.7581H7.98958V15.0914Z" fill="black"/>
<path d="M7.98958 25.7581H10.6563C11.3928 25.7581 11.9896 25.1613 11.9896 24.4248V21.7581C11.9896 21.0216 11.3928 20.4248 10.6563 20.4248H7.98958C7.25308 20.4248 6.65625 21.0216 6.65625 21.7581V24.4248C6.65625 25.1613 7.25308 25.7581 7.98958 25.7581ZM7.98958 21.7581H10.6563V24.4248H7.98958V21.7581Z" fill="black"/>
<path d="M14.6556 19.0914H17.3223C18.0588 19.0914 18.6556 18.4946 18.6556 17.7581V15.0914C18.6556 14.3549 18.0588 13.7581 17.3223 13.7581H14.6556C13.9191 13.7581 13.3223 14.3549 13.3223 15.0914V17.7581C13.3223 18.4946 13.9191 19.0914 14.6556 19.0914ZM14.6556 15.0914H17.3223V17.7581H14.6556V15.0914Z" fill="black"/>
<path d="M21.3226 19.0914H23.9893C24.7258 19.0914 25.3226 18.4946 25.3226 17.7581V15.0914C25.3226 14.3549 24.7258 13.7581 23.9893 13.7581H21.3226C20.5861 13.7581 19.9893 14.3549 19.9893 15.0914V17.7581C19.9893 18.4946 20.5861 19.0914 21.3226 19.0914ZM21.3226 15.0914H23.9893V17.7581H21.3226V15.0914Z" fill="black"/>
<path d="M14.6556 25.7581H17.3223C18.0588 25.7581 18.6556 25.1613 18.6556 24.4248V21.7581C18.6556 21.0216 18.0588 20.4248 17.3223 20.4248H14.6556C13.9191 20.4248 13.3223 21.0216 13.3223 21.7581V24.4248C13.3223 25.1613 13.9191 25.7581 14.6556 25.7581ZM14.6556 21.7581H17.3223V24.4248H14.6556V21.7581Z" fill="black"/>
<path d="M7.98958 32.4248H10.6563C11.3928 32.4248 11.9896 31.8279 11.9896 31.0914V28.4248C11.9896 27.6883 11.3928 27.0914 10.6563 27.0914H7.98958C7.25308 27.0914 6.65625 27.6883 6.65625 28.4248V31.0914C6.65625 31.8279 7.25308 32.4248 7.98958 32.4248ZM7.98958 28.4248H10.6563V31.0914H7.98958V28.4248Z" fill="black"/>
<path d="M14.6556 32.4248H17.3223C18.0588 32.4248 18.6556 31.8279 18.6556 31.0914V28.4248C18.6556 27.6883 18.0588 27.0914 17.3223 27.0914H14.6556C13.9191 27.0914 13.3223 27.6883 13.3223 28.4248V31.0914C13.3223 31.8279 13.9191 32.4248 14.6556 32.4248ZM14.6556 28.4248H17.3223V31.0914H14.6556V28.4248Z" fill="black"/>
<path d="M15.3223 36.4248H16.6556V37.7581H15.3223V36.4248Z" fill="black"/>
</g>
<defs>
<clipPath id="clip0">
<rect width="40" height="40" fill="white" transform="translate(0 0.424805)"/>
</clipPath>
</defs>
</svg>
