<svg width="50" height="50" viewBox="0 0 50 50" fill="none" xmlns="http://www.w3.org/2000/svg">
<g clip-path="url(#clip0)">
<path d="M32.0836 36.7197C30.0128 36.7197 28.3337 38.3986 28.3337 40.4697C28.3337 42.5409 30.0128 44.2195 32.0836 44.2195C34.1549 44.2195 35.8336 42.5409 35.8336 40.4697C35.8317 38.3998 34.1539 36.722 32.0836 36.7197ZM32.0836 42.5528C30.9334 42.5528 30.0003 41.6205 30.0003 40.4697C30.0003 39.3194 30.9334 38.3862 32.0836 38.3862C33.2343 38.3862 34.1668 39.3194 34.1668 40.4697C34.1668 41.6205 33.2343 42.5528 32.0836 42.5528Z" fill="#F2473A"/>
<path d="M40.4166 42.5527C38.3461 42.5527 36.6666 44.232 36.6666 46.3032C36.6666 48.3739 38.3461 50.0532 40.4166 50.0532C42.4877 50.0532 44.167 48.3739 44.167 46.3032C44.1645 44.2331 42.4871 42.5554 40.4166 42.5527ZM40.4166 48.3862C39.2663 48.3862 38.3334 47.4537 38.3334 46.3032C38.3334 45.1524 39.2663 44.2195 40.4166 44.2195C41.5676 44.2195 42.5001 45.1524 42.5001 46.3032C42.5001 47.4537 41.5676 48.3862 40.4166 48.3862Z" fill="#F2473A"/>
<path d="M0.697491 16.7082C2.05486 16.9344 3.11895 17.9991 3.34539 19.3571C3.41349 19.7576 3.76046 20.0513 4.16717 20.0513C4.57367 20.0513 4.92084 19.7576 4.98894 19.3571C5.21517 17.9991 6.27926 16.9344 7.63684 16.7082C8.03812 16.6401 8.33161 16.2929 8.33161 15.8862C8.33161 15.4793 8.03812 15.1328 7.63684 15.0647C6.27926 14.8376 5.21517 13.7733 4.98894 12.4155C4.92084 12.0144 4.57367 11.7209 4.16717 11.7209C3.76046 11.7209 3.41349 12.0144 3.34539 12.4155C3.11895 13.7733 2.05486 14.8376 0.697491 15.0647C0.296212 15.1328 0.00292969 15.4793 0.00292969 15.8862C0.00292969 16.2929 0.296212 16.6401 0.697491 16.7082ZM4.16717 14.6964C4.49178 15.1589 4.89494 15.5612 5.35743 15.8862C4.89494 16.2113 4.49178 16.6138 4.16717 17.0763C3.84234 16.6138 3.4396 16.2113 2.97712 15.8862C3.4396 15.5612 3.84234 15.1589 4.16717 14.6964Z" fill="#F2473A"/>
<path d="M49.5276 10.1362L28.6945 0.136188C28.4662 0.0258932 28.1998 0.0258932 27.9713 0.136188L7.1382 10.1855C6.85766 10.3207 6.67613 10.6006 6.66736 10.9112C6.65817 11.2224 6.82277 11.5124 7.09454 11.664L27.9278 23.2821C28.1806 23.4235 28.4877 23.4235 28.7404 23.2821L39.1668 17.4413V28.4106C36.0334 28.5955 33.0505 29.8179 30.6885 31.8865L28.3337 33.9454L27.9303 33.593L26.833 34.8428L27.7856 35.6762C28.0993 35.9511 28.5681 35.9511 28.8821 35.6762L31.7863 33.1363C34.0602 31.1471 36.9793 30.0516 40.0003 30.0527C40.4607 30.0527 40.8337 29.68 40.8337 29.2194V16.508L45.0003 14.1747V20.8861C44.6094 20.8859 44.271 21.1573 44.1866 21.5387L42.5199 29.0391C42.4648 29.2856 42.5251 29.5445 42.6835 29.741C42.8418 29.9384 43.081 30.0533 43.3337 30.0527H48.3335C48.5865 30.0533 48.8259 29.9384 48.9842 29.741C49.1424 29.5445 49.2025 29.2856 49.1476 29.0391L47.4813 21.5387C47.3965 21.1573 47.0579 20.8859 46.6668 20.8861V13.2414L49.5737 11.6137C49.8451 11.462 50.0097 11.1715 49.9999 10.8606C49.9901 10.5498 49.8081 10.2701 49.5276 10.1356V10.1362ZM47.2947 28.3864H44.373L45.6671 22.5527H46.0004L47.2947 28.3864ZM45.9497 11.733C45.9399 11.733 45.9311 11.7259 45.9202 11.7236L30.7021 10.1218C30.3263 8.96934 29.1751 8.25494 27.9751 8.42894C26.7756 8.60295 25.8751 9.61586 25.8425 10.8276C25.8101 12.0396 26.6542 13.0995 27.8432 13.3379C29.0316 13.576 30.2194 12.9245 30.6568 11.7933L43.4388 13.1365L28.3337 21.5978L9.30816 10.9889L28.3337 1.81107L47.3584 10.9429L45.9497 11.733ZM29.1668 10.8861C29.1668 11.3463 28.7941 11.7196 28.3337 11.7196C27.8735 11.7196 27.5002 11.3463 27.5002 10.8861C27.5002 10.4259 27.8735 10.0531 28.3337 10.0531C28.7941 10.0531 29.1668 10.4259 29.1668 10.8861Z" fill="#F2473A"/>
<path d="M41.2502 33.3862C39.1796 33.3862 37.5004 35.0651 37.5004 37.1362C37.5004 39.2074 39.1796 40.8864 41.2502 40.8864C43.3213 40.8864 45.0004 39.2074 45.0004 37.1362C44.9983 35.0663 43.3207 33.3889 41.2502 33.3862ZM41.2502 39.2197C40.1 39.2197 39.1669 38.2872 39.1669 37.1362C39.1669 35.9859 40.1 35.0528 41.2502 35.0528C42.401 35.0528 43.3339 35.9859 43.3339 37.1362C43.3339 38.2872 42.401 39.2197 41.2502 39.2197Z" fill="#F2473A"/>
<path d="M25.8334 43.8746V36.7196C25.8265 31.9429 22.9111 27.6521 18.4725 25.8861L20.7394 21.5286C20.9368 21.147 20.8115 20.6776 20.4501 20.4455L19.6171 19.911C18.3336 19.0969 16.7212 19.0002 15.3496 19.6545C14.6018 20.0096 13.7341 20.0096 12.9858 19.6545C11.6147 18.9988 10.0018 19.0957 8.71881 19.911L7.88534 20.4455C7.52416 20.6776 7.39862 21.147 7.59623 21.5286L9.86082 25.8861C5.42293 27.6521 2.50745 31.9429 2.50013 36.7196V43.8746L0.761745 45.6126C0.0178853 46.357 -0.204374 47.4759 0.198367 48.4472C0.60069 49.4192 1.54926 50.0532 2.60103 50.0532H25.733C26.7847 50.0532 27.7333 49.4192 28.1358 48.4472C28.5386 47.4759 28.3159 46.357 27.5722 45.6126L25.8334 43.8746ZM9.42424 21.4355L9.61767 21.3114C10.414 20.8075 11.4129 20.7476 12.2631 21.1537C13.4673 21.7273 14.8663 21.7273 16.0711 21.1537C16.9213 20.7476 17.9198 20.8075 18.7163 21.3114L18.9095 21.4355L16.8591 25.3787C15.0904 24.9442 13.2436 24.9442 11.4753 25.3787L9.42424 21.4355ZM25.733 48.3862H2.60103C2.22314 48.3864 1.88244 48.1587 1.73747 47.8095C1.59292 47.4604 1.67293 47.0585 1.94031 46.7911L3.92247 44.8087C4.07935 44.6527 4.16708 44.4407 4.16708 44.2195V36.7196C4.16708 31.1968 8.64424 26.7196 14.1667 26.7196C19.6895 26.7196 24.1667 31.1968 24.1667 36.7196V44.2195C24.1671 44.4407 24.2546 44.6527 24.4115 44.8087L26.3939 46.7911C26.6613 47.0585 26.7413 47.4604 26.5965 47.8095C26.4515 48.1587 26.1108 48.3864 25.733 48.3862Z" fill="#F2473A"/>
<path d="M15 36.7197H13.3335C12.8731 36.7197 12.5 36.3464 12.5 35.8862C12.5 35.426 12.8731 35.0527 13.3335 35.0527H16.6669V33.3862H15V31.7195H13.3335V33.3862C11.9527 33.3862 10.8333 34.5054 10.8333 35.8862C10.8333 37.2665 11.9527 38.3862 13.3335 38.3862H15C15.4604 38.3862 15.8335 38.7593 15.8335 39.2197C15.8335 39.6798 15.4604 40.0531 15 40.0531H11.6665V41.7194H13.3335V43.3862H15V41.7194C16.3812 41.7194 17.5 40.6 17.5 39.2197C17.5 37.8389 16.3812 36.7197 15 36.7197Z" fill="#F2473A"/>
</g>
<defs>
<clipPath id="clip0">
<rect width="50" height="50" fill="white"/>
</clipPath>
</defs>
</svg>
