<svg width="40" height="50" viewBox="0 0 40 50" fill="none" xmlns="http://www.w3.org/2000/svg">
<path d="M17.1074 25.3558L4.27588 19.6946C3.79063 19.4807 3.24414 19.8365 3.24414 20.3671C3.24414 20.8505 3.24414 36.6844 3.24414 37.0856C3.24414 37.617 3.5583 38.0989 4.04444 38.3135L16.5141 43.815C16.609 43.8569 16.7101 43.8775 16.8108 43.8775C16.9512 43.8775 17.0909 43.8374 17.2122 43.7583C17.4204 43.6225 17.5459 43.3909 17.5459 43.1425C17.5459 42.7159 17.5459 26.5106 17.5459 26.0284C17.5458 25.7371 17.374 25.4734 17.1074 25.3558ZM16.0755 42.0146L4.71416 37.0021V26.0518L16.0755 31.0644V42.0146ZM16.0755 29.4575L4.71416 24.4448V21.495L16.0755 26.5076V29.4575Z" fill="#F2473A"/>
<path d="M20.2031 6.77726V5.1382C20.8271 5.18488 21.0413 5.48283 21.3021 5.48283C21.6467 5.48283 21.7956 5.05441 21.7956 4.84025C21.7956 4.30001 20.8084 4.12315 20.2031 4.1045V3.86231C20.2031 3.74142 20.0448 3.6295 19.8865 3.6295C19.7095 3.6295 19.5699 3.74132 19.5699 3.86231V4.12315C18.6387 4.24425 17.7632 4.75636 17.7632 5.93908C17.7632 7.13107 18.7225 7.49425 19.5699 7.81086V9.66408C18.7505 9.57102 18.471 8.96564 18.1171 8.96564C17.8284 8.96564 17.5957 9.35676 17.5957 9.6175C17.5957 10.139 18.4431 10.7444 19.57 10.7723V11.033C19.57 11.1541 19.7097 11.2658 19.8866 11.2658C20.0449 11.2658 20.2032 11.1541 20.2032 11.033V10.7444C21.2463 10.5767 21.9633 9.91545 21.9633 8.77004C21.9632 7.50363 21.0319 7.08459 20.2031 6.77726ZM19.6443 6.57238C19.2159 6.4047 18.8992 6.22775 18.8992 5.81808C18.8992 5.46417 19.1786 5.24064 19.6443 5.16622V6.57238ZM20.1286 9.6549V8.03449C20.5291 8.21154 20.8272 8.43498 20.8272 8.89133C20.8272 9.32902 20.5384 9.57102 20.1286 9.6549Z" fill="#F2473A"/>
<path d="M14.2071 33.1745L7.11205 30.0442C6.74046 29.8806 6.30667 30.0487 6.14281 30.4201C5.97894 30.7916 6.1472 31.2254 6.51859 31.3894L13.6136 34.5197C13.987 34.684 14.4197 34.5137 14.5829 34.1438C14.7467 33.7722 14.5785 33.3384 14.2071 33.1745Z" fill="#F2473A"/>
<path d="M14.2071 36.4831L7.11205 33.3527C6.74056 33.1891 6.30667 33.3572 6.14281 33.7286C5.97894 34.1001 6.1472 34.534 6.51859 34.6978L13.6136 37.8281C13.9853 37.9922 14.4191 37.8236 14.5829 37.4523C14.7467 37.0808 14.5785 36.647 14.2071 36.4831Z" fill="#F2473A"/>
<path d="M39.16 30.3386C38.754 30.3386 38.425 30.6676 38.425 31.0737V40.1968C38.425 40.2655 38.3843 40.3279 38.3215 40.3557L20.6826 48.1377V24.1198L25.2839 22.0897L38.4249 16.2919V27.6433C38.4249 28.0494 38.7539 28.3784 39.1599 28.3784C39.566 28.3784 39.895 28.0494 39.895 27.6433C39.895 27.2188 39.8949 15.0042 39.8949 15.163C39.895 14.8702 39.7179 14.6051 39.4532 14.49L28.7312 9.82715C29.2396 5.07645 25.982 0.935816 21.613 0.016673C21.2157 -0.0676046 20.826 0.187279 20.7424 0.584643C20.6587 0.98191 20.913 1.37166 21.3104 1.45525C26.9028 2.63211 29.2785 9.47393 25.4199 13.851H23.8697C28.4753 10.0949 25.8727 2.38982 19.745 2.38982C13.6837 2.38982 10.9724 9.98438 15.6427 13.851H14.07C10.2382 9.50322 12.5585 2.63563 18.1825 1.45467C18.5798 1.37127 18.8342 0.98152 18.7508 0.584253C18.6673 0.186791 18.2773 -0.0677022 17.8804 0.0158918C13.3843 0.959937 10.1794 5.2535 10.7776 9.99522L0.441896 14.4901C0.183399 14.6024 0.00507813 14.8611 0.000683592 15.1532C0.000683592 15.1563 0 15.1592 0 15.1622C0 15.1625 9.76028e-05 15.1628 9.76028e-05 15.1631C9.76028e-05 15.1634 0 15.1638 0 15.1641V40.1968C0 40.8477 0.384766 41.438 0.980178 41.7007L19.6508 49.9382C19.8336 50.0187 20.052 50.0229 20.2444 49.9382L38.9151 41.7008C39.5104 41.4379 39.8951 40.8476 39.8951 40.1969V31.0738C39.8952 30.6676 39.5661 30.3386 39.16 30.3386ZM19.745 3.85985C21.9456 3.85985 23.863 5.2703 24.516 7.36962C25.8547 11.6734 21.2918 15.2644 17.4679 13.3013C12.7988 10.9014 14.5387 3.85985 19.745 3.85985ZM1.47002 40.1968V16.2919C1.97071 16.5127 18.8063 23.9406 19.2123 24.1198V48.1378L1.57354 40.3556C1.51065 40.3279 1.47002 40.2655 1.47002 40.1968ZM19.9475 22.8372L2.56719 15.169L11.09 11.4626C11.3442 12.3033 11.7232 13.1077 12.2198 13.851H11.7962C11.3903 13.851 11.0612 14.18 11.0612 14.5861C11.0612 14.9921 11.3903 15.3211 11.7962 15.3211C12.3479 15.3211 26.6649 15.3211 27.6969 15.3211C28.103 15.3211 28.432 14.9921 28.432 14.5861C28.432 14.18 28.103 13.851 27.6969 13.851H27.2701C27.7973 13.0618 28.1917 12.2034 28.4453 11.3061L37.3281 15.1691L19.9475 22.8372Z" fill="#F2473A"/>
</svg>
