<svg width="50" height="50" viewBox="0 0 50 50" fill="none" xmlns="http://www.w3.org/2000/svg">
<path d="M35.0203 32.0313C34.814 32.0492 34.6232 32.1483 34.4898 32.3068C34.3565 32.4653 34.2916 32.6702 34.3094 32.8766C34.3531 33.3821 34.375 33.8852 34.375 34.3719C34.375 42.1993 28.5336 46.8719 18.75 46.8719C8.96641 46.8719 3.125 42.2024 3.125 34.375C3.125 27.4719 7.68672 17.8047 14.2461 14.8438H23.2602C24.2695 15.3073 25.2148 15.8992 26.0727 16.6047C26.152 16.6723 26.2441 16.7234 26.3435 16.7548C26.4429 16.7863 26.5475 16.7976 26.6513 16.788C26.7551 16.7783 26.856 16.7481 26.9479 16.6989C27.0398 16.6497 27.1209 16.5826 27.1865 16.5016C27.2521 16.4206 27.3008 16.3272 27.3298 16.2271C27.3588 16.127 27.3674 16.022 27.3552 15.9185C27.343 15.815 27.3102 15.7149 27.2587 15.6243C27.2072 15.5336 27.1381 15.4542 27.0555 15.3907C26.1828 14.6776 25.2309 14.0674 24.2188 13.5719V11.1657L29.5656 2.76332C29.6576 2.61917 29.6998 2.44882 29.6856 2.2784C29.6715 2.10798 29.6018 1.94691 29.4873 1.8199C29.3728 1.69289 29.2198 1.60695 29.0518 1.57528C28.8837 1.54361 28.7099 1.56795 28.557 1.64457L24.375 3.7352C23.9194 3.96323 23.4035 4.0421 22.9006 3.96063C22.3976 3.87916 21.933 3.64149 21.5727 3.28129C20.8234 2.53391 19.8083 2.11419 18.75 2.11419C17.6917 2.11419 16.6766 2.53391 15.9273 3.28129C15.567 3.64206 15.1022 3.88016 14.5989 3.96178C14.0956 4.0434 13.5793 3.9644 13.1234 3.73598L8.94297 1.64457C8.79009 1.56795 8.61629 1.54361 8.44824 1.57528C8.28019 1.60695 8.12718 1.69289 8.01267 1.8199C7.89817 1.94691 7.8285 2.10798 7.81436 2.2784C7.80021 2.44882 7.84238 2.61917 7.93438 2.76332L13.2812 11.1657V11.7188H10.9375C9.07339 11.7165 7.28629 10.975 5.96817 9.65688C4.65004 8.33875 3.90852 6.55165 3.90625 4.68754C3.90625 4.48034 3.82394 4.28163 3.67743 4.13512C3.53091 3.9886 3.3322 3.90629 3.125 3.90629C2.9178 3.90629 2.71909 3.9886 2.57257 4.13512C2.42606 4.28163 2.34375 4.48034 2.34375 4.68754C2.34624 6.33522 2.82205 7.9475 3.71456 9.33252C4.60707 10.7175 5.87869 11.817 7.37813 12.5C5.87869 13.1831 4.60707 14.2825 3.71456 15.6676C2.82205 17.0526 2.34624 18.6649 2.34375 20.3125C2.34375 20.5197 2.42606 20.7185 2.57257 20.865C2.71909 21.0115 2.9178 21.0938 3.125 21.0938C3.3322 21.0938 3.53091 21.0115 3.67743 20.865C3.82394 20.7185 3.90625 20.5197 3.90625 20.3125C3.90852 18.4484 4.65004 16.6613 5.96817 15.3432C7.28629 14.0251 9.07339 13.2836 10.9375 13.2813H13.2812V13.5844C6.35391 16.9594 1.5625 27.1094 1.5625 34.375C1.5625 43.0469 8.14844 48.4375 18.75 48.4375C29.3516 48.4375 35.9375 43.0469 35.9375 34.375C35.9375 33.8438 35.9133 33.2961 35.8656 32.7454C35.8587 32.6423 35.8311 32.5418 35.7845 32.4496C35.7379 32.3575 35.6733 32.2757 35.5944 32.209C35.5155 32.1424 35.4241 32.0923 35.3254 32.0618C35.2268 32.0313 35.123 32.0209 35.0203 32.0313ZM14.8438 11.7188H22.6562V13.2813H14.8438V11.7188ZM12.4219 5.13286C13.1711 5.50904 14.02 5.63928 14.8476 5.50504C15.6752 5.37081 16.4393 4.97893 17.0312 4.3852C17.4874 3.92988 18.1055 3.67415 18.75 3.67415C19.3945 3.67415 20.0126 3.92988 20.4688 4.3852C21.0607 4.97893 21.8248 5.37081 22.6524 5.50504C23.48 5.63928 24.3289 5.50904 25.0781 5.13286L26.7359 4.30395L23.0086 10.1563H14.493L10.7672 4.30395L12.4219 5.13286Z" fill="#F2473A"/>
<path d="M18.75 37.5C18.5428 37.5 18.3441 37.4177 18.1976 37.2712C18.0511 37.1247 17.9688 36.926 17.9688 36.7188C17.9688 36.5115 17.8864 36.3128 17.7399 36.1663C17.5934 36.0198 17.3947 35.9375 17.1875 35.9375H14.8438C14.6366 35.9375 14.4378 36.0198 14.2913 36.1663C14.1448 36.3128 14.0625 36.5115 14.0625 36.7188C14.0639 37.5417 14.2811 38.3499 14.6924 39.0627C15.1036 39.7755 15.6946 40.3681 16.4063 40.7813V42.1875C16.4063 42.3947 16.4886 42.5934 16.6351 42.7399C16.7816 42.8864 16.9803 42.9688 17.1875 42.9688H19.5313C19.7385 42.9688 19.9372 42.8864 20.0837 42.7399C20.2302 42.5934 20.3125 42.3947 20.3125 42.1875V41.1398C21.0551 40.877 21.7197 40.4315 22.245 39.8444C22.7703 39.2573 23.1394 38.5475 23.3184 37.7803C23.4974 37.0131 23.4805 36.2132 23.2692 35.4543C23.0579 34.6954 22.659 34.0018 22.1094 33.4375L22.1031 33.4312C21.6647 32.9876 21.1425 32.6355 20.5669 32.3951C19.9913 32.1548 19.3737 32.0311 18.75 32.0312C18.5955 32.0312 18.4444 31.9854 18.316 31.8996C18.1875 31.8137 18.0874 31.6917 18.0282 31.549C17.9691 31.4062 17.9536 31.2491 17.9838 31.0976C18.0139 30.946 18.0883 30.8068 18.1976 30.6976C18.3068 30.5883 18.446 30.5139 18.5976 30.4838C18.7491 30.4536 18.9062 30.4691 19.049 30.5282C19.1917 30.5874 19.3137 30.6875 19.3996 30.816C19.4854 30.9444 19.5313 31.0955 19.5313 31.25C19.5313 31.4572 19.6136 31.6559 19.7601 31.8024C19.9066 31.9489 20.1053 32.0312 20.3125 32.0312H22.6563C22.8635 32.0312 23.0622 31.9489 23.2087 31.8024C23.3552 31.6559 23.4375 31.4572 23.4375 31.25C23.4361 30.4271 23.2189 29.6189 22.8076 28.9061C22.3964 28.1932 21.8055 27.6007 21.0938 27.1875V25.7812C21.0938 25.574 21.0114 25.3753 20.8649 25.2288C20.7184 25.0823 20.5197 25 20.3125 25H17.9688C17.7616 25 17.5628 25.0823 17.4163 25.2288C17.2698 25.3753 17.1875 25.574 17.1875 25.7812V26.8289C16.1438 27.1967 15.2638 27.9218 14.7034 28.876C14.1429 29.8302 13.9381 30.9519 14.1252 32.0425C14.3123 33.1332 14.8793 34.1225 15.7257 34.8354C16.5721 35.5482 17.6434 35.9386 18.75 35.9375C18.9572 35.9375 19.1559 36.0198 19.3024 36.1663C19.4489 36.3128 19.5313 36.5115 19.5313 36.7188C19.5313 36.926 19.4489 37.1247 19.3024 37.2712C19.1559 37.4177 18.9572 37.5 18.75 37.5ZM18.75 34.375C18.3335 34.3741 17.9213 34.2909 17.5372 34.13C17.153 33.9691 16.8045 33.7337 16.5117 33.4375C16.1202 33.035 15.8441 32.5347 15.7124 31.9889C15.5806 31.4431 15.5981 30.8719 15.7628 30.3352C15.9276 29.7985 16.2337 29.3159 16.649 28.938C17.0643 28.5602 17.5736 28.301 18.1234 28.1875C18.3002 28.1518 18.4592 28.056 18.5734 27.9165C18.6876 27.777 18.75 27.6022 18.75 27.4219V26.5625H19.5313V27.6641C19.5313 27.8153 19.5753 27.9633 19.6578 28.09C19.7403 28.2168 19.8578 28.3169 19.9961 28.3781C20.4308 28.5704 20.8166 28.8582 21.1247 29.2202C21.4328 29.5821 21.6554 30.0089 21.7758 30.4688H20.9602C20.8169 30.0637 20.5651 29.7057 20.2322 29.4341C19.8993 29.1624 19.4981 28.9875 19.0726 28.9285C18.647 28.8694 18.2133 28.9285 17.8191 29.0993C17.4248 29.27 17.085 29.5459 16.8369 29.8967C16.5888 30.2474 16.4419 30.6597 16.4123 31.0883C16.3826 31.517 16.4714 31.9455 16.6689 32.3271C16.8663 32.7087 17.1649 33.0287 17.5319 33.2521C17.899 33.4755 18.3203 33.5937 18.75 33.5938C19.167 33.5944 19.5797 33.6776 19.9644 33.8385C20.3491 33.9994 20.6981 34.2348 20.9914 34.5313C21.3827 34.934 21.6585 35.4347 21.7899 35.9807C21.9213 36.5267 21.9034 37.0979 21.7381 37.6347C21.5728 38.1714 21.2663 38.6538 20.8505 39.0313C20.4348 39.4088 19.9251 39.6676 19.375 39.7805C19.1984 39.8165 19.0397 39.9125 18.9258 40.0522C18.8119 40.1919 18.7498 40.3666 18.75 40.5469V41.4062H17.9688V40.3047C17.9687 40.1534 17.9248 40.0055 17.8422 39.8787C17.7597 39.752 17.6422 39.6519 17.5039 39.5906C17.0692 39.3983 16.6834 39.1105 16.3753 38.7486C16.0672 38.3866 15.8446 37.9598 15.7242 37.5H16.5398C16.6831 37.9051 16.9349 38.263 17.2678 38.5347C17.6007 38.8063 18.0019 38.9812 18.4275 39.0403C18.853 39.0993 19.2867 39.0402 19.681 38.8695C20.0752 38.6987 20.415 38.4229 20.6631 38.0721C20.9112 37.7213 21.0581 37.3091 21.0877 36.8804C21.1174 36.4518 21.0286 36.0232 20.8311 35.6416C20.6337 35.26 20.3351 34.94 19.9681 34.7167C19.601 34.4933 19.1797 34.3751 18.75 34.375Z" fill="#F2473A"/>
<path d="M18.75 45.3125C21.0677 45.3125 23.3335 44.6252 25.2606 43.3375C27.1877 42.0499 28.6897 40.2196 29.5767 38.0783C30.4637 35.937 30.6957 33.5808 30.2436 31.3075C29.7914 29.0343 28.6753 26.9462 27.0364 25.3073C25.3975 23.6684 23.3094 22.5523 21.0362 22.1002C18.763 21.648 16.4067 21.8801 14.2654 22.767C12.1241 23.654 10.2939 25.156 9.00622 27.0832C7.71854 29.0103 7.03125 31.276 7.03125 33.5938C7.03477 36.7007 8.27054 39.6793 10.4675 41.8763C12.6644 44.0732 15.6431 45.309 18.75 45.3125ZM18.75 23.4375C20.7587 23.4375 22.7223 24.0332 24.3925 25.1491C26.0627 26.2651 27.3644 27.8513 28.1332 29.7071C28.9019 31.5629 29.103 33.605 28.7111 35.5751C28.3192 37.5453 27.3519 39.3549 25.9316 40.7753C24.5112 42.1957 22.7015 43.163 20.7314 43.5548C18.7613 43.9467 16.7192 43.7456 14.8634 42.9769C13.0076 42.2082 11.4214 40.9064 10.3054 39.2363C9.1894 37.5661 8.59375 35.6025 8.59375 33.5938C8.59685 30.9011 9.66788 28.3196 11.5719 26.4156C13.4759 24.5116 16.0573 23.4406 18.75 23.4375Z" fill="#F2473A"/>
<path d="M46.8748 24.0835V19.6554L47.9638 19.1866C48.1043 19.1264 48.224 19.0262 48.3081 18.8986C48.3922 18.771 48.4371 18.6215 48.4371 18.4687C48.4371 18.3158 48.3922 18.1663 48.3081 18.0387C48.224 17.9111 48.1043 17.811 47.9638 17.7507L37.0264 13.0632C36.9291 13.0215 36.8244 13 36.7185 13C36.6127 13 36.508 13.0215 36.4107 13.0632L25.4732 17.7507C25.3328 17.811 25.2131 17.9111 25.1289 18.0387C25.0448 18.1663 25 18.3158 25 18.4687C25 18.6215 25.0448 18.771 25.1289 18.8986C25.2131 19.0262 25.3328 19.1264 25.4732 19.1866L30.4685 21.3296V27.846C30.4685 28.4676 30.7155 29.0637 31.155 29.5033C31.5946 29.9428 32.1907 30.1898 32.8123 30.1898H40.6248C41.2464 30.1898 41.8425 29.9428 42.2821 29.5033C42.7216 29.0637 42.9685 28.4676 42.9685 27.846V21.3296L45.3123 20.3249V24.0835C44.791 24.2678 44.3517 24.6304 44.0719 25.1073C43.7922 25.5842 43.69 26.1446 43.7835 26.6895C43.877 27.2345 44.1602 27.7288 44.5829 28.0851C45.0056 28.4415 45.5407 28.637 46.0935 28.637C46.6464 28.637 47.1815 28.4415 47.6042 28.0851C48.0269 27.7288 48.31 27.2345 48.4035 26.6895C48.497 26.1446 48.3949 25.5842 48.1151 25.1073C47.8354 24.6304 47.396 24.2678 46.8748 24.0835V24.0835ZM36.7185 14.6304L45.6724 18.471L41.8857 20.0944H41.881L36.7185 22.3085L31.5576 20.0968H31.5529L27.7646 18.471L36.7185 14.6304ZM40.6248 28.6273H32.8123C32.6051 28.6273 32.4064 28.5449 32.2599 28.3984C32.1134 28.2519 32.031 28.0532 32.031 27.846V21.9991L36.4107 23.8741C36.508 23.9158 36.6127 23.9373 36.7185 23.9373C36.8244 23.9373 36.9291 23.9158 37.0264 23.8741L41.406 21.9991V27.846C41.406 28.0532 41.3237 28.2519 41.1772 28.3984C41.0307 28.5449 40.832 28.6273 40.6248 28.6273ZM46.0935 27.0648C45.939 27.0648 45.788 27.0189 45.6595 26.9331C45.531 26.8472 45.4309 26.7252 45.3718 26.5825C45.3126 26.4397 45.2972 26.2826 45.3273 26.1311C45.3574 25.9795 45.4318 25.8403 45.5411 25.7311C45.6504 25.6218 45.7896 25.5474 45.9411 25.5173C46.0927 25.4871 46.2498 25.5026 46.3925 25.5617C46.5353 25.6209 46.6573 25.721 46.7431 25.8495C46.829 25.9779 46.8748 26.129 46.8748 26.2835C46.8748 26.4907 46.7925 26.6894 46.646 26.8359C46.4994 26.9824 46.3007 27.0648 46.0935 27.0648Z" fill="#F2473A"/>
</svg>
