<svg width="30" height="30" viewBox="0 0 30 30" xmlns="http://www.w3.org/2000/svg">
<g clip-path="url(#clip0_1781_12260)">
<path d="M5.04112 4.31608C4.79614 4.31608 4.59756 4.51466 4.59756 4.75964V5.93503C4.59756 6.18001 4.79608 6.37859 5.04112 6.37859C5.2861 6.37859 5.48468 6.18001 5.48468 5.93503V4.75964C5.48468 4.51472 5.2861 4.31608 5.04112 4.31608Z" />
<path d="M5.04112 7.48062C4.79614 7.48062 4.59756 7.6792 4.59756 7.92418V9.09957C4.59756 9.34455 4.79608 9.54313 5.04112 9.54313C5.2861 9.54313 5.48468 9.34455 5.48468 9.09957V7.92418C5.48468 7.67925 5.2861 7.48062 5.04112 7.48062Z" />
<path d="M7.21103 6.48605H6.03564C5.79066 6.48605 5.59209 6.68462 5.59209 6.92961C5.59209 7.17459 5.79066 7.37316 6.03564 7.37316H7.21103C7.45602 7.37316 7.65459 7.17459 7.65459 6.92961C7.65459 6.68468 7.45602 6.48605 7.21103 6.48605Z" />
<path d="M4.04655 6.48605H2.87115C2.62617 6.48605 2.4276 6.68462 2.4276 6.92961C2.4276 7.17459 2.62617 7.37316 2.87115 7.37316H4.04655C4.29153 7.37316 4.4901 7.17459 4.4901 6.92961C4.4901 6.68468 4.29153 6.48605 4.04655 6.48605Z" />
<path d="M27.448 17.1078L24.4327 13.9816C24.4327 13.9816 24.4327 13.9816 24.4326 13.9816L24.4321 13.981C24.4317 13.9807 24.4313 13.9804 24.431 13.9801C24.3847 13.9323 24.3274 13.8946 24.2619 13.8712L21.6554 12.9416C21.4246 12.8592 21.1709 12.9796 21.0886 13.2103C21.0063 13.441 21.1267 13.6947 21.3574 13.777L22.7924 14.2889L15.4405 16.9109L8.08865 14.2889L9.56539 13.7622C9.79608 13.6799 9.91643 13.4261 9.83411 13.1955C9.75184 12.9648 9.49807 12.8445 9.26739 12.9267L6.6193 13.8712C6.55385 13.8946 6.49654 13.9324 6.45019 13.9801C6.44984 13.9804 6.44943 13.9807 6.44908 13.981L6.44855 13.9816H6.44849L3.43314 17.1078C3.32849 17.2162 3.28612 17.3703 3.32052 17.517C3.35491 17.6636 3.46144 17.7829 3.60335 17.8335L8.91266 19.7271C8.96194 19.7447 9.01221 19.753 9.06166 19.753C9.24395 19.753 9.41475 19.6398 9.47944 19.4584C9.56176 19.2277 9.44141 18.9739 9.21073 18.8917L4.54882 17.2289L6.88889 14.803L14.6441 17.5689L12.304 19.9949L10.7994 19.4583C10.5687 19.3759 10.315 19.4963 10.2327 19.727C10.1504 19.9577 10.2707 20.2114 10.5014 20.2937L12.2756 20.9264C12.4398 20.9851 12.6229 20.942 12.7438 20.8166L15.4406 18.0208L18.1374 20.8166C18.2224 20.9048 18.3384 20.9522 18.4567 20.9522C18.5066 20.9522 18.5569 20.9438 18.6056 20.9264L27.2778 17.8334C27.4197 17.7828 27.5262 17.6636 27.5606 17.5169C27.5951 17.3703 27.5527 17.2162 27.448 17.1078ZM18.5771 19.9947L16.2371 17.5688L23.9923 14.8029L26.3323 17.2288L18.5771 19.9947Z" />
<path d="M20.5065 27.7497C20.4242 27.5191 20.1705 27.3988 19.9397 27.481L15.4408 29.0856L7.21202 26.1507V20.1006C7.21202 19.8556 7.01344 19.657 6.76846 19.657C6.52348 19.657 6.32491 19.8556 6.32491 20.1006V26.4635C6.32491 26.651 6.44286 26.8182 6.6194 26.8812L15.2917 29.9743C15.3399 29.9915 15.3903 30.0001 15.4407 30.0001C15.4912 30.0001 15.5416 29.9914 15.5898 29.9743L20.2378 28.3165C20.4685 28.2342 20.5888 27.9804 20.5065 27.7497Z" />
<path d="M24.113 19.657C23.868 19.657 23.6695 19.8556 23.6695 20.1006V26.1508L21.6483 26.8717C21.4176 26.9539 21.2973 27.2077 21.3796 27.4384C21.4443 27.6199 21.6151 27.733 21.7974 27.733C21.8468 27.733 21.8972 27.7247 21.9464 27.7071L24.2621 26.8812C24.4387 26.8182 24.5566 26.651 24.5566 26.4635V20.1006C24.5566 19.8556 24.358 19.657 24.113 19.657Z" />
<path d="M15.4407 19.6333C15.1957 19.6333 14.9972 19.8319 14.9972 20.0769V27.6169C14.9972 27.8619 15.1957 28.0604 15.4407 28.0604C15.6857 28.0604 15.8843 27.8619 15.8843 27.6169V20.0769C15.8843 19.8319 15.6857 19.6333 15.4407 19.6333Z" />
<path d="M24.937 5.03216L24.096 4.86166C23.4405 4.72871 22.931 4.21935 22.7981 3.5638L22.6276 2.7228C22.5496 2.33825 22.2211 2.06966 21.8287 2.06966C21.4363 2.06966 21.1077 2.33825 21.0298 2.72286L20.8592 3.5638C20.7264 4.21929 20.2169 4.72877 19.5614 4.86166L18.7204 5.03216C18.3358 5.11009 18.0672 5.43863 18.0672 5.83103C18.0672 6.22349 18.3358 6.55203 18.7204 6.62996L19.5614 6.80047C20.2169 6.93336 20.7264 7.44277 20.8592 8.09832L21.0298 8.93932C21.1077 9.32387 21.4363 9.59247 21.8287 9.59247C22.2211 9.59247 22.5496 9.32387 22.6276 8.93926L22.7981 8.09832C22.931 7.44283 23.4404 6.93336 24.096 6.80047L24.937 6.62996C25.3216 6.55203 25.5901 6.22349 25.5901 5.83103C25.5901 5.43863 25.3215 5.11015 24.937 5.03216ZM23.9197 5.93105C22.9141 6.1349 22.1325 6.91643 21.9286 7.92207L21.8287 8.4152L21.7287 7.92207C21.5249 6.91643 20.7433 6.13496 19.7377 5.93105L19.2446 5.83109L19.7377 5.73113C20.7433 5.52722 21.5248 4.7457 21.7287 3.74011L21.8287 3.24698L21.9286 3.74011C22.1325 4.74564 22.914 5.52722 23.9197 5.73113L24.4128 5.83109L23.9197 5.93105Z" />
<path d="M16.0349 3.79934L14.9557 3.58055C14.0649 3.39997 13.3726 2.70762 13.192 1.81682L12.9732 0.737638C12.8851 0.303282 12.5142 0 12.0711 0C11.628 0 11.257 0.303282 11.169 0.737521L10.9502 1.8167C10.7697 2.70751 10.0773 3.39985 9.18651 3.58044L8.10733 3.79923C7.67309 3.88729 7.36981 4.25819 7.36981 4.70128C7.36981 5.14437 7.67309 5.51532 8.10733 5.60339L9.18651 5.82218C10.0773 6.00277 10.7697 6.69511 10.9502 7.58591L11.169 8.6651C11.2571 9.09933 11.628 9.40262 12.0711 9.40262C12.5142 9.40262 12.8851 9.09933 12.9731 8.6651L13.1919 7.58591C13.3726 6.69511 14.0649 6.00277 14.9557 5.82218L16.0348 5.60339C16.4691 5.51532 16.7724 5.14442 16.7724 4.70134C16.7724 4.25825 16.4691 3.88735 16.0349 3.79934ZM15.8585 4.73397L14.7794 4.95276C13.5385 5.20437 12.5741 6.16876 12.3225 7.40961L12.1037 8.48879C12.0998 8.50824 12.0983 8.5155 12.0711 8.5155C12.0438 8.5155 12.0423 8.50824 12.0385 8.48879L11.8197 7.40961C11.5681 6.1687 10.6037 5.20431 9.36282 4.95276L8.28364 4.73397C8.26419 4.73005 8.25692 4.72858 8.25692 4.70134C8.25692 4.67409 8.26425 4.67257 8.28364 4.6687L9.36282 4.44991C10.6037 4.19831 11.5681 3.23391 11.8197 1.99307L12.0385 0.913889C12.0424 0.894435 12.0438 0.88717 12.0711 0.88717C12.0983 0.88717 12.0999 0.894435 12.1037 0.913889L12.3225 1.99307C12.5741 3.23397 13.5385 4.19837 14.7794 4.44991L15.8585 4.6687C15.878 4.67263 15.8853 4.67409 15.8853 4.70134C15.8853 4.72858 15.878 4.73011 15.8585 4.73397Z" />
<path d="M12.3711 14.0554C11.1961 11.1632 8.56542 8.60006 8.45409 8.49236C8.27796 8.32215 7.9973 8.32689 7.82702 8.50297C7.65675 8.67904 7.66144 8.95976 7.83745 9.1301C7.86341 9.15523 10.446 11.6736 11.5493 14.3892C11.6193 14.5615 11.7852 14.666 11.9603 14.666C12.016 14.666 12.0725 14.6554 12.1271 14.6333C12.354 14.541 12.4633 14.2822 12.3711 14.0554Z" />
<path d="M13.9708 8.5451C13.7258 8.5451 13.5272 8.74367 13.5272 8.98865V13.0691C13.5272 13.3141 13.7258 13.5127 13.9708 13.5127C14.2157 13.5127 14.4143 13.3141 14.4143 13.0691V8.98865C14.4143 8.74367 14.2157 8.5451 13.9708 8.5451Z" />
<path d="M21.6414 10.1078C21.4511 9.95346 21.1717 9.98252 21.0175 10.1728C19.9157 11.5312 19.1062 12.8374 18.6114 14.0553C18.5192 14.2823 18.6285 14.541 18.8554 14.6332C18.9101 14.6553 18.9666 14.6659 19.0222 14.6659C19.1973 14.6659 19.3633 14.5615 19.4332 14.3891C20.0085 12.9733 20.9869 11.6186 21.7064 10.7316C21.8607 10.5414 21.8316 10.2621 21.6414 10.1078Z" />
<path d="M17.7831 7.12947C17.5401 7.09783 17.3177 7.26927 17.2862 7.5122L16.5718 13.012C16.5403 13.2549 16.7116 13.4774 16.9545 13.5089C16.9739 13.5114 16.9932 13.5127 17.0122 13.5127C17.2317 13.5127 17.4225 13.3497 17.4515 13.1262L18.1658 7.6264C18.1974 7.38353 18.026 7.16099 17.7831 7.12947Z" />
</g>
<defs>
<clipPath id="clip0_1781_12260">
<rect width="30" height="30" fill="white"/>
</clipPath>
</defs>
</svg>
