<svg width="30" height="30" viewBox="0 0 30 30" xmlns="http://www.w3.org/2000/svg">
<path d="M29.9636 16.7236C29.742 15.1877 28.5354 13.9812 26.9996 13.7595V12.8505C26.9996 10.3425 25.0931 8.30056 22.7496 8.30056C20.4737 8.30056 18.5682 10.2805 18.4997 12.7145H18.5287L18.4997 12.7195V22.5729C18.4997 25.7228 16.1447 28.2808 13.2498 28.2808C10.3548 28.2808 7.99987 25.7193 7.99987 22.5729V21.7194C8.72486 21.7194 9.49985 21.1939 9.49985 19.7194V18.4619C12.7088 17.6414 14.9998 14.886 14.9998 11.762V10.7195H13.9998L13.9788 4.21212C13.9715 3.00758 13.1072 1.97909 11.9218 1.76466C11.6661 0.981356 10.8238 0.553613 10.0405 0.809359C9.25716 1.06504 8.82942 1.90734 9.08517 2.69071C9.34085 3.47401 10.1831 3.90175 10.9665 3.64601C11.3859 3.50907 11.7232 3.19351 11.8878 2.78414C12.5284 2.96639 12.9721 3.54913 12.9773 4.21512L12.9998 10.7195H11.9998V11.7765C11.9599 13.5157 10.794 15.027 9.12185 15.507C8.22718 15.7908 7.26657 15.7908 6.3719 15.507C4.70174 15.0254 3.53838 13.5143 3.49994 11.7765V10.7195H1.99997V4.21962C2.00284 3.54382 2.45734 2.95333 3.10995 2.77764C3.41426 3.55232 4.28893 3.93356 5.06361 3.62926C5.83828 3.32495 6.21952 2.45021 5.91522 1.6756C5.61091 0.900982 4.73617 0.519676 3.96156 0.823984C3.54182 0.988919 3.21795 1.3331 3.07895 1.76216C1.88066 1.9669 1.0033 3.00395 0.999984 4.21962V10.7195H0V11.7595C0 14.887 2.29246 17.6434 5.49991 18.4619V19.7194C5.49991 21.1939 6.2749 21.7194 6.99989 21.7194V22.5729C6.99989 26.2728 9.80334 29.2808 13.2498 29.2808C16.6962 29.2808 19.4997 26.2693 19.4997 22.5729V12.7435C19.5497 10.846 21.0087 9.30205 22.7496 9.30205C24.5416 9.30205 25.9996 10.894 25.9996 12.852V13.7595C24.0864 14.0356 22.7594 15.8104 23.0355 17.7236C23.3116 19.6367 25.0864 20.9638 26.9996 20.6876C28.9127 20.4115 30.2398 18.6367 29.9636 16.7236ZM10.4998 2.71964C10.2237 2.71964 9.99984 2.49577 9.99984 2.21965C9.99984 1.94353 10.2237 1.71966 10.4998 1.71966C10.776 1.71966 10.9998 1.94353 10.9998 2.21965C10.9998 2.49577 10.776 2.71964 10.4998 2.71964ZM4.49993 1.71966C4.77605 1.71966 4.99992 1.94353 4.99992 2.21965C4.99992 2.49577 4.77605 2.71964 4.49993 2.71964C4.22381 2.71964 3.99994 2.49577 3.99994 2.21965C3.99994 1.94353 4.22381 1.71966 4.49993 1.71966ZM0.999984 11.7595V11.7195H2.49996V11.7765C2.53746 13.9497 3.98325 15.8462 6.0689 16.4579C7.16182 16.804 8.33493 16.804 9.42785 16.4579C11.5145 15.847 12.9616 13.9504 12.9998 11.7765V11.7195H13.9998V11.7595C13.9998 14.541 11.8558 16.9884 8.89986 17.5804C8.20574 17.7194 7.49475 17.7543 6.79039 17.6839C6.55852 17.6614 6.32802 17.6266 6.0999 17.5794C3.14395 16.9884 0.999984 14.541 0.999984 11.7595ZM6.99989 20.7194C6.54989 20.7194 6.4999 20.0194 6.4999 19.7194V18.6584C6.53989 18.6634 6.58089 18.6654 6.62139 18.6694C6.67139 18.6749 6.72139 18.6789 6.77139 18.6834C7.00789 18.7044 7.24638 18.7184 7.48688 18.7189H7.51188C7.75188 18.7189 7.98987 18.7044 8.22487 18.6834C8.27487 18.6789 8.32787 18.6749 8.37937 18.6694C8.41887 18.6649 8.45986 18.6634 8.49936 18.6584V19.7194C8.49936 20.0194 8.44936 20.7194 7.99937 20.7194H6.99989ZM26.4996 19.7194C25.1189 19.7194 23.9996 18.6001 23.9996 17.2194C23.9996 15.8388 25.1189 14.7195 26.4996 14.7195C27.8802 14.7195 28.9995 15.8388 28.9995 17.2194C28.9979 18.5995 27.8796 19.7178 26.4996 19.7194Z"/>
<path d="M26.4996 15.7195C25.6712 15.7195 24.9996 16.391 24.9996 17.2194C24.9996 18.0479 25.6712 18.7194 26.4996 18.7194C27.328 18.7194 27.9996 18.0479 27.9996 17.2194C27.9996 16.391 27.328 15.7195 26.4996 15.7195ZM26.4996 17.7194C26.2235 17.7194 25.9996 17.4956 25.9996 17.2194C25.9996 16.9433 26.2235 16.7195 26.4996 16.7195C26.7757 16.7195 26.9996 16.9433 26.9996 17.2194C26.9996 17.4956 26.7757 17.7194 26.4996 17.7194Z"/>
</svg>
