<svg width="30" height="30" viewBox="0 0 30 30" xmlns="http://www.w3.org/2000/svg">
<g clip-path="url(#clip0_1780_10470)">
<path d="M13.4981 19.5921C13.7267 19.3629 13.7267 18.9919 13.4981 18.7628C13.2689 18.5344 12.8982 18.5344 12.669 18.7628C12.4404 18.9919 12.4404 19.3629 12.669 19.5921C12.8982 19.8205 13.2689 19.8205 13.4981 19.5921Z" />
<path d="M13.7114 5.80101V6.97289C13.7114 8.91518 15.2847 10.4885 17.227 10.4885C19.1656 10.4885 20.7429 8.91151 20.7429 6.97289V5.80101C21.0665 5.80101 21.3288 5.53871 21.3288 5.21507C21.3288 4.89143 21.0665 4.62914 20.7429 4.62914H19.571C19.2473 4.62914 18.985 4.89143 18.985 5.21507C18.985 5.53871 19.2473 5.80101 19.571 5.80101V6.97289C19.571 8.26515 18.5195 9.31664 17.227 9.31664C15.9327 9.31664 14.8833 8.26767 14.8833 6.97289V5.80101C15.2069 5.80101 15.4692 5.53871 15.4692 5.21507C15.4692 4.89143 15.2069 4.62914 14.8833 4.62914H13.7114C13.3877 4.62914 13.1254 4.89143 13.1254 5.21507C13.1254 5.53871 13.3877 5.80101 13.7114 5.80101Z" />
<path d="M6.80967 28.7661C6.92411 28.8803 7.0738 28.9373 7.22372 28.9373C7.37364 28.9373 7.52355 28.8801 7.63799 28.7659L9.43723 26.9666C10.0234 26.3809 10.3056 25.5787 10.2241 24.768L10.8693 24.145C11.3814 23.6515 12.0545 23.3796 12.7645 23.3796H20.4792C21.8612 23.3796 23.1674 22.8488 24.1571 21.885C24.1717 21.8708 24.1854 21.8559 24.1985 21.8401L29.4477 15.5367C30.2817 14.5498 30.157 13.068 29.1691 12.233C28.1877 11.4059 26.7169 11.5249 25.8803 12.4953L25.3134 13.0817V1.64062C25.3134 1.31699 25.0508 1.05469 24.7274 1.05469H9.66817C9.34476 1.05469 9.08224 1.31699 9.08224 1.64062V14.7686C6.8131 15.2449 5.01341 16.6534 4.04409 18.7125C3.27963 18.6729 2.53416 18.9539 1.98096 19.5078L0.172562 21.3073C0.0622412 21.4172 0.000214254 21.5664 -1.46276e-05 21.722C-0.000243509 21.8779 0.0617834 22.0271 0.171875 22.1372L6.80967 28.7661ZM24.1415 2.22656V14.2934L22.4457 16.0467C22.0092 15.5104 21.3441 15.1762 20.6257 15.1762H13.832C13.7945 15.1762 13.7537 15.1675 13.7127 15.1511C12.8 14.7789 11.8334 14.5903 10.8403 14.5903C10.6441 14.5903 10.4487 14.5974 10.2543 14.6102V2.22656H24.1415ZM9.75217 15.8393C10.9376 15.6679 12.1229 15.7686 13.2726 16.2371C13.4552 16.3108 13.6436 16.3483 13.832 16.3483H20.6257C21.261 16.3483 21.7975 16.8665 21.7975 17.5202C21.7975 18.1664 21.2718 18.6921 20.6257 18.6921H15.5278C15.2044 18.6921 14.9418 18.9544 14.9418 19.278C14.9418 19.6017 15.2044 19.864 15.5278 19.864H20.6257C21.9181 19.864 22.9694 18.8125 22.9694 17.5202C22.9694 17.4168 22.9618 17.314 22.9486 17.2126C23.0708 17.0874 26.6125 13.4244 26.7352 13.2973C26.7441 13.288 26.753 13.2784 26.7613 13.2685C27.1788 12.7755 27.9201 12.7132 28.4133 13.1289C28.907 13.5461 28.9695 14.287 28.5498 14.7837L23.3182 21.0661C22.5512 21.8026 21.5442 22.2077 20.4792 22.2077H12.7645C11.7494 22.2077 10.7876 22.5959 10.0557 23.3015L9.79726 23.551C9.69381 23.392 9.57342 23.2434 9.43746 23.1077L5.83853 19.5087C5.64627 19.3165 5.42814 19.1567 5.19216 19.0306C6.08732 17.265 7.68629 16.1396 9.75217 15.8393ZM2.80882 20.3373C3.42451 19.7207 4.40847 19.7358 5.00975 20.3375L8.60914 23.9367C9.21247 24.5389 9.22323 25.524 8.60891 26.1376L7.22326 27.523L1.41585 21.7234L2.80882 20.3373Z" />
</g>
<defs>
<clipPath id="clip0_1780_10470">
<rect width="30" height="30" fill="white"/>
</clipPath>
</defs>
</svg>
