<svg width="48" height="46" viewBox="0 0 48 46" fill="none" xmlns="http://www.w3.org/2000/svg">
<path d="M46.6562 29.4688V28.3385C46.6576 27.851 46.5622 27.368 46.3756 26.9176C46.1891 26.4672 45.915 26.0583 45.5693 25.7146L43.5312 23.6765V19.1781C43.8942 19.05 44.22 18.8344 44.4798 18.5504C44.7396 18.2663 44.9254 17.9227 45.0208 17.5497C45.1161 17.1768 45.1181 16.7861 45.0264 16.4122C44.9348 16.0384 44.7525 15.6929 44.4955 15.4062C44.8807 14.977 45.0937 14.4205 45.0937 13.8438C45.0937 13.267 44.8807 12.7105 44.4955 12.2812C44.8807 11.852 45.0937 11.2955 45.0937 10.7188C45.0937 10.142 44.8807 9.58554 44.4955 9.15625C44.7525 8.86965 44.9348 8.52413 45.0264 8.15026C45.1181 7.7764 45.1161 7.38571 45.0208 7.01278C44.9254 6.63984 44.7396 6.29616 44.4798 6.01213C44.22 5.7281 43.8942 5.51249 43.5312 5.38438V1.34375C43.5312 1.13655 43.4489 0.937836 43.3024 0.791323C43.1559 0.64481 42.9572 0.5625 42.75 0.5625H33.375C33.1678 0.5625 32.9691 0.64481 32.8226 0.791323C32.6761 0.937836 32.5938 1.13655 32.5938 1.34375V2.125H31.4636C30.976 2.12367 30.4931 2.21904 30.0426 2.40561C29.5922 2.59218 29.1833 2.86624 28.8395 3.21191L26.8015 5.25H16.8344C16.7063 4.88702 16.4906 4.56121 16.2066 4.30141C15.9226 4.0416 15.5789 3.85581 15.206 3.76047C14.833 3.66514 14.4424 3.66319 14.0685 3.75481C13.6946 3.84642 13.3491 4.02878 13.0625 4.28574C12.6332 3.90056 12.0768 3.68752 11.5 3.68752C10.9232 3.68752 10.3668 3.90056 9.9375 4.28574C9.50821 3.90056 8.95177 3.68752 8.375 3.68752C7.79823 3.68752 7.24179 3.90056 6.8125 4.28574C6.5259 4.02878 6.18038 3.84642 5.80651 3.75481C5.43265 3.66319 5.04196 3.66514 4.66903 3.76047C4.29609 3.85581 3.95241 4.0416 3.66838 4.30141C3.38435 4.56121 3.16874 4.88702 3.04062 5.25H1.34375C1.13655 5.25 0.937836 5.33231 0.791323 5.47882C0.64481 5.62534 0.5625 5.82405 0.5625 6.03125V15.4062C0.5625 15.6135 0.64481 15.8122 0.791323 15.9587C0.937836 16.1052 1.13655 16.1875 1.34375 16.1875H2.90625V17.75C2.90624 17.8713 2.93449 17.9909 2.98877 18.0994L6.03125 24.1845V26.4781C5.66827 26.6062 5.34246 26.8219 5.08266 27.1059C4.82285 27.3899 4.63706 27.7336 4.54172 28.1065C4.44639 28.4795 4.44444 28.8701 4.53606 29.244C4.62767 29.6179 4.81003 29.9634 5.06699 30.25C4.68181 30.6793 4.46877 31.2357 4.46877 31.8125C4.46877 32.3893 4.68181 32.9457 5.06699 33.375C4.68181 33.8043 4.46877 34.3607 4.46877 34.9375C4.46877 35.5143 4.68181 36.0707 5.06699 36.5C4.81003 36.7866 4.62767 37.1321 4.53606 37.506C4.44444 37.8799 4.44639 38.2705 4.54172 38.6435C4.63706 39.0164 4.82285 39.3601 5.08266 39.6441C5.34246 39.9281 5.66827 40.1438 6.03125 40.2719V44.3125C6.03125 44.5197 6.11356 44.7184 6.26007 44.8649C6.40659 45.0114 6.6053 45.0938 6.8125 45.0938H16.1875C16.3947 45.0938 16.5934 45.0114 16.7399 44.8649C16.8864 44.7184 16.9688 44.5197 16.9688 44.3125V43.5312H18.0989C18.5865 43.5326 19.0694 43.4372 19.5199 43.2506C19.9703 43.0641 20.3792 42.79 20.723 42.4443L22.761 40.4062H29.6031C29.7315 40.7692 29.9472 41.0949 30.2313 41.3546C30.5154 41.6144 30.8591 41.8001 31.232 41.8955C31.6049 41.9909 31.9956 41.993 32.3695 41.9016C32.7434 41.8101 33.0891 41.628 33.3759 41.3713C33.8052 41.7561 34.3615 41.9689 34.9381 41.9688C35.5147 41.9686 36.0709 41.7556 36.5 41.3705C36.9293 41.7557 37.4857 41.9687 38.0625 41.9687C38.6393 41.9687 39.1957 41.7557 39.625 41.3705C39.9116 41.6275 40.2571 41.8098 40.631 41.9014C41.0049 41.9931 41.3955 41.9911 41.7685 41.8958C42.1414 41.8004 42.4851 41.6146 42.7691 41.3548C43.0531 41.095 43.2688 40.7692 43.3969 40.4062H46.6562C46.8634 40.4062 47.0622 40.3239 47.2087 40.1774C47.3552 40.0309 47.4375 39.8322 47.4375 39.625V30.25C47.4375 30.0428 47.3552 29.8441 47.2087 29.6976C47.0622 29.5511 46.8634 29.4688 46.6562 29.4688ZM34.1562 2.125H41.9688V5.25H34.1562V2.125ZM27.125 6.8125C27.2276 6.8125 27.3292 6.7923 27.424 6.75304C27.5188 6.71378 27.6049 6.65624 27.6774 6.58369L29.9443 4.3167C30.1434 4.11659 30.3802 3.95794 30.6409 3.84994C30.9017 3.74194 31.1813 3.68673 31.4636 3.6875H32.5938V6.03125C32.5938 6.23845 32.6761 6.43716 32.8226 6.58368C32.9691 6.73019 33.1678 6.8125 33.375 6.8125H42.75C42.9572 6.8125 43.1559 6.89481 43.3024 7.04132C43.4489 7.18784 43.5312 7.38655 43.5312 7.59375C43.5312 7.80095 43.4489 7.99966 43.3024 8.14618C43.1559 8.29269 42.9572 8.375 42.75 8.375H38.0625C37.8553 8.375 37.6566 8.45731 37.5101 8.60382C37.3636 8.75034 37.2812 8.94905 37.2812 9.15625C37.2812 9.36345 37.3636 9.56216 37.5101 9.70868C37.6566 9.85519 37.8553 9.9375 38.0625 9.9375H42.75C42.9572 9.9375 43.1559 10.0198 43.3024 10.1663C43.4489 10.3128 43.5312 10.5115 43.5312 10.7188C43.5312 10.926 43.4489 11.1247 43.3024 11.2712C43.1559 11.4177 42.9572 11.5 42.75 11.5H38.0625C37.8553 11.5 37.6566 11.5823 37.5101 11.7288C37.3636 11.8753 37.2812 12.074 37.2812 12.2812C37.2812 12.4885 37.3636 12.6872 37.5101 12.8337C37.6566 12.9802 37.8553 13.0625 38.0625 13.0625H42.75C42.9572 13.0625 43.1559 13.1448 43.3024 13.2913C43.4489 13.4378 43.5312 13.6365 43.5312 13.8438C43.5312 14.051 43.4489 14.2497 43.3024 14.3962C43.1559 14.5427 42.9572 14.625 42.75 14.625H38.0625C37.8553 14.625 37.6566 14.7073 37.5101 14.8538C37.3636 15.0003 37.2812 15.199 37.2812 15.4062C37.2812 15.6135 37.3636 15.8122 37.5101 15.9587C37.6566 16.1052 37.8553 16.1875 38.0625 16.1875H42.75C42.9572 16.1875 43.1559 16.2698 43.3024 16.4163C43.4489 16.5628 43.5312 16.7615 43.5312 16.9688C43.5312 17.176 43.4489 17.3747 43.3024 17.5212C43.1559 17.6677 42.9572 17.75 42.75 17.75H31.2157L25.1307 14.7075C25.0222 14.6532 24.9025 14.625 24.7812 14.625H16.9688V6.8125H27.125ZM29.5513 27.5568C29.497 27.6653 29.4687 27.785 29.4688 27.9062V29.4688H24.9657L18.8807 26.4263C18.7722 26.372 18.6525 26.3437 18.5312 26.3438H16.9688V21.9798L19.0068 19.9417C19.3525 19.5979 19.6266 19.189 19.8131 18.7386C19.9997 18.2882 20.0951 17.8053 20.0938 17.3178V16.1875H24.5968L30.6818 19.23C30.7903 19.2843 30.91 19.3125 31.0312 19.3125H32.5938V21.4718L29.5513 27.5568ZM2.125 14.625V6.8125H2.90625V14.625H2.125ZM4.46875 17.5655V6.03125C4.46875 5.82405 4.55106 5.62534 4.69757 5.47882C4.84409 5.33231 5.0428 5.25 5.25 5.25C5.4572 5.25 5.65591 5.33231 5.80243 5.47882C5.94894 5.62534 6.03125 5.82405 6.03125 6.03125V10.7188C6.03125 10.926 6.11356 11.1247 6.26007 11.2712C6.40659 11.4177 6.6053 11.5 6.8125 11.5C7.0197 11.5 7.21841 11.4177 7.36493 11.2712C7.51144 11.1247 7.59375 10.926 7.59375 10.7188V6.03125C7.59375 5.82405 7.67606 5.62534 7.82257 5.47882C7.96909 5.33231 8.1678 5.25 8.375 5.25C8.5822 5.25 8.78091 5.33231 8.92743 5.47882C9.07394 5.62534 9.15625 5.82405 9.15625 6.03125V10.7188C9.15625 10.926 9.23856 11.1247 9.38507 11.2712C9.53159 11.4177 9.7303 11.5 9.9375 11.5C10.1447 11.5 10.3434 11.4177 10.4899 11.2712C10.6364 11.1247 10.7188 10.926 10.7188 10.7188V6.03125C10.7188 5.82405 10.8011 5.62534 10.9476 5.47882C11.0941 5.33231 11.2928 5.25 11.5 5.25C11.7072 5.25 11.9059 5.33231 12.0524 5.47882C12.1989 5.62534 12.2812 5.82405 12.2812 6.03125V10.7188C12.2812 10.926 12.3636 11.1247 12.5101 11.2712C12.6566 11.4177 12.8553 11.5 13.0625 11.5C13.2697 11.5 13.4684 11.4177 13.6149 11.2712C13.7614 11.1247 13.8438 10.926 13.8438 10.7188V6.03125C13.8438 5.82405 13.9261 5.62534 14.0726 5.47882C14.2191 5.33231 14.4178 5.25 14.625 5.25C14.8322 5.25 15.0309 5.33231 15.1774 5.47882C15.3239 5.62534 15.4062 5.82405 15.4062 6.03125V15.4062C15.4062 15.6135 15.4886 15.8122 15.6351 15.9587C15.7816 16.1052 15.9803 16.1875 16.1875 16.1875H18.5312V17.3178C18.532 17.6 18.4768 17.8796 18.3688 18.1404C18.2608 18.4011 18.1021 18.6379 17.902 18.8369L15.6351 21.1038C15.5625 21.1764 15.505 21.2625 15.4657 21.3573C15.4265 21.4521 15.4062 21.5537 15.4062 21.6562V26.3438H7.59375V24C7.59376 23.8787 7.56551 23.7591 7.51123 23.6506L4.46875 17.5655ZM15.4062 43.5312H7.59375V40.4062H15.4062V43.5312ZM22.4375 38.8438C22.3349 38.8437 22.2333 38.8639 22.1385 38.9032C22.0437 38.9425 21.9576 39 21.8851 39.0726L19.6182 41.3396C19.4191 41.5397 19.1824 41.6983 18.9216 41.8063C18.6608 41.9143 18.3812 41.9695 18.0989 41.9688H16.9688V39.625C16.9688 39.4178 16.8864 39.2191 16.7399 39.0726C16.5934 38.9261 16.3947 38.8438 16.1875 38.8438H6.8125C6.6053 38.8438 6.40659 38.7614 6.26007 38.6149C6.11356 38.4684 6.03125 38.2697 6.03125 38.0625C6.03125 37.8553 6.11356 37.6566 6.26007 37.5101C6.40659 37.3636 6.6053 37.2812 6.8125 37.2812H11.5C11.7072 37.2812 11.9059 37.1989 12.0524 37.0524C12.1989 36.9059 12.2812 36.7072 12.2812 36.5C12.2812 36.2928 12.1989 36.0941 12.0524 35.9476C11.9059 35.8011 11.7072 35.7188 11.5 35.7188H6.8125C6.6053 35.7188 6.40659 35.6364 6.26007 35.4899C6.11356 35.3434 6.03125 35.1447 6.03125 34.9375C6.03125 34.7303 6.11356 34.5316 6.26007 34.3851C6.40659 34.2386 6.6053 34.1562 6.8125 34.1562H11.5C11.7072 34.1562 11.9059 34.0739 12.0524 33.9274C12.1989 33.7809 12.2812 33.5822 12.2812 33.375C12.2812 33.1678 12.1989 32.9691 12.0524 32.8226C11.9059 32.6761 11.7072 32.5938 11.5 32.5938H6.8125C6.6053 32.5938 6.40659 32.5114 6.26007 32.3649C6.11356 32.2184 6.03125 32.0197 6.03125 31.8125C6.03125 31.6053 6.11356 31.4066 6.26007 31.2601C6.40659 31.1136 6.6053 31.0312 6.8125 31.0312H11.5C11.7072 31.0312 11.9059 30.9489 12.0524 30.8024C12.1989 30.6559 12.2812 30.4572 12.2812 30.25C12.2812 30.0428 12.1989 29.8441 12.0524 29.6976C11.9059 29.5511 11.7072 29.4688 11.5 29.4688H6.8125C6.6053 29.4688 6.40659 29.3864 6.26007 29.2399C6.11356 29.0934 6.03125 28.8947 6.03125 28.6875C6.03125 28.4803 6.11356 28.2816 6.26007 28.1351C6.40659 27.9886 6.6053 27.9062 6.8125 27.9062H18.3468L24.4318 30.9487C24.5403 31.003 24.66 31.0313 24.7812 31.0312H29.4688V38.8438H22.4375ZM41.1875 40.4062C40.9804 40.406 40.7818 40.3236 40.6353 40.1772C40.4889 40.0307 40.4065 39.8321 40.4062 39.625V34.9375C40.4062 34.7303 40.3239 34.5316 40.1774 34.3851C40.0309 34.2386 39.8322 34.1562 39.625 34.1562C39.4178 34.1562 39.2191 34.2386 39.0726 34.3851C38.9261 34.5316 38.8438 34.7303 38.8438 34.9375V39.625C38.8438 39.8322 38.7614 40.0309 38.6149 40.1774C38.4684 40.3239 38.2697 40.4062 38.0625 40.4062C37.8553 40.4062 37.6566 40.3239 37.5101 40.1774C37.3636 40.0309 37.2812 39.8322 37.2812 39.625V34.9375C37.2812 34.7303 37.1989 34.5316 37.0524 34.3851C36.9059 34.2386 36.7072 34.1562 36.5 34.1562C36.2928 34.1562 36.0941 34.2386 35.9476 34.3851C35.8011 34.5316 35.7188 34.7303 35.7188 34.9375V39.625C35.7188 39.8322 35.6364 40.0309 35.4899 40.1774C35.3434 40.3239 35.1447 40.4062 34.9375 40.4062C34.7303 40.4062 34.5316 40.3239 34.3851 40.1774C34.2386 40.0309 34.1562 39.8322 34.1562 39.625V34.9375C34.1562 34.7303 34.0739 34.5316 33.9274 34.3851C33.7809 34.2386 33.5822 34.1562 33.375 34.1562C33.1678 34.1562 32.9691 34.2386 32.8226 34.3851C32.6761 34.5316 32.5938 34.7303 32.5938 34.9375V39.625C32.5938 39.8322 32.5114 40.0309 32.3649 40.1774C32.2184 40.3239 32.0197 40.4062 31.8125 40.4062C31.6053 40.4062 31.4066 40.3239 31.2601 40.1774C31.1136 40.0309 31.0312 39.8322 31.0312 39.625V28.0907L34.0737 22.0057C34.128 21.8972 34.1563 21.7775 34.1562 21.6562V19.3125H41.9688V24C41.9687 24.1026 41.9889 24.2042 42.0282 24.299C42.0675 24.3938 42.125 24.4799 42.1976 24.5524L44.4645 26.8193C44.6646 27.0184 44.8233 27.2551 44.9313 27.5159C45.0393 27.7766 45.0945 28.0562 45.0938 28.3385V29.4688H42.75C42.5428 29.4688 42.3441 29.5511 42.1976 29.6976C42.0511 29.8441 41.9688 30.0428 41.9688 30.25V39.625C41.9685 39.8321 41.8861 40.0307 41.7397 40.1772C41.5932 40.3236 41.3946 40.406 41.1875 40.4062ZM45.875 38.8438H43.5312V31.0312H45.875V38.8438Z" fill="#F2473A"/>
<path d="M26.1327 20.0938C25.8492 20.093 25.5684 20.1484 25.3065 20.2569C25.0446 20.3654 24.8068 20.5248 24.6069 20.7258L24 21.3327L23.3932 20.7258C23.1331 20.4657 22.8108 20.2765 22.457 20.176C22.1031 20.0755 21.7295 20.0671 21.3715 20.1516C21.0136 20.2362 20.6831 20.4107 20.4116 20.6588C20.14 20.9069 19.9364 21.2203 19.82 21.5692C19.6338 22.1325 19.6241 22.7392 19.7921 23.3081C19.9601 23.877 20.2978 24.3811 20.7601 24.7528L23.5117 26.9538C23.6503 27.0646 23.8224 27.125 23.9997 27.125C24.1771 27.125 24.3492 27.0646 24.4877 26.9538L27.2401 24.752C27.7022 24.3802 28.0399 23.8762 28.2078 23.3074C28.3758 22.7386 28.3661 22.132 28.18 21.5689C28.037 21.139 27.7623 20.7652 27.3948 20.5004C27.0273 20.2356 26.5857 20.0933 26.1327 20.0938ZM26.264 23.5321L24 25.3433L21.7362 23.5321C21.5229 23.3606 21.3671 23.1281 21.2896 22.8656C21.2121 22.6031 21.2166 22.3232 21.3025 22.0634C21.3346 21.9672 21.3908 21.8808 21.4658 21.8123C21.5407 21.7439 21.6318 21.6958 21.7306 21.6725C21.8293 21.6492 21.9324 21.6515 22.03 21.6792C22.1276 21.7068 22.2165 21.759 22.2883 21.8307L23.4476 22.9899C23.5201 23.0625 23.6063 23.12 23.701 23.1593C23.7958 23.1986 23.8974 23.2188 24 23.2188C24.1026 23.2188 24.2042 23.1986 24.299 23.1593C24.3938 23.12 24.4799 23.0625 24.5525 22.9899L25.7117 21.8307C25.7835 21.759 25.8725 21.7068 25.9701 21.6792C26.0677 21.6515 26.1707 21.6492 26.2695 21.6725C26.3682 21.6958 26.4594 21.7439 26.5343 21.8123C26.6092 21.8808 26.6654 21.9672 26.6976 22.0634C26.7835 22.3232 26.788 22.6031 26.7105 22.8656C26.633 23.128 26.4772 23.3606 26.264 23.5321Z" fill="#F2473A"/>
</svg>
