<svg width="22" height="30" viewBox="0 0 22 30" xmlns="http://www.w3.org/2000/svg">
<path d="M19.7244 29.3437H2.27563C1.43751 29.3437 0.756882 28.6631 0.756882 27.825V13.0012C0.756882 12.1631 1.43751 11.4825 2.27563 11.4825H19.7244C20.5625 11.4825 21.2431 12.1631 21.2431 13.0012V27.825C21.2431 28.6631 20.5625 29.3437 19.7244 29.3437ZM2.27563 12.27C1.87251 12.27 1.54438 12.5981 1.54438 13.0012V27.825C1.54438 28.2281 1.87251 28.5562 2.27563 28.5562H19.7244C20.1275 28.5562 20.4556 28.2281 20.4556 27.825V13.0012C20.4556 12.5981 20.1275 12.27 19.7244 12.27H2.27563Z" />
<path d="M18.4475 12.27C18.23 12.27 18.0538 12.0937 18.0538 11.8762V8.49375C18.0538 7.54312 17.8663 6.61875 17.4988 5.74875C17.1444 4.90875 16.6363 4.155 15.9894 3.50813C15.3425 2.86125 14.5888 2.35313 13.7488 1.99875C12.8788 1.63125 11.9563 1.44375 11.0056 1.44375C10.055 1.44375 9.13064 1.63125 8.26064 1.99875C7.42064 2.35313 6.66689 2.86125 6.02001 3.50813C5.37314 4.155 4.86501 4.90875 4.51064 5.74875C4.14314 6.61875 3.95564 7.54312 3.95564 8.49375V11.8781C3.95564 12.0956 3.77939 12.2719 3.56189 12.2719C3.34439 12.2719 3.16814 12.0956 3.16814 11.8781V8.49375C3.16814 7.43625 3.37626 6.41062 3.78501 5.44312C4.18064 4.50938 4.74501 3.67125 5.46314 2.95313C6.18126 2.235 7.01939 1.66875 7.95314 1.275C8.92064 0.866252 9.94814 0.658127 11.0038 0.658127C12.0613 0.658127 13.0869 0.866252 14.0544 1.275C14.9881 1.67063 15.8263 2.235 16.5444 2.95313C17.2625 3.67125 17.8288 4.50938 18.2225 5.44312C18.6313 6.41062 18.8394 7.43812 18.8394 8.49375V11.8781C18.8413 12.0937 18.665 12.27 18.4475 12.27Z" />
<path d="M16.2575 12.27C16.04 12.27 15.8638 12.0938 15.8638 11.8763V8.49375C15.8638 5.81438 13.6831 3.63563 11.0056 3.63563C8.32625 3.63563 6.1475 5.81625 6.1475 8.49375V11.8781C6.1475 12.0956 5.97125 12.2719 5.75375 12.2719C5.53625 12.2719 5.36 12.0956 5.36 11.8781V8.49375C5.36 6.98625 5.94688 5.56688 7.01375 4.50188C8.08063 3.435 9.49813 2.84813 11.0056 2.84813C12.5131 2.84813 13.9325 3.435 14.9975 4.50188C16.0644 5.56875 16.6513 6.98625 16.6513 8.49375V11.8781C16.6513 12.0938 16.475 12.27 16.2575 12.27Z" />
<path d="M12.0538 20.8969C11.915 20.8969 11.78 20.8237 11.7088 20.6925C11.6038 20.5012 11.6731 20.2631 11.8644 20.1581C12.4269 19.8487 12.7813 19.2581 12.7906 18.6187C12.8038 17.6419 12.0238 16.83 11.0488 16.8075C10.5631 16.7962 10.1038 16.9762 9.75688 17.3156C9.41001 17.655 9.21876 18.1087 9.21876 18.5944C9.21876 19.2469 9.57313 19.8469 10.145 20.16C10.3363 20.265 10.4056 20.505 10.3006 20.6944C10.1956 20.8856 9.95563 20.955 9.76626 20.85C8.94313 20.3981 8.43126 19.5337 8.43126 18.5944C8.43126 17.895 8.70688 17.2406 9.20751 16.7531C9.70813 16.2656 10.3681 16.005 11.0675 16.0219C12.4719 16.0556 13.5988 17.2256 13.5781 18.6319C13.565 19.5544 13.0531 20.4056 12.2431 20.85C12.1831 20.88 12.1194 20.8969 12.0538 20.8969Z" />
<path d="M11.0056 24.81C10.2106 24.81 9.56377 24.1631 9.56377 23.3681V20.5031C9.56377 20.2856 9.74002 20.1094 9.95752 20.1094C10.175 20.1094 10.3513 20.2856 10.3513 20.5031V23.3681C10.3513 23.73 10.6456 24.0225 11.0056 24.0225C11.3656 24.0225 11.66 23.7281 11.66 23.3681V20.5031C11.66 20.2856 11.8363 20.1094 12.0538 20.1094C12.2713 20.1094 12.4475 20.2856 12.4475 20.5031V23.3681C12.4475 24.1631 11.8006 24.81 11.0056 24.81Z" />
</svg>
