<svg width="56" height="56" viewBox="0 0 56 56" fill="none" xmlns="http://www.w3.org/2000/svg">
<path d="M43.7176 22.959C42.3428 22.959 41.243 23.3256 40.3264 23.5089L40.0515 25.617C40.5097 25.4337 41.7929 25.067 42.8927 24.9754C43.9925 24.9754 44.6341 25.1587 44.4508 26.1669C41.1513 26.1669 38.9516 26.8084 38.4934 29.0081C37.8518 32.6742 41.8845 32.7659 43.4426 31.1161L43.2593 32.1243H46.1922L47.4754 26.1669C47.9336 23.6922 45.734 22.8674 43.7176 22.959ZM43.9009 29.0998C43.7176 29.833 43.076 30.1079 42.3428 30.1996C41.7012 30.1996 41.1513 29.833 41.5179 29.0998C41.8845 28.5499 42.7094 28.5498 43.351 28.5498C43.5343 28.5498 43.8092 28.5498 44.0842 28.5498C43.9925 28.4582 43.9009 28.8248 43.9009 29.0998Z" fill="#32A6CE"/>
<path d="M40.0515 25.6169C40.5097 25.4336 41.7929 25.0669 42.8927 24.9753C43.9925 24.9753 44.6341 25.1586 44.4508 26.1668C41.1513 26.1668 38.9516 26.8083 38.4934 29.008C37.8518 32.6742 41.8845 32.7658 43.4426 31.1161L43.2593 32.1242H46.1922L47.4754 26.1668C48.0253 23.6921 45.7339 23.0506 43.7176 23.0506L40.0515 25.6169ZM43.9009 29.0997C43.7176 29.8329 43.076 30.1079 42.3428 30.1995C41.7012 30.1995 41.1513 29.8329 41.5179 29.0997C41.8845 28.5498 42.7094 28.5498 43.351 28.5498C43.5343 28.5498 43.8092 28.5498 44.0842 28.5498C43.9925 28.4581 43.9009 28.8247 43.9009 29.0997Z" fill="#1A80AD"/>
<path d="M49.9518 20.2095L47.5688 32.1244H50.5017L52.9764 20.2095H49.9518Z" fill="#32A6CE"/>
<path d="M52.0598 20.2095L47.5688 32.1244H50.5017L52.9764 20.2095H49.9518H52.0598Z" fill="#1A80AD"/>
<path d="M36.2939 20.2095H30.8864L28.5034 32.1244H31.7113L32.5361 28.4583H34.8275C37.0271 28.4583 38.8602 27.1752 39.3185 24.8838C39.7767 22.2259 37.852 20.2095 36.2939 20.2095ZM36.2023 24.3339C36.019 25.1588 35.1941 25.7087 34.3692 25.7087H32.9028L33.5443 22.9591H35.1024C35.9273 22.9591 36.3856 23.509 36.2023 24.3339Z" fill="#32A6CE"/>
<path d="M36.2945 20.2095H32.6284L28.4124 32.1244H31.6202L32.4451 28.4583H34.7364C36.9361 28.4583 38.7691 27.1752 39.2274 24.8838C39.7773 22.2259 37.8526 20.2095 36.2945 20.2095ZM36.2029 24.3339C36.0195 25.1588 35.1947 25.7087 34.3698 25.7087H32.9033L33.5449 22.9591H35.103C35.9279 22.9591 36.3862 23.509 36.2029 24.3339Z" fill="#1A80AD"/>
<path d="M15.1233 22.959C13.7485 22.959 12.6487 23.3256 11.8238 23.5089L11.5489 25.617C11.9155 25.4337 13.2903 25.067 14.3901 24.9754C15.4899 24.9754 16.1315 25.1587 15.9482 26.1669C12.7404 26.1669 10.5407 26.8084 10.0824 29.0081C9.44085 32.6742 13.3819 32.7659 14.94 31.1161L14.7567 32.1243H17.6896L18.9728 26.1669C19.431 23.6922 17.1397 22.8674 15.1233 22.959ZM15.3983 29.0998C15.215 29.833 14.5734 30.1079 13.8402 30.1996C13.1986 30.1996 12.6487 29.833 13.107 29.0998C13.4736 28.5499 14.2985 28.5498 14.8484 28.5498C15.1233 28.5498 15.3066 28.5498 15.5816 28.5498C15.4899 28.4582 15.3983 28.8248 15.3983 29.0998Z" fill="#21789E"/>
<path d="M11.6397 25.6169C12.0063 25.4336 13.3811 25.0669 14.4809 24.9753C15.5808 24.9753 16.2223 25.1586 16.039 26.1668C12.8312 26.1668 10.6315 26.8083 10.1732 29.008C9.53167 32.6742 13.4727 32.7658 15.0308 31.1161L14.7559 32.1242H17.6888L18.9719 26.1668C19.5218 23.6921 17.2305 23.0506 15.2142 23.0506L11.6397 25.6169ZM15.3975 29.0997C15.2142 29.8329 14.5726 30.1079 13.8394 30.1995C13.1978 30.1995 12.6479 29.8329 13.1061 29.0997C13.4727 28.5498 14.2976 28.5498 14.8475 28.5498C15.1225 28.5498 15.3058 28.5498 15.5808 28.5498C15.4891 28.4581 15.3975 28.8247 15.3975 29.0997Z" fill="#1A5B80"/>
<path d="M20.1638 22.9592H23.0967L23.555 28.0917L26.4879 22.9592H29.5125L22.5468 35.7906H19.2473L21.3553 31.9412L20.1638 22.9592Z" fill="#21789E"/>
<path d="M23.0967 23.1425L23.555 28.1834L26.4879 22.9592H29.5125L22.5468 35.7906H19.2473L21.3553 32.0328" fill="#1A5B80"/>
<path d="M7.88216 20.2095H2.38298L0 32.1244H3.20786L4.03273 28.4583H6.32406C8.52373 28.4583 10.3568 27.1752 10.8151 24.8838C11.365 22.2259 9.44026 20.2095 7.88216 20.2095ZM7.79051 24.3339C7.6072 25.1588 6.78232 25.7087 5.95745 25.7087H4.491L5.13257 22.9591H6.69067C7.51555 22.9591 7.97381 23.509 7.79051 24.3339Z" fill="#21789E"/>
<path d="M7.88216 20.2095H5.40753L0 32.1244H3.20786L4.03273 28.4583H6.32406C8.52373 28.4583 10.3568 27.1752 10.8151 24.8838C11.365 22.2259 9.44026 20.2095 7.88216 20.2095ZM7.79051 24.3339C7.6072 25.1588 6.78232 25.7087 5.95745 25.7087H4.491L5.13257 22.9591H6.69067C7.51555 22.9591 7.97381 23.509 7.79051 24.3339Z" fill="#1A5B80"/>
<path d="M14.5715 26.167C12.0968 26.3503 10.4471 27.0836 10.0805 28.9166C9.4389 32.5827 13.38 32.6744 14.9381 31.0246L14.7548 32.1245H17.6877L18.1459 29.9248L14.5715 26.167ZM15.3963 29.0999C15.213 29.8331 14.5715 30.1081 13.8382 30.1998C13.1967 30.1998 12.6468 29.8331 13.105 29.0999C13.4716 28.55 14.2965 28.55 14.8464 28.55C15.1214 28.55 15.3047 28.55 15.5796 28.55C15.488 28.4583 15.3963 28.825 15.3963 29.0999Z" fill="#06435E"/>
<path d="M23.7385 28.0001L23.5552 28.275L25.4799 30.1081L29.5126 22.9592H26.4881L23.7385 28.0001Z" fill="#06435E"/>
<path d="M3.20731 32.1244L4.03219 28.4583L0.274414 32.1244H3.20731Z" fill="#06435E"/>
<path d="M31.6197 32.1246L32.4445 28.2752V28.3668L28.6868 32.1246H31.6197Z" fill="#2273AA"/>
<path d="M43.0769 26.167C40.6023 26.3503 38.9525 27.0835 38.5859 28.9166C37.9443 32.5827 41.9771 32.6744 43.5352 31.0246L43.2602 32.1244H46.1931L46.6514 29.9248L43.0769 26.167ZM43.9018 29.0999C43.7185 29.8331 43.0769 30.1081 42.3437 30.1997C41.7021 30.1997 41.1522 29.8331 41.5188 29.0999C41.8854 28.55 42.7103 28.55 43.3518 28.55C43.5352 28.55 43.8101 28.55 44.0851 28.55C43.9934 28.4583 43.9018 28.8249 43.9018 29.0999Z" fill="#2273AA"/>
<path d="M49.6744 26.7171L47.5664 32.1246H50.4993L51.3242 28.4585L49.6744 26.7171Z" fill="#2273AA"/>
<path d="M53.617 22.1343V20.8512H53.1587V20.6678H54.3502V20.8512H53.8919V22.1343H53.617Z" fill="#32A6CE"/>
<path d="M54.5334 22.1341V20.6677H54.8084L55.175 21.6759C55.175 21.7675 55.2667 21.8592 55.2667 21.8592C55.2667 21.7675 55.2667 21.7675 55.3583 21.5842L55.7249 20.576H55.9999V22.0425H55.8166V20.7593L55.3583 22.0425H55.0834L54.6251 20.7593V22.0425H54.5334V22.1341Z" fill="#32A6CE"/>
</svg>
