<svg width="11" height="11" viewBox="0 0 11 11" fill="none" xmlns="http://www.w3.org/2000/svg">
<path d="M9.4476 7.79874V9.04874C9.44808 9.16478 9.4243 9.27964 9.37782 9.38597C9.33133 9.49229 9.26315 9.58773 9.17764 9.66618C9.09213 9.74463 8.99118 9.80436 8.88125 9.84153C8.77132 9.87871 8.65484 9.89252 8.53927 9.88207C7.25712 9.74275 6.02552 9.30463 4.94344 8.6029C3.9367 7.96318 3.08316 7.10964 2.44344 6.1029C1.73926 5.01591 1.30104 3.77832 1.16427 2.4904C1.15386 2.37518 1.16755 2.25906 1.20448 2.14942C1.24141 2.03978 1.30076 1.93903 1.37876 1.85358C1.45675 1.76814 1.55169 1.69987 1.65752 1.65312C1.76334 1.60638 1.87775 1.58218 1.99344 1.58207H3.24344C3.44565 1.58008 3.64168 1.65169 3.795 1.78354C3.94833 1.9154 4.04847 2.09851 4.07677 2.29874C4.12953 2.69877 4.22737 3.09154 4.36844 3.46957C4.4245 3.61871 4.43663 3.78079 4.4034 3.9366C4.37017 4.09242 4.29296 4.23545 4.18094 4.34874L3.65177 4.8779C4.24492 5.92105 5.10863 6.78476 6.15177 7.3779L6.68094 6.84874C6.79422 6.73671 6.93725 6.65951 7.09307 6.62628C7.24889 6.59305 7.41097 6.60518 7.5601 6.66124C7.93813 6.8023 8.33091 6.90015 8.73094 6.9529C8.93334 6.98146 9.11819 7.08341 9.25033 7.23936C9.38246 7.39531 9.45267 7.59439 9.4476 7.79874Z" fill="#A0A0A0"/>
</svg>
