<svg width="18" height="18" viewBox="0 0 18 18" fill="none" xmlns="http://www.w3.org/2000/svg">
<path d="M17.4285 13.9582L13.4353 10.3275C13.2465 10.1559 12.9985 10.0644 12.7435 10.0723C12.4886 10.0802 12.2467 10.1868 12.0688 10.3697L9.7181 12.7872C9.15227 12.6792 8.01472 12.3246 6.84377 11.1566C5.67281 9.98464 5.31819 8.84415 5.21308 8.28225L7.62866 5.93054C7.81178 5.75287 7.91858 5.51091 7.92647 5.25588C7.93435 5.00085 7.84269 4.75276 7.6709 4.56411L4.04114 0.571904C3.86927 0.382663 3.6304 0.267875 3.37526 0.251917C3.12012 0.23596 2.86881 0.32009 2.6747 0.48644L0.543015 2.31457C0.373179 2.48502 0.27181 2.71187 0.258136 2.9521C0.243401 3.19769 -0.0375495 9.01508 4.47337 13.5279C8.40864 17.4622 13.338 17.75 14.6956 17.75C14.8941 17.75 15.0159 17.7441 15.0483 17.7421C15.2885 17.7287 15.5152 17.6269 15.6849 17.4563L17.512 15.3236C17.679 15.1301 17.7638 14.879 17.7482 14.6239C17.7326 14.3688 17.6179 14.1299 17.4285 13.9582Z" fill="#F2473A"/>
</svg>
