<svg width="27" height="27" viewBox="0 0 27 27" fill="none" xmlns="http://www.w3.org/2000/svg">
<path d="M13.5 0C13.9476 0 14.3768 0.17779 14.6932 0.494257C15.0097 0.810725 15.1875 1.23995 15.1875 1.6875V11.8125H25.3125C25.7601 11.8125 26.1893 11.9903 26.5057 12.3068C26.8222 12.6232 27 13.0524 27 13.5C27 13.9476 26.8222 14.3768 26.5057 14.6932C26.1893 15.0097 25.7601 15.1875 25.3125 15.1875H15.1875V25.3125C15.1875 25.7601 15.0097 26.1893 14.6932 26.5057C14.3768 26.8222 13.9476 27 13.5 27C13.0524 27 12.6232 26.8222 12.3068 26.5057C11.9903 26.1893 11.8125 25.7601 11.8125 25.3125V15.1875H1.6875C1.23995 15.1875 0.810725 15.0097 0.494257 14.6932C0.17779 14.3768 0 13.9476 0 13.5C0 13.0524 0.17779 12.6232 0.494257 12.3068C0.810725 11.9903 1.23995 11.8125 1.6875 11.8125H11.8125V1.6875C11.8125 1.23995 11.9903 0.810725 12.3068 0.494257C12.6232 0.17779 13.0524 0 13.5 0V0Z" fill="#F2473A"/>
</svg>
