<svg width="50" height="50" viewBox="0 0 50 50" fill="none" xmlns="http://www.w3.org/2000/svg">
<path d="M38.6719 3.90625C38.1328 3.90625 37.6953 4.34375 37.6953 4.88281C37.6953 5.42188 38.1328 5.85938 38.6719 5.85938C39.2109 5.85938 39.6484 5.42188 39.6484 4.88281C39.6484 4.34375 39.2109 3.90625 38.6719 3.90625Z" fill="#F2473A"/>
<path d="M38.6719 44.1406C38.1328 44.1406 37.6953 44.5781 37.6953 45.1172C37.6953 45.6562 38.1328 46.0938 38.6719 46.0938C39.2109 46.0938 39.6484 45.6562 39.6484 45.1172C39.6484 44.5781 39.2109 44.1406 38.6719 44.1406Z" fill="#F2473A"/>
<path d="M25 28.5156C24.4609 28.5156 24.0234 28.9531 24.0234 29.4922C24.0234 30.0312 24.4609 30.4688 25 30.4688C25.5391 30.4688 25.9766 30.0312 25.9766 29.4922C25.9766 28.9531 25.5391 28.5156 25 28.5156Z" fill="#F2473A"/>
<path d="M25 34.375C24.4609 34.375 24.0234 34.8125 24.0234 35.3516C24.0234 35.8906 24.4609 36.3281 25 36.3281C25.5391 36.3281 25.9766 35.8906 25.9766 35.3516C25.9766 34.8125 25.5391 34.375 25 34.375Z" fill="#F2473A"/>
<path d="M25 40.2344C24.4609 40.2344 24.0234 40.6719 24.0234 41.2109C24.0234 41.75 24.4609 42.1875 25 42.1875C25.5391 42.1875 25.9766 41.75 25.9766 41.2109C25.9766 40.6719 25.5391 40.2344 25 40.2344Z" fill="#F2473A"/>
<path d="M11.3281 3.90625C10.7891 3.90625 10.3516 4.34375 10.3516 4.88281C10.3516 5.42188 10.7891 5.85938 11.3281 5.85938C11.8672 5.85938 12.3047 5.42188 12.3047 4.88281C12.3047 4.34375 11.8672 3.90625 11.3281 3.90625Z" fill="#F2473A"/>
<path d="M11.3281 44.1406C10.7891 44.1406 10.3516 44.5781 10.3516 45.1172C10.3516 45.6562 10.7891 46.0938 11.3281 46.0938C11.8672 46.0938 12.3047 45.6562 12.3047 45.1172C12.3047 44.5781 11.8672 44.1406 11.3281 44.1406Z" fill="#F2473A"/>
<path d="M40.625 0H9.375C7.75957 0 6.44531 1.31426 6.44531 2.92969V47.0703C6.44531 48.6857 7.75957 50 9.375 50H40.625C42.2404 50 43.5547 48.6857 43.5547 47.0703V2.92969C43.5547 1.31426 42.2404 0 40.625 0ZM41.6016 47.0703C41.6016 47.6088 41.1635 48.0469 40.625 48.0469H9.375C8.83652 48.0469 8.39844 47.6088 8.39844 47.0703V2.92969C8.39844 2.39121 8.83652 1.95312 9.375 1.95312H40.625C41.1635 1.95312 41.6016 2.39121 41.6016 2.92969V47.0703Z" fill="#F2473A"/>
<path d="M34.7656 8.39844H15.2344C13.6189 8.39844 12.3047 9.7127 12.3047 11.3281C12.3047 12.5729 12.3047 19.8894 12.3047 21.0938C12.3047 22.7092 13.6189 24.0234 15.2344 24.0234H34.7656C36.3807 24.0234 37.6947 22.7098 37.6953 21.0948C37.6953 21.0943 37.6953 21.0937 37.6953 21.0933V11.3281C37.6953 9.7127 36.3811 8.39844 34.7656 8.39844ZM15.2344 22.0704C14.6959 22.0703 14.2578 21.6322 14.2578 21.0938V19.5452L19.1406 14.6624C20.2814 15.8032 25.3942 20.916 26.5485 22.0704H15.2344ZM34.7656 22.0703H29.3108L27.3577 20.1172L30.8594 16.6154L35.6793 21.4354C35.5403 21.8057 35.1838 22.0703 34.7656 22.0703ZM35.7422 18.736L31.5499 14.5437C31.1685 14.1624 30.5503 14.1624 30.1688 14.5437L25.9766 18.736L19.8312 12.5906C19.4497 12.2093 18.8315 12.2093 18.45 12.5906L14.2578 16.7829V11.3281C14.2578 10.7896 14.6959 10.3516 15.2344 10.3516H34.7656C35.3041 10.3516 35.7422 10.7896 35.7422 11.3281V18.736Z" fill="#F2473A"/>
<path d="M21.0938 28.5156H13.2812C12.742 28.5156 12.3047 28.9528 12.3047 29.4922C12.3047 30.0315 12.742 30.4688 13.2812 30.4688H21.0938C21.633 30.4688 22.0703 30.0315 22.0703 29.4922C22.0703 28.9528 21.633 28.5156 21.0938 28.5156Z" fill="#F2473A"/>
<path d="M21.0938 34.375H13.2812C12.742 34.375 12.3047 34.8122 12.3047 35.3516C12.3047 35.8909 12.742 36.3281 13.2812 36.3281H21.0938C21.633 36.3281 22.0703 35.8909 22.0703 35.3516C22.0703 34.8122 21.633 34.375 21.0938 34.375Z" fill="#F2473A"/>
<path d="M21.0938 40.2344H13.2812C12.742 40.2344 12.3047 40.6716 12.3047 41.2109C12.3047 41.7503 12.742 42.1875 13.2812 42.1875H21.0938C21.633 42.1875 22.0703 41.7503 22.0703 41.2109C22.0703 40.6716 21.633 40.2344 21.0938 40.2344Z" fill="#F2473A"/>
<path d="M36.7188 28.5156H28.9062C28.367 28.5156 27.9297 28.9528 27.9297 29.4922C27.9297 30.0315 28.367 30.4688 28.9062 30.4688H36.7188C37.258 30.4688 37.6953 30.0315 37.6953 29.4922C37.6953 28.9528 37.258 28.5156 36.7188 28.5156Z" fill="#F2473A"/>
<path d="M36.7188 34.375H28.9062C28.367 34.375 27.9297 34.8122 27.9297 35.3516C27.9297 35.8909 28.367 36.3281 28.9062 36.3281H36.7188C37.258 36.3281 37.6953 35.8909 37.6953 35.3516C37.6953 34.8122 37.258 34.375 36.7188 34.375Z" fill="#F2473A"/>
<path d="M36.7188 40.2344H28.9062C28.367 40.2344 27.9297 40.6716 27.9297 41.2109C27.9297 41.7503 28.367 42.1875 28.9062 42.1875H36.7188C37.258 42.1875 37.6953 41.7503 37.6953 41.2109C37.6953 40.6716 37.258 40.2344 36.7188 40.2344Z" fill="#F2473A"/>
</svg>
