<svg width="25" height="25" viewBox="0 0 25 25" fill="none" xmlns="http://www.w3.org/2000/svg">
<path d="M16.1113 19.5231H8.88901C8.42881 19.5231 8.05566 19.8962 8.05566 20.3565C8.05566 20.8167 8.42876 21.1898 8.88901 21.1898H16.1112C16.5714 21.1898 16.9446 20.8167 16.9446 20.3565C16.9446 19.8962 16.5715 19.5231 16.1113 19.5231Z" fill="#F2473A"/>
<path d="M16.1113 16.8948H8.88901C8.42881 16.8948 8.05566 17.2679 8.05566 17.7282C8.05566 18.1884 8.42876 18.5615 8.88901 18.5615H16.1112C16.5714 18.5615 16.9446 18.1884 16.9446 17.7282C16.9446 17.2679 16.5715 16.8948 16.1113 16.8948Z" fill="#F2473A"/>
<path d="M23.0556 6.53843H20.4041V1.71543C20.4041 1.25522 20.031 0.88208 19.5707 0.88208H5.4293C4.96909 0.88208 4.59595 1.25518 4.59595 1.71543V6.53843H1.94443C0.872266 6.53843 0 7.41074 0 8.48291V16.8668C0 17.939 0.872266 18.8112 1.94443 18.8112H4.59609V23.2846C4.59609 23.7448 4.96919 24.1179 5.42944 24.1179H19.5706C20.0308 24.1179 20.4039 23.7448 20.4039 23.2846V18.8112H23.0556C24.1277 18.8112 25 17.939 25 16.8668V8.48291C25 7.41079 24.1277 6.53843 23.0556 6.53843ZM6.2626 2.54878H18.7374V6.53843H6.2626V2.54878ZM18.7372 22.4512H6.26279C6.26279 22.2884 6.26279 15.8349 6.26279 15.6334H18.7373C18.7372 15.8399 18.7372 22.2946 18.7372 22.4512ZM19.5707 11.4317H17.4495C16.9893 11.4317 16.6161 11.0586 16.6161 10.5984C16.6161 10.1381 16.9892 9.76504 17.4495 9.76504H19.5707C20.0309 9.76504 20.4041 10.1381 20.4041 10.5984C20.4041 11.0586 20.031 11.4317 19.5707 11.4317Z" fill="#F2473A"/>
</svg>
