<svg width="50" height="50" viewBox="0 0 50 50" fill="none" xmlns="http://www.w3.org/2000/svg">
<path d="M13.0786 9.13188L9.2293 8.57251L7.50784 5.08449C7.26467 4.54845 6.43791 4.54855 6.19474 5.08449L4.47328 8.57251L0.623963 9.13188C0.0390143 9.19748 -0.216364 9.98382 0.218247 10.3807L3.00359 13.0958L2.34601 16.9296C2.22769 17.5061 2.89659 17.9921 3.40832 17.7014L6.85124 15.8913L10.2942 17.7014C10.805 17.9921 11.4751 17.5061 11.3565 16.9296L10.699 13.0958L13.4843 10.3807C13.919 9.98382 13.6636 9.19758 13.0786 9.13188ZM9.40131 12.3159C9.22872 12.4842 9.15003 12.7265 9.19074 12.964L9.66255 15.7151L7.19204 14.4161C6.97864 14.3041 6.72394 14.3041 6.51064 14.4161L4.04013 15.7151L4.51194 12.964C4.55264 12.7265 4.47396 12.4842 4.30137 12.3159L2.30266 10.3677L5.06477 9.96635C5.30326 9.93179 5.50943 9.78194 5.61604 9.5658L6.85124 7.06279L8.08654 9.5658C8.19324 9.78194 8.39932 9.93169 8.63781 9.96635L11.3999 10.3677L9.40131 12.3159Z" fill="#F2473A"/>
<path d="M13.0786 22.8965L9.2293 22.3372L7.50784 18.8491C7.26467 18.3131 6.43791 18.3132 6.19474 18.8491L4.47328 22.3372L0.623963 22.8965C0.0390143 22.9621 -0.216364 23.7485 0.218247 24.1454L3.00359 26.8604L2.34601 30.6942C2.22769 31.2708 2.89659 31.7567 3.40832 31.466L6.85124 29.6559L10.2942 31.466C10.805 31.7567 11.4751 31.2708 11.3565 30.6942L10.699 26.8604L13.4843 24.1454C13.919 23.7485 13.6636 22.9622 13.0786 22.8965ZM9.40131 26.0805C9.22872 26.2488 9.15003 26.4911 9.19074 26.7287L9.66255 29.4797L7.19204 28.1808C6.97864 28.0687 6.72394 28.0687 6.51064 28.1808L4.04013 29.4797L4.51194 26.7287C4.55264 26.4911 4.47396 26.2488 4.30137 26.0805L2.30266 24.1323L5.06477 23.731C5.30326 23.6964 5.50943 23.5466 5.61604 23.3304L6.85124 20.8274L8.08654 23.3304C8.19324 23.5466 8.39932 23.6963 8.63781 23.731L11.3999 24.1323L9.40131 26.0805Z" fill="#F2473A"/>
<path d="M13.0786 36.6612L9.2293 36.1018L7.50784 32.6138C7.26467 32.0777 6.43791 32.0778 6.19474 32.6138L4.47328 36.1018L0.623963 36.6612C0.0390143 36.7268 -0.216364 37.5131 0.218247 37.91L3.00359 40.6251L2.34601 44.4589C2.22769 45.0354 2.89659 45.5214 3.40832 45.2307L6.85124 43.4206L10.2942 45.2307C10.805 45.5214 11.4752 45.0354 11.3565 44.4589L10.699 40.6251L13.4843 37.91C13.919 37.5131 13.6636 36.7269 13.0786 36.6612ZM9.40131 39.8452C9.22872 40.0135 9.15003 40.2558 9.19074 40.4933L9.66255 43.2444L7.19204 41.9454C6.97864 41.8334 6.72394 41.8334 6.51064 41.9454L4.04013 43.2444L4.51194 40.4933C4.55264 40.2558 4.47396 40.0135 4.30137 39.8452L2.30266 37.897L5.06477 37.4956C5.30326 37.4611 5.50943 37.3112 5.61604 37.0951L6.85124 34.5921L8.08654 37.0951C8.19324 37.3112 8.39932 37.461 8.63781 37.4956L11.3999 37.897L9.40131 39.8452Z" fill="#F2473A"/>
<path d="M48.2915 7.25745H46.1823C45.7779 7.25745 45.4501 7.58516 45.4501 7.98961C45.4501 8.39405 45.7779 8.72177 46.1823 8.72177H48.2915C48.426 8.72177 48.5356 8.8312 48.5356 8.96582V13.4564C48.5356 13.591 48.426 13.7005 48.2915 13.7005H19.005C18.8705 13.7005 18.761 13.591 18.761 13.4564V8.96582C18.761 8.8312 18.8705 8.72177 19.005 8.72177H42.7655C43.1699 8.72177 43.4977 8.39405 43.4977 7.98961C43.4977 7.58516 43.1699 7.25745 42.7655 7.25745H19.005C18.0631 7.25745 17.2966 8.02387 17.2966 8.96582V13.4564C17.2966 14.3984 18.0631 15.1648 19.005 15.1648H48.2915C49.2335 15.1648 49.9999 14.3984 49.9999 13.4564V8.96582C49.9999 8.02387 49.2335 7.25745 48.2915 7.25745Z" fill="#F2473A"/>
<path d="M22.8996 10.4789C22.4953 10.4789 22.1675 10.8066 22.1675 11.211C22.1675 11.6155 22.4953 11.9432 22.8996 11.9432H43.4002C43.8045 11.9432 44.1323 11.6155 44.1323 11.211C44.1323 10.8066 43.8045 10.4789 43.4002 10.4789H22.8996Z" fill="#F2473A"/>
<path d="M40.4818 21.022H19.005C18.0631 21.022 17.2966 21.7884 17.2966 22.7304V27.2209C17.2966 28.1629 18.0631 28.9293 19.005 28.9293H35.5415C35.9459 28.9293 36.2737 28.6016 36.2737 28.1972C36.2737 27.7927 35.9459 27.465 35.5415 27.465H19.005C18.8705 27.465 18.761 27.3556 18.761 27.2209V22.7304C18.761 22.5957 18.8705 22.4863 19.005 22.4863H40.4818C40.6163 22.4863 40.7258 22.5957 40.7258 22.7304V27.2209C40.7258 27.3556 40.6163 27.465 40.4818 27.465H38.9583C38.5539 27.465 38.2261 27.7927 38.2261 28.1972C38.2261 28.6016 38.5539 28.9293 38.9583 28.9293H40.4818C41.4237 28.9293 42.1901 28.1629 42.1901 27.2209V22.7304C42.1901 21.7884 41.4238 21.022 40.4818 21.022Z" fill="#F2473A"/>
<path d="M36.5667 24.2435H22.8996C22.4953 24.2435 22.1675 24.5712 22.1675 24.9757C22.1675 25.3801 22.4953 25.7079 22.8996 25.7079H36.5667C36.971 25.7079 37.2988 25.3801 37.2988 24.9757C37.2988 24.5712 36.971 24.2435 36.5667 24.2435Z" fill="#F2473A"/>
<path d="M30.7196 34.7866H23.9245C23.5202 34.7866 23.1924 35.1143 23.1924 35.5188C23.1924 35.9232 23.5202 36.2509 23.9245 36.2509H30.7196C30.8541 36.2509 30.9636 36.3604 30.9636 36.495V40.9856C30.9636 41.1202 30.8541 41.2296 30.7196 41.2296H19.005C18.8705 41.2296 18.761 41.1202 18.761 40.9856V36.495C18.761 36.3604 18.8705 36.2509 19.005 36.2509H20.5078C20.9121 36.2509 21.24 35.9232 21.24 35.5188C21.24 35.1143 20.9121 34.7866 20.5078 34.7866H19.005C18.0631 34.7866 17.2966 35.553 17.2966 36.495V40.9856C17.2966 41.9275 18.0631 42.694 19.005 42.694H30.7196C31.6615 42.694 32.428 41.9275 32.428 40.9856V36.495C32.428 35.553 31.6616 34.7866 30.7196 34.7866Z" fill="#F2473A"/>
<path d="M27.3029 39.4725C27.7073 39.4725 28.0351 39.1448 28.0351 38.7403C28.0351 38.3359 27.7073 38.0082 27.3029 38.0082H22.4219C22.0175 38.0082 21.6897 38.3359 21.6897 38.7403C21.6897 39.1448 22.0175 39.4725 22.4219 39.4725H27.3029Z" fill="#F2473A"/>
</svg>
