<svg width="20" height="20" viewBox="0 0 20 20" fill="none" xmlns="http://www.w3.org/2000/svg">
<path d="M2.58816 14.8236C1.16108 14.8236 0 15.9847 0 17.4118C0 18.8389 1.16108 19.9998 2.58816 19.9998C4.01524 19.9998 5.17631 18.8389 5.17631 17.4118C5.17631 15.9847 4.01503 14.8236 2.58816 14.8236Z" fill="#F2473A"/>
<path d="M0.429902 7.45062C0.318299 7.44796 0.211611 7.4883 0.131544 7.56571C0.0516817 7.64291 0.00683594 7.74919 0.00683594 7.86018V11.1811C0.00683594 11.3998 0.179052 11.58 0.397752 11.5902C4.76643 11.7894 8.21116 15.2342 8.41041 19.6029C8.42044 19.8214 8.60064 19.9937 8.81955 19.9937H12.1406C12.2516 19.9937 12.3581 19.9486 12.4351 19.8691C12.5121 19.7897 12.5534 19.6816 12.5501 19.5708C12.4443 16.3869 11.1397 13.3871 8.87688 11.1241C6.61371 8.86113 3.61395 7.5567 0.429902 7.45062Z" fill="#F2473A"/>
<path d="M14.141 5.86076C10.4686 2.18869 5.59798 0.107336 0.425759 0.000852017C0.31518 -0.0044722 0.209107 0.0405788 0.130883 0.11778C0.0522488 0.194981 0.0078125 0.300237 0.0078125 0.410202V3.72924C0.0078125 3.95142 0.184943 4.13306 0.407125 4.13879C8.72121 4.34766 15.6543 11.281 15.8628 19.5944C15.8679 19.8166 16.0499 19.9935 16.2721 19.9935H19.5911C19.7011 19.9935 19.8067 19.9493 19.8839 19.8704C19.9607 19.7918 20.0031 19.6855 20.0006 19.5753C19.8938 14.4029 17.8124 9.53202 14.141 5.86076Z" fill="#F2473A"/>
</svg>
