<svg width="22" height="22" viewBox="0 0 22 22" fill="none" xmlns="http://www.w3.org/2000/svg">
<path d="M3.01583 17.6825L6.1325 14.575C5.12693 13.2939 4.58131 11.7119 4.58333 10.0833C4.58333 8.63294 5.01342 7.21512 5.81922 6.00915C6.62502 4.80319 7.77033 3.86326 9.11032 3.30822C10.4503 2.75318 11.9248 2.60795 13.3473 2.89091C14.7699 3.17387 16.0765 3.8723 17.1021 4.89789C18.1277 5.92347 18.8261 7.23015 19.1091 8.65267C19.392 10.0752 19.2468 11.5497 18.6918 12.8897C18.1367 14.2297 17.1968 15.375 15.9908 16.1808C14.7849 16.9866 13.3671 17.4167 11.9167 17.4167C10.2881 17.4187 8.70608 16.8731 7.425 15.8675L4.3175 18.9842C4.23228 19.0701 4.1309 19.1383 4.01919 19.1848C3.90749 19.2314 3.78767 19.2553 3.66666 19.2553C3.54565 19.2553 3.42584 19.2314 3.31414 19.1848C3.20243 19.1383 3.10105 19.0701 3.01583 18.9842C2.92991 18.899 2.86172 18.7976 2.81518 18.6859C2.76864 18.5742 2.74468 18.4543 2.74468 18.3333C2.74468 18.2123 2.76864 18.0925 2.81518 17.9808C2.86172 17.8691 2.92991 17.7677 3.01583 17.6825ZM17.4167 10.0833C17.4167 8.99554 17.0941 7.93217 16.4897 7.0277C15.8854 6.12323 15.0264 5.41828 14.0214 5.002C13.0164 4.58572 11.9106 4.4768 10.8437 4.68902C9.77677 4.90124 8.79677 5.42506 8.02758 6.19425C7.25839 6.96344 6.73456 7.94344 6.52234 9.01034C6.31013 10.0772 6.41904 11.1831 6.83533 12.1881C7.25161 13.1931 7.95656 14.0521 8.86103 14.6564C9.7655 15.2608 10.8289 15.5833 11.9167 15.5833C13.3754 15.5833 14.7743 15.0039 15.8058 13.9724C16.8372 12.941 17.4167 11.542 17.4167 10.0833Z" fill="#A0A0A0"/>
</svg>
