<svg width="30" height="30" viewBox="0 0 30 30" fill="none" xmlns="http://www.w3.org/2000/svg">
<path d="M5.37391 27.8437C5.22766 28.6762 6.04891 29.3269 6.77266 28.9556L15.0039 24.7256L23.2333 28.9556C23.957 29.3269 24.7783 28.6762 24.632 27.8456L23.0758 18.9769L29.6795 12.6844C30.2983 12.0956 29.9795 11.0194 29.1508 10.9031L19.967 9.59812L15.872 1.48499C15.794 1.32053 15.671 1.18159 15.5171 1.08429C15.3633 0.986996 15.185 0.935349 15.003 0.935349C14.821 0.935349 14.6427 0.986996 14.4888 1.08429C14.335 1.18159 14.2119 1.32053 14.1339 1.48499L10.0389 9.59999L0.855161 10.905C0.0282857 11.0212 -0.292339 12.0975 0.324536 12.6862L6.93016 18.9787L5.37391 27.8475V27.8437ZM14.5708 22.6556L7.65954 26.2069L8.96078 18.7875C8.99127 18.6167 8.97934 18.441 8.92605 18.2759C8.87276 18.1108 8.77974 17.9614 8.65516 17.8406L3.20641 12.6469L10.8039 11.5669C10.9612 11.5431 11.1104 11.4816 11.2388 11.3875C11.3671 11.2935 11.4707 11.1697 11.5408 11.0269L15.0002 4.16812L18.4633 11.0269C18.5333 11.1697 18.637 11.2935 18.7653 11.3875C18.8936 11.4816 19.0428 11.5431 19.2002 11.5669L26.7977 12.645L21.3489 17.8387C21.224 17.9597 21.1308 18.1095 21.0775 18.2749C21.0242 18.4404 21.0125 18.6164 21.0433 18.7875L22.3445 26.2069L15.4333 22.6556C15.2996 22.5867 15.1515 22.5508 15.0011 22.5508C14.8507 22.5508 14.7026 22.5867 14.5689 22.6556H14.5708Z" fill="#F2473A"/>
</svg>
