<svg width="60" height="60" viewBox="0 0 60 60" fill="none" xmlns="http://www.w3.org/2000/svg">
<path d="M58.9726 33.4674C58.9171 33.3477 58.8376 33.2406 58.7392 33.1526C58.6407 33.0647 58.5253 32.9978 58.4001 32.9561L55.4939 31.9873C55.3732 31.947 55.2457 31.9309 55.1188 31.9399C54.9919 31.9489 54.868 31.9829 54.7542 32.0399L53.3028 32.7656L46.6019 28.5779C46.0633 28.241 45.4407 28.0624 44.8054 28.0625H44.0844L47.3539 20.706C47.4244 20.5466 47.4505 20.3711 47.4296 20.1981C47.4538 20.1153 47.4144 20.0058 47.2993 19.8141L44.3931 14.9704C44.309 14.8303 44.1909 14.7137 44.0497 14.6315C43.9085 14.5493 43.7488 14.5042 43.5855 14.5003C43.4221 14.4964 43.2605 14.5339 43.1155 14.6093C42.9705 14.6846 42.847 14.7954 42.7564 14.9314L41.1808 17.2949L39.0589 16.4992C38.8276 16.4124 38.572 16.4173 38.3442 16.5128C38.1164 16.6083 37.9337 16.7871 37.8334 17.0129L35.4129 22.4581L31.7705 21.4651L31.3842 19.9202C31.3228 19.6777 31.2343 19.4428 31.1203 19.2201C31.6763 18.7653 32.1247 18.193 32.4334 17.5445C32.7422 16.8959 32.9036 16.1871 32.9062 15.4688V12.8047C32.9062 12.7742 32.9044 12.7442 32.9016 12.7143L34.0967 8.53156C34.3591 7.61365 34.2693 6.63082 33.8449 5.77566C33.4205 4.92049 32.692 4.25463 31.8023 3.90853C30.9125 3.56243 29.9256 3.56105 29.0349 3.90464C28.1442 4.24824 27.4139 4.91206 26.9871 5.76602L26.6029 6.534L26.4559 6.48556C25.7907 6.26385 25.076 6.23697 24.396 6.40809C23.7161 6.57921 23.0992 6.9412 22.6182 7.45136C22.1372 7.96153 21.812 8.5986 21.6812 9.28745C21.5503 9.97631 21.6191 10.6882 21.8796 11.3392L23.2187 14.6866V15.4688C23.2182 16.1932 23.3805 16.9086 23.6936 17.5618C24.0067 18.2151 24.4627 18.7897 25.0278 19.243L24.8534 19.5047C24.3894 20.2012 24.0106 20.9508 23.7254 21.7376L17.7711 33.875H10.625C10.3681 33.875 10.1217 33.9771 9.93998 34.1588C9.75831 34.3404 9.65624 34.5869 9.65624 34.8438C9.65624 35.1007 9.75831 35.3471 9.93998 35.5288C10.1217 35.7105 10.3681 35.8125 10.625 35.8125H11.5937V45.5H9.65624C9.39931 45.5 9.15291 45.6021 8.97123 45.7838C8.78956 45.9654 8.68749 46.2119 8.68749 46.4688C8.68749 46.7257 8.78956 46.9721 8.97123 47.1538C9.15291 47.3355 9.39931 47.4375 9.65624 47.4375H9.76062C8.79658 48.379 8.13511 49.5866 7.86073 50.9059C7.58634 52.2252 7.7115 53.5963 8.22022 54.8441C8.72894 56.0919 9.59811 57.1598 10.7167 57.9112C11.8353 58.6626 13.1525 59.0634 14.5 59.0625H42.5937C42.8507 59.0625 43.0971 58.9605 43.2787 58.7788C43.4604 58.5971 43.5625 58.3507 43.5625 58.0938C43.5625 57.8369 43.4604 57.5904 43.2787 57.4088C43.0971 57.2271 42.8507 57.125 42.5937 57.125H40.6562V47.4375H41.625C41.8238 47.4374 42.0178 47.3762 42.1806 47.262C42.3434 47.1479 42.4671 46.9864 42.535 46.7996C42.6029 46.6127 42.6117 46.4095 42.5601 46.2174C42.5085 46.0254 42.3991 45.8539 42.2467 45.7262C43.109 44.9615 43.7629 43.9902 44.1469 42.9034L44.5949 43.9129L45.549 46.7752C45.6134 46.9681 45.7368 47.136 45.9019 47.2549C46.067 47.3738 46.2653 47.4377 46.4687 47.4375C46.5215 47.4375 52.4411 46.4555 52.4411 46.4555C52.6671 46.4176 52.8725 46.3009 53.0206 46.126C53.1687 45.951 53.25 45.7292 53.25 45.5V42.5938C53.25 42.4139 53.1999 42.2375 53.1053 42.0845C53.0107 41.9315 52.8754 41.8078 52.7145 41.7274L49.1504 39.9452L47.5937 36.4422L51.8403 38.6122C51.8403 38.6122 51.8414 38.6122 51.8419 38.6122C51.9069 38.6456 51.9755 38.6715 52.0463 38.6894L55.9213 39.6581C56.1486 39.7151 56.3888 39.6877 56.5974 39.581C56.806 39.4744 56.9688 39.2957 57.0557 39.0781L58.9932 34.2343C59.0422 34.1118 59.0656 33.9806 59.0621 33.8488C59.0585 33.7169 59.0281 33.5871 58.9726 33.4674V33.4674ZM43.5195 17.2799L44.2097 18.4309L43.0434 17.9935L43.5195 17.2799ZM39.2328 18.6338L45.1654 20.8585L41.9641 28.0625H41.2496C41.2714 28.0234 41.2938 27.9848 41.314 27.9445C41.5209 27.5307 41.6335 27.0761 41.6435 26.6136C41.6535 26.151 41.5608 25.692 41.3719 25.2696C41.1831 24.8473 40.903 24.472 40.5516 24.171C40.2003 23.87 39.7865 23.6507 39.3402 23.5289L37.305 22.9738L39.2328 18.6338ZM47.2503 40.4417L45.8124 41.8801L42.5103 34.4504C42.4342 34.2791 42.31 34.1336 42.1529 34.0315C41.9958 33.9294 41.8124 33.875 41.625 33.875H30.1308L33.2612 30.1186L43.1508 32.5914C43.3652 32.6443 43.5646 32.7457 43.7337 32.8878C43.9028 33.0298 44.0371 33.2088 44.1262 33.4109L47.2503 40.4417ZM25.1562 14.9013L26.5262 13.5313H30.9687V15.4688C30.967 15.9271 30.8576 16.3786 30.6492 16.7868C30.4408 17.195 30.1394 17.5485 29.7692 17.8187C29.2585 17.5374 28.6827 17.3954 28.0998 17.4069C27.5168 17.4185 26.9472 17.5831 26.4479 17.8844C26.0503 17.6193 25.7243 17.2601 25.499 16.8387C25.2736 16.4172 25.1559 15.9467 25.1562 15.4688V14.9013ZM38.83 25.3985C39.1313 25.4798 39.3885 25.6761 39.5463 25.9453C39.7041 26.2144 39.7499 26.5348 39.6738 26.8374C39.5976 27.14 39.4056 27.4005 39.1392 27.5629C38.8728 27.7252 38.5532 27.7764 38.2494 27.7054L29.0147 25.5742L31.2562 23.3325L38.83 25.3985ZM25.4553 27.4631C25.3511 27.2548 25.2078 26.8577 25.1169 26.1502C24.9871 25.1207 25.0604 24.0757 25.3327 23.0744L26.1539 26.3595C26.1553 26.3647 26.1571 26.3679 26.1584 26.3729C26.1597 26.3779 26.1607 26.385 26.1625 26.3917C26.21 26.5581 26.3012 26.7087 26.4267 26.8279C26.5521 26.9471 26.7072 27.0306 26.8758 27.0696L31.0805 28.0399L31.6988 28.9673L28.2664 33.0862L25.4553 27.4631ZM27.7068 24.1419L26.8259 21.0594C26.7744 20.8559 26.7703 20.6433 26.8138 20.4379C26.8574 20.2325 26.9475 20.0399 27.0772 19.8748C27.093 19.8544 27.1109 19.8364 27.1278 19.817C27.1972 19.7662 27.2595 19.7062 27.313 19.6388C27.57 19.4368 27.8903 19.3326 28.217 19.3446C28.5436 19.3567 28.8554 19.4843 29.0968 19.7046C29.1004 19.7078 29.1037 19.7115 29.1074 19.7147C29.3025 19.8965 29.4406 20.1309 29.5051 20.3897L29.8958 21.9529L27.7068 24.1419ZM26.4951 33.875H23.8174L25.1562 31.1974L26.4951 33.875ZM23.8462 9.00831C24.0581 8.69113 24.3683 8.45229 24.7291 8.32851C25.0899 8.20473 25.4814 8.20285 25.8433 8.32316L26.7879 8.63801C27.0091 8.71175 27.2495 8.70322 27.4649 8.614C27.6803 8.52478 27.8563 8.36085 27.9606 8.1523L28.7205 6.63269C28.9315 6.2107 29.2924 5.88269 29.7326 5.71291C30.1728 5.54314 30.6605 5.54384 31.1002 5.71488C31.5399 5.88592 31.8999 6.21497 32.1096 6.63756C32.3194 7.06016 32.3638 7.54585 32.2342 7.99948L31.2068 11.5938H26.125C25.9978 11.5938 25.8718 11.6188 25.7543 11.6675C25.6367 11.7162 25.5299 11.7876 25.44 11.8775L24.5413 12.7761L23.6789 10.6191C23.574 10.3572 23.5345 10.0737 23.5636 9.79304C23.5928 9.51241 23.6898 9.24309 23.8462 9.00831V9.00831ZM23.2955 27.013C23.3787 27.4688 23.5222 27.9116 23.7222 28.3295L24.0734 29.0313L21.6515 33.875H19.9292L23.2955 27.013ZM13.5312 39.6875H37.75C38.0069 39.6875 38.2533 39.7896 38.435 39.9713C38.6167 40.1529 38.7187 40.3994 38.7187 40.6563C38.7187 40.9132 38.6167 41.1596 38.435 41.3413C38.2533 41.523 38.0069 41.625 37.75 41.625H13.5312V39.6875ZM38.7187 53.25H14.5C14.2431 53.25 13.9967 53.148 13.815 52.9663C13.6333 52.7846 13.5312 52.5382 13.5312 52.2813C13.5312 52.0244 13.6333 51.7779 13.815 51.5963C13.9967 51.4146 14.2431 51.3125 14.5 51.3125H38.7187V53.25ZM38.7187 49.375H14.5C13.7292 49.375 12.99 49.6812 12.445 50.2263C11.8999 50.7713 11.5937 51.5105 11.5937 52.2813C11.5937 53.0521 11.8999 53.7913 12.445 54.3363C12.99 54.8813 13.7292 55.1875 14.5 55.1875H38.7187V57.125H14.5C13.2153 57.125 11.9833 56.6147 11.0749 55.7063C10.1666 54.798 9.65624 53.5659 9.65624 52.2813C9.65624 50.9966 10.1666 49.7646 11.0749 48.8562C11.9833 47.9479 13.2153 47.4375 14.5 47.4375H38.7187V49.375ZM37.75 45.5H13.5312V43.5625H37.75C38.5208 43.5625 39.26 43.2563 39.805 42.7113C40.35 42.1663 40.6562 41.4271 40.6562 40.6563C40.6562 39.8855 40.35 39.1463 39.805 38.6013C39.26 38.0562 38.5208 37.75 37.75 37.75H13.5312V35.8125H37.75C39.0346 35.8125 40.2667 36.3229 41.175 37.2312C42.0834 38.1396 42.5937 39.3716 42.5937 40.6563C42.5937 41.9409 42.0834 43.173 41.175 44.0813C40.2667 44.9897 39.0346 45.5 37.75 45.5V45.5ZM51.3125 44.6794L47.126 45.3771L46.6084 43.8242L48.5976 41.835L51.3125 43.1925V44.6794ZM45.8962 32.6235C45.6883 32.1519 45.3749 31.7343 44.9802 31.4027C44.5856 31.0712 44.1201 30.8346 43.6196 30.7112L40.7755 30H44.8054C45.0778 30 45.3446 30.0765 45.5756 30.2209L52.1388 34.3233L51.6365 36.3335L46.4248 33.6704C46.3985 33.6569 46.3717 33.6453 46.3449 33.6341L45.8962 32.6235ZM55.5709 37.5738L53.4558 37.0451L54.0817 34.5423L55.2617 33.9522L56.8126 34.4691L55.5709 37.5738Z" fill="#F2473A"/>
<path d="M8.97125 24.8725L10.9088 26.81C10.9987 26.9 11.1055 26.9713 11.223 27.02C11.3406 27.0687 11.4666 27.0938 11.5938 27.0938H13.5313C13.6585 27.0938 13.7845 27.0687 13.902 27.02C14.0195 26.9713 14.1263 26.9 14.2163 26.81L16.1538 24.8725C16.2438 24.7826 16.3151 24.6758 16.3638 24.5582C16.4125 24.4407 16.4375 24.3147 16.4375 24.1875V20.708C18.3071 18.7876 19.3503 16.2114 19.3438 13.5312C19.3438 11.7328 18.6293 10.0079 17.3576 8.73618C16.0859 7.46445 14.361 6.75 12.5625 6.75C10.764 6.75 9.03919 7.46445 7.76746 8.73618C6.49573 10.0079 5.78128 11.7328 5.78128 13.5312C5.77471 16.2114 6.81794 18.7876 8.68753 20.708V24.1875C8.68753 24.3147 8.71258 24.4407 8.76126 24.5582C8.80994 24.6758 8.8813 24.7826 8.97125 24.8725ZM14.5 23.7863L13.1301 25.1562H11.995L10.625 23.7863V21.2812H14.5V23.7863ZM12.5625 8.6875C13.8467 8.68894 15.0779 9.19973 15.986 10.1078C16.8941 11.0159 17.4048 12.2471 17.4063 13.5312C17.4123 15.6996 16.5725 17.7849 15.0653 19.3438H13.5313V15.8701L15.1851 14.2163C15.3667 14.0346 15.4688 13.7882 15.4688 13.5312C15.4688 13.2743 15.3667 13.0279 15.1851 12.8462C15.0034 12.6645 14.757 12.5625 14.5 12.5625C14.2431 12.5625 13.9967 12.6645 13.815 12.8462L12.5625 14.0988L11.3101 12.8462C11.1284 12.6645 10.882 12.5625 10.625 12.5625C10.3681 12.5625 10.1217 12.6645 9.94 12.8462C9.75832 13.0279 9.65626 13.2743 9.65626 13.5312C9.65626 13.7882 9.75832 14.0346 9.94 14.2163L11.5938 15.8701V19.3438H10.0598C8.55256 17.7849 7.71273 15.6996 7.71878 13.5312C7.72022 12.2471 8.23101 11.0159 9.13907 10.1078C10.0471 9.19973 11.2783 8.68894 12.5625 8.6875Z" fill="#F2473A"/>
<path d="M12.5625 4.8125C12.8194 4.8125 13.0658 4.71044 13.2475 4.52876C13.4292 4.34708 13.5312 4.10068 13.5312 3.84375V1.90625C13.5312 1.64932 13.4292 1.40292 13.2475 1.22124C13.0658 1.03956 12.8194 0.9375 12.5625 0.9375C12.3056 0.9375 12.0592 1.03956 11.8775 1.22124C11.6958 1.40292 11.5938 1.64932 11.5938 1.90625V3.84375C11.5938 4.10068 11.6958 4.34708 11.8775 4.52876C12.0592 4.71044 12.3056 4.8125 12.5625 4.8125Z" fill="#F2473A"/>
<path d="M7.36447 5.49618C7.42762 5.60725 7.51211 5.70472 7.61308 5.783C7.71405 5.86128 7.8295 5.91881 7.9528 5.95228C8.0761 5.98575 8.20479 5.99451 8.33149 5.97804C8.45818 5.96157 8.58036 5.92021 8.69101 5.85633C8.80165 5.79245 8.89856 5.70731 8.97617 5.60583C9.05377 5.50434 9.11054 5.3885 9.14319 5.26499C9.17585 5.14147 9.18375 5.01272 9.16644 4.88614C9.14913 4.75956 9.10696 4.63765 9.04235 4.52743L8.0736 2.84956C8.01045 2.7385 7.92596 2.64102 7.82499 2.56274C7.72402 2.48447 7.60856 2.42694 7.48527 2.39346C7.36197 2.35999 7.23327 2.35123 7.10658 2.3677C6.97989 2.38417 6.8577 2.42553 6.74706 2.48941C6.63642 2.55329 6.53951 2.63843 6.4619 2.73992C6.38429 2.8414 6.32753 2.95724 6.29488 3.08075C6.26222 3.20427 6.25432 3.33302 6.27163 3.45961C6.28893 3.58619 6.33111 3.70809 6.39572 3.81831L7.36447 5.49618Z" fill="#F2473A"/>
<path d="M2.84991 8.07327L4.52778 9.04202C4.638 9.10664 4.7599 9.14881 4.88649 9.16612C5.01307 9.18343 5.14182 9.17552 5.26534 9.14287C5.38885 9.11021 5.50469 9.05345 5.60617 8.97584C5.70766 8.89824 5.7928 8.80133 5.85668 8.69068C5.92056 8.58004 5.96192 8.45786 5.97839 8.33117C5.99486 8.20447 5.9861 8.07577 5.95263 7.95248C5.91915 7.82918 5.86162 7.71373 5.78335 7.61276C5.70507 7.51179 5.60759 7.42729 5.49653 7.36415L3.81866 6.3954C3.59627 6.26896 3.3329 6.23562 3.08602 6.30264C2.83915 6.36967 2.6288 6.53162 2.50089 6.75316C2.37298 6.97471 2.33789 7.23785 2.40328 7.48516C2.46866 7.73248 2.62922 7.9439 2.84991 8.07327Z" fill="#F2473A"/>
<path d="M4.8125 12.5625C4.8125 12.3056 4.71044 12.0592 4.52876 11.8775C4.34708 11.6958 4.10068 11.5938 3.84375 11.5938H1.90625C1.64932 11.5938 1.40292 11.6958 1.22124 11.8775C1.03956 12.0592 0.9375 12.3056 0.9375 12.5625C0.9375 12.8194 1.03956 13.0658 1.22124 13.2475C1.40292 13.4292 1.64932 13.5312 1.90625 13.5312H3.84375C4.10068 13.5312 4.34708 13.4292 4.52876 13.2475C4.71044 13.0658 4.8125 12.8194 4.8125 12.5625Z" fill="#F2473A"/>
<path d="M4.52719 16.0829L2.84932 17.0517C2.73825 17.1148 2.64078 17.1993 2.5625 17.3003C2.48422 17.4012 2.42669 17.5167 2.39322 17.64C2.35974 17.7633 2.35099 17.892 2.36746 18.0187C2.38392 18.1454 2.42529 18.2675 2.48917 18.3782C2.55305 18.4888 2.63818 18.5857 2.73967 18.6633C2.84116 18.7409 2.957 18.7977 3.08051 18.8304C3.20403 18.863 3.33278 18.8709 3.45936 18.8536C3.58594 18.8363 3.70785 18.7941 3.81807 18.7295L5.49594 17.7608C5.71663 17.6314 5.87718 17.42 5.94257 17.1727C6.00796 16.9253 5.97287 16.6622 5.84496 16.4407C5.71705 16.2191 5.5067 16.0572 5.25982 15.9901C5.01294 15.9231 4.74958 15.9565 4.52719 16.0829Z" fill="#F2473A"/>
<path d="M16.4375 5.85075C16.66 5.97921 16.9244 6.01402 17.1726 5.94752C17.4207 5.88103 17.6323 5.71868 17.7608 5.49618L18.7295 3.81831C18.7941 3.70809 18.8363 3.58619 18.8536 3.45961C18.8709 3.33302 18.863 3.20427 18.8304 3.08076C18.7977 2.95724 18.741 2.8414 18.6634 2.73992C18.5858 2.63843 18.4888 2.55329 18.3782 2.48941C18.2676 2.42553 18.1454 2.38417 18.0187 2.3677C17.892 2.35123 17.7633 2.35999 17.64 2.39346C17.5167 2.42694 17.4012 2.48447 17.3003 2.56274C17.1993 2.64102 17.1148 2.7385 17.0517 2.84956L16.0829 4.52743C15.9545 4.74994 15.9196 5.01435 15.9861 5.26252C16.0526 5.51069 16.215 5.72228 16.4375 5.85075Z" fill="#F2473A"/>
</svg>
