<svg width="50" height="50" viewBox="0 0 50 50" fill="none" xmlns="http://www.w3.org/2000/svg">
<g clip-path="url(#clip0_1717_9865)">
<path d="M39.4341 32.6659L36.4996 31.8043L30.1152 27.6343V26.6788C31.9637 25.2846 33.233 23.1534 33.4689 20.7106C34.396 20.5613 35.1062 19.7558 35.1062 18.7874V16.16C35.1062 16.1498 35.1052 16.1399 35.1047 16.1297V12.8014C35.474 12.5369 35.7084 12.1062 35.7084 11.623V8.57708L40.1144 7.82659C40.8385 7.70325 41.3592 7.12815 41.4104 6.39543C41.4613 5.66272 41.0255 5.02092 40.3256 4.79836L25.4724 0.0739502C25.1624 -0.0246826 24.8351 -0.024585 24.5253 0.0738525L9.67188 4.79836C8.97197 5.02092 8.53604 5.66272 8.58711 6.39534C8.61953 6.86086 8.84199 7.26223 9.18535 7.52512V11.5082H9.14902C8.3126 11.5082 7.63213 12.1887 7.63213 13.0251V15.0023L6.65293 20.7495C6.48369 21.7436 7.24932 22.6534 8.26006 22.6534H11.5754C12.5839 22.6534 13.3521 21.7457 13.1825 20.7494L12.2033 15.0023V13.0251C12.2033 12.1887 11.5229 11.5082 10.6864 11.5082H10.6502V7.95715L14.2922 8.57747V11.623C14.2922 12.1041 14.5255 12.5342 14.8931 12.799L14.8944 16.1603V18.7874C14.8944 19.7559 15.6047 20.5613 16.5317 20.7106C16.7676 23.1521 18.0355 25.2822 19.8822 26.6766V27.6365L13.4992 31.8058L10.5671 32.6664C7.42949 33.5873 5.21406 36.4679 5.21406 39.8163V41.9991C5.21406 42.4036 5.54189 42.7316 5.94648 42.7316C6.35107 42.7316 6.67891 42.4037 6.67891 41.9991V39.8163C6.67891 37.1773 8.44736 34.8151 10.9797 34.0719L13.7117 33.2699L24.6264 39.7556C24.8479 39.8872 25.1411 39.8943 25.3746 39.7556L36.2899 33.2696L39.0217 34.0715C41.5536 34.8149 43.3221 37.177 43.3221 39.8158V46.8899C43.3221 47.7972 42.5839 48.5354 41.6766 48.5354H38.4483V45.3783C38.4483 44.9739 38.1205 44.6459 37.7159 44.6459C37.3114 44.6459 36.9835 44.9738 36.9835 45.3783V48.5354H13.014V45.3783C13.014 44.9739 12.6861 44.6459 12.2815 44.6459C11.877 44.6459 11.5491 44.9738 11.5491 45.3783V48.5354H8.32422C7.41689 48.5354 6.67871 47.7972 6.67871 46.8899V45.4229C6.67871 45.0184 6.35088 44.6904 5.94629 44.6904C5.5417 44.6904 5.21387 45.0183 5.21387 45.4229V46.8898C5.21387 48.6048 6.60908 50 8.32412 50H41.6764C43.3914 50 44.7866 48.6048 44.7866 46.8898V39.8157C44.7866 36.5462 42.6468 33.6092 39.4341 32.6659ZM11.5753 21.1886H8.26006C8.15762 21.1886 8.07949 21.0971 8.09687 20.9954L8.98262 15.7966H10.8527L11.7385 20.9953C11.7558 21.0968 11.6782 21.1886 11.5753 21.1886ZM10.7385 13.0251V14.3319H9.09678V13.0251C9.09678 12.9963 9.12012 12.973 9.14893 12.973H10.6862C10.7151 12.9729 10.7385 12.9963 10.7385 13.0251ZM22.3809 36.4425L22.6724 36.8905L15.1949 32.4475L19.9411 29.3474C20.1563 31.8728 20.9888 34.3029 22.3809 36.4425ZM22.3758 33.2809C24.0997 33.5258 25.8999 33.526 27.6248 33.2809C27.2915 34.101 26.8808 34.8924 26.392 35.6438L25.0003 37.7828L23.6086 35.6438C23.1198 34.8924 22.7091 34.101 22.3758 33.2809ZM27.6197 36.4425C29.0118 34.3029 29.8442 31.8728 30.0594 29.3474L34.8056 32.4474L27.3282 36.8905L27.6197 36.4425ZM31.904 13.0741H33.6399V15.4275H32.7783C32.2962 15.4275 31.9039 15.0353 31.9039 14.5531V13.0741H31.904ZM10.1158 6.19426L24.9694 1.46965C24.9885 1.4636 25.009 1.4635 25.0283 1.46975L39.8818 6.19426C39.9125 6.20403 39.9546 6.21731 39.9492 6.29358C39.9438 6.36975 39.9004 6.37708 39.8686 6.38254L34.9576 7.21897L33.1139 6.99094C32.7127 6.94123 32.3469 7.22659 32.2972 7.62795C32.2476 8.02942 32.5328 8.39504 32.9342 8.44465L34.2438 8.60666V11.6094L15.7569 11.6087V8.60657L23.3357 7.66877C24.4396 7.53235 25.5588 7.53235 26.6619 7.66877L29.5304 8.02356C29.9317 8.07327 30.2975 7.78801 30.3472 7.38665C30.3969 6.98518 30.1116 6.61956 29.7103 6.56985L26.8418 6.21506C25.6194 6.06379 24.3792 6.06379 23.156 6.21506L15.0413 7.21916L10.1289 6.38254C10.0971 6.37708 10.0536 6.36975 10.0482 6.29358C10.043 6.21731 10.0851 6.20393 10.1158 6.19426ZM16.3588 15.4275L16.3578 13.0741H18.0966V14.5532C18.0966 15.0353 17.7044 15.4276 17.2222 15.4276H16.3588V15.4275ZM17.9708 20.3341C17.9331 19.7377 17.4374 19.2705 16.8424 19.2705C16.5759 19.2705 16.3591 19.0537 16.3591 18.7873V16.8923H17.2222C18.5119 16.8923 19.5613 15.843 19.5613 14.5532V13.0741H30.4392V14.5532C30.4392 15.843 31.4886 16.8923 32.7783 16.8923H33.6414V18.7873C33.6414 19.0537 33.4246 19.2705 33.1581 19.2705C32.5631 19.2705 32.0674 19.7377 32.0297 20.3342C31.7964 24.0323 28.7087 26.9293 25.0002 26.9293C21.2917 26.9293 18.2041 24.0323 17.9708 20.3341ZM25.0003 28.3941C26.3029 28.3941 27.541 28.0962 28.6505 27.5666V28.0308C28.6505 29.283 28.4815 30.5183 28.1562 31.7097C26.1658 32.0892 23.9155 32.1045 21.8443 31.7097C21.519 30.5184 21.3501 29.2831 21.3501 28.0308C21.3501 28.0153 21.3479 28.0001 21.347 27.9848C21.3468 27.9818 21.3471 27.9787 21.3469 27.9757V27.5652C22.4571 28.0956 23.6964 28.3941 25.0003 28.3941Z" fill="#F2473A"/>
</g>
<defs>
<clipPath id="clip0_1717_9865">
<rect width="50" height="50" fill="white"/>
</clipPath>
</defs>
</svg>
