<svg width="20" height="20" viewBox="0 0 20 20" fill="none" xmlns="http://www.w3.org/2000/svg">
<path d="M17.9167 0H12.6308C11.6291 0 10.6866 0.39 9.97832 1.09832L0.71082 10.3667C0.25918 10.8183 0 11.4433 0 12.085C0 12.7233 0.25918 13.3483 0.71082 13.8L6.20082 19.29C6.65168 19.7408 7.27668 20 7.91832 20C8.55664 20 9.18164 19.7408 9.63332 19.2892L18.9016 10.0209C19.61 9.31332 20 8.37082 20 7.36918V2.08332C20 0.93418 19.0658 0 17.9167 0ZM15.4167 6.66668C14.2675 6.66668 13.3334 5.7325 13.3334 4.58336C13.3334 3.43418 14.2675 2.50004 15.4167 2.50004C16.5658 2.50004 17.5 3.43418 17.5 4.58332C17.5 5.7325 16.5658 6.66668 15.4167 6.66668Z" fill="#F2473A"/>
</svg>
