<svg width="70" height="70" viewBox="0 0 70 70" fill="none" xmlns="http://www.w3.org/2000/svg">
<path d="M42.9118 19.7473C43.1137 19.5454 43.3821 19.4341 43.6678 19.4341C43.9537 19.4341 44.2222 19.5454 44.424 19.7473C44.6243 19.9474 44.8867 20.0477 45.1492 20.0477C45.4115 20.0477 45.674 19.9476 45.8742 19.7474C46.2748 19.347 46.2748 18.6977 45.8743 18.2973C45.2849 17.708 44.5015 17.3834 43.6678 17.3834C42.8342 17.3834 42.0508 17.708 41.4615 18.2973C41.061 18.6977 41.061 19.347 41.4616 19.7474C41.8619 20.1479 42.5112 20.1477 42.9118 19.7473Z" fill="#F2473A"/>
<path d="M52.6216 19.7475C52.8237 19.5455 53.0922 19.4343 53.3779 19.4343C53.6637 19.4343 53.9322 19.5456 54.134 19.7475C54.3343 19.9477 54.5966 20.0479 54.8591 20.0479C55.1215 20.0479 55.384 19.9478 55.5841 19.7477C55.9847 19.3472 55.9847 18.6979 55.5843 18.2975C54.9949 17.7082 54.2115 17.3837 53.3779 17.3837C52.5443 17.3837 51.7608 17.7082 51.1716 18.2975C50.771 18.6979 50.771 19.3472 51.1714 19.7477C51.572 20.1477 52.2213 20.148 52.6216 19.7475Z" fill="#F2473A"/>
<path d="M46.3149 26.3231C46.9043 26.9123 47.6877 27.2369 48.5213 27.2369C49.355 27.2369 50.1384 26.9123 50.7278 26.3231C51.1283 25.9226 51.1283 25.2734 50.7277 24.8729C50.3274 24.4725 49.6781 24.4726 49.2776 24.8729C49.0757 25.0748 48.8073 25.1861 48.5214 25.1861C48.2357 25.1861 47.9672 25.075 47.7654 24.8729C47.3649 24.4726 46.7157 24.4725 46.3153 24.8729C45.9145 25.2734 45.9145 25.9226 46.3149 26.3231Z" fill="#F2473A"/>
<path d="M69.8633 41.5205C69.8633 40.0481 69.475 38.611 68.7107 37.2493C68.4332 36.7557 67.8084 36.5794 67.3148 36.8569C66.8213 37.1344 66.6449 37.7592 66.9225 38.2528C67.5131 39.3042 67.8125 40.4034 67.8125 41.5205V49.9316H62.1223V44.9373C62.1223 44.3712 61.6629 43.9119 61.0969 43.9119C60.5309 43.9119 60.0715 44.3712 60.0715 44.9373V49.9316H52.8583L54.1926 47.4093C54.1953 47.4024 54.1994 47.3956 54.2021 47.3888C54.3498 47.0934 54.3689 46.7872 54.2582 46.4727L51.5361 37.4039L51.9162 35.9164C52.1445 36.127 52.3031 36.2883 52.4193 36.4072C52.6299 36.6219 52.9895 36.9883 53.4953 36.9883C53.7551 36.9883 54.0518 36.8926 54.3867 36.6301C54.4797 36.5576 54.5863 36.4742 54.7531 36.3703C54.7764 36.3553 54.7996 36.3402 54.8215 36.3238L59.4098 32.9112C60.9287 33.2967 62.4572 33.9954 63.7697 34.9129C63.9488 35.0373 64.1539 35.0975 64.3562 35.0975C64.6803 35.0975 64.9988 34.9443 65.1971 34.6586C65.5225 34.1951 65.409 33.5553 64.9441 33.2313C63.391 32.1457 61.5699 31.3253 59.7652 30.8864C59.4727 30.669 58.8629 30.196 58.1643 29.6532C57.6734 29.2717 57.143 28.8602 56.633 28.4678C58.5006 26.5907 59.9074 24.2513 60.442 21.9064C60.591 21.2461 60.6662 20.6035 60.6662 19.9978V10.4036C60.6662 6.2226 57.4957 2.44219 52.5902 0.771489C50.5299 0.0701222 48.3479 -0.163667 46.4475 0.113872C44.4623 0.402349 42.834 1.22129 41.7088 2.48868C39.416 2.84551 36.0773 4.61752 36.1936 11.9239C36.1949 11.9936 36.1949 12.0511 36.1949 12.0948V19.9974C36.1949 20.6236 36.2715 21.2675 36.4205 21.9074C36.9605 24.2851 38.3988 26.6571 40.3088 28.5481C39.8727 28.8844 39.4256 29.2317 39.01 29.5543C38.3428 30.0725 37.7084 30.5661 37.3666 30.8217C36.1662 31.0856 34.9631 31.519 33.827 32.0932L33.8516 27.0112C33.8707 22.8494 30.718 19.0744 25.8166 17.3928C22.1457 16.1323 17.4098 16.202 14.8463 19.0908C12.5535 19.449 9.21621 21.2209 9.33105 28.5261C9.33242 28.5958 9.33379 28.6546 9.33379 28.697V36.5996C9.33379 37.2258 9.40898 37.8711 9.55801 38.5109C10.0625 40.7218 11.4092 43.0378 13.2289 44.926C12.8967 45.1503 12.7094 45.4743 12.6055 45.652C12.5699 45.7135 12.5371 45.771 12.507 45.8133L10.3496 48.8694C8.38223 49.3261 6.40117 50.2421 4.7332 51.474C4.27656 51.8104 4.18086 52.453 4.51719 52.9082C4.71816 53.1803 5.02852 53.3252 5.34297 53.3252C5.55352 53.3252 5.7668 53.2596 5.95 53.1242C7.2707 52.1508 8.81152 51.4057 10.3605 50.9817C10.7023 51.3016 11.1863 51.5081 11.658 51.5081H31.4795C31.9539 51.5081 32.4352 51.3044 32.7742 50.9817C33.531 51.1865 34.2835 51.4663 35.0086 51.8101C35.0823 51.8593 35.163 51.8986 35.2484 51.9275C38.3883 53.4924 40.95 56.2775 40.95 59.5324V67.9439H40.7329C40.7189 67.9439 40.7058 67.9436 40.6916 67.9436H35.2603V62.9495C35.2603 62.3833 34.8014 61.9241 34.2349 61.9241C33.6685 61.9241 33.2095 62.3833 33.2095 62.9495V67.9436H9.29428V62.9495C9.29428 62.3833 8.83531 61.9241 8.26889 61.9241C7.70246 61.9241 7.2435 62.3833 7.2435 62.9495V67.9436H2.4418C2.35293 67.9436 2.26816 67.945 2.1875 67.9463V59.5324C2.1875 58.4277 2.47871 57.3407 3.05293 56.303C3.32773 55.808 3.14863 55.1832 2.65234 54.9098C2.15742 54.635 1.53398 54.8141 1.25918 55.3104C0.514063 56.6558 0.136719 58.0763 0.136719 59.5324V68.053C0.136719 68.4782 0.190039 69.0934 0.645312 69.5418C1.0623 69.952 1.57227 69.9998 2.0166 69.9998C2.08633 69.9998 2.15605 69.9985 2.22168 69.9971C2.29141 69.9957 2.36523 69.9944 2.4418 69.9944H8.26369C8.26547 69.9944 8.26725 69.9947 8.26902 69.9947C8.2708 69.9947 8.27258 69.9944 8.27436 69.9944H26.0545C26.0563 69.9944 26.058 69.9947 26.0598 69.9947H40.7135C40.7831 69.9949 40.8505 69.9959 40.9134 69.9971C40.9804 69.9985 41.0487 69.9998 41.1184 69.9998C41.1897 69.9998 41.2627 69.9983 41.3365 69.9947H67.0928C68.9966 69.9947 69.8637 68.6597 69.8637 67.4193V50.957C69.8637 50.8449 69.8451 50.7373 69.8119 50.6364C69.8541 50.4223 69.8637 50.2154 69.8637 50.0411V41.5205H69.8633ZM52.2074 46.7748L50.5396 49.9316H46.32L44.6537 46.7748L47.1488 38.451H49.7096L52.2074 46.7748ZM46.6936 34.4861L48.5229 32.8072L50.2004 34.348L49.6754 36.4003H47.183L46.6936 34.4861ZM56.9064 31.273C57.1279 31.4439 57.3357 31.6066 57.5271 31.7543L53.6293 34.6542C53.6156 34.6624 53.6033 34.6706 53.591 34.6788C53.4242 34.5161 53.2096 34.3152 52.9348 34.0773L50.7637 32.081C51.033 32.0017 51.3105 31.9101 51.5977 31.8035C52.8104 31.351 53.9834 30.6769 55.0635 29.8471C55.6637 30.3078 56.3145 30.8123 56.9064 31.273V31.273ZM42.3281 4.47807C42.6139 4.4521 42.875 4.30854 43.05 4.08159C44.1697 2.62963 46.051 2.04844 48.0471 2.04844C49.3541 2.04844 50.7076 2.29727 51.9285 2.7129C55.0129 3.7629 58.6154 6.40717 58.6154 10.4036V14.7049H57.5791C55.9125 14.7049 54.8721 13.7301 53.5555 12.494C51.9709 11.0079 50.1758 9.32338 46.9697 9.32338H43.4232C40.6164 9.32338 40.1529 11.5835 39.8453 13.0806C39.5213 14.6624 39.282 15.3461 38.2457 15.4924V12.0949C38.2457 12.043 38.2457 11.9746 38.2443 11.8912C38.1938 8.67821 38.8609 4.78295 42.3281 4.47807V4.47807ZM38.4193 21.4468C38.3045 20.9546 38.2457 20.4665 38.2457 19.9976V17.5529C41.0689 17.3136 41.5393 15.0317 41.8551 13.4922C42.201 11.8024 42.4006 11.3743 43.4232 11.3743H46.9697C49.365 11.3743 50.7186 12.6444 52.1527 13.9899C53.602 15.3502 55.1004 16.7558 57.5791 16.7558H58.6154V19.9976C58.6154 20.4515 58.5566 20.9423 58.4418 21.4523C57.6447 24.9469 54.3936 28.5701 50.8813 29.8812C49.9516 30.2271 49.1723 30.3885 48.4285 30.3885C47.6861 30.3885 46.9082 30.2271 45.9813 29.8826C42.4635 28.5701 39.2137 24.9469 38.4193 21.4468V21.4468ZM40.2678 31.1747C40.7873 30.7714 41.3547 30.3298 41.8893 29.9197C42.9434 30.7167 44.085 31.3634 45.2648 31.8038C45.6012 31.9296 45.9238 32.0335 46.2383 32.121L44.1068 34.0775C43.8334 34.3154 43.6187 34.5164 43.4533 34.6777C43.441 34.6695 43.4287 34.6627 43.4164 34.6545L39.5172 31.7573C39.7455 31.5794 39.9984 31.3839 40.2678 31.1747V31.1747ZM11.3846 36.254V28.6973C11.3846 28.6467 11.3832 28.5783 11.3818 28.4935C11.3313 25.2805 11.9984 21.3866 15.4656 21.0817C15.7514 21.0558 16.0139 20.9122 16.1889 20.6853C18.0523 18.2652 22.0322 18.2625 25.1508 19.3331C28.2311 20.3886 31.8199 23.0315 31.8008 27.0019L31.7693 33.335L31.7598 35.3926L31.7557 36.1883C29.1854 38.7861 24.932 40.1697 20.2781 39.8977C16.3939 39.6719 13.0279 38.2856 11.3846 36.254V36.254ZM12.0354 39.5258C14.1449 40.8957 16.9832 41.7613 20.1592 41.9458C20.5803 41.9705 20.9973 41.9828 21.4129 41.9828C25.1221 41.9828 28.566 41.0162 31.2033 39.2715C30.4473 41.2404 28.9721 43.2146 27.1318 44.683H16.0016C14.2434 43.2802 12.8188 41.4125 12.0354 39.5258V39.5258ZM12.4441 49.4573L14.1805 47.0003C14.2475 46.9046 14.3035 46.813 14.35 46.7337H15.6447H15.6461H27.4873H27.4887H29.1498C29.1854 46.7994 29.2223 46.865 29.2633 46.9333L30.7822 49.4573H12.4441ZM31.0229 45.8806C30.9955 45.8341 30.9695 45.7876 30.9449 45.7412C30.815 45.5005 30.5512 45.0179 30.0289 44.7978C31.7898 42.933 33.0873 40.6701 33.5795 38.5098C33.7271 37.8536 33.8037 37.2151 33.8037 36.6135C33.8037 36.6108 33.8051 36.6081 33.8051 36.6053L33.816 34.445C34.9945 33.7327 36.3057 33.1859 37.5854 32.8769L42.2256 36.3237C42.2475 36.3401 42.2693 36.3551 42.2926 36.3702C42.4607 36.4741 42.566 36.5575 42.6604 36.6299C42.9953 36.8924 43.292 36.9895 43.5504 36.9895C44.0563 36.9895 44.4158 36.6217 44.625 36.4071C44.7139 36.3155 44.8287 36.1993 44.9777 36.0557L45.3223 37.4038L42.6111 46.4494C42.484 46.7789 42.5045 47.1042 42.6727 47.4146L44.0009 49.9315H35.8094C34.8448 49.4763 33.8378 49.1182 32.8277 48.8802L31.0229 45.8806ZM67.0924 67.9439H43.0008V59.5324C43.0008 56.9045 41.7813 54.419 39.4748 52.3448C39.3377 52.2215 39.1963 52.101 39.053 51.9824H45.6999C45.7007 51.9824 45.7015 51.9825 45.7023 51.9825C45.7033 51.9825 45.7043 51.9824 45.7052 51.9824H48.4252C48.4263 51.9824 48.4274 51.9825 48.4285 51.9825H51.1561H51.1588H67.5541C67.6307 51.9825 67.7045 51.9839 67.7756 51.9852C67.7873 51.9855 67.8005 51.9854 67.8125 51.9855V67.4193C67.8125 67.6919 67.7253 67.9439 67.0924 67.9439V67.9439Z" fill="#F2473A"/>
</svg>
