<svg width="62" height="62" viewBox="0 0 62 62" fill="none" xmlns="http://www.w3.org/2000/svg">
<path d="M45.5312 26.1562H37.7812C37.2453 26.1562 36.8125 25.7234 36.8125 25.1875C36.8125 24.6516 37.2453 24.2188 37.7812 24.2188H45.5312C46.0672 24.2188 46.5 24.6516 46.5 25.1875C46.5 25.7234 46.0672 26.1562 45.5312 26.1562Z" fill="#F2473A"/>
<path d="M49.4062 23.25H33.9062C33.3703 23.25 32.9375 22.8172 32.9375 22.2812C32.9375 21.7453 33.3703 21.3125 33.9062 21.3125H49.4062C49.9422 21.3125 50.375 21.7453 50.375 22.2812C50.375 22.8172 49.9422 23.25 49.4062 23.25Z" fill="#F2473A"/>
<path d="M46.4504 17.3884C46.2021 17.3884 45.9542 17.2933 45.7655 17.1041L42.3408 13.6799C41.9619 13.301 41.9619 12.6889 42.3408 12.31C42.7197 11.9312 43.3318 11.9312 43.7107 12.31L47.1349 15.7347C47.5138 16.1131 47.5138 16.7257 47.1349 17.1041C46.9462 17.2943 46.6983 17.3884 46.4504 17.3884Z" fill="#F2473A"/>
<path d="M41.6562 10.6562C41.1203 10.6562 40.6875 10.2234 40.6875 9.6875V4.84375C40.6875 4.30782 41.1203 3.875 41.6562 3.875C42.1922 3.875 42.625 4.30782 42.625 4.84375V9.6875C42.625 10.2234 42.1922 10.6562 41.6562 10.6562Z" fill="#F2473A"/>
<path d="M41.6562 14.5312C40.0541 14.5312 38.75 13.2271 38.75 11.625C38.75 10.0229 40.0541 8.71875 41.6562 8.71875C43.2584 8.71875 44.5625 10.0229 44.5625 11.625C44.5625 13.2271 43.2584 14.5312 41.6562 14.5312ZM41.6562 10.6562C41.1217 10.6562 40.6875 11.0905 40.6875 11.625C40.6875 12.1595 41.1217 12.5938 41.6562 12.5938C42.1908 12.5938 42.625 12.1595 42.625 11.625C42.625 11.0905 42.1908 10.6562 41.6562 10.6562Z" fill="#F2473A"/>
<path d="M41.6562 19.375C37.383 19.375 33.9062 15.8983 33.9062 11.625C33.9062 7.35172 37.383 3.875 41.6562 3.875C45.9295 3.875 49.4062 7.35172 49.4062 11.625C49.4062 15.8983 45.9295 19.375 41.6562 19.375ZM41.6562 5.8125C38.4506 5.8125 35.8438 8.41933 35.8438 11.625C35.8438 14.8307 38.4506 17.4375 41.6562 17.4375C44.8619 17.4375 47.4688 14.8307 47.4688 11.625C47.4688 8.41933 44.8619 5.8125 41.6562 5.8125Z" fill="#F2473A"/>
<path d="M61.0312 31H22.2812C21.7453 31 21.3125 30.5672 21.3125 30.0312V24.2188C21.3125 23.6828 21.7453 23.25 22.2812 23.25C22.8172 23.25 23.25 23.6828 23.25 24.2188V29.0625H60.0625V1.9375H23.25V20.3438C23.25 20.8797 22.8172 21.3125 22.2812 21.3125C21.7453 21.3125 21.3125 20.8797 21.3125 20.3438V0.96875C21.3125 0.432816 21.7453 0 22.2812 0H61.0312C61.5672 0 62 0.432816 62 0.96875V30.0312C62 30.5672 61.5672 31 61.0312 31Z" fill="#F2473A"/>
<path d="M4.84375 31C4.30782 31 3.875 30.5672 3.875 30.0312V25.1875C3.875 24.6516 4.30782 24.2188 4.84375 24.2188C5.37968 24.2188 5.8125 24.6516 5.8125 25.1875V30.0312C5.8125 30.5672 5.37968 31 4.84375 31Z" fill="#F2473A"/>
<path d="M8.71875 21.3145H4.84375C4.30782 21.3145 3.875 20.8816 3.875 20.3457C3.875 19.8102 4.30782 19.377 4.84375 19.377H8.71875C9.25468 19.377 9.6875 19.8102 9.6875 20.3457C9.6875 20.8816 9.25468 21.3145 8.71875 21.3145Z" fill="#F2473A"/>
<path d="M0.96875 25.1875C0.432816 25.1875 0 24.7547 0 24.2188C0 21.5481 2.17307 19.375 4.84375 19.375C5.37968 19.375 5.8125 19.8078 5.8125 20.3438C5.8125 20.8797 5.37968 21.3125 4.84375 21.3125C3.24162 21.3125 1.9375 22.6166 1.9375 24.2188C1.9375 24.7547 1.50468 25.1875 0.96875 25.1875Z" fill="#F2473A"/>
<path d="M0.96875 31C0.432816 31 0 30.5672 0 30.0312V24.2188C0 23.6828 0.432816 23.25 0.96875 23.25C1.50468 23.25 1.9375 23.6828 1.9375 24.2188V30.0312C1.9375 30.5672 1.50468 31 0.96875 31Z" fill="#F2473A"/>
<path d="M18.4062 31C17.8703 31 17.4375 30.5672 17.4375 30.0312V24.2188C17.4375 23.6828 17.8703 23.25 18.4062 23.25C18.9422 23.25 19.375 23.6828 19.375 24.2188V30.0312C19.375 30.5672 18.9422 31 18.4062 31Z" fill="#F2473A"/>
<path d="M23.25 25.1875H18.4062C17.8703 25.1875 17.4375 24.7547 17.4375 24.2188C17.4375 23.6828 17.8703 23.25 18.4062 23.25H23.25C23.7859 23.25 24.2188 23.6828 24.2188 24.2188C24.2188 24.7547 23.7859 25.1875 23.25 25.1875Z" fill="#F2473A"/>
<path d="M30.0312 18.4062C29.4953 18.4062 29.0625 17.9734 29.0625 17.4375C29.0625 16.903 28.6283 16.4688 28.0938 16.4688C27.5592 16.4688 27.125 16.903 27.125 17.4375C27.125 17.9734 26.6922 18.4062 26.1562 18.4062C25.6203 18.4062 25.1875 17.9734 25.1875 17.4375C25.1875 15.8354 26.4916 14.5312 28.0938 14.5312C29.6959 14.5312 31 15.8354 31 17.4375C31 17.9734 30.5672 18.4062 30.0312 18.4062Z" fill="#F2473A"/>
<path d="M23.25 25.1875C22.7141 25.1875 22.2812 24.7547 22.2812 24.2188C22.2812 23.6828 22.7141 23.25 23.25 23.25C26.4557 23.25 29.0625 20.6432 29.0625 17.4375C29.0625 16.9016 29.4953 16.4688 30.0312 16.4688C30.5672 16.4688 31 16.9016 31 17.4375C31 21.7108 27.5233 25.1875 23.25 25.1875Z" fill="#F2473A"/>
<path d="M23.25 21.3125C22.7141 21.3125 22.2812 20.8797 22.2812 20.3438C22.2812 19.8078 22.7141 19.375 23.25 19.375C24.3186 19.375 25.1875 18.5061 25.1875 17.4375C25.1875 16.9016 25.6203 16.4688 26.1562 16.4688C26.6922 16.4688 27.125 16.9016 27.125 17.4375C27.125 19.5746 25.3871 21.3125 23.25 21.3125Z" fill="#F2473A"/>
<path d="M59.0956 41.6572C58.5602 41.6572 58.1269 41.2244 58.1269 40.6884C58.1269 39.6189 57.257 38.75 56.1875 38.75C55.6516 38.75 55.2188 38.3172 55.2188 37.7812C55.2188 37.2453 55.6516 36.8125 56.1875 36.8125C58.3256 36.8125 60.0644 38.5513 60.0644 40.6884C60.0644 41.2244 59.6316 41.6572 59.0956 41.6572Z" fill="#F2473A"/>
<path d="M56.1875 38.75C55.6516 38.75 55.2188 38.3172 55.2188 37.7812V34.875C55.2188 34.3391 55.6516 33.9062 56.1875 33.9062C56.7234 33.9062 57.1562 34.3391 57.1562 34.875V37.7812C57.1562 38.3172 56.7234 38.75 56.1875 38.75Z" fill="#F2473A"/>
<path d="M45.5312 41.6562C44.9953 41.6562 44.5625 41.2234 44.5625 40.6875C44.5625 36.9492 47.6055 33.9062 51.3438 33.9062C51.8797 33.9062 52.3125 34.3391 52.3125 34.875C52.3125 35.4109 51.8797 35.8438 51.3438 35.8438C48.6731 35.8438 46.5 38.0168 46.5 40.6875C46.5 41.2234 46.0672 41.6562 45.5312 41.6562Z" fill="#F2473A"/>
<path d="M56.1875 35.8438H51.3438C50.8078 35.8438 50.375 35.4109 50.375 34.875C50.375 34.3391 50.8078 33.9062 51.3438 33.9062H56.1875C56.7234 33.9062 57.1562 34.3391 57.1562 34.875C57.1562 35.4109 56.7234 35.8438 56.1875 35.8438Z" fill="#F2473A"/>
<path d="M52.3124 50.3751C46.9317 50.3751 44.7544 46.1444 44.6641 45.9642C44.4247 45.486 44.6187 44.9037 45.0969 44.6643C45.5746 44.4278 46.155 44.618 46.3953 45.0933C46.4677 45.2338 48.1592 48.4376 52.3124 48.4376C56.509 48.4376 58.21 45.1312 58.2266 45.0985C58.4669 44.6198 59.0473 44.4278 59.5264 44.6653C60.0051 44.9046 60.1991 45.4869 59.9597 45.9656C59.8703 46.1444 57.693 50.3751 52.3124 50.3751Z" fill="#F2473A"/>
<path d="M45.5312 46.4999C44.9953 46.4999 44.5625 46.0671 44.5625 45.5311V40.6836C44.5625 40.1477 44.9953 39.7148 45.5312 39.7148C46.0672 39.7148 46.5 40.1477 46.5 40.6836V45.5311C46.5 46.0671 46.0672 46.4999 45.5312 46.4999Z" fill="#F2473A"/>
<path d="M59.0938 46.4999C58.5578 46.4999 58.125 46.0671 58.125 45.5311V40.6836C58.125 40.1477 58.5578 39.7148 59.0938 39.7148C59.6297 39.7148 60.0625 40.1477 60.0625 40.6836V45.5311C60.0625 46.0671 59.6297 46.4999 59.0938 46.4999Z" fill="#F2473A"/>
<path d="M43.5938 59.0889C43.0578 59.0889 42.625 58.6556 42.625 58.1201C42.625 55.984 44.3629 54.2461 46.5 54.2461C47.0359 54.2461 47.4688 54.6789 47.4688 55.2148C47.4688 55.7503 47.0359 56.1836 46.5 56.1836C45.4314 56.1836 44.5625 57.0516 44.5625 58.1201C44.5625 58.6556 44.1297 59.0889 43.5938 59.0889Z" fill="#F2473A"/>
<path d="M49.4062 56.1895H46.5C45.9641 56.1895 45.5312 55.7566 45.5312 55.2207C45.5312 54.6852 45.9641 54.252 46.5 54.252H49.4062C49.9422 54.252 50.375 54.6852 50.375 55.2207C50.375 55.7566 49.9422 56.1895 49.4062 56.1895Z" fill="#F2473A"/>
<path d="M43.5938 62.0001C43.0578 62.0001 42.625 61.5673 42.625 61.0313V58.1204C42.625 57.5844 43.0578 57.1516 43.5938 57.1516C44.1297 57.1516 44.5625 57.5844 44.5625 58.1204V61.0313C44.5625 61.5673 44.1297 62.0001 43.5938 62.0001Z" fill="#F2473A"/>
<path d="M61.0312 59.0889C60.4953 59.0889 60.0625 58.6556 60.0625 58.1201C60.0625 57.0516 59.1936 56.1836 58.125 56.1836C57.5891 56.1836 57.1562 55.7503 57.1562 55.2148C57.1562 54.6789 57.5891 54.2461 58.125 54.2461C60.2621 54.2461 62 55.984 62 58.1201C62 58.6556 61.5672 59.0889 61.0312 59.0889Z" fill="#F2473A"/>
<path d="M58.125 56.1895H55.2188C54.6828 56.1895 54.25 55.7566 54.25 55.2207C54.25 54.6852 54.6828 54.252 55.2188 54.252H58.125C58.6609 54.252 59.0938 54.6852 59.0938 55.2207C59.0938 55.7566 58.6609 56.1895 58.125 56.1895Z" fill="#F2473A"/>
<path d="M61.0312 62.0001C60.4953 62.0001 60.0625 61.5673 60.0625 61.0313V58.1204C60.0625 57.5844 60.4953 57.1516 61.0312 57.1516C61.5672 57.1516 62 57.5844 62 58.1204V61.0313C62 61.5673 61.5672 62.0001 61.0312 62.0001Z" fill="#F2473A"/>
<path d="M61.0312 62H43.5938C43.0578 62 42.625 61.5672 42.625 61.0312C42.625 60.4953 43.0578 60.0625 43.5938 60.0625H61.0312C61.5672 60.0625 62 60.4953 62 61.0312C62 61.5672 61.5672 62 61.0312 62Z" fill="#F2473A"/>
<path d="M49.4062 56.1893C48.8703 56.1893 48.4375 55.7565 48.4375 55.2206V51.6516C48.4375 51.1161 48.8703 50.6829 49.4062 50.6829C49.9422 50.6829 50.375 51.1161 50.375 51.6516V55.2206C50.375 55.7565 49.9422 56.1893 49.4062 56.1893Z" fill="#F2473A"/>
<path d="M55.2188 56.1827C54.6828 56.1827 54.25 55.7494 54.25 55.2139V51.6516C54.25 51.1161 54.6828 50.6829 55.2188 50.6829C55.7547 50.6829 56.1875 51.1161 56.1875 51.6516V55.2139C56.1875 55.7494 55.7547 56.1827 55.2188 56.1827Z" fill="#F2473A"/>
<path d="M52.3125 53.2738C48.0392 53.2738 44.5625 49.7975 44.5625 45.5266C44.5625 44.9907 44.9953 44.5579 45.5312 44.5579C46.0672 44.5579 46.5 44.9907 46.5 45.5266C46.5 48.7299 49.1068 51.3363 52.3125 51.3363C55.5182 51.3363 58.125 48.7299 58.125 45.5266C58.125 44.9907 58.5578 44.5579 59.0938 44.5579C59.6297 44.5579 60.0625 44.9907 60.0625 45.5266C60.0625 49.7975 56.5858 53.2738 52.3125 53.2738Z" fill="#F2473A"/>
<path d="M55.2188 56.1829H49.4062C48.8703 56.1829 48.4375 55.7496 48.4375 55.2141C48.4375 54.6782 48.8703 54.2454 49.4062 54.2454H55.2188C55.7547 54.2454 56.1875 54.6782 56.1875 55.2141C56.1875 55.7496 55.7547 56.1829 55.2188 56.1829Z" fill="#F2473A"/>
<path d="M9.68737 50.3751C4.30674 50.3751 2.12942 46.1444 2.03907 45.9642C1.79972 45.486 1.99366 44.9037 2.47189 44.6643C2.9487 44.4278 3.53004 44.618 3.77034 45.0933C3.84271 45.2338 5.53424 48.4376 9.68737 48.4376C13.884 48.4376 15.585 45.1312 15.6016 45.0985C15.8409 44.6198 16.4232 44.4278 16.9014 44.6653C17.3801 44.9046 17.5741 45.4869 17.3347 45.9656C17.2453 46.1444 15.068 50.3751 9.68737 50.3751Z" fill="#F2473A"/>
<path d="M2.90625 46.4999C2.37032 46.4999 1.9375 46.0671 1.9375 45.5311V41.6523C1.9375 41.1164 2.37032 40.6836 2.90625 40.6836C3.44218 40.6836 3.875 41.1164 3.875 41.6523V45.5311C3.875 46.0671 3.44218 46.4999 2.90625 46.4999Z" fill="#F2473A"/>
<path d="M16.4688 46.4999C15.9328 46.4999 15.5 46.0671 15.5 45.5311V41.6523C15.5 41.1164 15.9328 40.6836 16.4688 40.6836C17.0047 40.6836 17.4375 41.1164 17.4375 41.6523V45.5311C17.4375 46.0671 17.0047 46.4999 16.4688 46.4999Z" fill="#F2473A"/>
<path d="M0.96875 59.0889C0.432816 59.0889 0 58.6556 0 58.1201C0 55.984 1.73788 54.2461 3.875 54.2461C4.41093 54.2461 4.84375 54.6789 4.84375 55.2148C4.84375 55.7503 4.41093 56.1836 3.875 56.1836C2.80644 56.1836 1.9375 57.0516 1.9375 58.1201C1.9375 58.6556 1.50468 59.0889 0.96875 59.0889Z" fill="#F2473A"/>
<path d="M6.78125 56.1895H3.875C3.33907 56.1895 2.90625 55.7566 2.90625 55.2207C2.90625 54.6852 3.33907 54.252 3.875 54.252H6.78125C7.31718 54.252 7.75 54.6852 7.75 55.2207C7.75 55.7566 7.31718 56.1895 6.78125 56.1895Z" fill="#F2473A"/>
<path d="M0.96875 62.0001C0.432816 62.0001 0 61.5673 0 61.0313V58.1204C0 57.5844 0.432816 57.1516 0.96875 57.1516C1.50468 57.1516 1.9375 57.5844 1.9375 58.1204V61.0313C1.9375 61.5673 1.50468 62.0001 0.96875 62.0001Z" fill="#F2473A"/>
<path d="M18.4062 59.0889C17.8703 59.0889 17.4375 58.6556 17.4375 58.1201C17.4375 57.0516 16.5686 56.1836 15.5 56.1836C14.9641 56.1836 14.5312 55.7503 14.5312 55.2148C14.5312 54.6789 14.9641 54.2461 15.5 54.2461C17.6371 54.2461 19.375 55.984 19.375 58.1201C19.375 58.6556 18.9422 59.0889 18.4062 59.0889Z" fill="#F2473A"/>
<path d="M15.5 56.1895H12.5938C12.0578 56.1895 11.625 55.7566 11.625 55.2207C11.625 54.6852 12.0578 54.252 12.5938 54.252H15.5C16.0359 54.252 16.4688 54.6852 16.4688 55.2207C16.4688 55.7566 16.0359 56.1895 15.5 56.1895Z" fill="#F2473A"/>
<path d="M18.4062 62.0001C17.8703 62.0001 17.4375 61.5673 17.4375 61.0313V58.1204C17.4375 57.5844 17.8703 57.1516 18.4062 57.1516C18.9422 57.1516 19.375 57.5844 19.375 58.1204V61.0313C19.375 61.5673 18.9422 62.0001 18.4062 62.0001Z" fill="#F2473A"/>
<path d="M18.4062 62H0.96875C0.432816 62 0 61.5672 0 61.0312C0 60.4953 0.432816 60.0625 0.96875 60.0625H18.4062C18.9422 60.0625 19.375 60.4953 19.375 61.0312C19.375 61.5672 18.9422 62 18.4062 62Z" fill="#F2473A"/>
<path d="M6.78125 56.1893C6.24532 56.1893 5.8125 55.7565 5.8125 55.2206V51.6516C5.8125 51.1161 6.24532 50.6829 6.78125 50.6829C7.31718 50.6829 7.75 51.1161 7.75 51.6516V55.2206C7.75 55.7565 7.31718 56.1893 6.78125 56.1893Z" fill="#F2473A"/>
<path d="M12.5938 56.1827C12.0578 56.1827 11.625 55.7494 11.625 55.2139V51.6516C11.625 51.1161 12.0578 50.6829 12.5938 50.6829C13.1297 50.6829 13.5625 51.1161 13.5625 51.6516V55.2139C13.5625 55.7494 13.1297 56.1827 12.5938 56.1827Z" fill="#F2473A"/>
<path d="M9.6875 53.2738C5.41422 53.2738 1.9375 49.7975 1.9375 45.5266C1.9375 44.9907 2.37032 44.5579 2.90625 44.5579C3.44218 44.5579 3.875 44.9907 3.875 45.5266C3.875 48.7299 6.48183 51.3363 9.6875 51.3363C12.8932 51.3363 15.5 48.7299 15.5 45.5266C15.5 44.9907 15.9328 44.5579 16.4688 44.5579C17.0047 44.5579 17.4375 44.9907 17.4375 45.5266C17.4375 49.7975 13.9608 53.2738 9.6875 53.2738Z" fill="#F2473A"/>
<path d="M16.4688 42.6212C15.9328 42.6212 15.5 42.1879 15.5 41.6525C15.5 38.4487 12.8932 35.8438 9.6875 35.8438C6.48183 35.8438 3.875 38.4487 3.875 41.6525C3.875 42.1879 3.44218 42.6212 2.90625 42.6212C2.37032 42.6212 1.9375 42.1879 1.9375 41.6525C1.9375 37.3811 5.41422 33.9062 9.6875 33.9062C13.9608 33.9062 17.4375 37.3811 17.4375 41.6525C17.4375 42.1879 17.0047 42.6212 16.4688 42.6212Z" fill="#F2473A"/>
<path d="M12.5938 56.1829H6.78125C6.24532 56.1829 5.8125 55.7496 5.8125 55.2141C5.8125 54.6782 6.24532 54.2454 6.78125 54.2454H12.5938C13.1297 54.2454 13.5625 54.6782 13.5625 55.2141C13.5625 55.7496 13.1297 56.1829 12.5938 56.1829Z" fill="#F2473A"/>
<path d="M39.7188 53.2813C39.1828 53.2813 38.75 52.8485 38.75 52.3126V42.6658C38.75 42.1298 39.1828 41.697 39.7188 41.697C40.2547 41.697 40.6875 42.1298 40.6875 42.6658V52.3126C40.6875 52.8485 40.2547 53.2813 39.7188 53.2813Z" fill="#F2473A"/>
<path d="M39.7188 53.2812H22.2812C21.7453 53.2812 21.3125 52.8484 21.3125 52.3125C21.3125 51.7766 21.7453 51.3438 22.2812 51.3438H39.7188C40.2547 51.3438 40.6875 51.7766 40.6875 52.3125C40.6875 52.8484 40.2547 53.2812 39.7188 53.2812Z" fill="#F2473A"/>
<path d="M22.2812 53.2813C21.7453 53.2813 21.3125 52.8485 21.3125 52.3126V42.6658C21.3125 42.1298 21.7453 41.697 22.2812 41.697C22.8172 41.697 23.25 42.1298 23.25 42.6658V52.3126C23.25 52.8485 22.8172 53.2813 22.2812 53.2813Z" fill="#F2473A"/>
<path d="M39.7188 43.6345C39.1828 43.6345 38.75 43.2017 38.75 42.6658C38.75 38.3925 35.2733 34.9158 31 34.9158C26.7267 34.9158 23.25 38.3925 23.25 42.6658C23.25 43.2017 22.8172 43.6345 22.2812 43.6345C21.7453 43.6345 21.3125 43.2017 21.3125 42.6658C21.3125 37.3239 25.6582 32.9783 31 32.9783C36.3418 32.9783 40.6875 37.3239 40.6875 42.6658C40.6875 43.2017 40.2547 43.6345 39.7188 43.6345Z" fill="#F2473A"/>
<path d="M22.2812 59.0889C21.7453 59.0889 21.3125 58.6556 21.3125 58.1201C21.3125 55.984 23.0504 54.2461 25.1875 54.2461C25.7234 54.2461 26.1562 54.6789 26.1562 55.2148C26.1562 55.7503 25.7234 56.1836 25.1875 56.1836C24.1189 56.1836 23.25 57.0516 23.25 58.1201C23.25 58.6556 22.8172 59.0889 22.2812 59.0889Z" fill="#F2473A"/>
<path d="M28.0938 56.1895H25.1875C24.6516 56.1895 24.2188 55.7566 24.2188 55.2207C24.2188 54.6852 24.6516 54.252 25.1875 54.252H28.0938C28.6297 54.252 29.0625 54.6852 29.0625 55.2207C29.0625 55.7566 28.6297 56.1895 28.0938 56.1895Z" fill="#F2473A"/>
<path d="M22.2812 62.0001C21.7453 62.0001 21.3125 61.5673 21.3125 61.0313V58.1204C21.3125 57.5844 21.7453 57.1516 22.2812 57.1516C22.8172 57.1516 23.25 57.5844 23.25 58.1204V61.0313C23.25 61.5673 22.8172 62.0001 22.2812 62.0001Z" fill="#F2473A"/>
<path d="M39.7188 59.0889C39.1828 59.0889 38.75 58.6556 38.75 58.1201C38.75 57.0516 37.8811 56.1836 36.8125 56.1836C36.2766 56.1836 35.8438 55.7503 35.8438 55.2148C35.8438 54.6789 36.2766 54.2461 36.8125 54.2461C38.9496 54.2461 40.6875 55.984 40.6875 58.1201C40.6875 58.6556 40.2547 59.0889 39.7188 59.0889Z" fill="#F2473A"/>
<path d="M36.8125 56.1895H33.9062C33.3703 56.1895 32.9375 55.7566 32.9375 55.2207C32.9375 54.6852 33.3703 54.252 33.9062 54.252H36.8125C37.3484 54.252 37.7812 54.6852 37.7812 55.2207C37.7812 55.7566 37.3484 56.1895 36.8125 56.1895Z" fill="#F2473A"/>
<path d="M39.7188 62.0001C39.1828 62.0001 38.75 61.5673 38.75 61.0313V58.1204C38.75 57.5844 39.1828 57.1516 39.7188 57.1516C40.2547 57.1516 40.6875 57.5844 40.6875 58.1204V61.0313C40.6875 61.5673 40.2547 62.0001 39.7188 62.0001Z" fill="#F2473A"/>
<path d="M39.7188 62H22.2812C21.7453 62 21.3125 61.5672 21.3125 61.0312C21.3125 60.4953 21.7453 60.0625 22.2812 60.0625H39.7188C40.2547 60.0625 40.6875 60.4953 40.6875 61.0312C40.6875 61.5672 40.2547 62 39.7188 62Z" fill="#F2473A"/>
<path d="M28.0938 56.1893C27.5578 56.1893 27.125 55.7565 27.125 55.2206V53.5891C27.125 53.0536 27.5578 52.6204 28.0938 52.6204C28.6297 52.6204 29.0625 53.0536 29.0625 53.5891V55.2206C29.0625 55.7565 28.6297 56.1893 28.0938 56.1893Z" fill="#F2473A"/>
<path d="M33.9062 56.1827C33.3703 56.1827 32.9375 55.7494 32.9375 55.2139V53.5891C32.9375 53.0536 33.3703 52.6204 33.9062 52.6204C34.4422 52.6204 34.875 53.0536 34.875 53.5891V55.2139C34.875 55.7494 34.4422 56.1827 33.9062 56.1827Z" fill="#F2473A"/>
<path d="M30.9998 57.1514C30.8991 57.1514 30.7955 57.1349 30.6938 57.1008L27.7875 56.1321C27.2809 55.9637 27.0056 55.4154 27.175 54.9069C27.3448 54.3999 27.8873 54.1231 28.4006 54.2944L31.3068 55.2631C31.8134 55.432 32.0887 55.9802 31.9194 56.4887C31.7836 56.8946 31.4057 57.1514 30.9998 57.1514Z" fill="#F2473A"/>
<path d="M30.9999 57.1515C30.5941 57.1515 30.2161 56.8947 30.0813 56.4888C29.912 55.9813 30.1863 55.4321 30.6939 55.2632L33.6001 54.2945C34.1124 54.1232 34.6559 54.399 34.8257 54.907C34.9951 55.4146 34.7207 55.9638 34.2131 56.1322L31.3069 57.1009C31.2043 57.1359 31.1007 57.1515 30.9999 57.1515Z" fill="#F2473A"/>
<path d="M4.84375 12.5937C4.30782 12.5937 3.875 12.1609 3.875 11.625V8.84644C3.875 8.31097 4.30782 7.87769 4.84375 7.87769C5.37968 7.87769 5.8125 8.31097 5.8125 8.84644V11.625C5.8125 12.1609 5.37968 12.5937 4.84375 12.5937Z" fill="#F2473A"/>
<path d="M18.4062 12.5937C17.8703 12.5937 17.4375 12.1609 17.4375 11.625V8.2334C17.4375 7.69746 17.8703 7.26465 18.4062 7.26465C18.9422 7.26465 19.375 7.69746 19.375 8.2334V11.625C19.375 12.1609 18.9422 12.5937 18.4062 12.5937Z" fill="#F2473A"/>
<path d="M18.4062 9.20218C17.8703 9.20218 17.4375 8.76889 17.4375 8.23343C17.4375 4.76144 14.6126 1.9375 11.1397 1.9375C7.66769 1.9375 4.84375 4.76144 4.84375 8.23343C4.84375 8.76889 4.41093 9.20218 3.875 9.20218C3.33907 9.20218 2.90625 8.76889 2.90625 8.23343C2.90625 3.69383 6.60008 0 11.1397 0C15.6812 0 19.375 3.69383 19.375 8.23343C19.375 8.76889 18.9422 9.20218 18.4062 9.20218Z" fill="#F2473A"/>
<path d="M18.4067 10.5303C18.1153 10.5303 17.8273 10.3993 17.6366 10.1505C15.7658 7.70731 15.2583 7.90882 13.3605 8.66045C11.5422 9.38229 8.79207 10.4721 3.72364 9.66988C3.19527 9.58663 2.83388 9.09138 2.91855 8.56254C3.00181 8.03465 3.4947 7.67042 4.02685 7.75745C8.57117 8.47266 10.9278 7.54176 12.6477 6.85966C14.983 5.93348 16.5487 5.54324 19.1749 8.97265C19.5004 9.39695 19.4199 10.0053 18.9947 10.3307C18.8192 10.4655 18.612 10.5303 18.4067 10.5303Z" fill="#F2473A"/>
<path d="M14.5298 8.21107C14.3874 8.21107 14.2413 8.17891 14.1036 8.11127C13.624 7.8757 13.4263 7.29436 13.6618 6.81518L15.5993 2.87112C15.834 2.39053 16.412 2.19234 16.8964 2.42837C17.376 2.66394 17.5737 3.24528 17.3382 3.72493L15.4007 7.66852C15.2323 8.0124 14.8874 8.21107 14.5298 8.21107Z" fill="#F2473A"/>
<path d="M23.25 21.3126L14.5303 21.3079C13.9953 21.3079 13.5625 20.8736 13.5625 20.3382C13.5625 19.8032 13.9967 19.3704 14.5312 19.3704H14.5322L23.2509 19.3751C23.7859 19.3751 24.2188 19.8093 24.2188 20.3448C24.2188 20.8798 23.7845 21.3126 23.25 21.3126Z" fill="#F2473A"/>
<path d="M8.71875 21.3143C8.18282 21.3143 7.75 20.8815 7.75 20.3456V17.7454C7.75 17.2099 8.18282 16.7766 8.71875 16.7766C9.25468 16.7766 9.6875 17.2099 9.6875 17.7454V20.3456C9.6875 20.8815 9.25468 21.3143 8.71875 21.3143Z" fill="#F2473A"/>
<path d="M14.5312 21.3077C13.9953 21.3077 13.5625 20.8744 13.5625 20.3389V17.7454C13.5625 17.2099 13.9953 16.7766 14.5312 16.7766C15.0672 16.7766 15.5 17.2099 15.5 17.7454V20.3389C15.5 20.8744 15.0672 21.3077 14.5312 21.3077Z" fill="#F2473A"/>
<path d="M11.625 19.3675C7.35172 19.3675 3.875 15.8913 3.875 11.6204C3.875 11.0844 4.30782 10.6516 4.84375 10.6516C5.37968 10.6516 5.8125 11.0844 5.8125 11.6204C5.8125 14.8237 8.41933 17.43 11.625 17.43C14.8307 17.43 17.4375 14.8237 17.4375 11.6204C17.4375 11.0844 17.8703 10.6516 18.4062 10.6516C18.9422 10.6516 19.375 11.0844 19.375 11.6204C19.375 15.8913 15.8983 19.3675 11.625 19.3675Z" fill="#F2473A"/>
<path d="M9.68832 22.2766C9.33261 22.2766 8.99061 22.0808 8.82032 21.7407C8.58097 21.2625 8.77491 20.6802 9.25314 20.4408L11.1906 19.4721C11.6693 19.2346 12.2516 19.4267 12.491 19.9049C12.7303 20.3836 12.5364 20.9659 12.0577 21.2052L10.1202 22.174C9.98207 22.2435 9.83354 22.2766 9.68832 22.2766Z" fill="#F2473A"/>
<path d="M13.5629 22.2765C13.315 22.2765 13.0667 22.1814 12.8779 21.9927C12.499 21.6138 12.499 21.0017 12.8779 20.6228L13.8467 19.654C14.2256 19.2752 14.8377 19.2752 15.2165 19.654C15.5954 20.0329 15.5954 20.645 15.2165 21.0239L14.2478 21.9927C14.0591 22.1814 13.8107 22.2765 13.5629 22.2765Z" fill="#F2473A"/>
<path d="M9.68786 22.2765C9.43999 22.2765 9.19165 22.1814 9.00292 21.9927L8.03417 21.0239C7.65528 20.645 7.65528 20.0329 8.03417 19.654C8.41306 19.2752 9.02515 19.2752 9.40404 19.654L10.3728 20.6228C10.7517 21.0017 10.7517 21.6138 10.3728 21.9927C10.1841 22.1814 9.93572 22.2765 9.68786 22.2765Z" fill="#F2473A"/>
<path d="M13.5614 22.2764C13.4162 22.2764 13.2677 22.2433 13.1296 22.1747L11.1921 21.206C10.7134 20.9666 10.5194 20.3843 10.7588 19.9056C10.9991 19.4274 11.5814 19.2354 12.0591 19.4728L13.9966 20.4416C14.4749 20.6809 14.6688 21.2632 14.4294 21.7414C14.2592 22.0806 13.9172 22.2764 13.5614 22.2764Z" fill="#F2473A"/>
<path d="M3.875 9.68274C3.33907 9.68274 2.90625 9.24945 2.90625 8.71399V8.2334C2.90625 7.69746 3.33907 7.26465 3.875 7.26465C4.41093 7.26465 4.84375 7.69746 4.84375 8.2334V8.71399C4.84375 9.24945 4.41093 9.68274 3.875 9.68274Z" fill="#F2473A"/>
</svg>
