<svg width="18" height="20" viewBox="0 0 18 20" fill="none" xmlns="http://www.w3.org/2000/svg">
<g clip-path="url(#clip0)">
<path d="M13.0891 7.2043C14.3777 8.12498 15.9564 8.6667 17.6614 8.6667V5.38745C17.3387 5.38752 17.0168 5.35389 16.7011 5.28704V7.86827C14.9963 7.86827 13.4179 7.32656 12.1289 6.40594V13.0979C12.1289 16.4456 9.41368 19.1592 6.0645 19.1592C4.81485 19.1592 3.65334 18.7816 2.68848 18.134C3.78971 19.2594 5.32546 19.9576 7.0245 19.9576C10.3739 19.9576 13.0892 17.244 13.0892 13.8961V7.2043H13.0891ZM14.2736 3.89594C13.6151 3.17683 13.1827 2.24752 13.0891 1.22012V0.79834H12.1792C12.4082 2.10416 13.1894 3.21978 14.2736 3.89594ZM4.80683 15.5651C4.43889 15.0829 4.24005 14.4931 4.24094 13.8866C4.24094 12.3555 5.48286 11.114 7.01505 11.114C7.3006 11.114 7.58444 11.1577 7.85656 11.244V7.89142C7.53855 7.84786 7.21759 7.82937 6.89676 7.83615V10.4456C6.62444 10.3593 6.34046 10.3155 6.05485 10.3157C4.52265 10.3157 3.28081 11.557 3.28081 13.0883C3.28081 14.1711 3.90156 15.1085 4.80683 15.5651Z" fill="#FF004F"/>
<path d="M12.1293 6.40587C13.4183 7.32649 14.9967 7.8682 16.7015 7.8682V5.28697C15.7499 5.08437 14.9074 4.58731 14.274 3.89594C13.1898 3.21971 12.4086 2.10409 12.1796 0.79834H9.78942V13.896C9.78401 15.4229 8.54422 16.6593 7.01531 16.6593C6.11435 16.6593 5.31394 16.2301 4.80702 15.5651C3.90182 15.1085 3.28107 14.171 3.28107 13.0884C3.28107 11.5572 4.52291 10.3158 6.05511 10.3158C6.34867 10.3158 6.63161 10.3615 6.89702 10.4457V7.83622C3.60668 7.90416 0.960449 10.5913 0.960449 13.8961C0.960449 15.5458 1.61942 17.0414 2.68894 18.1341C3.65381 18.7816 4.81531 19.1593 6.06497 19.1593C9.41422 19.1593 12.1294 16.4455 12.1294 13.0979V6.40587H12.1293Z" fill="white"/>
<path d="M16.7012 5.28692V4.58897C15.8431 4.59027 15.0018 4.35007 14.2737 3.89582C14.9182 4.6011 15.7669 5.0874 16.7012 5.28692ZM12.1792 0.798288C12.1574 0.673493 12.1406 0.547877 12.129 0.421781V0H8.82884V13.0978C8.82356 14.6245 7.58384 15.8609 6.05479 15.8609C5.60589 15.8609 5.18205 15.7544 4.80671 15.5651C5.31363 16.23 6.11404 16.6592 7.015 16.6592C8.54377 16.6592 9.78377 15.4229 9.78911 13.896V0.798288H12.1792ZM6.89685 7.83616V7.09315C6.6211 7.05548 6.34308 7.03658 6.06473 7.03671C2.71521 7.03664 0 9.75041 0 13.0978C0 15.1964 1.06712 17.046 2.6887 18.1339C1.61918 17.0412 0.960205 15.5456 0.960205 13.896C0.960205 10.5912 3.60637 7.90411 6.89685 7.83616Z" fill="#00F2EA"/>
</g>
<defs>
<clipPath id="clip0">
<rect width="17.6712" height="20" fill="white"/>
</clipPath>
</defs>
</svg>
