<svg width="20" height="17" viewBox="0 0 20 17" fill="none" xmlns="http://www.w3.org/2000/svg">
<path d="M20 2.42668C19.2563 2.75293 18.4637 2.96918 17.6375 3.07418C18.4875 2.56668 19.1363 1.76918 19.4412 0.80793C18.6488 1.28043 17.7738 1.61418 16.8412 1.80043C16.0887 0.99918 15.0162 0.50293 13.8462 0.50293C11.5763 0.50293 9.74875 2.34543 9.74875 4.60418C9.74875 4.92918 9.77625 5.24168 9.84375 5.53918C6.435 5.37293 3.41875 3.73918 1.3925 1.25043C1.03875 1.86418 0.83125 2.56668 0.83125 3.32293C0.83125 4.74293 1.5625 6.00168 2.6525 6.73043C1.99375 6.71793 1.3475 6.52668 0.8 6.22543C0.8 6.23793 0.8 6.25418 0.8 6.27043C0.8 8.26293 2.22125 9.91793 4.085 10.2992C3.75125 10.3904 3.3875 10.4342 3.01 10.4342C2.7475 10.4342 2.4825 10.4192 2.23375 10.3642C2.765 11.9879 4.2725 13.1817 6.065 13.2204C4.67 14.3117 2.89875 14.9692 0.98125 14.9692C0.645 14.9692 0.3225 14.9542 0 14.9129C1.81625 16.0842 3.96875 16.7529 6.29 16.7529C13.835 16.7529 17.96 10.5029 17.96 5.08543C17.96 4.90418 17.9538 4.72918 17.945 4.55543C18.7588 3.97793 19.4425 3.25668 20 2.42668Z" fill="#03A9F4"/>
</svg>
