<svg width="29" height="29" viewBox="0 0 29 29" fill="none" xmlns="http://www.w3.org/2000/svg">
<path d="M11.4792 14.5C14.1447 14.5 16.3125 12.3323 16.3125 9.66668C16.3125 7.00109 14.1447 4.83334 11.4792 4.83334C8.81357 4.83334 6.64582 7.00109 6.64582 9.66668C6.64582 12.3323 8.81357 14.5 11.4792 14.5ZM13.2917 15.7083H9.66666C5.66828 15.7083 2.41666 18.96 2.41666 22.9583V24.1667H20.5417V22.9583C20.5417 18.96 17.29 15.7083 13.2917 15.7083Z" fill="#F2473A"/>
<path d="M20.0631 13.3497C20.7991 12.0955 21.1169 10.6398 20.9706 9.193C20.7543 7.03734 19.5508 5.13179 17.5836 3.828L16.2484 5.84109C17.6006 6.73767 18.4234 8.01488 18.566 9.43467C18.6318 10.0945 18.5496 10.7608 18.3255 11.3849C18.1015 12.009 17.7411 12.5754 17.2707 13.0428L15.8304 14.4831L17.7854 15.057C22.8991 16.5554 22.9583 21.698 22.9583 21.75H25.375C25.375 19.5883 24.2198 15.364 20.0631 13.3497Z" fill="#F2473A"/>
</svg>
