<svg width="50" height="50" viewBox="0 0 50 50" fill="none" xmlns="http://www.w3.org/2000/svg">
<g clip-path="url(#clip0)">
<path d="M49.2665 41.1839H48.0523V15.331C48.0523 12.6884 45.9023 10.5383 43.2595 10.5383H37.8009C37.3957 10.5383 37.0674 10.8666 37.0674 11.2718C37.0674 11.677 37.3957 12.0053 37.8009 12.0053H43.2595C45.0934 12.0053 46.5853 13.4973 46.5853 15.331V41.1839H30.1888C29.6883 41.1839 29.2213 41.4308 28.9398 41.8446L28.7198 42.1678C28.5154 42.4682 28.1766 42.6474 27.8132 42.6474H22.0889C21.7255 42.6474 21.3867 42.4682 21.1823 42.1678L20.9624 41.8447C20.6809 41.431 20.214 41.1839 19.7134 41.1839H3.4147V15.331C3.4147 13.4973 4.90664 12.0053 6.74049 12.0053H11.4646C11.8698 12.0053 12.1981 11.677 12.1981 11.2718C12.1981 10.8666 11.8698 10.5383 11.4646 10.5383H6.74049C4.09783 10.5383 1.94769 12.6883 1.94769 15.331V41.1839H0.733502C0.328316 41.1839 0 41.5122 0 41.9174V43.4445C0 46.2055 2.24628 48.4518 5.00728 48.4518H44.9927C47.7537 48.4518 50 46.2055 50 43.4445V41.9174C50 41.5122 49.6717 41.1839 49.2665 41.1839ZM48.533 43.4445C48.533 45.3966 46.9448 46.9848 44.9927 46.9848H5.00728C3.05518 46.9848 1.467 45.3966 1.467 43.4445V42.6509H19.7134C19.7279 42.6509 19.7414 42.6579 19.7496 42.6699L19.9695 42.9932C20.4474 43.6953 21.2396 44.1144 22.0889 44.1144H27.8132C28.6625 44.1144 29.4547 43.6953 29.9326 42.9932L30.1525 42.6699L30.1526 42.6698C30.1607 42.6579 30.1742 42.6509 30.1887 42.6509H48.5329V43.4445H48.533Z" fill="#F2473A"/>
<path d="M5.07739 38.7877C5.07739 39.1929 5.40571 39.5212 5.81089 39.5212H44.1893C44.5945 39.5212 44.9228 39.1929 44.9228 38.7877V15.331C44.9228 14.414 44.1767 13.6678 43.2596 13.6678H37.801C37.3958 13.6678 37.0675 13.9962 37.0675 14.4013C37.0675 14.8065 37.3958 15.1349 37.801 15.1349H43.2596C43.3678 15.1349 43.4558 15.2228 43.4558 15.331V38.0542H32.8155V35.0594C32.8155 33.4667 32.1953 31.9694 31.0691 30.8431L30.1141 29.8881C30.4528 29.3627 30.7152 28.7796 30.8812 28.1508C30.9846 27.7591 30.7508 27.3578 30.3592 27.2544C29.9673 27.1513 29.5663 27.3847 29.4627 27.7764C29.2927 28.4203 28.9903 29.002 28.59 29.4963C28.5871 29.4999 28.5842 29.5033 28.5813 29.5067C27.7246 30.5584 26.4223 31.2105 25.0001 31.2105C22.4549 31.2105 20.3842 29.1398 20.3842 26.5946C20.3842 24.0494 22.4549 21.9787 25.0001 21.9787C26.9641 21.9787 28.7164 23.2252 29.3606 25.0805C29.4934 25.463 29.9108 25.6657 30.2941 25.5328C30.6768 25.4 30.8793 24.982 30.7464 24.5993C29.8975 22.1544 27.5883 20.5117 25.0001 20.5117C21.6459 20.5117 18.9172 23.2404 18.9172 26.5946C18.9172 27.8067 19.275 28.9362 19.8885 29.8858L18.9311 30.8431C17.8048 31.9695 17.1847 33.4667 17.1847 35.0594V38.0542H6.5444V35.367C6.5444 34.9618 6.21608 34.6335 5.81089 34.6335C5.40571 34.6335 5.07739 34.9618 5.07739 35.367V38.7877ZM18.6517 35.0593C18.6517 33.8585 19.1194 32.7296 19.9686 31.8804L20.8311 31.0179C21.9208 32.0456 23.3877 32.6774 25.0001 32.6774C26.5923 32.6774 28.0701 32.0566 29.1714 31.0201L30.0317 31.8803C30.8809 32.7295 31.3486 33.8584 31.3486 35.0592V38.0541H18.6517V35.0593Z" fill="#F2473A"/>
<path d="M5.81089 32.9719C6.21608 32.9719 6.5444 32.6436 6.5444 32.2384V15.331C6.5444 15.2229 6.63232 15.1349 6.74049 15.1349H11.4647C11.8699 15.1349 12.1982 14.8065 12.1982 14.4013C12.1982 13.9962 11.8699 13.6678 11.4647 13.6678H6.74049C5.82341 13.6678 5.07739 14.414 5.07739 15.331V32.2384C5.07739 32.6435 5.40571 32.9719 5.81089 32.9719Z" fill="#F2473A"/>
<path d="M16.8537 18.9615H32.4115C34.1699 18.9615 35.6002 17.531 35.6002 15.7728V4.737C35.6002 2.97864 34.1698 1.54822 32.4115 1.54822H16.8537C15.0954 1.54822 13.665 2.97874 13.665 4.737V6.27314C13.665 6.67833 13.9934 7.00665 14.3985 7.00665C14.8037 7.00665 15.132 6.67833 15.132 6.27314V4.737C15.132 3.78755 15.9044 3.01522 16.8537 3.01522H32.4115C33.3609 3.01522 34.1332 3.78755 34.1332 4.737V15.7728C34.1332 16.7221 33.3609 17.4945 32.4115 17.4945H16.8537C15.9044 17.4945 15.132 16.7221 15.132 15.7728V9.40168C15.132 8.99649 14.8037 8.66818 14.3985 8.66818C13.9934 8.66818 13.665 8.99649 13.665 9.40168V15.7728C13.665 17.531 15.0955 18.9615 16.8537 18.9615Z" fill="#F2473A"/>
<path d="M22.6743 14.8013C23.0038 14.8013 23.3332 14.7133 23.6328 14.5374L28.1444 11.8866C28.7291 11.5429 29.0782 10.9329 29.0782 10.2547C29.0782 9.57645 28.729 8.96647 28.1444 8.623L23.6327 5.97222C23.0403 5.62415 22.3304 5.62004 21.734 5.96146C21.1375 6.30279 20.7815 6.91687 20.7815 7.60402V12.9056C20.7815 13.5927 21.1376 14.2069 21.734 14.5482C22.0289 14.7169 22.3517 14.8013 22.6743 14.8013ZM22.2484 7.60392C22.2484 7.38123 22.3981 7.2715 22.4625 7.23463C22.5013 7.21243 22.5787 7.17683 22.6763 7.17683C22.7403 7.17683 22.8132 7.19228 22.8895 7.23707L27.4012 9.88785C27.5907 9.99915 27.6111 10.1814 27.6111 10.2546C27.6111 10.3279 27.5906 10.5102 27.4011 10.6215L22.8896 13.2723C22.6974 13.3852 22.527 13.3115 22.4627 13.2748C22.3982 13.2379 22.2485 13.1281 22.2485 12.9054V7.60392H22.2484Z" fill="#F2473A"/>
</g>
<defs>
<clipPath id="clip0">
<rect width="50" height="50" fill="white"/>
</clipPath>
</defs>
</svg>
