<svg width="45" height="50" viewBox="0 0 45 50" fill="none" xmlns="http://www.w3.org/2000/svg">
<path fill-rule="evenodd" clip-rule="evenodd" d="M43.0537 20.1832H9.73611L41.738 10.9127C41.9867 10.8406 42.1965 10.6724 42.3216 10.4458C42.4468 10.2188 42.4765 9.95178 42.4044 9.70306L40.7298 3.92189C40.0607 1.61285 37.9107 0 35.5013 0C34.9936 0 34.4878 0.0720978 33.9972 0.214004L3.95074 8.918C2.56105 9.32045 1.40939 10.2444 0.707106 11.5189C0.00520142 12.7934 -0.159593 14.2609 0.242857 15.6502L1.87898 21.2982V44.5652C1.87898 47.562 4.31695 50 7.3134 50H19.0482C19.5876 50 20.0247 49.5628 20.0247 49.0234C20.0247 48.484 19.5876 48.0469 19.0482 48.0469H7.31378C5.39384 48.0469 3.83211 46.4851 3.83211 44.5652V31.2756H8.83508H8.83737H8.83928H16.487H16.4893H16.4916H24.1393H24.1416H24.1438H31.7915H31.7938H31.7957H42.0771V44.5652C42.0771 46.4851 40.5154 48.0469 38.5954 48.0469H26.8607C26.3217 48.0469 25.8841 48.484 25.8841 49.0234C25.8841 49.5628 26.3217 50 26.8607 50H38.5954C41.5923 50 44.0302 47.562 44.0302 44.5652V21.1597C44.0302 20.6203 43.5931 20.1832 43.0537 20.1832ZM25.8338 29.3224L29.983 22.1363H35.3797L31.2308 29.3224H25.8338ZM18.1815 29.3224L22.3307 22.1363H27.7274L23.5785 29.3224H18.1815ZM10.5296 29.3224L14.6784 22.1363H20.0755L15.9262 29.3224H10.5296ZM14.1604 16.6801L7.21231 10.0067L12.4182 8.49876C12.4548 8.55217 12.4976 8.60252 12.5464 8.64944L19.4945 15.3229L14.2886 16.8308C14.252 16.7774 14.2088 16.7267 14.1604 16.6801ZM27.2463 4.3911L34.1944 11.0645L28.9885 12.5725C28.9519 12.5191 28.9092 12.4683 28.8603 12.4218L21.9122 5.74837L27.1182 4.24042C27.1548 4.29382 27.1975 4.34418 27.2463 4.3911ZM19.8962 6.52046L26.8443 13.1935L21.6383 14.7018C21.6017 14.6484 21.559 14.5977 21.5102 14.5512L14.5621 7.87773L19.768 6.36978C19.805 6.42281 19.8477 6.47354 19.8962 6.52046ZM34.5408 2.09007C34.8544 1.99928 35.1775 1.95312 35.5013 1.95312C37.0467 1.95312 38.4249 2.98615 38.8537 4.46548L40.2567 9.30824L36.3387 10.4431C36.3017 10.3897 36.2589 10.3394 36.2101 10.2924L29.2624 3.61938L34.5408 2.09007ZM2.418 12.4611C2.86813 11.6436 3.60551 11.0516 4.49434 10.7941L5.06807 10.6277C5.10507 10.6812 5.14779 10.7319 5.19624 10.7784L12.1443 17.4519L3.52197 19.9497L2.11893 15.107C1.86143 14.2185 1.96786 13.279 2.418 12.4611ZM3.83211 22.1363H12.4232L8.27432 29.3224H3.83211V22.1363ZM33.486 29.3224L37.6349 22.1363H42.0771V29.3224H33.486Z" fill="#F2473A"/>
<path fill-rule="evenodd" clip-rule="evenodd" d="M29.7071 39.5618C29.7071 39.2128 29.5209 38.8904 29.2188 38.7161L20.6392 33.7627C20.337 33.5884 19.9647 33.5884 19.6626 33.7627C19.3605 33.937 19.1743 34.2594 19.1743 34.6084V44.5152C19.1743 44.8639 19.3605 45.1862 19.6626 45.3605C19.8137 45.4479 19.9823 45.4918 20.1509 45.4918C20.3195 45.4918 20.4881 45.4479 20.6392 45.3605L29.2188 40.4075C29.5209 40.2332 29.7071 39.9109 29.7071 39.5618ZM21.1274 42.8238V36.2999L26.7774 39.5618L21.1274 42.8238Z" fill="#F2473A"/>
<path fill-rule="evenodd" clip-rule="evenodd" d="M22.9541 48.0469C22.4162 48.0469 21.9775 48.4856 21.9775 49.0234C21.9775 49.5613 22.4162 50 22.9541 50C23.4924 50 23.9307 49.5613 23.9307 49.0234C23.9307 48.4856 23.4924 48.0469 22.9541 48.0469Z" fill="#F2473A"/>
</svg>
