<svg width="15" height="11" viewBox="0 0 15 11" fill="none" xmlns="http://www.w3.org/2000/svg">
<path d="M9.84375 5.5C9.84375 6.1216 9.59682 6.71774 9.15728 7.15728C8.71774 7.59682 8.1216 7.84375 7.5 7.84375C6.8784 7.84375 6.28226 7.59682 5.84272 7.15728C5.40318 6.71774 5.15625 6.1216 5.15625 5.5C5.15625 4.8784 5.40318 4.28226 5.84272 3.84272C6.28226 3.40318 6.8784 3.15625 7.5 3.15625C8.1216 3.15625 8.71774 3.40318 9.15728 3.84272C9.59682 4.28226 9.84375 4.8784 9.84375 5.5Z" fill="#F2473A"/>
<path d="M0 5.5C0 5.5 2.8125 0.34375 7.5 0.34375C12.1875 0.34375 15 5.5 15 5.5C15 5.5 12.1875 10.6562 7.5 10.6562C2.8125 10.6562 0 5.5 0 5.5ZM7.5 8.78125C8.37024 8.78125 9.20484 8.43555 9.82019 7.82019C10.4355 7.20484 10.7812 6.37024 10.7812 5.5C10.7812 4.62976 10.4355 3.79516 9.82019 3.17981C9.20484 2.56445 8.37024 2.21875 7.5 2.21875C6.62976 2.21875 5.79516 2.56445 5.17981 3.17981C4.56445 3.79516 4.21875 4.62976 4.21875 5.5C4.21875 6.37024 4.56445 7.20484 5.17981 7.82019C5.79516 8.43555 6.62976 8.78125 7.5 8.78125Z" fill="#F2473A"/>
</svg>
