<svg width="66" height="70" viewBox="0 0 66 70" fill="none" xmlns="http://www.w3.org/2000/svg">
<path d="M28.4717 19.0381C29.038 19.0381 29.4971 18.5791 29.4971 18.0127V16.8802C29.4971 16.3138 29.038 15.8549 28.4717 15.8549C27.9053 15.8549 27.4463 16.3138 27.4463 16.8802V18.0127C27.4463 18.5791 27.9053 19.0381 28.4717 19.0381Z" fill="#F2473A"/>
<path d="M37.5312 19.0381C38.0975 19.0381 38.5566 18.5791 38.5566 18.0127V16.8802C38.5566 16.3138 38.0975 15.8549 37.5312 15.8549C36.9648 15.8549 36.5059 16.3138 36.5059 16.8802V18.0127C36.5059 18.5791 36.9648 19.0381 37.5312 19.0381Z" fill="#F2473A"/>
<path d="M30.7363 26.8241H35.2664C35.8327 26.8241 36.2918 26.3651 36.2918 25.7987C36.2918 25.2323 35.8327 24.7733 35.2664 24.7733H30.7363C30.1699 24.7733 29.7109 25.2323 29.7109 25.7987C29.7109 26.3651 30.17 26.8241 30.7363 26.8241Z" fill="#F2473A"/>
<path d="M65.3475 62.6288C65.3457 62.6244 65.3441 62.6202 65.3422 62.6158L63.1137 57.2563C63.1123 57.2529 63.1109 57.2495 63.1094 57.2462L58.5455 46.2705C57.5126 43.6934 55.6525 41.7348 53.2895 40.7185C52.2746 39.3747 50.6645 38.5044 48.8544 38.5044H46.4538C45.8874 38.5044 45.4284 38.9633 45.4284 39.5298C45.4284 40.0962 45.8874 40.5552 46.4538 40.5552H48.8544C50.7868 40.5552 52.359 42.1273 52.359 44.0597V63.4192H13.6403V44.0598C13.6403 42.1274 15.2125 40.5553 17.1448 40.5553H42.3524C42.9188 40.5553 43.3778 40.0963 43.3778 39.5299C43.3778 38.9635 42.9188 38.5045 42.3524 38.5045H40.8185V33.2306C43.3362 31.1674 45.0267 28.1307 45.3099 24.701H46.5924C48.4068 24.701 49.8827 23.225 49.8827 21.4107V16.8803C49.8827 15.0659 48.4067 13.59 46.5924 13.59H45.3528V12.3557C45.3528 12.3539 45.3531 12.3521 45.3531 12.3504C45.3531 12.3486 45.3528 12.3468 45.3528 12.345V6.68787C45.3528 3.00016 42.3525 0 38.6649 0H27.3402C23.6525 0 20.6524 3.00016 20.6524 6.68787V12.3468C20.6524 12.348 20.6522 12.3491 20.6522 12.3504C20.6522 12.3516 20.6524 12.3527 20.6524 12.3539V13.5901H19.4127C17.5983 13.5901 16.1225 15.0663 16.1225 16.8805V21.4103C16.1225 23.2247 17.5985 24.7007 19.4127 24.7007H20.6953C20.9783 28.1284 22.6668 31.1634 25.182 33.2266V38.5044H17.1447C15.3343 38.5044 13.7239 39.3751 12.709 40.7195C10.3468 41.736 8.4874 43.6941 7.45504 46.2708L2.89137 57.2458C2.88986 57.2495 2.88836 57.2532 2.88672 57.2569L0.65834 62.6158C0.656426 62.6201 0.654786 62.6246 0.653008 62.6288C0.0030472 64.2538 0.182832 66.1047 1.13398 67.5799C2.07338 69.0371 3.59465 69.9172 5.30787 69.9943C5.33604 69.9955 5.39387 69.9981 11.4712 69.9997C11.4748 69.9997 11.4785 70 11.4822 70H12.6144H12.6147H16.2262C16.7927 70 17.2516 69.541 17.2516 68.9746C17.2516 68.4082 16.7927 67.9492 16.2262 67.9492H12.6149C12.3047 67.9492 11.9138 67.9491 11.4765 67.9489C10.7956 67.9458 10.2426 67.3913 10.2426 66.7097V65.5771C10.2426 65.5181 10.2907 65.4701 10.3497 65.4701H12.6147H53.3841H55.6491C55.7081 65.4701 55.7561 65.5182 55.7561 65.5771V66.7097C55.7561 67.3913 55.2031 67.9459 54.5221 67.9489C54.0853 67.9491 53.6951 67.9492 53.3852 67.9492H20.3279C19.7615 67.9492 19.3025 68.4082 19.3025 68.9746C19.3025 69.541 19.7615 70 20.3279 70H53.3858H53.3861H54.5169C54.5206 70 54.5243 69.9997 54.528 69.9997C60.6068 69.9981 60.6646 69.9955 60.6932 69.9943C62.406 69.9172 63.9273 69.0371 64.8667 67.5799C65.8177 66.1047 65.9975 64.2538 65.3475 62.6288ZM46.5924 15.6406C47.2759 15.6406 47.8319 16.1967 47.8319 16.8801V21.4106C47.8319 22.094 47.2759 22.6501 46.5924 22.6501H45.3528V15.6406H46.5924ZM27.3402 2.05078H38.6649C41.2218 2.05078 43.302 4.13096 43.302 6.68787V11.325H42.0614C41.378 11.325 40.8219 10.7689 40.8219 10.0853V8.8457H40.9293C41.4957 8.8457 41.9547 8.38674 41.9547 7.82031C41.9547 7.25389 41.4957 6.79492 40.9293 6.79492H25.0743C24.5078 6.79492 24.0489 7.25389 24.0489 7.82031C24.0489 8.38674 24.5078 8.8457 25.0743 8.8457H25.1812V10.0852C25.1812 10.7688 24.6251 11.3248 23.9415 11.3248H22.7031V6.68773C22.7031 4.13096 24.7832 2.05078 27.3402 2.05078ZM18.1732 21.4104V16.8807C18.1732 16.1971 18.7293 15.641 19.4127 15.641H20.6524L20.6525 22.6502H19.4129C18.7293 22.6501 18.1732 22.094 18.1732 21.4104ZM22.7033 23.6756L22.7031 13.3757H23.9415C25.7558 13.3757 27.232 11.8996 27.232 10.0853V8.8457H38.7709V10.0852C38.7709 11.8996 40.2469 13.3756 42.0612 13.3756H43.3017V23.6754C43.3017 29.3545 38.6815 33.9747 33.0024 33.9747C27.3236 33.9749 22.7033 29.3546 22.7033 23.6756ZM27.2328 34.5922C28.956 35.5065 30.9197 36.0257 33.0026 36.0257C35.0836 36.0257 37.0456 35.5075 38.7676 34.5946V38.5045H27.2328V34.5922ZM9.35119 47.0519C9.35311 47.0477 9.35475 47.0431 9.35653 47.0389C9.8725 45.749 10.6405 44.656 11.5954 43.8201C11.592 43.8997 11.5894 43.9794 11.5894 44.0597V56.6243H5.37076L9.35119 47.0519ZM8.19195 65.577V66.7096C8.19195 67.1475 8.27863 67.5653 8.43449 67.9477C6.89613 67.9469 5.55205 67.9459 5.38416 67.9447C4.34975 67.8932 3.42949 67.3559 2.85746 66.4686C2.26684 65.5524 2.15377 64.4042 2.55477 63.3962L4.51791 58.675H11.5894V63.419H10.3498C9.15992 63.4192 8.19195 64.3871 8.19195 65.577ZM56.6439 47.039C56.6456 47.0434 56.6473 47.0477 56.6492 47.052L60.6298 56.6245H54.4097V44.0599C54.4097 43.9793 54.407 43.8992 54.4036 43.8192C55.3592 44.6551 56.1276 45.7484 56.6439 47.039ZM63.1431 66.4687C62.5709 67.356 61.6505 67.8934 60.6164 67.9448C60.4487 67.9461 59.1038 67.947 57.5647 67.9479C57.7206 67.5654 57.8073 67.1476 57.8073 66.7097V65.5771C57.8073 64.3873 56.8394 63.4193 55.6495 63.4193H54.4099V58.6753H61.4827L63.446 63.3966C63.8466 64.4045 63.7337 65.5525 63.1431 66.4687Z" fill="#F2473A"/>
<path d="M29.709 53.1197C29.709 54.9341 31.185 56.41 32.9993 56.41C34.8135 56.41 36.2895 54.934 36.2895 53.1197C36.2895 51.3055 34.8135 49.8295 32.9993 49.8295C31.185 49.8295 29.709 51.3055 29.709 53.1197ZM34.2387 53.1197C34.2387 53.8032 33.6827 54.3592 32.9993 54.3592C32.3158 54.3592 31.7598 53.8032 31.7598 53.1197C31.7598 52.4363 32.3158 51.8802 32.9993 51.8802C33.6827 51.8802 34.2387 52.4363 34.2387 53.1197Z" fill="#F2473A"/>
</svg>
