<svg width="20" height="21" viewBox="0 0 20 21" fill="none" xmlns="http://www.w3.org/2000/svg">
<path d="M19.15 5.13652C18.6075 4.17152 18.0188 3.99402 16.82 3.92652C15.6225 3.84527 12.6112 3.81152 10.0025 3.81152C7.38875 3.81152 4.37625 3.84527 3.18 3.92527C1.98375 3.99402 1.39375 4.17027 0.84625 5.13652C0.2875 6.10027 0 7.76027 0 10.6828C0 10.6853 0 10.6865 0 10.6865C0 10.689 0 10.6903 0 10.6903V10.6928C0 13.6028 0.2875 15.2753 0.84625 16.229C1.39375 17.194 1.9825 17.369 3.17875 17.4503C4.37625 17.5203 7.38875 17.5615 10.0025 17.5615C12.6112 17.5615 15.6225 17.5203 16.8212 17.4515C18.02 17.3703 18.6087 17.1953 19.1513 16.2303C19.715 15.2765 20 13.604 20 10.694C20 10.694 20 10.6903 20 10.6878C20 10.6878 20 10.6853 20 10.684C20 7.76027 19.715 6.10027 19.15 5.13652Z" fill="#F2473A"/>
<path d="M7.5 14.4365V6.93652L13.75 10.6865L7.5 14.4365Z" fill="#F2F2F2"/>
</svg>
