<?xml version="1.0" standalone="no"?>
<!DOCTYPE svg PUBLIC "-//W3C//DTD SVG 20010904//EN"
 "http://www.w3.org/TR/2001/REC-SVG-20010904/DTD/svg10.dtd">
<svg version="1.0" xmlns="http://www.w3.org/2000/svg"
 width="672.000000pt" height="672.000000pt" viewBox="0 0 672.000000 672.000000"
 preserveAspectRatio="xMidYMid meet">
<metadata>
Created by potrace 1.14, written by Peter Selinger 2001-2017
</metadata>
<g transform="translate(0.000000,672.000000) scale(0.100000,-0.100000)"
fill="#000000" stroke="none">
<path d="M4087 6504 c-1 -1 -36 -5 -77 -8 -180 -16 -351 -59 -495 -125 l-59
-27 63 -38 c63 -38 179 -128 235 -181 l29 -27 71 16 c86 20 98 22 167 31 57 7
253 8 304 1 17 -2 50 -7 75 -10 167 -23 351 -81 512 -161 91 -46 106 -51 103
-34 -2 11 3 42 12 70 26 81 100 145 208 183 16 6 10 12 -35 39 -30 17 -57 32
-60 33 -3 0 -44 19 -91 42 -81 38 -292 115 -349 126 -14 3 -43 10 -65 16 -22
6 -53 13 -70 15 -16 2 -48 7 -70 11 -101 17 -189 25 -308 27 -54 1 -99 2 -100
1z"/>
<path d="M2669 6476 c-2 -2 -63 -6 -135 -10 -72 -3 -137 -8 -145 -10 -8 -3
-32 -8 -54 -10 -189 -24 -418 -96 -627 -198 -122 -60 -137 -74 -91 -82 28 -6
91 -47 126 -82 35 -35 66 -101 69 -148 2 -20 4 -36 5 -36 1 0 46 23 101 50 55
28 106 50 114 50 8 0 19 5 26 12 7 7 12 8 12 4 0 -5 6 -4 13 2 26 21 235 74
347 88 107 14 270 18 340 10 19 -3 56 -7 82 -10 26 -3 56 -10 66 -15 11 -6 22
-8 24 -5 9 8 178 -54 246 -91 179 -98 350 -272 515 -522 26 -40 47 -77 47 -82
0 -5 4 -11 8 -13 7 -3 59 -90 129 -218 88 -159 178 -354 235 -505 69 -181 80
-212 94 -255 8 -25 19 -54 24 -65 12 -26 130 -374 135 -398 2 -9 13 -45 24
-80 30 -91 88 -285 102 -337 6 -25 13 -52 16 -60 2 -8 4 -16 4 -17 0 -2 5 -17
10 -35 11 -35 87 -329 94 -363 3 -11 20 -90 39 -175 19 -85 37 -168 40 -185 3
-16 8 -41 11 -55 11 -48 35 -175 39 -205 2 -16 7 -46 11 -65 4 -19 9 -46 10
-60 2 -14 9 -56 15 -95 7 -38 13 -83 15 -100 2 -16 5 -43 8 -60 3 -16 8 -48
11 -70 3 -22 8 -57 11 -79 3 -21 8 -62 10 -91 3 -28 8 -62 10 -75 3 -14 7 -56
11 -95 3 -38 8 -79 10 -90 2 -11 6 -45 9 -75 11 -119 16 -166 20 -190 2 -14 7
-61 11 -105 8 -96 10 -120 18 -205 3 -36 8 -92 11 -125 3 -33 8 -85 10 -115 9
-92 15 -152 20 -215 3 -33 7 -76 10 -95 3 -19 7 -69 10 -110 3 -41 7 -84 9
-95 3 -11 5 -40 5 -63 l1 -44 93 6 c202 13 266 18 284 21 10 2 21 4 25 4 4 1
5 11 2 24 -2 12 -6 49 -9 82 -2 33 -6 80 -9 105 -7 60 -14 140 -21 220 -6 69
-10 117 -20 215 -3 33 -8 85 -10 115 -3 30 -8 78 -10 105 -3 28 -8 77 -10 110
-3 33 -7 76 -9 95 -2 19 -7 67 -10 105 -4 39 -9 88 -11 110 -3 22 -7 63 -10
90 -6 52 -13 112 -20 180 -5 56 -15 135 -20 165 -2 14 -7 48 -10 75 -6 57 -11
94 -19 147 -3 21 -8 54 -11 73 -15 102 -27 180 -41 255 -3 19 -8 46 -10 60
-10 61 -22 125 -31 165 -2 11 -7 34 -10 50 -16 92 -58 285 -98 450 -39 159
-37 151 -87 335 -22 80 -41 152 -43 160 -2 8 -11 38 -20 65 -8 28 -15 51 -15
53 0 1 -1 4 -1 7 -1 3 -2 8 -3 13 -1 4 -17 54 -35 112 -18 58 -34 110 -36 115
-1 6 -5 17 -8 25 -7 18 -78 230 -81 245 -2 6 -6 17 -9 25 -3 8 -24 67 -45 130
-56 162 -143 393 -194 510 -31 74 -179 372 -219 440 -56 98 -132 223 -179 294
-25 37 -49 76 -55 85 -5 9 -12 18 -15 21 -3 3 -34 41 -68 85 -76 96 -185 210
-267 278 -132 110 -335 222 -475 262 -65 19 -171 45 -200 49 -19 3 -45 8 -58
10 -13 3 -67 8 -120 12 -53 3 -100 8 -103 10 -3 2 -8 2 -10 0z"/>
<path d="M5247 6145 c-55 -14 -128 -71 -150 -118 -25 -52 -27 -115 -5 -167 23
-54 112 -139 189 -181 59 -32 74 -52 119 -169 36 -91 69 -144 108 -171 64 -46
154 -63 247 -46 48 8 64 17 70 40 21 79 34 105 75 147 31 32 62 53 98 64 52
17 52 18 52 59 0 64 -16 109 -53 147 -38 41 -70 58 -192 101 -113 41 -129 51
-168 108 -36 53 -72 89 -142 141 -72 53 -156 68 -248 45z"/>
<path d="M1411 6118 c-19 -5 -54 -23 -77 -39 -51 -35 -144 -124 -144 -138 0
-31 -57 -72 -147 -107 -53 -21 -102 -37 -110 -37 -7 0 -13 -4 -13 -8 0 -4 -11
-10 -25 -13 -36 -9 -99 -78 -113 -124 -7 -21 -12 -56 -12 -76 0 -31 4 -38 27
-47 117 -44 190 -123 197 -212 2 -28 7 -33 47 -44 147 -43 289 11 347 132 16
33 35 78 42 100 22 71 59 119 114 148 58 31 173 138 187 175 41 107 -6 218
-115 274 -46 23 -150 32 -205 16z"/>
<path d="M3000 5992 c0 -4 -17 -26 -38 -49 -45 -50 -78 -92 -115 -146 -15 -23
-31 -44 -35 -47 -4 -3 -11 -13 -17 -22 -5 -10 -40 -64 -76 -122 -37 -57 -70
-113 -74 -125 -3 -11 -11 -21 -16 -21 -5 0 -9 -4 -9 -9 0 -4 -22 -46 -48 -92
-116 -202 -253 -511 -361 -814 -18 -49 -38 -103 -44 -120 -7 -16 -12 -32 -12
-35 -1 -3 -9 -22 -18 -44 -9 -21 -17 -42 -17 -47 0 -4 -23 -74 -51 -156 -28
-81 -52 -155 -54 -163 -2 -8 -18 -60 -35 -115 -58 -186 -180 -620 -195 -694
-2 -9 -20 -88 -40 -176 -20 -88 -39 -169 -41 -180 -6 -34 -22 -109 -28 -135
-3 -14 -8 -38 -10 -55 -3 -16 -16 -88 -29 -160 -14 -71 -28 -150 -31 -175 -3
-25 -8 -56 -11 -70 -3 -14 -8 -42 -10 -64 -2 -21 -7 -46 -9 -55 -3 -9 -8 -45
-11 -81 -4 -36 -8 -67 -10 -70 -2 -3 -6 -32 -9 -65 -4 -33 -11 -89 -16 -125
-5 -36 -11 -90 -15 -120 -10 -97 -16 -154 -20 -180 -2 -14 -7 -56 -10 -95 -4
-38 -8 -81 -10 -95 -1 -14 -5 -52 -9 -85 -11 -101 -15 -147 -21 -215 -3 -36
-8 -83 -10 -105 -7 -72 -14 -139 -21 -210 -4 -38 -8 -83 -10 -100 -2 -16 -6
-57 -9 -90 -3 -33 -8 -73 -10 -90 -2 -16 -6 -67 -10 -112 l-7 -83 33 -1 c19 0
50 -2 69 -4 19 -2 71 -6 115 -9 44 -4 104 -8 133 -11 51 -4 52 -3 53 23 2 35
5 64 13 142 4 36 9 83 11 105 3 22 7 60 9 85 3 25 8 74 11 110 4 36 8 83 11
105 2 22 6 68 9 103 3 34 7 77 10 95 3 18 7 61 10 97 3 36 7 81 9 100 2 19 7
64 10 100 4 36 8 81 10 100 5 38 14 118 22 190 3 25 7 56 9 70 3 14 7 54 10
90 4 36 8 76 10 90 4 24 7 52 21 153 3 23 10 71 15 107 16 101 17 102 23 155
4 28 10 64 13 80 3 17 6 37 8 45 2 19 16 99 21 125 3 11 7 36 10 55 3 19 7 43
10 52 6 20 11 44 18 94 4 22 8 46 11 54 2 8 6 27 9 43 3 15 7 35 10 45 3 9 7
28 10 42 2 14 14 68 27 120 12 52 23 100 24 105 1 6 3 13 5 18 3 8 3 7 15 62
10 47 12 54 15 58 1 1 3 9 5 17 1 8 17 69 34 135 18 66 34 127 36 135 2 8 11
40 20 70 9 30 17 60 19 65 1 6 13 44 26 85 13 41 24 80 26 85 1 6 26 82 55
170 29 88 54 165 55 170 3 16 133 378 143 400 5 11 30 75 55 143 143 382 393
828 604 1079 l60 71 -26 24 c-15 13 -43 34 -62 48 -19 13 -37 27 -40 30 -3 3
-38 23 -78 44 -76 39 -132 60 -132 48z"/>
</g>
</svg>
